<?xml version="1.0" encoding="UTF-8" standalone="no"?>
<!DOCTYPE svg PUBLIC "-//W3C//DTD SVG 1.1//EN" "http://www.w3.org/Graphics/SVG/1.1/DTD/svg11.dtd">
<svg width="100%" height="100%" viewBox="0 0 500 500" version="1.1" xmlns="http://www.w3.org/2000/svg" xmlns:xlink="http://www.w3.org/1999/xlink" xml:space="preserve" xmlns:serif="http://www.serif.com/" style="fill-rule:evenodd;clip-rule:evenodd;stroke-linejoin:round;stroke-miterlimit:2;">
    <g id="freepik--background-complete--inject-30">
        <path d="M113.05,168.25L114.67,171.52L118.29,172.05L115.67,174.6L116.29,178.2L113.05,176.5L109.82,178.2L110.44,174.6L107.82,172.05L111.44,171.52L113.05,168.25Z" style="fill:rgb(235,235,235);fill-rule:nonzero;"/>
        <path d="M436.7,322.48L438.32,325.76L441.94,326.29L439.32,328.83L439.94,332.44L436.7,330.74L433.47,332.44L434.09,328.83L431.47,326.29L435.09,325.76L436.7,322.48Z" style="fill:rgb(245,245,245);fill-rule:nonzero;"/>
        <path d="M372.6,417.57L374.22,420.84L377.83,421.37L375.21,423.92L375.83,427.52L372.6,425.82L369.37,427.52L369.98,423.92L367.37,421.37L370.98,420.84L372.6,417.57Z" style="fill:rgb(245,245,245);fill-rule:nonzero;"/>
        <path d="M225.94,110.15L226.54,111.37L227.89,111.57C228.088,111.596 228.238,111.767 228.238,111.967C228.238,112.078 228.192,112.184 228.11,112.26L227.11,113.21L227.34,114.55C227.343,114.571 227.345,114.593 227.345,114.614C227.345,114.839 227.16,115.024 226.935,115.024C226.871,115.024 226.807,115.009 226.75,114.98L225.55,114.34L224.35,114.98C224.293,115.009 224.229,115.024 224.165,115.024C223.94,115.024 223.755,114.839 223.755,114.614C223.755,114.593 223.757,114.571 223.76,114.55L223.98,113.21L222.98,112.26C222.899,112.184 222.853,112.078 222.853,111.968C222.853,111.764 223.008,111.592 223.21,111.57L224.55,111.37L225.15,110.15C225.199,109.973 225.361,109.85 225.545,109.85C225.729,109.85 225.891,109.973 225.94,110.15Z" style="fill:rgb(235,235,235);fill-rule:nonzero;"/>
        <path d="M60.78,402L61.38,403.21L62.72,403.41C62.922,403.438 63.074,403.612 63.074,403.816C63.074,403.927 63.029,404.033 62.95,404.11L61.95,405.05L62.18,406.39C62.183,406.411 62.185,406.433 62.185,406.454C62.185,406.679 62,406.864 61.775,406.864C61.711,406.864 61.647,406.849 61.59,406.82L60.39,406.19L59.19,406.82C59.133,406.849 59.069,406.864 59.005,406.864C58.78,406.864 58.595,406.679 58.595,406.454C58.595,406.433 58.597,406.411 58.6,406.39L58.83,405.05L57.83,404.11C57.75,404.033 57.705,403.926 57.705,403.815C57.705,403.614 57.852,403.442 58.05,403.41L59.39,403.21L60,402C60.055,401.831 60.213,401.716 60.39,401.716C60.567,401.716 60.725,401.831 60.78,402Z" style="fill:rgb(245,245,245);fill-rule:nonzero;"/>
        <path d="M87.75,97.3L88.35,98.52L89.7,98.71C89.898,98.742 90.045,98.914 90.045,99.115C90.045,99.226 90,99.333 89.92,99.41L88.92,100.41L89.15,101.74C89.156,101.767 89.159,101.795 89.159,101.823C89.159,102.042 88.978,102.223 88.759,102.223C88.689,102.223 88.62,102.205 88.56,102.17L87.36,101.54L86.16,102.17C86.1,102.205 86.031,102.223 85.961,102.223C85.742,102.223 85.561,102.042 85.561,101.823C85.561,101.795 85.564,101.767 85.57,101.74L85.79,100.41L84.79,99.41C84.711,99.333 84.666,99.227 84.666,99.116C84.666,98.912 84.818,98.738 85.02,98.71L86.36,98.52L87,97.3C87.066,97.152 87.213,97.056 87.375,97.056C87.537,97.056 87.684,97.152 87.75,97.3Z" style="fill:rgb(235,235,235);fill-rule:nonzero;"/>
        <path d="M86.13,338.32C86.13,338.323 86.13,338.327 86.13,338.33C86.13,339.06 85.53,339.66 84.8,339.66C84.07,339.66 83.47,339.06 83.47,338.33C83.47,337.6 84.07,337 84.8,337C85.526,337 86.125,337.594 86.13,338.32Z" style="fill:rgb(235,235,235);fill-rule:nonzero;"/>
        <path d="M275.67,171.89L275.67,171.9C275.67,172.63 275.07,173.23 274.34,173.23C273.61,173.23 273.01,172.63 273.01,171.9C273.01,171.17 273.61,170.57 274.34,170.57C274.343,170.57 274.347,170.57 274.35,170.57C275.074,170.57 275.67,171.166 275.67,171.89Z" style="fill:rgb(235,235,235);fill-rule:nonzero;"/>
        <path d="M206.71,98.4C206.71,99.13 206.11,99.73 205.38,99.73C204.65,99.73 204.05,99.13 204.05,98.4C204.05,97.67 204.65,97.07 205.38,97.07C206.108,97.075 206.705,97.672 206.71,98.4Z" style="fill:rgb(245,245,245);fill-rule:nonzero;"/>
        <g transform="matrix(0.973259,-0.22971,0.22971,0.973259,-89.89,58.7)">
            <circle cx="207.14" cy="415.38" r="7.35" style="fill:rgb(240,240,240);"/>
        </g>
        <path d="M204.6,411.09C203.095,411.087 201.627,411.563 200.41,412.45C200.007,413.375 199.799,414.374 199.799,415.383C199.799,419.41 203.112,422.723 207.139,422.723C208.467,422.723 209.77,422.363 210.91,421.68C212.05,420.997 210.91,421.68 210.91,421.68C211.476,420.633 211.773,419.461 211.773,418.27C211.773,414.337 208.536,411.1 204.603,411.1C204.602,411.1 204.601,411.1 204.6,411.1L204.6,411.09Z" style="fill:rgb(230,230,230);fill-rule:nonzero;"/>
    </g>
    <g id="freepik--404--inject-30">
        <path d="M147.68,287.64L86.83,287.64L86.83,260.17L147.68,187.83L176.8,187.83L176.8,261.73L191.89,261.73L191.89,287.64L176.8,287.64L176.8,310.12L147.68,310.12L147.68,287.64ZM147.68,261.73L147.68,223.89L115.52,261.73L147.68,261.73Z" style="fill:rgb(114,142,39);fill-rule:nonzero;"/>
        <path d="M202.3,249.51C202.3,226.65 206.413,210.65 214.64,201.51C222.867,192.37 235.403,187.803 252.25,187.81C260.337,187.81 266.98,188.81 272.18,190.81C276.904,192.512 281.229,195.163 284.89,198.6C287.976,201.546 290.589,204.949 292.64,208.69C294.669,212.596 296.198,216.742 297.19,221.03C299.451,230.191 300.579,239.594 300.55,249.03C300.55,270.843 296.86,286.807 289.48,296.92C282.1,307.033 269.39,312.093 251.35,312.1C241.23,312.1 233.053,310.487 226.82,307.26C220.537,303.981 215.244,299.081 211.49,293.07C208.59,288.643 206.333,282.587 204.72,274.9C203.045,266.542 202.234,258.034 202.3,249.51ZM235.44,249.59C235.44,264.923 236.79,275.38 239.49,280.96C242.19,286.54 246.113,289.343 251.26,289.37C254.558,289.407 257.736,288.12 260.08,285.8C262.573,283.42 264.407,279.66 265.58,274.52C266.753,269.38 267.34,261.38 267.34,250.52C267.34,234.56 265.987,223.83 263.28,218.33C260.573,212.83 256.513,210.083 251.1,210.09C245.58,210.09 241.58,212.893 239.1,218.5C236.62,224.107 235.4,234.47 235.44,249.59Z" style="fill:rgb(114,142,39);fill-rule:nonzero;"/>
        <path d="M371.74,287.64L310.89,287.64L310.89,260.17L371.74,187.83L400.86,187.83L400.86,261.73L416,261.73L416,287.64L400.86,287.64L400.86,310.12L371.74,310.12L371.74,287.64ZM371.74,261.73L371.74,223.89L339.59,261.73L371.74,261.73Z" style="fill:rgb(114,142,39);fill-rule:nonzero;"/>
    </g>
    <g id="freepik--Planets--inject-30">
        <g opacity="0.3">
            <path d="M201,145.62C201,146.646 200.156,147.49 199.13,147.49C198.104,147.49 197.26,146.646 197.26,145.62C197.26,144.594 198.104,143.75 199.13,143.75L199.14,143.75C200.16,143.75 201,144.59 201,145.61C201,145.613 201,145.617 201,145.62Z" style="fill:rgb(114,142,39);fill-rule:nonzero;"/>
            <circle cx="72.97" cy="216.13" r="1.32" style="fill:rgb(114,142,39);"/>
            <circle cx="291.05" cy="408.33" r="1.89" style="fill:rgb(114,142,39);"/>
            <circle cx="336.5" cy="332" r="1.32" style="fill:rgb(114,142,39);"/>
            <path d="M424.17,95.62C424.17,96.344 423.574,96.94 422.85,96.94C422.126,96.94 421.53,96.344 421.53,95.62C421.53,94.896 422.126,94.3 422.85,94.3C423.574,94.3 424.17,94.896 424.17,95.62Z" style="fill:rgb(114,142,39);fill-rule:nonzero;"/>
            <path d="M172.75,69C172.75,69.724 172.154,70.32 171.43,70.32C170.706,70.32 170.11,69.724 170.11,69C170.11,68.276 170.706,67.68 171.43,67.68C172.152,67.685 172.745,68.278 172.75,69Z" style="fill:rgb(114,142,39);fill-rule:nonzero;"/>
            <circle cx="277.7" cy="136.94" r="1.32" style="fill:rgb(114,142,39);"/>
        </g>
        <circle cx="141.23" cy="116.36" r="21.91" style="fill:rgb(114,142,39);"/>
        <circle cx="141.23" cy="116.36" r="21.91" style="fill:white;fill-opacity:0.7;"/>
        <path d="M133.68,99.83C130.696,99.821 127.742,100.423 125,101.6C121.329,105.634 119.293,110.897 119.293,116.352C119.293,128.377 129.188,138.272 141.213,138.272C144.19,138.272 147.135,137.665 149.87,136.49C153.529,132.458 155.557,127.204 155.557,121.76C155.557,109.736 145.664,99.842 133.64,99.84L133.68,99.83Z" style="fill:rgb(114,142,39);fill-opacity:0.2;fill-rule:nonzero;"/>
        <path d="M131.5,105.62C131.5,106.717 130.597,107.62 129.5,107.62C128.403,107.62 127.5,106.717 127.5,105.62C127.5,104.523 128.403,103.62 129.5,103.62C130.597,103.62 131.5,104.523 131.5,105.62Z" style="fill:rgb(114,142,39);fill-opacity:0.2;fill-rule:nonzero;"/>
        <path d="M155.06,103.62C155.06,104.717 154.157,105.62 153.06,105.62C151.963,105.62 151.06,104.717 151.06,103.62C151.06,102.523 151.963,101.62 153.06,101.62C154.157,101.62 155.06,102.523 155.06,103.62Z" style="fill:rgb(114,142,39);fill-opacity:0.2;fill-rule:nonzero;"/>
        <path d="M151.06,117.9C151.06,119.699 149.579,121.18 147.78,121.18C145.981,121.18 144.5,119.699 144.5,117.9C144.5,116.101 145.981,114.62 147.78,114.62C149.579,114.62 151.06,116.101 151.06,117.9Z" style="fill:rgb(114,142,39);fill-opacity:0.2;fill-rule:nonzero;"/>
        <path d="M140.64,127.25C140.64,129.653 138.663,131.63 136.26,131.63C133.857,131.63 131.88,129.653 131.88,127.25C131.88,124.847 133.857,122.87 136.26,122.87C138.663,122.87 140.64,124.847 140.64,127.25Z" style="fill:rgb(114,142,39);fill-opacity:0.2;fill-rule:nonzero;"/>
        <g transform="matrix(0.22971,-0.973259,0.973259,0.22971,-71.8,661.78)">
            <circle cx="382.2" cy="376.25" r="19.23" style="fill:rgb(114,142,39);"/>
        </g>
        <g transform="matrix(0.22971,-0.973259,0.973259,0.22971,-71.8,661.78)">
            <circle cx="382.2" cy="376.25" r="19.23" style="fill:white;fill-opacity:0.3;"/>
        </g>
        <path d="M394.33,361.34C392.529,360.796 390.658,360.52 388.776,360.52C378.233,360.52 369.556,369.196 369.556,379.74C369.556,385.526 372.169,391.013 376.66,394.66C378.453,395.205 380.316,395.481 382.19,395.48C392.738,395.478 401.416,386.798 401.416,376.25C401.416,370.471 398.811,364.99 394.33,361.34Z" style="fill:rgb(114,142,39);fill-opacity:0.4;fill-rule:nonzero;"/>
        <path d="M363.83,382C343.3,391.66 358.61,399.11 387.54,388.71C414.33,379.08 424.54,366.94 400.54,370.71C401.83,375.76 368.28,388.83 363.83,382Z" style="fill:rgb(114,142,39);fill-rule:nonzero;"/>
    </g>
    <g id="freepik--Astronaut--inject-30">
        <path d="M394.1,187.83C367.21,206 332.4,230 322.79,287.64L320.74,287.64C330.09,230.64 363.63,206.07 390.53,187.83L394.1,187.83Z" style="fill-opacity:0.2;fill-rule:nonzero;"/>
        <path d="M255,368.27C238,368.27 221.19,360.6 213,348.08C207.95,340.34 202.08,324.13 219.56,302.5L221.11,303.76C208.75,319.06 206.47,334.41 214.68,346.99C224.68,362.29 248.27,369.99 268.41,364.51C289.04,358.9 301.56,340.96 302.77,315.29C306.9,227.48 353.55,200.43 387.61,180.68C408.78,168.41 424.07,159.55 420.71,140.84C420.24,138.25 419.21,136.46 417.54,135.36C413.19,132.49 404.69,134.48 394.85,136.77C375.54,141.27 349.1,147.43 333.35,120.64L335.08,119.64C350.08,145.17 374.65,139.44 394.4,134.84C404.69,132.45 413.57,130.38 418.64,133.71C420.79,135.12 422.11,137.35 422.64,140.51C426.25,160.59 409.64,170.23 388.59,182.43C354.92,201.95 308.82,228.68 304.74,315.43C303.48,342.03 290.42,360.64 268.9,366.49C264.366,367.697 259.692,368.296 255,368.27Z" style="fill:rgb(114,142,39);fill-rule:nonzero;"/>
        <path d="M255,368.27C238,368.27 221.19,360.6 213,348.08C207.95,340.34 202.08,324.13 219.56,302.5L221.11,303.76C208.75,319.06 206.47,334.41 214.68,346.99C224.68,362.29 248.27,369.99 268.41,364.51C289.04,358.9 301.56,340.96 302.77,315.29C306.9,227.48 353.55,200.43 387.61,180.68C408.78,168.41 424.07,159.55 420.71,140.84C420.24,138.25 419.21,136.46 417.54,135.36C413.19,132.49 404.69,134.48 394.85,136.77C375.54,141.27 349.1,147.43 333.35,120.64L335.08,119.64C350.08,145.17 374.65,139.44 394.4,134.84C404.69,132.45 413.57,130.38 418.64,133.71C420.79,135.12 422.11,137.35 422.64,140.51C426.25,160.59 409.64,170.23 388.59,182.43C354.92,201.95 308.82,228.68 304.74,315.43C303.48,342.03 290.42,360.64 268.9,366.49C264.366,367.697 259.692,368.296 255,368.27Z" style="fill:white;fill-opacity:0.2;fill-rule:nonzero;"/>
        <path d="M312.76,97C317.368,97.027 321.945,97.745 326.34,99.13C330.735,100.515 337.34,117.9 338.64,122.2C338.18,126.44 331.03,133.39 331.03,133.39L312.76,97Z" style="fill:rgb(114,142,39);fill-rule:nonzero;"/>
        <path d="M312.76,97C317.368,97.027 321.945,97.745 326.34,99.13C330.735,100.515 337.34,117.9 338.64,122.2C338.18,126.44 331.03,133.39 331.03,133.39L312.76,97Z" style="fill:white;fill-opacity:0.3;fill-rule:nonzero;"/>
        <path d="M345.34,188.13C341.104,182.95 337.241,177.477 333.78,171.75C332.94,170.303 332.143,168.83 331.39,167.33C330.96,166.48 330.55,165.63 330.15,164.77C329.625,163.933 329.218,163.028 328.94,162.08C327.74,149.41 332.08,140.08 327.94,129.91L311.46,136.35C311.46,136.35 312.86,154.47 316.06,165.35C318.06,172.08 322.54,177.9 326.87,183.29C328.22,184.97 329.52,186.7 330.87,188.39C332.22,190.08 333.58,191.45 334.87,193.04C336.82,195.45 337.46,197.76 335.99,200.6L335.74,201.05C335.32,201.79 337.28,202.63 338.52,201.05C340.52,198.47 340.24,198.63 341.98,196.43C343.04,195.1 344.25,193.65 345.3,192.43C346.341,191.197 346.358,189.382 345.34,188.13Z" style="fill:rgb(114,142,39);fill-rule:nonzero;"/>
        <path d="M345.34,188.13C341.104,182.95 337.241,177.477 333.78,171.75C332.94,170.303 332.143,168.83 331.39,167.33C330.96,166.48 330.55,165.63 330.15,164.77C329.625,163.933 329.218,163.028 328.94,162.08C327.74,149.41 332.08,140.08 327.94,129.91L311.46,136.35C311.46,136.35 312.86,154.47 316.06,165.35C318.06,172.08 322.54,177.9 326.87,183.29C328.22,184.97 329.52,186.7 330.87,188.39C332.22,190.08 333.58,191.45 334.87,193.04C336.82,195.45 337.46,197.76 335.99,200.6L335.74,201.05C335.32,201.79 337.28,202.63 338.52,201.05C340.52,198.47 340.24,198.63 341.98,196.43C343.04,195.1 344.25,193.65 345.3,192.43C346.341,191.197 346.358,189.382 345.34,188.13Z" style="fill:white;fill-opacity:0.7;fill-rule:nonzero;"/>
        <path d="M341.31,182.92C338.695,185.723 335.792,188.244 332.65,190.44C333.08,190.92 333.5,191.44 333.93,191.9C337.076,189.775 339.933,187.25 342.43,184.39L341.31,182.92Z" style="fill:rgb(114,142,39);fill-opacity:0.3;fill-rule:nonzero;"/>
        <path d="M345.34,188.13L345.22,187.99C344.451,188.873 344.003,189.99 343.95,191.16C343.886,191.962 344.016,192.769 344.33,193.51L345.28,192.38C346.3,191.161 346.325,189.378 345.34,188.13Z" style="fill:rgb(114,142,39);fill-opacity:0.3;fill-rule:nonzero;"/>
        <path d="M308.84,109C307.053,111.675 304.91,114.094 302.47,116.19C301.117,117.356 299.634,118.363 298.05,119.19C297.218,119.616 296.356,119.981 295.47,120.28L294.79,120.5L294.57,120.56L294.1,120.69C293.811,120.759 293.516,120.805 293.22,120.83C292.376,120.895 291.528,120.817 290.71,120.6C289.679,120.307 288.69,119.88 287.77,119.33C287.03,118.897 286.312,118.427 285.62,117.92C284.37,116.99 283.174,115.988 282.04,114.92C279.853,112.847 277.845,110.593 276.04,108.18C275.72,107.748 275.548,107.225 275.548,106.687C275.548,105.31 276.681,104.177 278.058,104.177C278.529,104.177 278.991,104.31 279.39,104.56L279.47,104.56C281.83,106.06 284.21,107.64 286.53,109.05C287.71,109.74 288.85,110.44 289.98,110.98C290.496,111.25 291.027,111.49 291.57,111.7C291.908,111.849 292.271,111.937 292.64,111.96C292.7,111.96 292.64,111.89 292.27,111.9C292.153,111.893 292.037,111.893 291.92,111.9L291.7,111.95L292.03,111.78C292.474,111.541 292.905,111.277 293.32,110.99C294.215,110.359 295.051,109.65 295.82,108.87C297.567,107.039 299.203,105.106 300.72,103.08C301.668,102.019 303.025,101.412 304.448,101.412C307.191,101.412 309.448,103.669 309.448,106.412C309.448,107.328 309.196,108.227 308.72,109.01L308.84,109Z" style="fill:rgb(114,142,39);fill-rule:nonzero;"/>
        <path d="M308.84,109C307.053,111.675 304.91,114.094 302.47,116.19C301.117,117.356 299.634,118.363 298.05,119.19C297.218,119.616 296.356,119.981 295.47,120.28L294.79,120.5L294.57,120.56L294.1,120.69C293.811,120.759 293.516,120.805 293.22,120.83C292.376,120.895 291.528,120.817 290.71,120.6C289.679,120.307 288.69,119.88 287.77,119.33C287.03,118.897 286.312,118.427 285.62,117.92C284.37,116.99 283.174,115.988 282.04,114.92C279.853,112.847 277.845,110.593 276.04,108.18C275.72,107.748 275.548,107.225 275.548,106.687C275.548,105.31 276.681,104.177 278.058,104.177C278.529,104.177 278.991,104.31 279.39,104.56L279.47,104.56C281.83,106.06 284.21,107.64 286.53,109.05C287.71,109.74 288.85,110.44 289.98,110.98C290.496,111.25 291.027,111.49 291.57,111.7C291.908,111.849 292.271,111.937 292.64,111.96C292.7,111.96 292.64,111.89 292.27,111.9C292.153,111.893 292.037,111.893 291.92,111.9L291.7,111.95L292.03,111.78C292.474,111.541 292.905,111.277 293.32,110.99C294.215,110.359 295.051,109.65 295.82,108.87C297.567,107.039 299.203,105.106 300.72,103.08C301.668,102.019 303.025,101.412 304.448,101.412C307.191,101.412 309.448,103.669 309.448,106.412C309.448,107.328 309.196,108.227 308.72,109.01L308.84,109Z" style="fill:white;fill-opacity:0.7;fill-rule:nonzero;"/>
        <path d="M272.29,102.42L273.46,104.42C273.46,104.42 274.35,107.04 276.14,107.52L281,105.95L280.75,105.54C280.13,104.6 280.2,102.77 280.41,101.25C280.62,99.73 279.84,99.68 279.26,100.06C278.849,100.533 278.56,101.099 278.42,101.71C278.181,101.38 277.917,101.069 277.63,100.78L276.15,99.3C275.51,98.674 274.482,98.648 273.81,99.24L272.61,100.31C272.026,100.85 271.892,101.731 272.29,102.42Z" style="fill:rgb(114,142,39);fill-rule:nonzero;"/>
        <path d="M272.29,102.42L273.46,104.42C273.46,104.42 274.35,107.04 276.14,107.52L281,105.95L280.75,105.54C280.13,104.6 280.2,102.77 280.41,101.25C280.62,99.73 279.84,99.68 279.26,100.06C278.849,100.533 278.56,101.099 278.42,101.71C278.181,101.38 277.917,101.069 277.63,100.78L276.15,99.3C275.51,98.674 274.482,98.648 273.81,99.24L272.61,100.31C272.026,100.85 271.892,101.731 272.29,102.42Z" style="fill:white;fill-opacity:0.7;fill-rule:nonzero;"/>
        <path d="M317.67,95.22C312.279,96.649 307.116,98.827 302.33,101.69C300.805,102.645 300.028,104.457 300.39,106.22C302.32,115.66 306.71,128.3 311.45,136.35L333.56,127.2C333.71,123.3 328.34,110.68 322.87,98.48C321.89,96.29 320,94.66 317.67,95.22Z" style="fill:rgb(114,142,39);fill-rule:nonzero;"/>
        <path d="M317.67,95.22C312.279,96.649 307.116,98.827 302.33,101.69C300.805,102.645 300.028,104.457 300.39,106.22C302.32,115.66 306.71,128.3 311.45,136.35L333.56,127.2C333.71,123.3 328.34,110.68 322.87,98.48C321.89,96.29 320,94.66 317.67,95.22Z" style="fill:white;fill-opacity:0.8;fill-rule:nonzero;"/>
        <path d="M326.3,106.21L321.91,104.74C322.91,107.31 326.44,110.56 328.91,112.47C328.11,110.47 327.22,108.37 326.3,106.21Z" style="fill:rgb(114,142,39);fill-opacity:0.3;fill-rule:nonzero;"/>
        <path d="M316.22,85.32C314.39,81.84 310.44,80.09 305.7,80.48C301.7,80.82 298.16,84.9 298.58,87.1C299,89.3 302.36,90.24 303,91L300.23,93C299.449,93.564 298.986,94.47 298.986,95.433C298.986,96.106 299.213,96.761 299.63,97.29C300.8,98.77 302.34,100.29 303.23,101.41C310.89,101.21 316.56,98.29 318.61,95.48C317.84,91.92 318,88.78 316.22,85.32Z" style="fill:rgb(114,142,39);fill-rule:nonzero;"/>
        <path d="M316.22,85.32C314.39,81.84 310.44,80.09 305.7,80.48C301.7,80.82 298.16,84.9 298.58,87.1C299,89.3 302.36,90.24 303,91L300.23,93C299.449,93.564 298.986,94.47 298.986,95.433C298.986,96.106 299.213,96.761 299.63,97.29C300.8,98.77 302.34,100.29 303.23,101.41C310.89,101.21 316.56,98.29 318.61,95.48C317.84,91.92 318,88.78 316.22,85.32Z" style="fill:white;fill-opacity:0.8;fill-rule:nonzero;"/>
        <path d="M312.46,87.48C312.802,88.357 312.977,89.289 312.977,90.23C312.977,94.383 309.56,97.8 305.407,97.8C301.254,97.8 297.837,94.383 297.837,90.23C297.837,87.12 299.754,84.313 302.65,83.18C306.52,81.672 310.946,83.612 312.46,87.48Z" style="fill:rgb(38,50,56);fill-rule:nonzero;"/>
        <path d="M377.39,177.6C377.28,174.31 377.13,174.6 377.04,171.83C376.98,170.13 376.97,168.24 376.96,166.61C376.953,165.02 375.819,163.642 374.26,163.33C372.94,163.06 371.61,162.81 370.26,162.53C368.53,162.16 366.82,161.76 365.13,161.27C363.81,160.89 362.51,160.47 361.22,160C359.93,159.53 358.48,159 357.14,158.38C355.56,157.71 354,156.99 352.46,156.24C350.73,155.42 349.02,154.56 347.31,153.69C340.73,142.8 340.59,135.62 333.53,127.2L318.37,134.06C318.37,134.06 329.51,153.82 337.09,162.2C341.46,167.02 348.31,169.2 354.42,170.78C358.83,171.91 363.3,172.78 367.77,173.61C369.51,173.93 371.4,174.05 372.9,175.09C374.009,175.941 374.771,177.168 375.04,178.54C375.107,178.82 375.167,179.1 375.22,179.38C375.41,180.22 377.46,179.58 377.39,177.6Z" style="fill:rgb(114,142,39);fill-rule:nonzero;"/>
        <path d="M377.39,177.6C377.28,174.31 377.13,174.6 377.04,171.83C376.98,170.13 376.97,168.24 376.96,166.61C376.953,165.02 375.819,163.642 374.26,163.33C372.94,163.06 371.61,162.81 370.26,162.53C368.53,162.16 366.82,161.76 365.13,161.27C363.81,160.89 362.51,160.47 361.22,160C359.93,159.53 358.48,159 357.14,158.38C355.56,157.71 354,156.99 352.46,156.24C350.73,155.42 349.02,154.56 347.31,153.69C340.73,142.8 340.59,135.62 333.53,127.2L318.37,134.06C318.37,134.06 329.51,153.82 337.09,162.2C341.46,167.02 348.31,169.2 354.42,170.78C358.83,171.91 363.3,172.78 367.77,173.61C369.51,173.93 371.4,174.05 372.9,175.09C374.009,175.941 374.771,177.168 375.04,178.54C375.107,178.82 375.167,179.1 375.22,179.38C375.41,180.22 377.46,179.58 377.39,177.6Z" style="fill:white;fill-opacity:0.8;fill-rule:nonzero;"/>
        <path d="M369.7,162.4C369.1,162.27 368.5,162.14 367.89,161.99C367.94,165.45 366.32,171.41 365.73,173.22L367.63,173.58C368.875,169.978 369.573,166.209 369.7,162.4Z" style="fill:rgb(114,142,39);fill-opacity:0.3;fill-rule:nonzero;"/>
        <path d="M377,166.61C376.994,165.023 375.865,163.646 374.31,163.33L373.31,163.14C373.471,164.276 374.053,165.312 374.94,166.04C375.511,166.568 376.195,166.958 376.94,167.18C377,167 377,166.8 377,166.61Z" style="fill:rgb(114,142,39);fill-opacity:0.3;fill-rule:nonzero;"/>
        <path d="M311.05,87.54C311.45,89.06 309.75,90.65 308.4,89.34C307.14,87.989 305.761,86.754 304.28,85.65C302.89,84.78 304.74,83.26 306.93,83.85C308.825,84.326 310.369,85.708 311.05,87.54Z" style="fill:white;fill-rule:nonzero;"/>
        <path d="M311.16,135.86C310.46,136.12 311.74,137.32 311.74,137.32C311.74,137.32 325.74,132.53 334.24,127.6C334.282,126.995 334.028,126.406 333.56,126.02C326.285,129.721 318.807,133.006 311.16,135.86Z" style="fill:rgb(114,142,39);fill-rule:nonzero;"/>
        <path d="M311.16,135.86C310.46,136.12 311.74,137.32 311.74,137.32C311.74,137.32 325.74,132.53 334.24,127.6C334.282,126.995 334.028,126.406 333.56,126.02C326.285,129.721 318.807,133.006 311.16,135.86Z" style="fill:white;fill-opacity:0.5;fill-rule:nonzero;"/>
        <path d="M321.46,94.56C324.22,95.96 326.81,97.43 329.46,99.06C330.75,99.88 332.03,100.71 333.3,101.61C334.57,102.51 335.83,103.43 337.1,104.47L337.57,104.86L338.16,105.4C338.512,105.715 338.845,106.048 339.16,106.4C339.48,106.75 339.75,107.09 340.01,107.4C340.27,107.71 340.55,108.08 340.78,108.4C341.712,109.686 342.573,111.021 343.36,112.4C344.91,115.074 346.247,117.866 347.36,120.75C347.467,121.034 347.522,121.336 347.522,121.64C347.522,123.023 346.385,124.16 345.002,124.16C344.309,124.16 343.646,123.874 343.17,123.37L343.12,123.31C341.12,121.18 339.19,118.94 337.25,116.85C335.31,114.76 333.34,112.64 331.71,111.71C329.44,110.3 326.91,108.89 324.4,107.51L316.84,103.31C315.205,102.444 314.179,100.74 314.179,98.89C314.179,96.146 316.436,93.889 319.18,93.889C319.996,93.889 320.799,94.088 321.52,94.47L321.46,94.56Z" style="fill:rgb(114,142,39);fill-rule:nonzero;"/>
        <path d="M321.46,94.56C324.22,95.96 326.81,97.43 329.46,99.06C330.75,99.88 332.03,100.71 333.3,101.61C334.57,102.51 335.83,103.43 337.1,104.47L337.57,104.86L338.16,105.4C338.512,105.715 338.845,106.048 339.16,106.4C339.48,106.75 339.75,107.09 340.01,107.4C340.27,107.71 340.55,108.08 340.78,108.4C341.712,109.686 342.573,111.021 343.36,112.4C344.91,115.074 346.247,117.866 347.36,120.75C347.467,121.034 347.522,121.336 347.522,121.64C347.522,123.023 346.385,124.16 345.002,124.16C344.309,124.16 343.646,123.874 343.17,123.37L343.12,123.31C341.12,121.18 339.19,118.94 337.25,116.85C335.31,114.76 333.34,112.64 331.71,111.71C329.44,110.3 326.91,108.89 324.4,107.51L316.84,103.31C315.205,102.444 314.179,100.74 314.179,98.89C314.179,96.146 316.436,93.889 319.18,93.889C319.996,93.889 320.799,94.088 321.52,94.47L321.46,94.56Z" style="fill:white;fill-opacity:0.8;fill-rule:nonzero;"/>
        <path d="M349.73,125.74L348.88,123.61C348.88,123.61 348.41,120.89 346.72,120.13L341.72,120.92L341.89,121.36C342.35,122.36 342,124.19 341.55,125.65C341.1,127.11 341.86,127.3 342.5,127.01C342.86,126.85 343.21,126.2 343.59,125.51C343.776,125.858 343.987,126.192 344.22,126.51L345.45,128.2C345.98,128.923 346.991,129.116 347.75,128.64L349.11,127.77C349.763,127.323 350.022,126.476 349.73,125.74Z" style="fill:rgb(114,142,39);fill-rule:nonzero;"/>
        <path d="M349.73,125.74L348.88,123.61C348.88,123.61 348.41,120.89 346.72,120.13L341.72,120.92L341.89,121.36C342.35,122.36 342,124.19 341.55,125.65C341.1,127.11 341.86,127.3 342.5,127.01C342.86,126.85 343.21,126.2 343.59,125.51C343.776,125.858 343.987,126.192 344.22,126.51L345.45,128.2C345.98,128.923 346.991,129.116 347.75,128.64L349.11,127.77C349.763,127.323 350.022,126.476 349.73,125.74Z" style="fill:white;fill-opacity:0.8;fill-rule:nonzero;"/>
        <path d="M317.24,106.06L316.02,106.16L308.53,124.24C308.939,124.269 309.351,124.236 309.75,124.14C310.149,124.044 319.51,120.5 322.46,119.14C320.48,115.05 317.24,106.06 317.24,106.06Z" style="fill:rgb(114,142,39);fill-opacity:0.3;fill-rule:nonzero;"/>
        <path d="M303.57,110.8C304.48,115.526 306.17,120.068 308.57,124.24C312.23,122.98 318.33,120.6 321.29,119.24C319.3,114.975 317.535,110.609 316,106.16C312.87,106.37 306,109 303.57,110.8Z" style="fill:white;fill-rule:nonzero;"/>
        <path d="M311,114.71C310.674,115.799 309.665,116.551 308.528,116.551C307.113,116.551 305.948,115.386 305.948,113.971C305.948,112.556 307.113,111.391 308.528,111.391C308.779,111.391 309.029,111.428 309.27,111.5C310.624,111.907 311.405,113.355 311,114.71Z" style="fill:rgb(114,142,39);fill-opacity:0.3;fill-rule:nonzero;"/>
        <path d="M312.91,111.27C312.821,111.653 312.476,111.927 312.082,111.927C311.616,111.927 311.232,111.543 311.232,111.077C311.232,110.61 311.616,110.227 312.082,110.227C312.173,110.227 312.264,110.241 312.35,110.27C312.768,110.404 313.014,110.844 312.91,111.27Z" style="fill:rgb(114,142,39);fill-opacity:0.6;fill-rule:nonzero;"/>
        <path d="M315.15,110.4C315.07,110.795 314.72,111.081 314.317,111.081C313.851,111.081 313.467,110.698 313.467,110.231C313.467,110.121 313.488,110.012 313.53,109.91C313.637,109.557 313.965,109.313 314.334,109.313C314.417,109.313 314.5,109.326 314.58,109.35C315.023,109.484 315.279,109.956 315.15,110.4Z" style="fill:rgb(114,142,39);fill-opacity:0.6;fill-rule:nonzero;"/>
        <path d="M318.29,118.19L309.04,121.84L308.49,120.02L317.73,116.37L318.29,118.19Z" style="fill:rgb(114,142,39);fill-opacity:0.5;fill-rule:nonzero;"/>
    </g>
    <g id="freepik--Rocket--inject-30">
        <path d="M267.26,257.17C267.239,262.993 266.676,268.801 265.58,274.52C264.4,279.66 262.567,283.42 260.08,285.8C257.741,288.122 254.565,289.409 251.27,289.37C246.13,289.37 242.207,286.567 239.5,280.96C239.024,279.953 238.62,278.914 238.29,277.85C232.574,282.76 227.251,288.109 222.37,293.85L217.06,300.11C219.918,303.006 223.215,305.433 226.83,307.3C233.057,310.52 241.23,312.133 251.35,312.14C253.13,312.14 254.85,312.09 256.52,311.99C262.643,302.931 267.709,293.201 271.62,282.99L286.47,244.27L267.26,257.17Z" style="fill-opacity:0.2;fill-rule:nonzero;"/>
        <path d="M133.39,310L150.89,327.5L199.89,281.33C183,274.88 150.16,293.19 133.39,310Z" style="fill:rgb(38,50,56);fill-rule:nonzero;"/>
        <path d="M194.42,371C188.83,365.4 176.92,353.5 176.92,353.5L223.09,304.5C229.5,321.35 211.19,354.22 194.42,371Z" style="fill:rgb(38,50,56);fill-rule:nonzero;"/>
        <path d="M261.4,260.7L280.49,223.89L243.68,243C231.857,249.132 220.939,256.872 211.24,266L148.49,325.07L179.32,355.9L238.39,293.15C247.522,283.448 255.266,272.528 261.4,260.7Z" style="fill:rgb(114,142,39);fill-rule:nonzero;"/>
        <path d="M261.4,260.7L280.49,223.89L243.68,243C231.857,249.132 220.939,256.872 211.24,266L148.49,325.07L179.32,355.9L238.39,293.15C247.522,283.448 255.266,272.528 261.4,260.7Z" style="fill:white;fill-opacity:0.6;fill-rule:nonzero;"/>
        <circle cx="222.2" cy="282.18" r="12.9" style="fill:white;"/>
        <circle cx="222.2" cy="282.18" r="8.29" style="fill:rgb(114,142,39);"/>
        <path d="M189.75,344.82L159.56,314.63L184.28,291.37L213.01,320.11L189.75,344.82Z" style="fill:rgb(114,142,39);fill-opacity:0.3;fill-rule:nonzero;"/>
        <path d="M140.22,337.62C117.62,339.45 110.13,353.92 107.57,373.15C106.27,382.96 105.69,392.89 97.46,398.63C96.702,399.145 96.247,400.004 96.247,400.921C96.247,402.441 97.497,403.691 99.017,403.691C99.041,403.691 99.066,403.691 99.09,403.69C129.43,402.74 143.58,387.89 145.36,381.69C144.893,384.931 144.057,388.108 142.87,391.16C142.737,391.489 142.668,391.841 142.668,392.197C142.668,393.711 143.914,394.957 145.428,394.957C145.937,394.957 146.436,394.816 146.87,394.55C155.38,389.22 166.06,379.4 166.77,363.47C160.51,354.6 140.22,337.62 140.22,337.62Z" style="fill:rgb(114,142,39);fill-rule:nonzero;"/>
        <path d="M140.22,337.62C117.62,339.45 110.13,353.92 107.57,373.15C106.27,382.96 105.69,392.89 97.46,398.63C96.702,399.145 96.247,400.004 96.247,400.921C96.247,402.441 97.497,403.691 99.017,403.691C99.041,403.691 99.066,403.691 99.09,403.69C129.43,402.74 143.58,387.89 145.36,381.69C144.893,384.931 144.057,388.108 142.87,391.16C142.737,391.489 142.668,391.841 142.668,392.197C142.668,393.711 143.914,394.957 145.428,394.957C145.937,394.957 146.436,394.816 146.87,394.55C155.38,389.22 166.06,379.4 166.77,363.47C160.51,354.6 140.22,337.62 140.22,337.62Z" style="fill:white;fill-opacity:0.2;fill-rule:nonzero;"/>
        <path d="M170.28,370.3L134.08,334.1L153.36,329.93L174.45,351.02L170.28,370.3Z" style="fill:rgb(114,142,39);fill-rule:nonzero;"/>
    </g>
</svg>
