<?xml version="1.0" encoding="UTF-8" standalone="no"?>
<!DOCTYPE svg PUBLIC "-//W3C//DTD SVG 1.1//EN" "http://www.w3.org/Graphics/SVG/1.1/DTD/svg11.dtd">
<svg width="100%" height="100%" viewBox="0 0 500 500" version="1.1" xmlns="http://www.w3.org/2000/svg" xmlns:xlink="http://www.w3.org/1999/xlink" xml:space="preserve" xmlns:serif="http://www.serif.com/" style="fill-rule:evenodd;clip-rule:evenodd;stroke-linejoin:round;stroke-miterlimit:2;">
    <g transform="matrix(1.09702,0,0,1.09702,-24.2547,-23.4087)">
        <g id="freepik--background-complete--inject-190">
            <rect x="0" y="382.4" width="500" height="0.25" style="fill:rgb(230,230,230);"/>
            <rect x="363.22" y="390" width="17.85" height="0.25" style="fill:rgb(230,230,230);"/>
            <rect x="391.89" y="389.88" width="43.57" height="0.25" style="fill:rgb(230,230,230);"/>
            <rect x="244.7" y="394.26" width="64.97" height="0.25" style="fill:rgb(230,230,230);"/>
            <rect x="227.72" y="394.26" width="11.22" height="0.25" style="fill:rgb(230,230,230);"/>
            <rect x="94.78" y="389.63" width="42" height="0.25" style="fill:rgb(230,230,230);"/>
            <rect x="142.33" y="389.63" width="29.82" height="0.25" style="fill:rgb(230,230,230);"/>
            <rect x="66.89" y="394.14" width="35.61" height="0.25" style="fill:rgb(230,230,230);"/>
            <path d="M237,337.8L43.91,337.8C40.781,337.795 38.21,335.219 38.21,332.09L38.21,60.66C38.237,57.55 40.8,55.005 43.91,55L237,55C240.132,55 242.71,57.578 242.71,60.71L242.71,332.09C242.71,335.222 240.132,337.8 237,337.8ZM43.91,55.2C40.919,55.205 38.46,57.669 38.46,60.66L38.46,332.09C38.46,335.081 40.919,337.545 43.91,337.55L237,337.55C239.993,337.545 242.455,335.083 242.46,332.09L242.46,60.66C242.455,57.667 239.993,55.205 237,55.2L43.91,55.2Z" style="fill:rgb(230,230,230);fill-rule:nonzero;"/>
            <path d="M453.31,337.8L260.21,337.8C257.08,337.795 254.505,335.22 254.5,332.09L254.5,60.66C254.533,57.549 257.098,55.005 260.21,55L453.31,55C456.416,55.011 458.973,57.554 459,60.66L459,332.09C459,335.215 456.435,337.789 453.31,337.8ZM260.21,55.2C257.217,55.205 254.755,57.667 254.75,60.66L254.75,332.09C254.755,335.083 257.217,337.545 260.21,337.55L453.31,337.55C456.303,337.545 458.765,335.083 458.77,332.09L458.77,60.66C458.765,57.667 456.303,55.205 453.31,55.2L260.21,55.2Z" style="fill:rgb(230,230,230);fill-rule:nonzero;"/>
            <path d="M119.2,382.4L98,382.4C86.94,363.08 80.79,311.31 96.34,255.06C99.002,245.442 102.227,235.989 106,226.75C111.84,305.76 137.2,359 119.2,382.4Z" style="fill:rgb(240,240,240);fill-rule:nonzero;"/>
            <path d="M80,382.4L101.22,382.4C111.07,368.12 113.97,329.86 94.89,288.28C91.562,281.053 87.747,274.06 83.47,267.35C82.56,325.75 60.55,365.08 80,382.4Z" style="fill:rgb(245,245,245);fill-rule:nonzero;"/>
            <path d="M347.07,302.88C325.55,269.51 327.99,367.83 288.44,324.14C239.86,270.47 170.14,252.48 200.61,293.57C231.08,334.66 213,348.88 136,302.88C80.22,269.52 183.08,369.53 154.91,365.73C126.74,361.93 84.2,354.15 120.64,382.4L357,382.4C357,382.4 368.6,336.25 347.07,302.88Z" style="fill:rgb(240,240,240);fill-rule:nonzero;"/>
            <path d="M391.76,382.65L409.51,382.65C418.76,367.93 423.9,328.49 410.9,285.65C408.667,278.297 405.972,271.093 402.83,264.08C397.91,324.26 376.69,364.79 391.76,382.65Z" style="fill:rgb(235,235,235);fill-rule:nonzero;"/>
            <path d="M424.53,382.65L406.78,382.65C398.54,371.77 396.11,342.65 412.08,310.95C414.877,305.411 418.068,300.081 421.63,295C422.4,339.49 440.82,369.45 424.53,382.65Z" style="fill:rgb(235,235,235);fill-rule:nonzero;"/>
            <path d="M379,382.65L393.68,382.65C400.49,373.65 402.5,349.54 389.29,323.34C386.978,318.759 384.338,314.35 381.39,310.15C380.72,347 365.49,371.73 379,382.65Z" style="fill:rgb(235,235,235);fill-rule:nonzero;"/>
            <path d="M139,382.4C139,382.4 138,375.2 127.13,371.49C129.759,374.481 131.021,378.439 130.61,382.4L139,382.4Z" style="fill:rgb(250,250,250);fill-rule:nonzero;"/>
            <path d="M190.8,382.4C190.8,382.4 191.8,375.2 202.67,371.49C200.046,374.484 198.785,378.44 199.19,382.4L190.8,382.4Z" style="fill:rgb(230,230,230);fill-rule:nonzero;"/>
            <path d="M329.69,382.4C329.69,382.4 330.38,368.4 337.92,361.21C336.018,368.105 335.201,375.254 335.5,382.4L329.69,382.4Z" style="fill:rgb(230,230,230);fill-rule:nonzero;"/>
            <path d="M433.86,382.4C433.86,382.4 437.37,372.34 453.64,367.16C445.89,374.45 445.58,382.4 445.58,382.4L433.86,382.4Z" style="fill:rgb(230,230,230);fill-rule:nonzero;"/>
            <path d="M67.47,382.4C67.47,382.4 64.71,367.61 84.56,360C78.9,370.72 84.69,382.4 84.69,382.4L67.47,382.4Z" style="fill:rgb(235,235,235);fill-rule:nonzero;"/>
            <path d="M78.5,382.4C78.5,382.4 72.9,370.32 52.63,364.1C62.96,372.85 64.43,382.4 64.43,382.4L78.5,382.4Z" style="fill:rgb(235,235,235);fill-rule:nonzero;"/>
            <path d="M145.2,382.4C145.2,382.4 144.47,370.3 131.2,365.92C137.12,372.12 136.78,382.4 136.78,382.4L145.2,382.4Z" style="fill:rgb(250,250,250);fill-rule:nonzero;"/>
            <path d="M261.2,382.4C261.2,382.4 259.53,370.4 241.34,364.16C245.736,369.161 247.851,375.777 247.17,382.4L261.2,382.4Z" style="fill:rgb(250,250,250);fill-rule:nonzero;"/>
            <path d="M261.72,382.4C261.72,382.4 263.39,370.4 281.58,364.16C277.184,369.161 275.069,375.777 275.75,382.4L261.72,382.4Z" style="fill:rgb(250,250,250);fill-rule:nonzero;"/>
            <path d="M271.65,382.4C271.65,382.4 270.43,362.18 248.29,354.84C258.19,365.21 257.62,382.4 257.62,382.4L271.65,382.4Z" style="fill:rgb(250,250,250);fill-rule:nonzero;"/>
            <path d="M396.58,382.4C396.58,382.4 395.73,377.17 406.58,373.46C402.12,378.68 404.94,382.4 404.94,382.4L396.58,382.4Z" style="fill:rgb(250,250,250);fill-rule:nonzero;"/>
            <path d="M396.27,382.4C396.27,382.4 395.27,375.2 384.4,371.49C387.029,374.481 388.291,378.439 387.88,382.4L396.27,382.4Z" style="fill:rgb(250,250,250);fill-rule:nonzero;"/>
            <path d="M390.34,382.4C390.34,382.4 391.06,370.3 404.34,365.92C398.43,372.12 398.76,382.4 398.76,382.4L390.34,382.4Z" style="fill:rgb(250,250,250);fill-rule:nonzero;"/>
            <path d="M435.42,104C432.81,99.44 427.55,95.91 423.66,96.13C422.412,96.131 421.241,96.744 420.53,97.77C413.43,92.09 405.26,88.6 398.53,88.98C395.562,89.009 392.717,90.181 390.59,92.25C382.97,83.68 373.25,77.6 366.2,77.6C362.2,77.6 359.71,79.6 358.82,82.85C351,77.09 342.96,73.55 336.48,73.55C326.15,73.55 322.79,82.55 327.02,95.16C325.33,97.54 317.18,100.86 317.51,104.84L435.88,104.84C435.73,104.56 435.59,104.28 435.42,104Z" style="fill:rgb(245,245,245);fill-rule:nonzero;"/>
            <path d="M320.12,151.07C318.388,151.109 316.826,152.147 316.12,153.73C306.45,144.47 295.54,138.79 286.76,139.42C282.737,139.551 278.989,141.521 276.6,144.76C274.211,147.999 276.6,144.76 276.6,144.76C266.09,130.81 252.99,120.92 243.76,120.92C238.51,120.92 235.39,124.12 234.46,129.46C223.85,120.08 213.11,114.33 204.63,114.33C194.12,114.33 189.48,123.17 190.93,136.78C185.86,132.78 180.93,130.49 176.83,130.49C171.22,130.49 168.59,134.96 169.04,141.97C168.551,141.971 168.063,142.008 167.58,142.08C159.01,143.25 155.73,152.31 159.85,162.67L335.39,162.67C331.54,155.83 324.92,150.73 320.12,151.07Z" style="fill:rgb(245,245,245);fill-rule:nonzero;"/>
            <path d="M149.61,107.49C148.747,107.49 147.961,108.001 147.61,108.79C142.9,104.28 137.61,101.51 133.3,101.79C131.321,101.842 129.474,102.806 128.3,104.4C123.17,97.6 116.78,92.78 112.3,92.78C109.74,92.78 108.21,94.34 107.76,96.94C102.59,92.36 97.35,89.56 93.22,89.56C88.09,89.56 85.83,93.87 86.53,100.56C84.06,98.63 81.64,97.49 79.66,97.49C76.93,97.49 75.66,99.67 75.87,103.09C75.63,103.075 75.39,103.075 75.15,103.09C70.98,103.66 69.37,108.09 71.38,113.09L156.97,113.09C155.18,109.82 152,107.33 149.61,107.49Z" style="fill:rgb(245,245,245);fill-rule:nonzero;"/>
        </g>
        <g id="freepik--Shadow--inject-190">
            <ellipse cx="250" cy="416.24" rx="193.89" ry="11.32" style="fill:rgb(245,245,245);"/>
        </g>
        <g id="freepik--bus-stop--inject-190">
            <rect x="167.38" y="164.41" width="9.54" height="251.83" style="fill:rgb(224,224,224);"/>
            <rect x="167.38" y="164.41" width="9.54" height="22.84" style="fill:rgb(224,224,224);"/>
            <path d="M212.65,88.197C212.65,82.608 208.112,78.07 202.523,78.07L141.787,78.07C136.198,78.07 131.66,82.608 131.66,88.197L131.66,170.853C131.66,176.442 136.198,180.98 141.787,180.98L202.523,180.98C208.112,180.98 212.65,176.442 212.65,170.853L212.65,88.197Z" style="fill:rgb(114,142,39);"/>
            <path d="M212.65,88.197C212.65,82.608 208.112,78.07 202.523,78.07L141.787,78.07C136.198,78.07 131.66,82.608 131.66,88.197L131.66,170.853C131.66,176.442 136.198,180.98 141.787,180.98L202.523,180.98C208.112,180.98 212.65,176.442 212.65,170.853L212.65,88.197Z" style="fill:white;fill-opacity:0.7;"/>
            <g transform="matrix(-3.82857e-16,1,-1,-3.82857e-16,301.68,-42.63)">
                <path d="M219.44,99.534C219.44,96.033 216.597,93.19 213.096,93.19L131.194,93.19C127.693,93.19 124.85,96.033 124.85,99.534L124.85,159.526C124.85,163.027 127.693,165.87 131.194,165.87L213.096,165.87C216.597,165.87 219.44,163.027 219.44,159.526L219.44,99.534Z" style="fill:rgb(114,142,39);"/>
            </g>
            <path d="M151,132.34L159.14,132.34C160.269,132.262 161.386,132.62 162.26,133.34C162.971,133.974 163.369,134.888 163.35,135.84C163.366,136.625 163.088,137.389 162.57,137.98C162.156,138.418 161.636,138.742 161.06,138.92C161.921,139.077 162.706,139.517 163.29,140.17C163.778,140.808 164.03,141.597 164,142.4C164.015,143.101 163.838,143.792 163.49,144.4C163.16,144.977 162.679,145.454 162.1,145.78C161.583,146.034 161.024,146.19 160.45,146.24C159.45,146.36 158.83,146.43 158.51,146.43L151,146.43L151,132.34ZM155.39,137.85L157.28,137.85C157.776,137.9 158.275,137.776 158.69,137.5C158.967,137.244 159.114,136.876 159.09,136.5C159.124,136.122 158.975,135.75 158.69,135.5C158.285,135.226 157.797,135.102 157.31,135.15L155.4,135.15L155.39,137.85ZM155.39,143.38L157.6,143.38C158.16,143.43 158.72,143.289 159.19,142.98C159.495,142.71 159.663,142.317 159.65,141.91C159.666,141.522 159.495,141.15 159.19,140.91C158.716,140.605 158.151,140.471 157.59,140.53L155.39,140.53L155.39,143.38Z" style="fill:rgb(114,142,39);fill-rule:nonzero;"/>
            <path d="M174.93,132.34L179.27,132.34L179.27,140.71C179.275,141.513 179.143,142.311 178.88,143.07C178.625,143.798 178.208,144.458 177.66,145C177.173,145.513 176.579,145.912 175.92,146.17C174.954,146.498 173.94,146.657 172.92,146.64C172.171,146.635 171.424,146.588 170.68,146.5C169.984,146.429 169.306,146.232 168.68,145.92C168.107,145.621 167.601,145.209 167.19,144.71C166.769,144.242 166.452,143.689 166.26,143.09C166.012,142.32 165.877,141.519 165.86,140.71L165.86,132.34L170.19,132.34L170.19,140.91C170.153,141.571 170.384,142.22 170.83,142.71C171.846,143.565 173.344,143.565 174.36,142.71C174.812,142.22 175.043,141.565 175,140.9L174.93,132.34Z" style="fill:rgb(114,142,39);fill-rule:nonzero;"/>
            <path d="M181.39,141.75L185.52,141.49C185.563,142.04 185.753,142.568 186.07,143.02C186.532,143.601 187.249,143.922 187.99,143.88C188.504,143.911 189.012,143.755 189.42,143.44C189.731,143.202 189.913,142.832 189.913,142.44C189.913,142.048 189.731,141.678 189.42,141.44C188.747,141.011 187.99,140.731 187.2,140.62C185.725,140.383 184.327,139.801 183.12,138.92C182.318,138.248 181.865,137.246 181.89,136.2C181.894,135.47 182.113,134.756 182.52,134.15C182.986,133.47 183.644,132.944 184.41,132.64C185.515,132.226 186.691,132.039 187.87,132.09C189.31,131.992 190.746,132.341 191.98,133.09C192.979,133.856 193.593,135.023 193.66,136.28L189.57,136.52C189.518,135.991 189.272,135.499 188.88,135.14C188.467,134.828 187.957,134.672 187.44,134.7C187.033,134.669 186.628,134.786 186.3,135.03C186.058,135.217 185.914,135.504 185.91,135.81C185.921,136.048 186.038,136.269 186.23,136.41C186.671,136.691 187.17,136.869 187.69,136.93C189.094,137.182 190.463,137.598 191.77,138.17C192.502,138.511 193.122,139.052 193.56,139.73C193.938,140.357 194.132,141.078 194.12,141.81C194.128,142.698 193.87,143.569 193.38,144.31C192.865,145.08 192.134,145.681 191.28,146.04C190.205,146.465 189.055,146.666 187.9,146.63C185.513,146.63 183.847,146.17 182.9,145.25C181.991,144.304 181.455,143.06 181.39,141.75Z" style="fill:rgb(114,142,39);fill-rule:nonzero;"/>
            <path d="M143.78,159.75L147.92,159.5C147.96,160.049 148.147,160.577 148.46,161.03C148.924,161.608 149.64,161.928 150.38,161.89C150.897,161.921 151.408,161.765 151.82,161.45C152.126,161.207 152.31,160.841 152.32,160.45C152.319,160.062 152.142,159.694 151.84,159.45C151.164,159.019 150.404,158.739 149.61,158.63C148.138,158.389 146.743,157.803 145.54,156.92C144.738,156.252 144.285,155.253 144.31,154.21C144.312,153.479 144.532,152.766 144.94,152.16C145.406,151.48 146.064,150.954 146.83,150.65C147.934,150.232 149.111,150.041 150.29,150.09C151.73,149.997 153.164,150.346 154.4,151.09C155.396,151.859 156.009,153.024 156.08,154.28L151.98,154.52C151.93,153.992 151.688,153.501 151.3,153.14C150.884,152.826 150.37,152.67 149.85,152.7C149.445,152.673 149.042,152.786 148.71,153.02C148.469,153.211 148.328,153.502 148.33,153.81C148.337,154.047 148.451,154.268 148.64,154.41C149.083,154.688 149.581,154.865 150.1,154.93C151.507,155.184 152.879,155.6 154.19,156.17C154.92,156.513 155.54,157.054 155.98,157.73C156.353,158.359 156.547,159.079 156.54,159.81C156.542,160.699 156.281,161.569 155.79,162.31C155.278,163.079 154.551,163.681 153.7,164.04C152.622,164.465 151.468,164.666 150.31,164.63C147.92,164.63 146.31,164.17 145.31,163.25C144.395,162.306 143.852,161.062 143.78,159.75Z" style="fill:rgb(114,142,39);fill-rule:nonzero;"/>
            <path d="M157.74,150.34L171,150.34L171,153.82L166.57,153.82L166.57,164.41L162.22,164.41L162.22,153.82L157.79,153.82L157.74,150.34Z" style="fill:rgb(114,142,39);fill-rule:nonzero;"/>
            <path d="M171.7,157.39C171.678,157.169 171.667,156.948 171.667,156.726C171.667,153.072 174.673,150.066 178.327,150.066C178.552,150.066 178.776,150.077 179,150.1C180.984,149.972 182.937,150.655 184.41,151.99C185.741,153.414 186.428,155.325 186.31,157.27C186.355,158.65 186.071,160.022 185.48,161.27C184.943,162.311 184.107,163.168 183.08,163.73C181.873,164.35 180.527,164.653 179.17,164.61C177.817,164.653 176.47,164.393 175.23,163.85C174.165,163.326 173.285,162.489 172.71,161.45C172.015,160.212 171.666,158.809 171.7,157.39ZM176.04,157.39C175.946,158.47 176.225,159.551 176.83,160.45C177.396,161.04 178.178,161.373 178.995,161.373C179.812,161.373 180.594,161.04 181.16,160.45C181.768,159.474 182.036,158.324 181.92,157.18C182.01,156.149 181.726,155.119 181.12,154.28C180.572,153.665 179.773,153.33 178.95,153.37C178.142,153.339 177.362,153.682 176.84,154.3C176.206,155.203 175.908,156.3 176,157.4L176.04,157.39Z" style="fill:rgb(114,142,39);fill-rule:nonzero;"/>
            <path d="M188.59,150.34L195.81,150.34C197.092,150.241 198.363,150.646 199.35,151.47C200.17,152.321 200.595,153.48 200.52,154.66C200.593,155.902 200.126,157.117 199.24,157.99C198.138,158.875 196.738,159.304 195.33,159.19L193,159.19L193,164.41L188.64,164.41L188.59,150.34ZM192.95,156.34L194,156.34C194.623,156.403 195.249,156.247 195.77,155.9C196.095,155.624 196.278,155.216 196.27,154.79C196.282,154.37 196.123,153.962 195.83,153.66C195.356,153.299 194.762,153.135 194.17,153.2L193,153.2L192.95,156.34Z" style="fill:rgb(114,142,39);fill-rule:nonzero;"/>
            <path d="M197.34,95.3L154.5,95.3C153.89,95.301 153.351,95.712 153.19,96.3L151,103.33C150.607,104.594 149.549,105.544 148.25,105.8L146.9,106.07C146.135,106.222 145.579,106.9 145.58,107.68L145.58,114.74C145.58,114.74 145.58,114.741 145.58,114.741C145.58,115.487 146.194,116.101 146.94,116.101C146.96,116.101 146.98,116.101 147,116.1L154.44,116.1C154.44,112.77 157.18,110.03 160.51,110.03C163.84,110.03 166.58,112.77 166.58,116.1L184.8,116.1C184.931,112.86 187.633,110.267 190.875,110.267C194.117,110.267 196.819,112.86 196.95,116.1L197.37,116.1C197.373,116.1 197.377,116.1 197.38,116.1C198.126,116.1 198.74,115.486 198.74,114.74L198.74,96.66C198.735,95.912 198.118,95.3 197.37,95.3C197.36,95.3 197.35,95.3 197.34,95.3ZM168.16,103.7C168.16,104.382 167.602,104.945 166.92,104.95L162.24,104.95C161.56,104.939 161.005,104.38 161,103.7L161,99C161.005,98.318 161.568,97.76 162.25,97.76L166.93,97.76C167.604,97.771 168.155,98.326 168.16,99L168.16,103.7ZM176.92,103.7C176.92,104.386 176.356,104.95 175.67,104.95L171,104.95C170.314,104.95 169.75,104.386 169.75,103.7L169.75,99C169.766,98.326 170.325,97.78 171,97.78L175.67,97.78C176.345,97.78 176.904,98.326 176.92,99L176.92,103.7ZM185.68,103.7C185.68,104.386 185.116,104.95 184.43,104.95L179.76,104.95C179.074,104.95 178.51,104.386 178.51,103.7L178.51,99C178.515,98.318 179.078,97.76 179.76,97.76L184.43,97.76C185.112,97.76 185.675,98.318 185.68,99L185.68,103.7ZM194.44,103.7C194.44,104.386 193.876,104.95 193.19,104.95L188.51,104.95C187.826,104.945 187.265,104.384 187.26,103.7L187.26,99C187.265,98.318 187.828,97.76 188.51,97.76L193.19,97.76C193.872,97.76 194.435,98.318 194.44,99L194.44,103.7Z" style="fill:rgb(114,142,39);fill-rule:nonzero;"/>
            <path d="M160.47,112.41C158.444,112.415 156.78,114.084 156.78,116.11C156.78,118.14 158.45,119.81 160.48,119.81C162.51,119.81 164.18,118.14 164.18,116.11C164.18,116.107 164.18,116.103 164.18,116.1C164.175,114.074 162.506,112.41 160.48,112.41C160.477,112.41 160.473,112.41 160.47,112.41Z" style="fill:rgb(114,142,39);fill-rule:nonzero;"/>
            <path d="M190.85,112.41C188.82,112.41 187.15,114.08 187.15,116.11C187.15,118.14 188.82,119.81 190.85,119.81C192.88,119.81 194.55,118.14 194.55,116.11C194.55,116.107 194.55,116.103 194.55,116.1C194.539,114.076 192.874,112.415 190.85,112.41Z" style="fill:rgb(114,142,39);fill-rule:nonzero;"/>
            <g transform="matrix(-3.82857e-16,1,-1,-3.82857e-16,301.68,-42.63)">
                <path d="M219.44,99.534C219.44,96.033 216.597,93.19 213.096,93.19L131.194,93.19C127.693,93.19 124.85,96.033 124.85,99.534L124.85,159.526C124.85,163.027 127.693,165.87 131.194,165.87L213.096,165.87C216.597,165.87 219.44,163.027 219.44,159.526L219.44,99.534Z" style="fill:rgb(114,142,39);"/>
            </g>
            <path d="M151,132.34L159.14,132.34C160.269,132.262 161.386,132.62 162.26,133.34C162.971,133.974 163.369,134.888 163.35,135.84C163.366,136.625 163.088,137.389 162.57,137.98C162.156,138.418 161.636,138.742 161.06,138.92C161.921,139.077 162.706,139.517 163.29,140.17C163.778,140.808 164.03,141.597 164,142.4C164.015,143.101 163.838,143.792 163.49,144.4C163.16,144.977 162.679,145.454 162.1,145.78C161.583,146.034 161.024,146.19 160.45,146.24C159.45,146.36 158.83,146.43 158.51,146.43L151,146.43L151,132.34ZM155.39,137.85L157.28,137.85C157.776,137.9 158.275,137.776 158.69,137.5C158.967,137.244 159.114,136.876 159.09,136.5C159.124,136.122 158.975,135.75 158.69,135.5C158.285,135.226 157.797,135.102 157.31,135.15L155.4,135.15L155.39,137.85ZM155.39,143.38L157.6,143.38C158.16,143.43 158.72,143.289 159.19,142.98C159.495,142.71 159.663,142.317 159.65,141.91C159.666,141.522 159.495,141.15 159.19,140.91C158.716,140.605 158.151,140.471 157.59,140.53L155.39,140.53L155.39,143.38Z" style="fill:white;fill-rule:nonzero;"/>
            <path d="M174.93,132.34L179.27,132.34L179.27,140.71C179.275,141.513 179.143,142.311 178.88,143.07C178.625,143.798 178.208,144.458 177.66,145C177.173,145.513 176.579,145.912 175.92,146.17C174.954,146.498 173.94,146.657 172.92,146.64C172.171,146.635 171.424,146.588 170.68,146.5C169.984,146.429 169.306,146.232 168.68,145.92C168.107,145.621 167.601,145.209 167.19,144.71C166.769,144.242 166.452,143.689 166.26,143.09C166.012,142.32 165.877,141.519 165.86,140.71L165.86,132.34L170.19,132.34L170.19,140.91C170.153,141.571 170.384,142.22 170.83,142.71C171.846,143.565 173.344,143.565 174.36,142.71C174.812,142.22 175.043,141.565 175,140.9L174.93,132.34Z" style="fill:white;fill-rule:nonzero;"/>
            <path d="M181.39,141.75L185.52,141.49C185.563,142.04 185.753,142.568 186.07,143.02C186.532,143.601 187.249,143.922 187.99,143.88C188.504,143.911 189.012,143.755 189.42,143.44C189.731,143.202 189.913,142.832 189.913,142.44C189.913,142.048 189.731,141.678 189.42,141.44C188.747,141.011 187.99,140.731 187.2,140.62C185.725,140.383 184.327,139.801 183.12,138.92C182.318,138.248 181.865,137.246 181.89,136.2C181.894,135.47 182.113,134.756 182.52,134.15C182.986,133.47 183.644,132.944 184.41,132.64C185.515,132.226 186.691,132.039 187.87,132.09C189.31,131.992 190.746,132.341 191.98,133.09C192.979,133.856 193.593,135.023 193.66,136.28L189.57,136.52C189.518,135.991 189.272,135.499 188.88,135.14C188.467,134.828 187.957,134.672 187.44,134.7C187.033,134.669 186.628,134.786 186.3,135.03C186.058,135.217 185.914,135.504 185.91,135.81C185.921,136.048 186.038,136.269 186.23,136.41C186.671,136.691 187.17,136.869 187.69,136.93C189.094,137.182 190.463,137.598 191.77,138.17C192.502,138.511 193.122,139.052 193.56,139.73C193.938,140.357 194.132,141.078 194.12,141.81C194.128,142.698 193.87,143.569 193.38,144.31C192.865,145.08 192.134,145.681 191.28,146.04C190.205,146.465 189.055,146.666 187.9,146.63C185.513,146.63 183.847,146.17 182.9,145.25C181.991,144.304 181.455,143.06 181.39,141.75Z" style="fill:white;fill-rule:nonzero;"/>
            <path d="M143.78,159.75L147.92,159.5C147.96,160.049 148.147,160.577 148.46,161.03C148.924,161.608 149.64,161.928 150.38,161.89C150.897,161.921 151.408,161.765 151.82,161.45C152.126,161.207 152.31,160.841 152.32,160.45C152.319,160.062 152.142,159.694 151.84,159.45C151.164,159.019 150.404,158.739 149.61,158.63C148.138,158.389 146.743,157.803 145.54,156.92C144.738,156.252 144.285,155.253 144.31,154.21C144.312,153.479 144.532,152.766 144.94,152.16C145.406,151.48 146.064,150.954 146.83,150.65C147.934,150.232 149.111,150.041 150.29,150.09C151.73,149.997 153.164,150.346 154.4,151.09C155.396,151.859 156.009,153.024 156.08,154.28L151.98,154.52C151.93,153.992 151.688,153.501 151.3,153.14C150.884,152.826 150.37,152.67 149.85,152.7C149.445,152.673 149.042,152.786 148.71,153.02C148.469,153.211 148.328,153.502 148.33,153.81C148.337,154.047 148.451,154.268 148.64,154.41C149.083,154.688 149.581,154.865 150.1,154.93C151.507,155.184 152.879,155.6 154.19,156.17C154.92,156.513 155.54,157.054 155.98,157.73C156.353,158.359 156.547,159.079 156.54,159.81C156.542,160.699 156.281,161.569 155.79,162.31C155.278,163.079 154.551,163.681 153.7,164.04C152.622,164.465 151.468,164.666 150.31,164.63C147.92,164.63 146.31,164.17 145.31,163.25C144.395,162.306 143.852,161.062 143.78,159.75Z" style="fill:white;fill-rule:nonzero;"/>
            <path d="M157.74,150.34L171,150.34L171,153.82L166.57,153.82L166.57,164.41L162.22,164.41L162.22,153.82L157.79,153.82L157.74,150.34Z" style="fill:white;fill-rule:nonzero;"/>
            <path d="M171.7,157.39C171.678,157.169 171.667,156.948 171.667,156.726C171.667,153.072 174.673,150.066 178.327,150.066C178.552,150.066 178.776,150.077 179,150.1C180.984,149.972 182.937,150.655 184.41,151.99C185.741,153.414 186.428,155.325 186.31,157.27C186.355,158.65 186.071,160.022 185.48,161.27C184.943,162.311 184.107,163.168 183.08,163.73C181.873,164.35 180.527,164.653 179.17,164.61C177.817,164.653 176.47,164.393 175.23,163.85C174.165,163.326 173.285,162.489 172.71,161.45C172.015,160.212 171.666,158.809 171.7,157.39ZM176.04,157.39C175.946,158.47 176.225,159.551 176.83,160.45C177.396,161.04 178.178,161.373 178.995,161.373C179.812,161.373 180.594,161.04 181.16,160.45C181.768,159.474 182.036,158.324 181.92,157.18C182.01,156.149 181.726,155.119 181.12,154.28C180.572,153.665 179.773,153.33 178.95,153.37C178.142,153.339 177.362,153.682 176.84,154.3C176.206,155.203 175.908,156.3 176,157.4L176.04,157.39Z" style="fill:white;fill-rule:nonzero;"/>
            <path d="M188.59,150.34L195.81,150.34C197.092,150.241 198.363,150.646 199.35,151.47C200.17,152.321 200.595,153.48 200.52,154.66C200.593,155.902 200.126,157.117 199.24,157.99C198.138,158.875 196.738,159.304 195.33,159.19L193,159.19L193,164.41L188.64,164.41L188.59,150.34ZM192.95,156.34L194,156.34C194.623,156.403 195.249,156.247 195.77,155.9C196.095,155.624 196.278,155.216 196.27,154.79C196.282,154.37 196.123,153.962 195.83,153.66C195.356,153.299 194.762,153.135 194.17,153.2L193,153.2L192.95,156.34Z" style="fill:white;fill-rule:nonzero;"/>
            <path d="M197.34,95.3L154.5,95.3C153.89,95.301 153.351,95.712 153.19,96.3L151,103.33C150.607,104.594 149.549,105.544 148.25,105.8L146.9,106.07C146.135,106.222 145.579,106.9 145.58,107.68L145.58,114.74C145.58,114.74 145.58,114.741 145.58,114.741C145.58,115.487 146.194,116.101 146.94,116.101C146.96,116.101 146.98,116.101 147,116.1L154.44,116.1C154.44,112.77 157.18,110.03 160.51,110.03C163.84,110.03 166.58,112.77 166.58,116.1L184.8,116.1C184.931,112.86 187.633,110.267 190.875,110.267C194.117,110.267 196.819,112.86 196.95,116.1L197.37,116.1C197.373,116.1 197.377,116.1 197.38,116.1C198.126,116.1 198.74,115.486 198.74,114.74L198.74,96.66C198.735,95.912 198.118,95.3 197.37,95.3C197.36,95.3 197.35,95.3 197.34,95.3ZM168.16,103.7C168.16,104.382 167.602,104.945 166.92,104.95L162.24,104.95C161.56,104.939 161.005,104.38 161,103.7L161,99C161.005,98.318 161.568,97.76 162.25,97.76L166.93,97.76C167.604,97.771 168.155,98.326 168.16,99L168.16,103.7ZM176.92,103.7C176.92,104.386 176.356,104.95 175.67,104.95L171,104.95C170.314,104.95 169.75,104.386 169.75,103.7L169.75,99C169.766,98.326 170.325,97.78 171,97.78L175.67,97.78C176.345,97.78 176.904,98.326 176.92,99L176.92,103.7ZM185.68,103.7C185.68,104.386 185.116,104.95 184.43,104.95L179.76,104.95C179.074,104.95 178.51,104.386 178.51,103.7L178.51,99C178.515,98.318 179.078,97.76 179.76,97.76L184.43,97.76C185.112,97.76 185.675,98.318 185.68,99L185.68,103.7ZM194.44,103.7C194.44,104.386 193.876,104.95 193.19,104.95L188.51,104.95C187.826,104.945 187.265,104.384 187.26,103.7L187.26,99C187.265,98.318 187.828,97.76 188.51,97.76L193.19,97.76C193.872,97.76 194.435,98.318 194.44,99L194.44,103.7Z" style="fill:white;fill-rule:nonzero;"/>
            <path d="M160.47,112.41C158.444,112.415 156.78,114.084 156.78,116.11C156.78,118.14 158.45,119.81 160.48,119.81C162.51,119.81 164.18,118.14 164.18,116.11C164.18,116.107 164.18,116.103 164.18,116.1C164.175,114.074 162.506,112.41 160.48,112.41C160.477,112.41 160.473,112.41 160.47,112.41Z" style="fill:white;fill-rule:nonzero;"/>
            <path d="M190.85,112.41C188.82,112.41 187.15,114.08 187.15,116.11C187.15,118.14 188.82,119.81 190.85,119.81C192.88,119.81 194.55,118.14 194.55,116.11C194.55,116.107 194.55,116.103 194.55,116.1C194.539,114.076 192.874,112.415 190.85,112.41Z" style="fill:white;fill-rule:nonzero;"/>
        </g>
        <g id="freepik--Seat--inject-190">
            <path d="M345.51,353.21L344.69,359.03L340.24,416.24L334.96,416.24L339.4,359.03L340.22,353.21L345.51,353.21Z" style="fill:rgb(224,224,224);fill-rule:nonzero;"/>
            <path d="M372.2,353.21L373.02,359.03L377.46,416.24L382.74,416.24L378.3,359.03L377.48,353.21L372.2,353.21Z" style="fill:rgb(224,224,224);fill-rule:nonzero;"/>
            <path d="M119.1,353.21L118.27,359.03L113.83,416.24L108.56,416.24L112.99,359.03L113.82,353.21L119.1,353.21Z" style="fill:rgb(224,224,224);fill-rule:nonzero;"/>
            <path d="M145.78,353.21L146.6,359.03L151.06,416.24L156.34,416.24L151.9,359.03L151.07,353.21L145.78,353.21Z" style="fill:rgb(224,224,224);fill-rule:nonzero;"/>
            <path d="M152.95,295.09L144.71,353.21L143.89,359.03L138.61,359.03L139.43,353.21L147.67,295.09L152.95,295.09Z" style="fill:rgb(224,224,224);fill-rule:nonzero;"/>
            <path d="M379.35,295.09L371.11,353.21L370.29,359.03L365.01,359.03L365.83,353.21L374.07,295.09L379.35,295.09Z" style="fill:rgb(224,224,224);fill-rule:nonzero;"/>
            <path d="M380.21,343.58L138.23,343.58L142.73,327.4L384.7,327.4L380.21,343.58Z" style="fill:rgb(114,142,39);fill-rule:nonzero;"/>
            <path d="M374.69,343.58L132.71,343.58L137.2,327.4L379.18,327.4L374.69,343.58Z" style="fill:rgb(114,142,39);fill-rule:nonzero;"/>
            <path d="M380.21,343.58L138.23,343.58L142.73,327.4L384.7,327.4L380.21,343.58Z" style="fill-opacity:0.1;fill-rule:nonzero;"/>
            <path d="M386.95,303.18L144.97,303.18L149.47,287L391.44,287L386.95,303.18Z" style="fill:rgb(114,142,39);fill-rule:nonzero;"/>
            <path d="M386.95,303.18L144.97,303.18L149.47,287L391.44,287L386.95,303.18Z" style="fill-opacity:0.1;fill-rule:nonzero;"/>
            <path d="M381.43,303.18L139.45,303.18L143.94,287L385.92,287L381.43,303.18Z" style="fill:white;fill-rule:nonzero;"/>
            <path d="M381.43,303.18L139.45,303.18L143.94,287L385.92,287L381.43,303.18Z" style="fill:rgb(114,142,39);fill-rule:nonzero;"/>
            <path d="M381.43,303.18L139.45,303.18L143.94,287L385.92,287L381.43,303.18Z" style="fill:white;fill-opacity:0.3;fill-rule:nonzero;"/>
            <path d="M383.58,323.37L141.6,323.37L146.1,307.18L388.07,307.18L383.58,323.37Z" style="fill:rgb(114,142,39);fill-rule:nonzero;"/>
            <path d="M378.06,323.37L136.08,323.37L140.57,307.18L382.55,307.18L378.06,323.37Z" style="fill:rgb(114,142,39);fill-rule:nonzero;"/>
            <path d="M383.58,323.37L141.6,323.37L146.1,307.18L388.07,307.18L383.58,323.37Z" style="fill-opacity:0.1;fill-rule:nonzero;"/>
            <path d="M378.06,323.37L136.08,323.37L140.57,307.18L382.55,307.18L378.06,323.37Z" style="fill:rgb(114,142,39);fill-rule:nonzero;"/>
            <path d="M378.06,323.37L136.08,323.37L140.57,307.18L382.55,307.18L378.06,323.37Z" style="fill:white;fill-opacity:0.3;fill-rule:nonzero;"/>
            <path d="M374.69,343.58L132.71,343.58L137.2,327.4L379.18,327.4L374.69,343.58Z" style="fill:rgb(114,142,39);fill-rule:nonzero;"/>
            <path d="M374.69,343.58L132.71,343.58L137.2,327.4L379.18,327.4L374.69,343.58Z" style="fill:white;fill-opacity:0.3;fill-rule:nonzero;"/>
            <rect x="110.7" y="353.21" width="240.91" height="5.82" style="fill:rgb(114,142,39);"/>
            <rect x="110.7" y="353.21" width="240.91" height="5.82" style="fill:rgb(114,142,39);"/>
            <rect x="110.7" y="353.21" width="240.91" height="5.82" style="fill:white;fill-opacity:0.3;"/>
            <rect x="351.6" y="353.21" width="33.11" height="5.82" style="fill:rgb(114,142,39);"/>
            <rect x="351.6" y="353.21" width="33.11" height="5.82" style="fill-opacity:0.1;"/>
        </g>
        <g id="freepik--Character--inject-190">
            <path d="M199.52,415.64C199.027,415.679 198.535,415.544 198.13,415.26C197.875,415.028 197.758,414.679 197.82,414.34C197.832,414.129 197.959,413.941 198.15,413.85C198.98,413.45 201.23,414.85 201.48,415.04C201.544,415.072 201.585,415.138 201.585,415.21C201.585,415.282 201.544,415.348 201.48,415.38C200.838,415.54 200.181,415.627 199.52,415.64ZM198.52,414.14C198.451,414.128 198.379,414.128 198.31,414.14C198.234,414.179 198.185,414.255 198.18,414.34C198.134,414.562 198.206,414.793 198.37,414.95C199.166,415.311 200.071,415.358 200.9,415.08C200.178,414.61 199.368,414.29 198.52,414.14Z" style="fill:rgb(114,142,39);fill-rule:nonzero;"/>
            <path d="M201.38,415.38C201.351,415.389 201.319,415.389 201.29,415.38C200.58,414.98 199.22,413.38 199.38,412.59C199.428,412.314 199.67,412.111 199.95,412.11C200.218,412.073 200.49,412.157 200.69,412.34C201.5,413.04 201.56,415.13 201.57,415.22C201.569,415.285 201.535,415.346 201.48,415.38C201.448,415.391 201.412,415.391 201.38,415.38ZM200.07,412.45L200,412.45C199.77,412.45 199.75,412.58 199.74,412.63C199.65,413.1 200.48,414.27 201.18,414.82C201.165,414.021 200.911,413.244 200.45,412.59C200.346,412.497 200.21,412.447 200.07,412.45Z" style="fill:rgb(114,142,39);fill-rule:nonzero;"/>
            <path d="M202.4,418.64L209.63,418.64L210.54,401.91L203.31,401.91L202.4,418.64Z" style="fill:rgb(228,137,123);fill-rule:nonzero;"/>
            <path d="M202,414.36L210.12,414.36C210.411,414.361 210.662,414.573 210.71,414.86L211.8,421.28C211.808,421.333 211.811,421.386 211.811,421.44C211.811,422.06 211.301,422.57 210.681,422.57C210.681,422.57 210.68,422.57 210.68,422.57C207.84,422.52 206.48,422.35 202.9,422.35C200.71,422.35 193.45,422.58 190.42,422.58C187.39,422.58 187.14,419.58 188.42,419.31C194.05,418.09 198.95,416.41 200.82,414.81C201.148,414.526 201.566,414.366 202,414.36Z" style="fill:rgb(38,50,56);fill-rule:nonzero;"/>
            <path d="M271.88,275.6C269.35,280.97 266.71,286.24 263.97,291.49C261.23,296.74 258.41,301.94 255.41,307.11L254.27,309.05L253.98,309.54L253.54,310.23C253.23,310.72 252.94,311.05 252.63,311.47C251.531,312.795 250.324,314.026 249.02,315.15C246.677,317.183 244.22,319.079 241.66,320.83C236.701,324.231 231.53,327.314 226.18,330.06L223.18,325.51C227.64,321.78 232.18,318.01 236.43,314.2C238.55,312.3 240.64,310.35 242.43,308.4C243.271,307.509 244.053,306.564 244.77,305.57C244.88,305.37 245.06,305.14 245.11,305L245.49,304.26L246.49,302.32C251.65,291.92 256.69,281.26 261.97,270.81L271.88,275.6Z" style="fill:rgb(228,137,123);fill-rule:nonzero;"/>
            <path d="M274.9,270.36C277.01,276.83 263.68,295.87 263.68,295.87L249.63,288C252.116,282.057 255.209,276.387 258.86,271.08C264.37,263.48 272.6,263.27 274.9,270.36Z" style="fill:rgb(114,142,39);fill-rule:nonzero;"/>
            <path d="M223.45,325.36L216.72,329.25L221.59,336.41C221.59,336.41 226.8,333.78 227.35,328.41L223.45,325.36Z" style="fill:rgb(228,137,123);fill-rule:nonzero;"/>
            <path d="M212.43,338.05L217.94,337.5L221.59,336.41L216.72,329.25L212.43,338.05Z" style="fill:rgb(228,137,123);fill-rule:nonzero;"/>
            <path d="M203.31,401.91L210.54,401.91L210.06,410.54L202.83,410.54L203.31,401.91Z" style="fill:rgb(206,111,100);fill-rule:nonzero;"/>
            <path d="M268.98,418.64L261.75,418.64L256.47,401.91L263.7,401.91L268.98,418.64Z" style="fill:rgb(228,137,123);fill-rule:nonzero;"/>
            <path d="M260.4,414.36L268.52,414.36C268.812,414.357 269.065,414.571 269.11,414.86L270.21,421.28C270.217,421.33 270.22,421.38 270.22,421.43C270.22,422.055 269.705,422.57 269.08,422.57C266.25,422.52 264.88,422.35 261.31,422.35C259.11,422.35 251.86,422.58 248.82,422.58C245.78,422.58 245.55,419.58 246.82,419.31C252.45,418.09 257.35,416.41 259.21,414.81C259.541,414.525 259.963,414.365 260.4,414.36Z" style="fill:rgb(38,50,56);fill-rule:nonzero;"/>
            <path d="M263.7,401.91L256.47,401.91L259.2,410.54L266.43,410.54L263.7,401.91Z" style="fill:rgb(206,111,100);fill-rule:nonzero;"/>
            <path d="M258,415.64C257.504,415.679 257.009,415.544 256.6,415.26C256.345,415.028 256.228,414.679 256.29,414.34C256.304,414.13 256.43,413.942 256.62,413.85C257.46,413.45 259.71,414.85 259.96,415.04C260.02,415.084 260.051,415.157 260.04,415.23C260.027,415.303 259.972,415.362 259.9,415.38C259.278,415.536 258.641,415.623 258,415.64ZM257,414.14C256.927,414.128 256.853,414.128 256.78,414.14C256.705,414.178 256.658,414.256 256.66,414.34C256.614,414.562 256.686,414.793 256.85,414.95C257.643,415.311 258.544,415.357 259.37,415.08C258.651,414.61 257.845,414.291 257,414.14Z" style="fill:rgb(114,142,39);fill-rule:nonzero;"/>
            <path d="M259.82,415.38C259.791,415.389 259.759,415.389 259.73,415.38C259.02,414.98 257.65,413.38 257.81,412.59C257.866,412.315 258.109,412.114 258.39,412.11C258.658,412.075 258.929,412.159 259.13,412.34C259.93,413.04 260,415.13 260,415.22C259.999,415.285 259.965,415.346 259.91,415.38C259.881,415.389 259.849,415.389 259.82,415.38ZM258.51,412.45L258.43,412.45C258.21,412.45 258.18,412.58 258.17,412.63C258.08,413.1 258.92,414.27 259.61,414.82C259.602,414.021 259.351,413.243 258.89,412.59C258.785,412.498 258.649,412.449 258.51,412.45Z" style="fill:rgb(114,142,39);fill-rule:nonzero;"/>
            <path d="M305.1,267.77C306.45,268.04 307.59,268.32 308.8,268.65C310.01,268.98 311.17,269.32 312.35,269.65C314.697,270.377 317.03,271.207 319.35,272.14C321.64,273.06 323.9,274.09 326.13,275.25C327.25,275.81 328.35,276.43 329.44,277.06C329.98,277.38 330.52,277.73 331.06,278.06L331.87,278.57C331.92,278.57 332.35,278.88 332.63,279.09C332.937,279.334 333.231,279.594 333.51,279.87C334.495,280.922 335.185,282.216 335.51,283.62C335.753,284.648 335.834,285.707 335.75,286.76C335.619,288.324 335.283,289.864 334.75,291.34C333.862,293.778 332.737,296.122 331.39,298.34C328.892,302.543 325.999,306.497 322.75,310.15L318.31,307.03C320.37,303.03 322.4,298.79 324.06,294.71C324.871,292.767 325.52,290.76 326,288.71C326.189,287.948 326.273,287.164 326.25,286.38C326.25,286.12 326.16,285.97 326.15,286.04C326.192,286.311 326.322,286.56 326.52,286.75C326.58,286.827 326.651,286.894 326.73,286.95C326.73,287 326.96,287.11 326.73,287L324.57,285.92C323.57,285.47 322.57,285 321.57,284.58C319.57,283.71 317.5,282.93 315.41,282.19C313.32,281.45 311.21,280.77 309.07,280.13C308,279.81 306.93,279.49 305.86,279.2L302.74,278.38L305.1,267.77Z" style="fill:rgb(228,137,123);fill-rule:nonzero;"/>
            <path d="M317.56,307.3L313.18,313.12L322.18,313.74C322.18,313.74 325.18,307.87 322.01,306.55L317.56,307.3Z" style="fill:rgb(228,137,123);fill-rule:nonzero;"/>
            <path d="M313.69,321.27L321.17,321.42L322.21,313.74L313.18,313.12L313.69,321.27Z" style="fill:rgb(228,137,123);fill-rule:nonzero;"/>
            <path d="M262.92,327.89C262.92,327.89 212.92,326.17 206.24,346.06C198.91,367.83 200.44,408.17 200.44,408.17L213,408.17C213,408.17 217.83,379.38 221.14,364.78C224.58,349.62 273.4,356.51 279.6,350.97C284.55,346.55 287.05,339.07 287.71,327.89L262.92,327.89Z" style="fill:rgb(114,142,39);fill-rule:nonzero;"/>
            <path d="M262.92,327.89C262.92,327.89 212.92,326.17 206.24,346.06C198.91,367.83 200.44,408.17 200.44,408.17L213,408.17C213,408.17 217.83,379.38 221.14,364.78C224.58,349.62 273.4,356.51 279.6,350.97C284.55,346.55 287.05,339.07 287.71,327.89L262.92,327.89Z" style="fill-opacity:0.7;fill-rule:nonzero;"/>
            <path d="M276.63,327.89C276.63,327.89 227.56,330.41 231,351.1C234.76,373.76 255.92,408.17 255.92,408.17L268.55,408.17C268.55,408.17 259.93,375.09 255.94,360.67C253.19,350.67 287.27,356.51 293.47,350.97C298.42,346.55 300.92,339.07 301.58,327.89L276.63,327.89Z" style="fill:rgb(114,142,39);fill-rule:nonzero;"/>
            <path d="M276.63,327.89C276.63,327.89 227.56,330.41 231,351.1C234.76,373.76 255.92,408.17 255.92,408.17L268.55,408.17C268.55,408.17 259.93,375.09 255.94,360.67C253.19,350.67 287.27,356.51 293.47,350.97C298.42,346.55 300.92,339.07 301.58,327.89L276.63,327.89Z" style="fill-opacity:0.6;fill-rule:nonzero;"/>
            <path d="M213.81,408.47L199.6,408.47L199.21,403.97L214.73,404.37L213.81,408.47Z" style="fill:rgb(114,142,39);fill-rule:nonzero;"/>
            <path d="M269.3,408.47L255.09,408.47L252.33,403.97L269.21,403.97L269.3,408.47Z" style="fill:rgb(114,142,39);fill-rule:nonzero;"/>
            <path d="M275.08,271.18C272.31,269.84 269.08,270.96 265.61,276.3C262.14,281.64 259.11,290.57 258.75,293.12L263.68,295.87C263.68,295.87 276,278.29 275.08,271.18Z" style="fill:rgb(114,142,39);fill-rule:nonzero;"/>
            <path d="M275.08,271.18C272.31,269.84 269.08,270.96 265.61,276.3C262.14,281.64 259.11,290.57 258.75,293.12L263.68,295.87C263.68,295.87 276,278.29 275.08,271.18Z" style="fill-opacity:0.1;fill-rule:nonzero;"/>
            <path d="M307.09,265C306.85,265.93 306.62,266.86 306.41,267.79L306.41,267.87C304.895,274.463 303.78,281.142 303.07,287.87C300.96,307.19 302.01,323.56 301.6,327.87L262.92,327.87C256.92,287.22 266.58,265.4 266.58,265.4C266.58,265.4 269.81,264.52 273.91,263.88C275.15,263.68 276.47,263.51 277.8,263.39C283.272,263.07 288.758,263.07 294.23,263.39C295.41,263.45 296.6,263.54 297.75,263.65C302.75,264.16 307.09,265 307.09,265Z" style="fill:rgb(114,142,39);fill-rule:nonzero;"/>
            <path d="M297.75,263.67L296.66,265.17C296.45,265.46 291.43,272.22 280.86,274.12L279.92,274.29L279.05,273.88C275.72,272.31 273.82,270.2 273.41,267.62C273.215,266.358 273.389,265.066 273.91,263.9C275.15,263.7 276.47,263.53 277.8,263.41C283.272,263.09 288.758,263.09 294.23,263.41C295.41,263.47 296.6,263.56 297.75,263.67Z" style="fill:white;fill-rule:nonzero;"/>
            <path d="M276.46,296.66C275.495,296.652 274.573,296.251 273.91,295.55C272.48,294.12 271.79,291.55 272.07,288.55C272.52,283.85 275.21,279.95 278.21,279.68C279.279,279.587 280.334,279.989 281.07,280.77C282.5,282.21 283.19,284.77 282.91,287.77C282.46,292.48 279.77,296.38 276.78,296.65L276.46,296.66ZM278.53,280.66L278.3,280.66C275.85,280.88 273.46,284.54 273.07,288.66C272.82,291.26 273.42,293.66 274.62,294.84C275.148,295.413 275.914,295.709 276.69,295.64C279.13,295.42 281.53,291.77 281.92,287.64C282.16,285.04 281.57,282.64 280.36,281.46C279.883,280.96 279.221,280.678 278.53,280.68L278.53,280.66Z" style="fill:white;fill-rule:nonzero;"/>
            <path d="M293.56,244.91C292.25,250.19 290.72,259.91 294.23,263.41C294.23,263.41 289.83,269.41 280.33,271.17C273.17,267.79 277.8,263.41 277.8,263.41C283.8,262 283.8,257.63 283.03,253.52L293.56,244.91Z" style="fill:rgb(228,137,123);fill-rule:nonzero;"/>
            <path d="M289.27,248.42L283,253.51C283.207,254.471 283.328,255.448 283.36,256.43C285.63,256.11 288.85,253.63 289.21,251.27C289.4,250.331 289.421,249.366 289.27,248.42Z" style="fill:rgb(206,111,100);fill-rule:nonzero;"/>
            <path d="M277.6,228.64C273.96,230.15 271.51,240.12 275.94,242.41C280.37,244.7 284.48,225.79 277.6,228.64Z" style="fill:rgb(38,50,56);fill-rule:nonzero;"/>
            <path d="M294.6,237C293.79,244.16 293.68,248.37 289.87,252.05C288.129,253.816 285.749,254.811 283.269,254.811C278.789,254.811 274.918,251.563 274.14,247.15C272.94,240.71 274.46,230.09 281.62,227.24C282.803,226.719 284.081,226.45 285.373,226.45C290.48,226.45 294.683,230.653 294.683,235.76C294.683,236.175 294.655,236.589 294.6,237Z" style="fill:rgb(228,137,123);fill-rule:nonzero;"/>
            <path d="M289,221.28C292.92,218.81 298.91,221.28 297.7,224.65C295.76,230.1 300.75,224.87 300.7,231.32C300.7,235.53 295.95,245.51 292.95,245.25C289.95,244.99 288.8,239.68 290.62,233.78C291.98,229.34 288.23,231.09 282.78,231.63C271.72,232.71 264.11,218.22 276.84,219C289.15,219.75 287.84,213 287.84,213C287.84,213 292.27,220.24 285.28,220.27C278.29,220.3 280.87,226.39 289,221.28Z" style="fill:rgb(38,50,56);fill-rule:nonzero;"/>
            <path d="M297.43,244.84C296.392,246.361 294.816,247.433 293.02,247.84C290.66,248.35 289.74,246.23 290.61,244.1C291.39,242.18 293.56,239.6 295.83,240.04C298.1,240.48 298.69,243 297.43,244.84Z" style="fill:rgb(228,137,123);fill-rule:nonzero;"/>
            <path d="M295.74,226.78C297.711,226.519 299.442,225.328 300.39,223.58C301.338,221.832 300.58,229.25 295.74,226.78Z" style="fill:rgb(38,50,56);fill-rule:nonzero;"/>
            <path d="M283.64,239C283.64,239.58 283.27,240.05 282.89,240.05C282.51,240.05 282.23,239.58 282.26,239C282.29,238.42 282.62,237.94 283,237.94C283.38,237.94 283.67,238.37 283.64,239Z" style="fill:rgb(38,50,56);fill-rule:nonzero;"/>
            <path d="M277.05,239C277.05,239.58 276.68,240.05 276.3,240.05C275.92,240.05 275.64,239.58 275.67,239C275.7,238.42 276.03,237.94 276.41,237.94C276.79,237.94 277.08,238.37 277.05,239Z" style="fill:rgb(38,50,56);fill-rule:nonzero;"/>
            <path d="M279.13,239.24C278.337,241.033 277.312,242.715 276.08,244.24C276.876,244.815 277.889,245.006 278.84,244.76L279.13,239.24Z" style="fill:rgb(222,87,83);fill-rule:nonzero;"/>
            <path d="M280.47,246.36C280.377,246.36 280.3,246.283 280.3,246.19C280.3,246.187 280.3,246.183 280.3,246.18C280.3,246.092 280.372,246.02 280.46,246.02C280.463,246.02 280.467,246.02 280.47,246.02C281.964,246.034 283.386,245.368 284.33,244.21C284.384,244.133 284.49,244.111 284.57,244.16C284.636,244.226 284.636,244.334 284.57,244.4C283.583,245.654 282.066,246.379 280.47,246.36Z" style="fill:rgb(38,50,56);fill-rule:nonzero;"/>
            <path d="M285.75,236.82C285.64,236.82 285.536,236.768 285.47,236.68C284.992,235.978 284.199,235.552 283.35,235.54C283.333,235.543 283.317,235.544 283.3,235.544C283.127,235.544 282.983,235.403 282.98,235.23C282.969,235.041 283.112,234.876 283.3,234.86C284.39,234.843 285.418,235.378 286.03,236.28C286.136,236.434 286.101,236.648 285.95,236.76C285.891,236.799 285.821,236.82 285.75,236.82Z" style="fill:rgb(38,50,56);fill-rule:nonzero;"/>
            <path d="M274.3,236.69C274.247,236.7 274.193,236.7 274.14,236.69C273.974,236.598 273.911,236.388 274,236.22C274.499,235.221 275.441,234.512 276.54,234.31C276.724,234.286 276.894,234.417 276.92,234.6C276.944,234.786 276.815,234.959 276.63,234.99C275.757,235.17 275.017,235.747 274.63,236.55C274.554,236.654 274.427,236.707 274.3,236.69Z" style="fill:rgb(38,50,56);fill-rule:nonzero;"/>
            <path d="M306.41,267.77L306.41,267.91C304.895,274.503 303.78,281.182 303.07,287.91C298.86,281.98 297.62,275.78 298.36,271.91C299.17,267.63 303.88,267.51 306.41,267.77Z" style="fill:rgb(114,142,39);fill-rule:nonzero;"/>
            <path d="M306.41,267.77L306.41,267.91C304.895,274.503 303.78,281.182 303.07,287.91C298.86,281.98 297.62,275.78 298.36,271.91C299.17,267.63 303.88,267.51 306.41,267.77Z" style="fill-opacity:0.1;fill-rule:nonzero;"/>
            <path d="M300,265.67C305.28,261.29 324.53,271.62 324.53,271.62L313.19,285.83C313.19,285.83 311.19,285.38 303.19,281.78C294.8,278 294.33,270.36 300,265.67Z" style="fill:rgb(114,142,39);fill-rule:nonzero;"/>
        </g>
        <g id="freepik--Cup--inject-190">
            <path d="M195.17,332.67L193.75,353.21L183.42,353.21L183.14,349.14L182.28,336.74L182,332.67L195.17,332.67Z" style="fill:rgb(114,142,39);fill-rule:nonzero;"/>
            <path d="M195.17,332.67L193.75,353.21L183.42,353.21L183.14,349.14L182.28,336.74L182,332.67L195.17,332.67Z" style="fill-opacity:0.2;fill-rule:nonzero;"/>
            <rect x="180.88" y="332" width="15.42" height="1.33" style="fill:rgb(230,230,230);"/>
            <rect x="181.82" y="330.67" width="13.53" height="1.33" style="fill:rgb(245,245,245);"/>
            <path d="M188,336.74L188,349.14L183.01,349.14L182.16,336.74L188,336.74Z" style="fill:rgb(245,245,245);fill-rule:nonzero;"/>
        </g>
    </g>
</svg>
