<?xml version="1.0" encoding="iso-8859-1"?>
<!-- Generator: Adobe Illustrator 19.0.0, SVG Export Plug-In . SVG Version: 6.00 Build 0)  -->
<svg version="1.1" id="Layer_1" xmlns="http://www.w3.org/2000/svg" xmlns:xlink="http://www.w3.org/1999/xlink" x="0px" y="0px"
	 viewBox="0 0 512.001 512.001" style="enable-background:new 0 0 512.001 512.001;" xml:space="preserve">
<path style="fill:#FF5357;" d="M125.539,121.153H40.207H22.91c-8.188,0-14.825,6.638-14.825,14.826v197.672
	c0,8.19,6.638,14.828,14.825,14.828h17.297h42.021c-0.031-0.7-0.053-1.399-0.053-2.105c0-24.564,19.912-44.476,44.476-44.476
	c24.562,0,44.474,19.912,44.474,44.476c0,0.706-0.022,1.406-0.053,2.105h180.621c-0.033-0.7-0.055-1.399-0.055-2.105
	c0-24.564,19.912-44.476,44.474-44.476c24.564,0,44.476,19.912,44.476,44.476c0,0.706-0.022,1.406-0.053,2.105h31.259h17.297
	c8.188,0,14.825-6.638,14.825-14.828V173.162c-0.013-28.728-23.303-52.009-52.032-52.009h-60.705H152.487"/>
<path style="fill:#ED3A47;" d="M37.253,333.651V135.979c0-8.189,6.638-14.826,14.825-14.826h-3.901H30.88
	c-8.188,0-14.825,6.638-14.825,14.826v197.672c0,8.19,6.638,14.828,14.825,14.828h17.297h3.901
	C43.891,348.477,37.253,341.84,37.253,333.651z"/>
<g>
	<circle style="fill:#5B5E5E;" cx="396.116" cy="346.371" r="44.474"/>
	<circle style="fill:#5B5E5E;" cx="126.653" cy="346.371" r="44.474"/>
</g>
<g>
	<circle style="fill:#E6E9ED;" cx="396.116" cy="346.371" r="15.276"/>
	<circle style="fill:#E6E9ED;" cx="126.653" cy="346.371" r="15.276"/>
</g>
<rect x="200.402" y="158.214" style="fill:#97D3EE;" width="122.718" height="190.259"/>
<rect x="200.402" y="158.214" style="fill:#52B2CC;" width="61.362" height="190.259"/>
<rect x="200.402" y="261.789" style="fill:#EF4556;" width="122.718" height="84.582"/>
<rect x="200.402" y="261.789" style="fill:#E23740;" width="61.362" height="84.582"/>
<polyline style="fill:#97D3EE;" points="445.674,261.789 503.916,261.789 503.916,169.455 396.111,169.455 396.111,261.789 
	418.727,261.789 "/>
<rect x="323.12" y="169.456" style="fill:#52B2CC;" width="72.984" height="92.332"/>
<rect x="126.653" y="169.456" style="fill:#97D3EE;" width="72.984" height="92.332"/>
<rect x="53.661" y="169.456" style="fill:#52B2CC;" width="72.995" height="92.332"/>
<path style="fill:#F98B38;" d="M8.084,317.594v-30.029h15.665c8.292,0,15.015,6.722,15.015,15.015
	c0,8.292-6.722,15.015-15.015,15.015H8.084V317.594z"/>
<path style="fill:#97D3EE;" d="M503.916,317.594v-30.029h-23.078c-8.292,0-15.015,6.722-15.015,15.015
	c0,8.292,6.722,15.015,15.015,15.015h23.078V317.594z"/>
<g>
	<path style="fill:#424444;" d="M110.426,346.372c0-20.91,14.433-38.44,33.875-43.194c-3.398-0.831-6.945-1.281-10.598-1.281
		c-24.564,0-44.476,19.912-44.476,44.476c0,24.561,19.912,44.476,44.476,44.476c3.653,0,7.2-0.451,10.598-1.282
		C124.859,384.811,110.426,367.28,110.426,346.372z"/>
	<path style="fill:#424444;" d="M380.819,346.372c0-20.91,14.432-38.44,33.875-43.194c-3.398-0.831-6.945-1.281-10.599-1.281
		c-24.563,0-44.475,19.912-44.475,44.476c0,24.561,19.912,44.476,44.475,44.476c3.654,0,7.201-0.451,10.599-1.282
		C395.251,384.811,380.819,367.28,380.819,346.372z"/>
</g>
<path style="fill:#6CC6E4;" d="M489.039,301.897c0-8.292,6.723-15.015,15.016-15.015h-21.199c-8.292,0-15.016,6.722-15.016,15.015
	c0,8.292,6.723,15.015,15.016,15.015h21.199C495.763,316.911,489.039,310.19,489.039,301.897z"/>
<g>
	<path style="fill:#231F20;" d="M511.711,167.339c-2.95-30.413-28.657-54.271-59.826-54.271H152.487
		c-4.466,0-8.084,3.62-8.084,8.084s3.618,8.084,8.084,8.084h299.398c20.137,0,37.146,13.625,42.321,32.134h-98.092h-0.002h-64.901
		v-3.154c0-4.465-3.618-8.084-8.084-8.084H200.404c-4.466,0-8.084,3.62-8.084,8.084v3.154h-65.67h-72.99
		c-4.466,0-8.084,3.62-8.084,8.084v92.334c0,4.465,3.618,8.084,8.084,8.084h72.99h65.67v70.521h-13.449
		c-0.045-0.399-0.109-0.791-0.164-1.188c-0.047-0.343-0.088-0.688-0.141-1.029c-0.084-0.536-0.185-1.065-0.286-1.595
		c-0.057-0.301-0.106-0.605-0.168-0.903c-0.135-0.651-0.289-1.296-0.448-1.938c-0.042-0.171-0.077-0.346-0.122-0.517
		c-0.209-0.808-0.438-1.609-0.683-2.402c-0.077-0.247-0.165-0.487-0.245-0.732c-0.178-0.545-0.357-1.091-0.552-1.629
		c-0.113-0.31-0.237-0.613-0.356-0.921c-0.179-0.465-0.357-0.929-0.548-1.387c-0.137-0.328-0.286-0.651-0.429-0.975
		c-0.19-0.429-0.378-0.858-0.58-1.281c-0.157-0.331-0.323-0.656-0.487-0.983c-0.205-0.407-0.41-0.815-0.624-1.216
		c-0.176-0.328-0.357-0.652-0.539-0.975c-0.219-0.39-0.441-0.779-0.669-1.164c-0.192-0.322-0.389-0.64-0.587-0.958
		c-0.235-0.376-0.474-0.75-0.719-1.12c-0.207-0.313-0.416-0.623-0.629-0.93c-0.253-0.365-0.511-0.727-0.773-1.085
		c-0.22-0.301-0.441-0.6-0.666-0.897c-0.271-0.355-0.548-0.704-0.826-1.051c-0.232-0.288-0.462-0.577-0.701-0.859
		c-0.289-0.345-0.586-0.683-0.884-1.021c-0.24-0.273-0.48-0.546-0.725-0.815c-0.314-0.341-0.635-0.672-0.957-1.004
		c-0.244-0.251-0.484-0.506-0.733-0.752c-0.346-0.343-0.703-0.675-1.057-1.009c-0.238-0.223-0.471-0.452-0.712-0.67
		c-0.412-0.373-0.835-0.732-1.259-1.091c-0.196-0.167-0.387-0.34-0.586-0.503c-0.625-0.515-1.262-1.016-1.911-1.503
		c-0.153-0.114-0.312-0.221-0.466-0.333c-0.503-0.369-1.009-0.735-1.525-1.085c-0.253-0.171-0.513-0.333-0.77-0.5
		c-0.427-0.279-0.854-0.559-1.289-0.827c-0.29-0.178-0.586-0.345-0.88-0.517c-0.413-0.243-0.825-0.485-1.244-0.716
		c-0.312-0.171-0.628-0.334-0.943-0.499c-0.412-0.216-0.824-0.431-1.242-0.637c-0.327-0.161-0.658-0.314-0.988-0.468
		c-0.417-0.194-0.834-0.386-1.257-0.569c-0.338-0.147-0.679-0.288-1.021-0.427c-0.425-0.174-0.85-0.343-1.281-0.506
		c-0.348-0.132-0.697-0.259-1.048-0.383c-0.433-0.153-0.87-0.301-1.307-0.443c-0.355-0.115-0.71-0.227-1.068-0.336
		c-0.444-0.134-0.893-0.26-1.341-0.382c-0.359-0.098-0.718-0.195-1.08-0.285c-0.458-0.114-0.921-0.218-1.383-0.32
		c-0.36-0.079-0.719-0.161-1.082-0.233c-0.476-0.095-0.957-0.176-1.438-0.258c-0.356-0.06-0.71-0.125-1.068-0.178
		c-0.506-0.074-1.016-0.134-1.526-0.194c-0.338-0.04-0.676-0.087-1.016-0.121c-0.57-0.056-1.146-0.094-1.721-0.132
		c-0.286-0.018-0.569-0.046-0.857-0.06c-0.866-0.043-1.735-0.067-2.611-0.067c-0.875,0-1.746,0.024-2.611,0.067
		c-0.288,0.014-0.571,0.042-0.858,0.06c-0.575,0.038-1.15,0.075-1.72,0.132c-0.342,0.033-0.679,0.081-1.019,0.121
		c-0.509,0.06-1.019,0.12-1.523,0.194c-0.359,0.053-0.715,0.118-1.071,0.179c-0.48,0.081-0.958,0.163-1.434,0.257
		c-0.364,0.072-0.725,0.154-1.088,0.234c-0.46,0.101-0.921,0.205-1.376,0.318c-0.364,0.091-0.725,0.189-1.088,0.287
		c-0.446,0.122-0.891,0.247-1.333,0.379c-0.361,0.109-0.719,0.222-1.077,0.338c-0.435,0.141-0.868,0.288-1.298,0.44
		c-0.355,0.125-0.708,0.254-1.06,0.387c-0.426,0.161-0.847,0.329-1.267,0.5c-0.346,0.141-0.692,0.284-1.035,0.432
		c-0.418,0.181-0.831,0.371-1.243,0.563c-0.335,0.156-0.67,0.312-1.001,0.473c-0.412,0.203-0.818,0.415-1.224,0.628
		c-0.321,0.168-0.644,0.334-0.96,0.509c-0.412,0.226-0.816,0.465-1.22,0.703c-0.301,0.177-0.605,0.348-0.902,0.531
		c-0.424,0.26-0.839,0.532-1.254,0.804c-0.267,0.175-0.54,0.344-0.804,0.523c-0.493,0.335-0.974,0.684-1.454,1.035
		c-0.178,0.129-0.361,0.252-0.537,0.384c-0.646,0.484-1.281,0.983-1.902,1.496c-0.214,0.177-0.419,0.363-0.632,0.543
		c-0.407,0.347-0.817,0.693-1.214,1.052c-0.251,0.226-0.493,0.463-0.738,0.694c-0.346,0.326-0.694,0.649-1.032,0.984
		c-0.254,0.252-0.501,0.513-0.75,0.771c-0.316,0.327-0.633,0.652-0.941,0.986c-0.25,0.272-0.494,0.551-0.738,0.828
		c-0.293,0.333-0.586,0.666-0.872,1.006c-0.241,0.288-0.475,0.58-0.71,0.872c-0.276,0.344-0.55,0.688-0.816,1.038
		c-0.229,0.3-0.452,0.603-0.674,0.908c-0.259,0.355-0.514,0.712-0.764,1.075c-0.216,0.312-0.427,0.624-0.635,0.94
		c-0.243,0.368-0.48,0.738-0.714,1.111c-0.2,0.32-0.399,0.641-0.593,0.967c-0.226,0.38-0.446,0.766-0.664,1.153
		c-0.184,0.328-0.368,0.654-0.545,0.986c-0.212,0.398-0.415,0.8-0.618,1.204c-0.166,0.331-0.334,0.661-0.493,0.995
		c-0.199,0.419-0.387,0.845-0.576,1.27c-0.146,0.328-0.294,0.653-0.432,0.984c-0.19,0.453-0.365,0.913-0.542,1.372
		c-0.121,0.313-0.247,0.621-0.362,0.937c-0.194,0.534-0.371,1.075-0.548,1.616c-0.081,0.248-0.171,0.493-0.248,0.743
		c-0.246,0.792-0.474,1.593-0.683,2.4c-0.046,0.179-0.082,0.361-0.126,0.54c-0.157,0.635-0.309,1.272-0.443,1.915
		c-0.063,0.301-0.112,0.607-0.169,0.91c-0.1,0.528-0.2,1.055-0.285,1.589c-0.054,0.341-0.095,0.686-0.141,1.029
		c-0.054,0.396-0.119,0.789-0.164,1.188H22.91c-3.717,0-6.741-3.025-6.741-6.743v-7.972h7.581c12.736,0,23.099-10.362,23.099-23.099
		c0-12.737-10.362-23.099-23.099-23.099h-7.581V135.979c0-3.718,3.025-6.742,6.741-6.742h102.63c4.466,0,8.084-3.62,8.084-8.084
		s-3.618-8.084-8.084-8.084H22.91C10.277,113.068,0,123.346,0,135.979v151.585v30.029v16.056c0,12.634,10.277,22.912,22.91,22.912
		H75.09c4.759,24.12,26.065,42.371,51.56,42.371c25.494,0,46.799-18.25,51.558-42.371h22.196h122.723h21.427
		c4.759,24.12,26.064,42.371,51.558,42.371c25.495,0,46.801-18.25,51.56-42.371h41.419c12.633,0,22.91-10.278,22.91-22.912v-16.056
		v-30.029v-25.776v-88.63v-3.704C512,168.721,511.893,168.014,511.711,167.339z M23.749,295.649c3.821,0,6.931,3.109,6.931,6.931
		s-3.11,6.931-6.931,6.931h-7.581V295.65h7.581V295.649z M388.027,177.539v76.165H331.21v-76.165L388.027,177.539L388.027,177.539z
		 M208.489,269.873h106.554v68.416H208.489V269.873z M315.042,169.455v84.249h-45.191v-87.403h45.192v3.154H315.042z
		 M253.683,166.301v87.403h-45.194v-87.403L253.683,166.301L253.683,166.301z M61.745,177.539h56.821v76.165H61.745V177.539z
		 M191.552,253.705h-56.817v-76.165h56.817V253.705z M126.65,382.764c-19.482,0-35.435-15.389-36.348-34.649v-0.001
		c-0.026-0.579-0.044-1.157-0.044-1.741c0-20.066,16.326-36.392,36.392-36.392c20.065,0,36.39,16.326,36.39,36.392
		c0,0.584-0.018,1.162-0.044,1.741v0.001C162.083,367.375,146.131,382.764,126.65,382.764z M396.111,382.764
		c-19.469,0-35.414-15.371-36.344-34.614c-0.001-0.02,0.001-0.04,0-0.06c-0.027-0.571-0.045-1.141-0.045-1.717
		c0-20.066,16.325-36.392,36.39-36.392c20.066,0,36.392,16.326,36.392,36.392C432.503,366.438,416.178,382.764,396.111,382.764z
		 M489.09,340.393h-40.757c-0.045-0.399-0.109-0.791-0.164-1.188c-0.047-0.343-0.088-0.688-0.141-1.029
		c-0.084-0.534-0.184-1.061-0.285-1.589c-0.057-0.303-0.107-0.609-0.169-0.91c-0.134-0.643-0.286-1.281-0.443-1.915
		c-0.044-0.179-0.081-0.362-0.126-0.54c-0.209-0.808-0.438-1.608-0.683-2.4c-0.078-0.25-0.167-0.494-0.248-0.743
		c-0.177-0.541-0.354-1.082-0.548-1.616c-0.114-0.315-0.241-0.624-0.362-0.937c-0.177-0.459-0.352-0.919-0.542-1.372
		c-0.138-0.331-0.288-0.656-0.432-0.984c-0.189-0.426-0.376-0.85-0.576-1.27c-0.16-0.335-0.327-0.664-0.493-0.995
		c-0.203-0.403-0.405-0.806-0.618-1.204c-0.177-0.332-0.361-0.66-0.545-0.987c-0.217-0.386-0.435-0.771-0.663-1.151
		c-0.194-0.326-0.393-0.648-0.594-0.97c-0.233-0.373-0.47-0.743-0.711-1.109c-0.209-0.316-0.42-0.63-0.636-0.94
		c-0.25-0.361-0.506-0.719-0.764-1.075c-0.222-0.304-0.445-0.608-0.674-0.908c-0.267-0.35-0.541-0.695-0.816-1.038
		c-0.235-0.292-0.469-0.584-0.71-0.872c-0.286-0.341-0.578-0.674-0.872-1.006c-0.245-0.278-0.487-0.556-0.738-0.829
		c-0.307-0.334-0.623-0.659-0.938-0.984c-0.25-0.259-0.498-0.521-0.753-0.774c-0.335-0.333-0.681-0.654-1.026-0.979
		c-0.248-0.233-0.492-0.471-0.744-0.7c-0.395-0.357-0.8-0.7-1.204-1.044c-0.215-0.182-0.423-0.372-0.64-0.551
		c-0.622-0.513-1.256-1.011-1.902-1.495c-0.176-0.132-0.359-0.254-0.537-0.384c-0.481-0.35-0.961-0.701-1.454-1.035
		c-0.264-0.18-0.537-0.348-0.804-0.523c-0.416-0.272-0.83-0.544-1.254-0.804c-0.297-0.182-0.601-0.355-0.902-0.531
		c-0.405-0.237-0.808-0.475-1.22-0.703c-0.317-0.175-0.64-0.341-0.961-0.509c-0.405-0.212-0.812-0.425-1.223-0.627
		c-0.332-0.163-0.668-0.319-1.005-0.475c-0.412-0.191-0.824-0.38-1.241-0.562c-0.343-0.149-0.689-0.291-1.035-0.433
		c-0.419-0.171-0.842-0.34-1.267-0.5c-0.351-0.133-0.704-0.262-1.058-0.387c-0.43-0.152-0.863-0.299-1.299-0.44
		c-0.357-0.116-0.716-0.23-1.076-0.337c-0.442-0.134-0.888-0.259-1.334-0.38c-0.361-0.098-0.722-0.196-1.085-0.287
		c-0.456-0.113-0.916-0.217-1.378-0.318c-0.362-0.08-0.723-0.162-1.088-0.234c-0.475-0.094-0.954-0.176-1.434-0.257
		c-0.357-0.06-0.712-0.125-1.071-0.179c-0.504-0.074-1.014-0.134-1.523-0.194c-0.34-0.04-0.677-0.087-1.019-0.121
		c-0.57-0.056-1.146-0.094-1.72-0.132c-0.287-0.018-0.57-0.046-0.857-0.06c-0.866-0.043-1.735-0.067-2.611-0.067
		c-0.875,0-1.746,0.024-2.611,0.067c-0.287,0.014-0.57,0.042-0.857,0.06c-0.576,0.038-1.151,0.075-1.721,0.132
		c-0.341,0.033-0.677,0.08-1.016,0.121c-0.51,0.06-1.021,0.12-1.526,0.194c-0.358,0.053-0.712,0.117-1.068,0.178
		c-0.481,0.082-0.961,0.163-1.438,0.258c-0.362,0.072-0.722,0.153-1.082,0.233c-0.464,0.102-0.925,0.206-1.383,0.32
		c-0.362,0.091-0.721,0.188-1.08,0.285c-0.449,0.123-0.897,0.248-1.341,0.382c-0.358,0.108-0.714,0.221-1.068,0.336
		c-0.439,0.142-0.874,0.29-1.307,0.443c-0.351,0.124-0.701,0.251-1.049,0.384c-0.429,0.163-0.855,0.332-1.278,0.506
		c-0.342,0.14-0.683,0.28-1.022,0.427c-0.423,0.183-0.841,0.375-1.257,0.569c-0.331,0.154-0.662,0.307-0.988,0.468
		c-0.418,0.205-0.83,0.42-1.242,0.637c-0.315,0.166-0.632,0.328-0.943,0.499c-0.419,0.232-0.831,0.474-1.244,0.716
		c-0.293,0.172-0.59,0.34-0.88,0.517c-0.435,0.267-0.861,0.548-1.289,0.827c-0.257,0.168-0.516,0.329-0.77,0.5
		c-0.514,0.349-1.016,0.712-1.517,1.08c-0.157,0.115-0.319,0.223-0.475,0.34c-0.649,0.486-1.285,0.987-1.91,1.502
		c-0.199,0.164-0.389,0.337-0.586,0.503c-0.424,0.359-0.847,0.719-1.259,1.091c-0.241,0.219-0.475,0.447-0.712,0.67
		c-0.356,0.333-0.711,0.665-1.057,1.009c-0.249,0.247-0.489,0.501-0.733,0.752c-0.322,0.332-0.645,0.664-0.957,1.004
		c-0.247,0.268-0.485,0.542-0.727,0.815c-0.297,0.337-0.594,0.675-0.883,1.019c-0.238,0.285-0.47,0.573-0.703,0.863
		c-0.278,0.346-0.554,0.694-0.824,1.047c-0.226,0.296-0.448,0.597-0.668,0.899c-0.261,0.358-0.518,0.719-0.771,1.083
		c-0.213,0.308-0.423,0.619-0.629,0.931c-0.245,0.37-0.484,0.744-0.719,1.12c-0.198,0.318-0.396,0.636-0.587,0.958
		c-0.229,0.383-0.449,0.771-0.668,1.16c-0.183,0.326-0.366,0.651-0.542,0.982c-0.213,0.399-0.416,0.803-0.619,1.207
		c-0.165,0.33-0.332,0.658-0.49,0.991c-0.199,0.42-0.388,0.847-0.577,1.273c-0.144,0.327-0.293,0.651-0.432,0.982
		c-0.191,0.455-0.366,0.917-0.544,1.379c-0.12,0.31-0.246,0.617-0.359,0.93c-0.194,0.532-0.37,1.073-0.546,1.613
		c-0.082,0.25-0.172,0.496-0.25,0.748c-0.246,0.792-0.474,1.592-0.682,2.399c-0.046,0.179-0.082,0.361-0.126,0.54
		c-0.157,0.635-0.309,1.272-0.443,1.915c-0.063,0.303-0.112,0.61-0.17,0.915c-0.099,0.526-0.201,1.052-0.283,1.583
		c-0.054,0.344-0.096,0.692-0.142,1.037c-0.054,0.393-0.117,0.785-0.163,1.181h-12.681v-70.517h64.901h0.002h22.613
		c4.466,0,8.084-3.62,8.084-8.084c0-4.465-3.618-8.084-8.084-8.084h-14.529v-76.165h91.626v76.165h-50.158
		c-4.466,0-8.084,3.62-8.084,8.084c0,4.465,3.618,8.084,8.084,8.084h50.158v9.607h-14.993c-12.736,0-23.099,10.362-23.099,23.099
		s10.362,23.099,23.099,23.099h14.993v7.972C495.832,337.369,492.807,340.393,489.09,340.393z M495.832,309.509h-14.993
		c-3.821,0-6.931-3.109-6.931-6.931c0-3.822,3.11-6.931,6.931-6.931h14.993V309.509z"/>
	<path style="fill:#231F20;" d="M126.65,323.012c-12.881,0-23.36,10.479-23.36,23.36s10.479,23.36,23.36,23.36
		s23.36-10.479,23.36-23.36S139.531,323.012,126.65,323.012z M126.65,353.564c-3.966,0-7.192-3.226-7.192-7.192
		c0-3.966,3.226-7.192,7.192-7.192c3.966,0,7.192,3.226,7.192,7.192C133.842,350.338,130.616,353.564,126.65,353.564z"/>
	<path style="fill:#231F20;" d="M396.113,323.012c-12.881,0-23.36,10.479-23.36,23.36s10.479,23.36,23.36,23.36
		c12.881,0,23.36-10.479,23.36-23.36S408.994,323.012,396.113,323.012z M396.113,353.564c-3.966,0-7.192-3.226-7.192-7.192
		c0-3.966,3.226-7.192,7.192-7.192c3.966,0,7.192,3.226,7.192,7.192C403.305,350.338,400.079,353.564,396.113,353.564z"/>
</g>
<g>
</g>
<g>
</g>
<g>
</g>
<g>
</g>
<g>
</g>
<g>
</g>
<g>
</g>
<g>
</g>
<g>
</g>
<g>
</g>
<g>
</g>
<g>
</g>
<g>
</g>
<g>
</g>
<g>
</g>
</svg>
