<?xml version="1.0" encoding="UTF-8" standalone="no"?>
<!DOCTYPE svg PUBLIC "-//W3C//DTD SVG 1.1//EN" "http://www.w3.org/Graphics/SVG/1.1/DTD/svg11.dtd">
<svg width="100%" height="100%" viewBox="0 0 500 500" version="1.1" xmlns="http://www.w3.org/2000/svg" xmlns:xlink="http://www.w3.org/1999/xlink" xml:space="preserve" xmlns:serif="http://www.serif.com/" style="fill-rule:evenodd;clip-rule:evenodd;stroke-linejoin:round;stroke-miterlimit:2;">
    <g>
        <g id="freepik--background-complete--inject-2" transform="matrix(1.14017,0,0,1.14017,-35.0433,-34.5695)">
            <path d="M182,334.43C182,334.43 123.62,345.9 107.73,346.69C91.84,347.48 67.42,349.22 55.5,350.13C43.58,351.04 36.34,356.84 63.3,358.89C90.26,360.94 60.19,370 73,373.36C73,373.36 431.31,373.8 444.52,373.8C457.73,373.8 462.37,369.17 439.52,365.13C375.81,353.83 420.52,356.36 425.68,353.83C441.1,346.3 375.81,351.69 368.43,344.63C363.88,340.27 467.3,344.25 444.04,338.01C420.78,331.77 182,334.43 182,334.43Z" style="fill:rgb(245,245,245);fill-rule:nonzero;"/>
            <path d="M347.9,290.61C348.12,294.34 348.14,301.34 358.32,290.24C361.89,286.35 380.19,282.79 386.95,298.76C387.95,301.02 376.63,308.19 364.1,306.3C351.57,304.41 351.88,302.61 351.88,302.61C351.88,302.61 344.19,305.4 343.32,292.06C343.32,292.06 339.5,293.76 338.03,292.06C336.56,290.36 338.24,287.37 341.71,285.78C349.6,282.17 347.9,290.61 347.9,290.61Z" style="fill:rgb(245,245,245);fill-rule:nonzero;"/>
            <path d="M358.15,331.81L360,331.81L358.37,324.07L360.89,303.55L355.12,301.46C355.12,301.46 356.73,315.96 356.78,321C357.011,324.628 357.469,328.239 358.15,331.81Z" style="fill:rgb(245,245,245);fill-rule:nonzero;"/>
            <path d="M347.07,331.81C347.25,330.64 347.07,322.06 347.07,322.06C347.07,322.06 355.27,314.98 355.15,314.61C355.03,314.24 361.66,303.31 361.66,303.31L353.18,299.87C353.18,299.87 353.67,310.17 352.08,312.45C350.49,314.73 345.19,322.06 345.19,322.06L345.19,331.81L347.07,331.81Z" style="fill:rgb(245,245,245);fill-rule:nonzero;"/>
            <path d="M383.26,316.45L383.7,331.81L385.34,331.81L385.34,315.81C385.34,315.81 382,303 384.49,298C386.98,293 375.03,301.45 375.03,301.45C375.15,302.45 381.3,314.73 383.26,316.45Z" style="fill:rgb(245,245,245);fill-rule:nonzero;"/>
            <path d="M380.19,313.63C385.08,317.46 389.69,328.82 390.85,331.81L392.39,331.81L392.6,331.69L385,314.48L379.07,299.87L372,304C374.052,307.73 376.838,311.006 380.19,313.63Z" style="fill:rgb(245,245,245);fill-rule:nonzero;"/>
            <path d="M372.89,279.59L367.38,279.59L366.92,289.59L364,296.42L369.66,310.31L367.32,312.45L371.2,310.93L367.94,296.42C367.94,296.42 376.88,294.55 375.06,289.18C374.009,286.066 373.282,282.853 372.89,279.59Z" style="fill:rgb(245,245,245);fill-rule:nonzero;"/>
            <path d="M367,288.81L366,275.81C366,275.81 370,273.64 370.44,273.99C370.88,274.34 373.65,275.73 373.92,278.86C374.19,281.99 374.7,285.64 376.53,286.51C378.36,287.38 380.53,287.12 381.13,288.77C381.612,289.869 382.4,290.807 383.4,291.47C384.4,292.133 384.4,295.64 377.7,294.16C373.728,293.34 370.039,291.495 367,288.81Z" style="fill:rgb(245,245,245);fill-rule:nonzero;"/>
            <path d="M373.42,279.94L375.86,278.94C375.86,278.94 373.33,278.51 373.42,276.25C373.51,273.99 372.12,274.94 371.42,271.9C370.72,268.86 371.68,268.72 370.55,267.9C369.42,267.08 366.29,266.74 365.94,267.9C365.396,269.559 365.219,271.316 365.42,273.05C365.446,273.656 365.952,274.141 366.559,274.141C366.771,274.141 366.98,274.082 367.16,273.97L367.94,279.92L373.42,279.94Z" style="fill:rgb(245,245,245);fill-rule:nonzero;"/>
            <path d="M301.29,285C301.54,289.15 301.56,296.94 312.89,284.59C316.89,280.25 337.23,276.29 344.75,294.07C345.82,296.58 333.27,304.56 319.32,302.46C305.37,300.36 305.72,298.35 305.72,298.35C305.72,298.35 297.16,301.45 296.19,286.61C296.19,286.61 291.94,288.5 290.3,286.61C288.66,284.72 290.54,281.39 294.41,279.61C303.18,275.59 301.29,285 301.29,285Z" style="fill:rgb(240,240,240);fill-rule:nonzero;"/>
            <path d="M313.33,334.43L315.53,334.43L313,322.22L315.8,299.38L309.37,297.06C309.37,297.06 311.17,313.19 311.23,318.8C311.23,322.23 312.41,329.38 313.33,334.43Z" style="fill:rgb(240,240,240);fill-rule:nonzero;"/>
            <path d="M302,334.43L302.77,333.71C302.77,333.71 300.13,331.71 300.37,330.97C300.61,330.23 300.37,319.97 300.37,319.97C300.37,319.97 309.5,312.09 309.37,311.68C309.24,311.27 316.62,299.1 316.62,299.1L307.19,295.27C307.19,295.27 307.73,306.73 305.96,309.27C304.19,311.81 298.3,319.97 298.3,319.97L298.3,332.2L300.23,334.43L302,334.43Z" style="fill:rgb(240,240,240);fill-rule:nonzero;"/>
            <path d="M341.24,334.43L343,334.43L343,313.06C343,313.06 339.32,298.81 342.06,293.22C344.8,287.63 331.53,297.06 331.53,297.06C331.67,298.15 338.53,311.83 340.69,313.74L341.24,334.43Z" style="fill:rgb(240,240,240);fill-rule:nonzero;"/>
            <path d="M328.07,299.93C330.372,304.068 333.488,307.698 337.23,310.6C343.52,315.52 349.4,331.66 349.4,331.66L351.04,330.66L342.61,311.5L336,295.28L328.07,299.93Z" style="fill:rgb(240,240,240);fill-rule:nonzero;"/>
            <path d="M326.55,266.61C332.08,272.45 333.43,279 331.66,285.06C329.89,291.12 322.31,291.42 322.31,291.42L322.73,307.96L318.16,308.78L321.16,306.96L318,290.57L322.71,283.7L322.24,269.25L318.94,268.31C318.94,268.31 318.21,261.47 319.71,260.24C321.21,259.01 324.99,262.4 324.06,264.31C323.13,266.22 326,266 326.55,266.61Z" style="fill:rgb(240,240,240);fill-rule:nonzero;"/>
            <path d="M371.51,286.9C371.76,291.04 371.78,298.83 383.11,286.49C387.11,282.15 407.45,278.19 414.97,295.97C416.04,298.48 403.49,306.46 389.54,304.36C375.59,302.26 375.94,300.25 375.94,300.25C375.94,300.25 367.38,303.35 366.41,288.51C366.41,288.51 362.16,290.4 360.52,288.51C358.88,286.62 360.76,283.29 364.63,281.51C373.4,277.51 371.51,286.9 371.51,286.9Z" style="fill:rgb(240,240,240);fill-rule:nonzero;"/>
            <path d="M383.21,334.43L385.34,334.43L383.18,324.14L386,301.3L379.55,299C379.55,299 381.34,315.13 381.41,320.74C381.72,325.337 382.321,329.909 383.21,334.43Z" style="fill:rgb(240,240,240);fill-rule:nonzero;"/>
            <path d="M371.59,334.43C370.99,333.85 370.45,333.22 370.59,332.89C370.83,332.21 370.59,321.89 370.59,321.89C370.59,321.89 379.72,314.01 379.59,313.6C379.46,313.19 386.8,301 386.8,301L377.37,297.17C377.37,297.17 377.91,308.63 376.14,311.17C374.37,313.71 368.48,321.87 368.48,321.87L368.48,334.09L368.74,334.4L371.59,334.43Z" style="fill:rgb(240,240,240);fill-rule:nonzero;"/>
            <path d="M411.41,334.43L413.18,334.43L413.18,315C413.18,315 409.5,300.75 412.24,295.15C414.98,289.55 401.71,299 401.71,299C401.84,300.09 408.71,313.76 410.87,315.68L411.41,334.43Z" style="fill:rgb(240,240,240);fill-rule:nonzero;"/>
            <path d="M398.29,301.85C400.591,305.986 403.707,309.613 407.45,312.51C413.74,317.44 419.62,333.57 419.62,333.57L421.26,332.62L412.83,313.46L406.22,297.2L398.29,301.85Z" style="fill:rgb(240,240,240);fill-rule:nonzero;"/>
            <path d="M397.55,266.55C399.55,268.35 398.29,275.19 401.71,285.3C403.71,291.3 393.78,293.36 393.78,293.36L397.41,309.51L393.09,311.2L395.69,308.82L389.4,293.36L392.68,285.71L393.21,274.14L392.07,275.19C392.07,275.19 389.07,262.46 393.07,259.33C394.6,258.14 398.67,260.42 398.12,262.47C397.57,264.52 396.92,266 397.55,266.55Z" style="fill:rgb(240,240,240);fill-rule:nonzero;"/>
            <path d="M170.65,337.62C170.65,337.62 184.65,328.14 192.95,326.62C201.25,325.1 218.73,330.32 227.59,326.8C236.45,323.28 245.09,306.35 256.24,314.1C267.39,321.85 275.24,331.03 284.82,326.62C294.4,322.21 298.67,310.4 309.82,317.56C320.97,324.72 353.7,335.48 368.09,328.3C382.48,321.12 385.71,324.69 396.86,328.3C408.01,331.91 411.7,331.3 420.86,331.79C430.02,332.28 444.09,338 444.09,338L170.65,337.62Z" style="fill:rgb(245,245,245);fill-rule:nonzero;"/>
            <path d="M97.09,243.95L110.55,243.95L110.55,344.08L116.72,344.08L116.72,243.95L193.82,243.95L193.82,344.08L199.99,344.08L199.99,243.95L213.45,243.95L213.45,233.49L97.09,233.49L97.09,243.95Z" style="fill:rgb(240,240,240);fill-rule:nonzero;"/>
            <path d="M155.27,184.24L85.27,225.81L95.56,232.81C95.56,232.81 133.02,231.14 155.3,208.29C155.3,208.29 182.63,231.1 216.15,233.5L222.87,225.82L155.27,184.24Z" style="fill:rgb(240,240,240);fill-rule:nonzero;"/>
            <rect x="94.43" y="233.49" width="6.86" height="111.14" style="fill:rgb(224,224,224);"/>
            <rect x="209.26" y="233.49" width="6.86" height="111.14" style="fill:rgb(224,224,224);"/>
            <path d="M218.81,237.87L91.73,237.87L88.45,229.89L222.09,229.89L218.81,237.87Z" style="fill:rgb(224,224,224);fill-rule:nonzero;"/>
            <path d="M76.71,231.59L63.29,234.31L75,228.87L66.32,228.87C104.39,219.8 152.82,181.69 152.82,181.69L157.73,181.69C157.73,181.69 206.15,219.8 244.22,228.87L235.57,228.87L247.25,234.31L233.84,231.59L242.06,237.8C242.06,237.8 202.66,228.61 155.27,191.29C107.88,228.61 68.49,237.8 68.49,237.8L76.71,231.59Z" style="fill:rgb(224,224,224);fill-rule:nonzero;"/>
            <rect x="152.46" y="188.28" width="5.63" height="44.52" style="fill:rgb(224,224,224);"/>
            <g transform="matrix(0.920232,-0.391374,0.391374,0.920232,-72.51,73.6)">
                <rect x="141.4" y="195.82" width="5.84" height="37.79" style="fill:rgb(224,224,224);"/>
            </g>
            <g transform="matrix(0.920232,-0.391374,0.391374,0.920232,-79.47,61.66)">
                <rect x="108.62" y="216.13" width="5.84" height="19.37" style="fill:rgb(224,224,224);"/>
            </g>
            <g transform="matrix(0.904008,0.427516,-0.427516,0.904008,104.29,-34.31)">
                <rect x="125.64" y="196.18" width="5.84" height="37.79" style="fill:rgb(224,224,224);"/>
            </g>
            <g transform="matrix(-0.920232,-0.391374,0.391374,-0.920232,235.16,477.36)">
                <rect x="163.3" y="195.82" width="5.84" height="37.79" style="fill:rgb(224,224,224);"/>
            </g>
            <g transform="matrix(-0.920232,-0.391374,0.391374,-0.920232,293.76,511.49)">
                <rect x="196.08" y="216.13" width="5.84" height="19.37" style="fill:rgb(224,224,224);"/>
            </g>
            <g transform="matrix(-0.904008,0.427516,-0.427516,-0.904008,438.45,331.7)">
                <rect x="179.07" y="196.18" width="5.84" height="37.79" style="fill:rgb(224,224,224);"/>
            </g>
            <path d="M286,341.43C274.09,341.31 253.8,337.43 250.23,331.18C248.68,328.48 242.38,330.35 234.36,333.18C230.25,330.92 216.65,337.58 203.36,341.64C202.543,341.666 201.725,341.646 200.91,341.58C183.91,340.22 168.08,331.1 154.91,335.31C152.95,335.943 150.923,336.547 148.83,337.12C145.824,336.953 142.811,337.315 139.93,338.19C136.8,339.19 133.47,340.14 130.03,341C123.702,341.898 117.29,342.032 110.93,341.4C101.93,340.35 87.86,343.04 78.93,345.11C71.045,346.334 63.236,348.004 55.54,350.11L348.78,350.11C348.78,350.11 332.25,348.68 314.26,347.23C314.26,347.25 297.91,341.55 286,341.43Z" style="fill:rgb(240,240,240);fill-rule:nonzero;"/>
            <path d="M432.31,371.67C427.692,367.392 422.005,364.438 415.85,363.12C416.393,360.501 417.614,358.07 419.39,356.07C417.028,356.86 415.097,358.595 414.06,360.86C413.615,358.38 413.615,355.84 414.06,353.36C413.317,355.11 412.956,356.999 413,358.9C413.044,360.801 411.57,354.9 409.29,354.28C409.751,356.442 409.865,358.663 409.63,360.86C409.395,363.057 408.7,356.66 406.51,356.07C406.814,357.652 406.814,359.278 406.51,360.86C406.206,362.442 404.65,356.4 400.69,356.07C401.062,356.976 401.062,357.994 400.69,358.9C400.318,359.806 399.6,355.9 397.23,355.21C397.516,353.789 398.061,352.433 398.84,351.21C397.633,352.034 396.741,353.244 396.31,354.64C396.471,352.516 395.856,350.405 394.58,348.7C393.304,346.995 393.95,352.92 391,354.64C391.397,353.486 391.92,352.379 392.56,351.34C391.006,351.622 389.691,352.662 389.06,354.11C388.429,355.558 387.62,348.44 383.32,347.11C383.406,348.093 383.263,349.082 382.9,350C382.537,350.918 382.57,347.14 381.47,346.34C381.673,347.898 381.592,349.481 381.23,351.01C380.868,352.539 376.49,350.01 374.3,343.95C372.574,346.889 371.87,350.319 372.3,353.7C372.73,357.081 369.94,351.61 369.94,346.46C369.94,346.46 369.09,350.94 370.44,354.36C368.795,352.495 366.504,351.32 364.03,351.07C364.174,352.43 364.174,353.8 364.03,355.16C363.061,353.715 361.594,352.675 359.91,352.24C358.226,351.805 361.12,355.92 359.46,358.77C359.376,357.501 359.007,356.267 358.38,355.16C358.214,356.965 357.375,358.644 356.03,359.86C356.01,357.732 356.468,355.627 357.37,353.7C358.272,351.773 355.53,355.53 354.76,359.96C354.007,357.782 353.832,355.446 354.25,353.18C353.201,354.227 352.472,355.553 352.15,357C351.716,355.627 351.716,354.153 352.15,352.78C349.568,353.948 347.779,356.387 347.44,359.2C347.101,362.013 345.82,354.76 342.36,353.97C343.456,355.006 344.245,356.324 344.64,357.78C345.035,359.236 341.18,353.58 337.05,356.02C337.649,356.73 337.811,357.716 337.47,358.58C336.124,358.346 335.034,357.342 334.69,356.02C332.576,357.674 331.569,360.387 332.09,363.02C330.167,362.652 328.465,361.537 327.36,359.92C327.522,361.255 328.183,362.481 329.21,363.35C326.706,364.194 323.93,363.13 322.63,360.83C322.069,362.089 321.783,363.452 321.79,364.83C321.797,366.208 319.51,361.64 314.12,360.83C314.12,360.83 312.94,364.67 310.24,365.33C310.227,363.781 310.544,362.247 311.17,360.83C311.796,359.413 309.17,361.9 308.97,365.2C308.388,362.903 307.196,360.805 305.52,359.13C303.844,357.455 304.76,364.01 302.99,365.33C302.99,365.33 303.24,362.03 302.06,360.19C302.06,360.19 302.41,363.61 301.6,365.33C301.6,365.33 301.13,363.75 298.6,362.33C298.6,362.33 296.3,364.57 295.98,366.15C295.945,364.949 296.09,363.749 296.41,362.59C295.341,363.97 294.722,365.646 294.64,367.39C294.558,369.134 293.64,366.81 293.04,364.57C292.814,365.496 292.814,366.464 293.04,367.39C291.965,366.654 290.71,366.225 289.41,366.15C288.11,366.075 289.65,368.56 288.65,369.71C288.65,369.71 286.38,368.49 283.76,371.71L432.31,371.67Z" style="fill:rgb(230,230,230);fill-rule:nonzero;"/>
            <path d="M87.27,369.76C91.885,365.476 97.573,362.518 103.73,361.2C103.187,358.581 101.966,356.15 100.19,354.15C102.552,354.94 104.483,356.675 105.52,358.94C105.965,356.46 105.965,353.92 105.52,351.44C106.271,353.196 106.639,355.091 106.6,357C106.561,358.909 108.03,353 110.31,352.39C109.849,354.548 109.734,356.766 109.97,358.96C110.206,361.154 110.9,354.76 113.09,354.17C112.786,355.752 112.786,357.378 113.09,358.96C113.394,360.542 114.95,354.5 118.91,354.17C118.539,355.077 118.539,356.093 118.91,357C119.281,357.907 120,354 122.37,353.31C122.084,351.889 121.539,350.533 120.76,349.31C121.964,350.137 122.856,351.345 123.29,352.74C123.724,354.135 122.95,349.18 125.02,346.81C125.02,346.81 125.65,351.03 128.6,352.74C128.203,351.586 127.68,350.479 127.04,349.44C128.591,349.728 129.903,350.767 130.54,352.21C131.177,353.653 131.98,346.54 136.28,345.21C136.194,346.193 136.337,347.182 136.7,348.1C137.063,349.018 137.03,345.25 138.13,344.44C137.927,346.002 138.008,347.587 138.37,349.12C138.732,350.653 143.11,348.12 145.3,342.05C147.028,344.992 147.732,348.426 147.3,351.81C146.868,355.194 149.66,349.72 149.66,344.56C149.66,344.56 150.51,349.04 149.16,352.47C150.805,350.604 153.095,349.425 155.57,349.17C155.426,350.53 155.426,351.9 155.57,353.26C156.541,351.819 158.008,350.784 159.69,350.35C161.372,349.916 158.48,354.02 160.14,356.87C160.225,355.601 160.594,354.367 161.22,353.26C161.386,355.065 162.225,356.744 163.57,357.96C163.59,355.836 163.132,353.734 162.23,351.81C161.328,349.886 164.07,353.63 164.84,358.06C165.593,355.882 165.768,353.546 165.35,351.28C166.399,352.327 167.128,353.653 167.45,355.1C167.882,353.73 167.882,352.26 167.45,350.89C170.033,352.051 171.824,354.488 172.16,357.3C172.496,360.112 173.78,352.86 177.24,352.07C176.142,353.108 175.353,354.431 174.96,355.89C174.567,357.349 178.42,351.68 182.55,354.12C181.951,354.834 181.79,355.822 182.13,356.69C183.479,356.454 184.569,355.446 184.91,354.12C187.02,355.777 188.027,358.487 187.51,361.12C189.431,360.753 191.132,359.642 192.24,358.03C192.077,359.362 191.416,360.585 190.39,361.45C192.894,362.302 195.676,361.237 196.97,358.93C197.529,360.189 197.815,361.552 197.81,362.93C197.805,364.308 200.09,359.73 205.48,358.93C205.48,358.93 206.66,362.77 209.36,363.43C209.373,361.881 209.056,360.347 208.43,358.93C207.804,357.513 210.43,360 210.63,363.3C211.214,361.004 212.406,358.907 214.08,357.23C215.754,355.553 214.84,362.11 216.61,363.43C216.61,363.43 216.36,360.14 217.54,358.29C217.54,358.29 217.19,361.72 218,363.43C218,363.43 218.47,361.85 221,360.43C221,360.43 223.3,362.67 223.62,364.25C223.655,363.049 223.51,361.849 223.19,360.69C224.259,362.07 224.878,363.746 224.96,365.49C225.042,367.234 225.96,364.91 226.56,362.67C226.784,363.597 226.784,364.563 226.56,365.49C227.637,364.76 228.891,364.331 230.19,364.25C231.489,364.169 229.95,366.66 230.95,367.81C230.95,367.81 233.22,366.59 235.84,369.81L87.27,369.76Z" style="fill:rgb(230,230,230);fill-rule:nonzero;"/>
            <path d="M73,373.36C73,373.36 92.06,362.46 103.3,360.69C114.54,358.92 138.3,364.95 150.37,360.9C162.44,356.85 174.15,337.4 189.3,346.3C204.45,355.2 215.15,365.76 228.12,360.69C241.09,355.62 246.94,342.06 262.12,350.28C277.3,358.5 321.74,370.87 341.29,362.63C360.84,354.39 365.23,358.48 380.38,362.63C395.53,366.78 400.55,366.08 412.94,366.63C425.33,367.18 444.55,373.8 444.55,373.8L73,373.36Z" style="fill:rgb(224,224,224);fill-rule:nonzero;"/>
        </g>
        <g id="freepik--Shadow--inject-2" transform="matrix(1.14017,0,0,1.14017,-35.0433,-34.5695)">
            <ellipse id="freepik--path--inject-2" cx="250" cy="419.58" rx="207.86" ry="18.66" style="fill:rgb(245,245,245);"/>
        </g>
        <g id="freepik--Stars--inject-2" transform="matrix(1.14017,0,0,1.14017,-35.0433,-34.5695)">
            <path d="M162.22,75.97L164.23,75.56L162.22,75.15L162.71,74.41L161.97,74.9L161.55,72.89L161.14,74.9L160.4,74.41L160.89,75.15L158.88,75.56L160.89,75.97L160.4,76.72L161.14,76.23L161.55,78.24L161.97,76.23L162.71,76.72L162.22,75.97Z" style="fill:rgb(114,142,39);fill-rule:nonzero;"/>
            <path d="M162.22,75.97L164.23,75.56L162.22,75.15L162.71,74.41L161.97,74.9L161.55,72.89L161.14,74.9L160.4,74.41L160.89,75.15L158.88,75.56L160.89,75.97L160.4,76.72L161.14,76.23L161.55,78.24L161.97,76.23L162.71,76.72L162.22,75.97Z" style="fill:white;fill-opacity:0.8;fill-rule:nonzero;"/>
            <path d="M353.25,74.19L355.26,73.78L353.25,73.36L353.75,72.62L353,73.11L352.59,71.1L352.18,73.11L351.44,72.62L351.93,73.36L349.92,73.78L351.93,74.19L351.44,74.93L352.18,74.44L352.59,76.45L353,74.44L353.75,74.93L353.25,74.19Z" style="fill:rgb(114,142,39);fill-rule:nonzero;"/>
            <path d="M353.25,74.19L355.26,73.78L353.25,73.36L353.75,72.62L353,73.11L352.59,71.1L352.18,73.11L351.44,72.62L351.93,73.36L349.92,73.78L351.93,74.19L351.44,74.93L352.18,74.44L352.59,76.45L353,74.44L353.75,74.93L353.25,74.19Z" style="fill:white;fill-opacity:0.8;fill-rule:nonzero;"/>
            <path d="M310.66,165.18L314.68,164.35L310.66,163.53L311.64,162.04L310.16,163.02L309.33,159L308.51,163.02L307.02,162.04L308.01,163.53L303.99,164.35L308.01,165.18L307.02,166.66L308.51,165.68L309.33,169.7L310.16,165.68L311.64,166.66L310.66,165.18Z" style="fill:rgb(114,142,39);fill-rule:nonzero;"/>
            <path d="M310.66,165.18L314.68,164.35L310.66,163.53L311.64,162.04L310.16,163.02L309.33,159L308.51,163.02L307.02,162.04L308.01,163.53L303.99,164.35L308.01,165.18L307.02,166.66L308.51,165.68L309.33,169.7L310.16,165.68L311.64,166.66L310.66,165.18Z" style="fill:white;fill-opacity:0.8;fill-rule:nonzero;"/>
            <path d="M409.6,230.97L413.62,230.14L409.6,229.32L410.58,227.83L409.1,228.81L408.27,224.79L407.45,228.81L405.96,227.83L406.94,229.32L402.92,230.14L406.94,230.97L405.96,232.45L407.45,231.47L408.27,235.49L409.1,231.47L410.58,232.45L409.6,230.97Z" style="fill:rgb(114,142,39);fill-rule:nonzero;"/>
            <path d="M409.6,230.97L413.62,230.14L409.6,229.32L410.58,227.83L409.1,228.81L408.27,224.79L407.45,228.81L405.96,227.83L406.94,229.32L402.92,230.14L406.94,230.97L405.96,232.45L407.45,231.47L408.27,235.49L409.1,231.47L410.58,232.45L409.6,230.97Z" style="fill:white;fill-opacity:0.8;fill-rule:nonzero;"/>
            <path d="M151,117.55L155.02,116.73L151,115.9L151.98,114.42L150.5,115.4L149.67,111.38L148.85,115.4L147.36,114.42L148.34,115.9L144.32,116.73L148.34,117.55L147.36,119.04L148.85,118.06L149.67,122.08L150.5,118.06L151.98,119.04L151,117.55Z" style="fill:rgb(114,142,39);fill-rule:nonzero;"/>
            <path d="M151,117.55L155.02,116.73L151,115.9L151.98,114.42L150.5,115.4L149.67,111.38L148.85,115.4L147.36,114.42L148.34,115.9L144.32,116.73L148.34,117.55L147.36,119.04L148.85,118.06L149.67,122.08L150.5,118.06L151.98,119.04L151,117.55Z" style="fill:white;fill-opacity:0.8;fill-rule:nonzero;"/>
            <path d="M75.38,126.58L79.4,125.75L75.38,124.93L76.36,123.44L74.88,124.43L74.06,120.41L73.23,124.43L71.75,123.44L72.73,124.93L68.71,125.75L72.73,126.58L71.75,128.06L73.23,127.08L74.06,131.1L74.88,127.08L76.36,128.06L75.38,126.58Z" style="fill:rgb(114,142,39);fill-rule:nonzero;"/>
            <path d="M75.38,126.58L79.4,125.75L75.38,124.93L76.36,123.44L74.88,124.43L74.06,120.41L73.23,124.43L71.75,123.44L72.73,124.93L68.71,125.75L72.73,126.58L71.75,128.06L73.23,127.08L74.06,131.1L74.88,127.08L76.36,128.06L75.38,126.58Z" style="fill:white;fill-opacity:0.8;fill-rule:nonzero;"/>
            <path d="M360.12,197.89L369.63,195.95L360.12,194L362.44,190.49L358.93,192.81L356.98,183.31L355.04,192.81L351.52,190.49L353.84,194L344.34,195.95L353.84,197.89L351.52,201.41L355.04,199.09L356.98,208.59L358.93,199.09L362.44,201.41L360.12,197.89Z" style="fill:rgb(114,142,39);fill-rule:nonzero;"/>
            <path d="M360.12,197.89L369.63,195.95L360.12,194L362.44,190.49L358.93,192.81L356.98,183.31L355.04,192.81L351.52,190.49L353.84,194L344.34,195.95L353.84,197.89L351.52,201.41L355.04,199.09L356.98,208.59L358.93,199.09L362.44,201.41L360.12,197.89Z" style="fill:white;fill-opacity:0.8;fill-rule:nonzero;"/>
            <path d="M425.17,126.44L427.51,125.95L425.17,125.47L425.74,124.61L424.87,125.18L424.39,122.83L423.91,125.18L423.04,124.61L423.61,125.47L421.26,125.95L423.61,126.44L423.04,127.31L423.91,126.73L424.39,129.08L424.87,126.73L425.74,127.31L425.17,126.44Z" style="fill:rgb(114,142,39);fill-rule:nonzero;"/>
            <path d="M425.17,126.44L427.51,125.95L425.17,125.47L425.74,124.61L424.87,125.18L424.39,122.83L423.91,125.18L423.04,124.61L423.61,125.47L421.26,125.95L423.61,126.44L423.04,127.31L423.91,126.73L424.39,129.08L424.87,126.73L425.74,127.31L425.17,126.44Z" style="fill:white;fill-opacity:0.8;fill-rule:nonzero;"/>
            <path d="M405.92,180.08L408.27,179.6L405.92,179.12L406.5,178.25L405.63,178.82L405.15,176.47L404.67,178.82L403.8,178.25L404.37,179.12L402.02,179.6L404.37,180.08L403.8,180.95L404.67,180.38L405.15,182.73L405.63,180.38L406.5,180.95L405.92,180.08Z" style="fill:rgb(114,142,39);fill-rule:nonzero;"/>
            <path d="M405.92,180.08L408.27,179.6L405.92,179.12L406.5,178.25L405.63,178.82L405.15,176.47L404.67,178.82L403.8,178.25L404.37,179.12L402.02,179.6L404.37,180.08L403.8,180.95L404.67,180.38L405.15,182.73L405.63,180.38L406.5,180.95L405.92,180.08Z" style="fill:white;fill-opacity:0.8;fill-rule:nonzero;"/>
            <path d="M301.64,106.62L303.99,106.14L301.64,105.66L302.21,104.79L301.34,105.36L300.86,103.01L300.38,105.36L299.51,104.79L300.08,105.66L297.74,106.14L300.08,106.62L299.51,107.49L300.38,106.91L300.86,109.26L301.34,106.91L302.21,107.49L301.64,106.62Z" style="fill:rgb(114,142,39);fill-rule:nonzero;"/>
            <path d="M301.64,106.62L303.99,106.14L301.64,105.66L302.21,104.79L301.34,105.36L300.86,103.01L300.38,105.36L299.51,104.79L300.08,105.66L297.74,106.14L300.08,106.62L299.51,107.49L300.38,106.91L300.86,109.26L301.34,106.91L302.21,107.49L301.64,106.62Z" style="fill:white;fill-opacity:0.8;fill-rule:nonzero;"/>
            <path d="M111.67,85.48L114.01,85L111.67,84.52L112.24,83.65L111.37,84.23L110.89,81.88L110.41,84.23L109.54,83.65L110.11,84.52L107.76,85L110.11,85.48L109.54,86.35L110.41,85.78L110.89,88.13L111.37,85.78L112.24,86.35L111.67,85.48Z" style="fill:rgb(114,142,39);fill-rule:nonzero;"/>
            <path d="M111.67,85.48L114.01,85L111.67,84.52L112.24,83.65L111.37,84.23L110.89,81.88L110.41,84.23L109.54,83.65L110.11,84.52L107.76,85L110.11,85.48L109.54,86.35L110.41,85.78L110.89,88.13L111.37,85.78L112.24,86.35L111.67,85.48Z" style="fill:white;fill-opacity:0.8;fill-rule:nonzero;"/>
            <path d="M189.12,161.17L191.47,160.69L189.12,160.21L189.69,159.34L188.82,159.91L188.34,157.56L187.86,159.91L186.99,159.34L187.57,160.21L185.22,160.69L187.57,161.17L186.99,162.04L187.86,161.46L188.34,163.81L188.82,161.46L189.69,162.04L189.12,161.17Z" style="fill:rgb(114,142,39);fill-rule:nonzero;"/>
            <path d="M189.12,161.17L191.47,160.69L189.12,160.21L189.69,159.34L188.82,159.91L188.34,157.56L187.86,159.91L186.99,159.34L187.57,160.21L185.22,160.69L187.57,161.17L186.99,162.04L187.86,161.46L188.34,163.81L188.82,161.46L189.69,162.04L189.12,161.17Z" style="fill:white;fill-opacity:0.8;fill-rule:nonzero;"/>
            <path d="M325.98,227.02L328.33,226.54L325.98,226.06L326.55,225.19L325.68,225.76L325.2,223.41L324.72,225.76L323.85,225.19L324.43,226.06L322.08,226.54L324.43,227.02L323.85,227.89L324.72,227.31L325.2,229.66L325.68,227.31L326.55,227.89L325.98,227.02Z" style="fill:rgb(114,142,39);fill-rule:nonzero;"/>
            <path d="M325.98,227.02L328.33,226.54L325.98,226.06L326.55,225.19L325.68,225.76L325.2,223.41L324.72,225.76L323.85,225.19L324.43,226.06L322.08,226.54L324.43,227.02L323.85,227.89L324.72,227.31L325.2,229.66L325.68,227.31L326.55,227.89L325.98,227.02Z" style="fill:white;fill-opacity:0.8;fill-rule:nonzero;"/>
            <path d="M93.03,198.39L95.38,197.91L93.03,197.43L93.61,196.56L92.74,197.13L92.26,194.78L91.78,197.13L90.91,196.56L91.48,197.43L89.13,197.91L91.48,198.39L90.91,199.26L91.78,198.68L92.26,201.03L92.74,198.68L93.61,199.26L93.03,198.39Z" style="fill:rgb(114,142,39);fill-rule:nonzero;"/>
            <path d="M93.03,198.39L95.38,197.91L93.03,197.43L93.61,196.56L92.74,197.13L92.26,194.78L91.78,197.13L90.91,196.56L91.48,197.43L89.13,197.91L91.48,198.39L90.91,199.26L91.78,198.68L92.26,201.03L92.74,198.68L93.61,199.26L93.03,198.39Z" style="fill:white;fill-opacity:0.8;fill-rule:nonzero;"/>
            <path d="M130.4,154.38L132.75,153.9L130.4,153.42L130.97,152.55L130.1,153.13L129.62,150.78L129.14,153.13L128.27,152.55L128.85,153.42L126.5,153.9L128.85,154.38L128.27,155.25L129.14,154.68L129.62,157.03L130.1,154.68L130.97,155.25L130.4,154.38Z" style="fill:rgb(114,142,39);fill-rule:nonzero;"/>
            <path d="M130.4,154.38L132.75,153.9L130.4,153.42L130.97,152.55L130.1,153.13L129.62,150.78L129.14,153.13L128.27,152.55L128.85,153.42L126.5,153.9L128.85,154.38L128.27,155.25L129.14,154.68L129.62,157.03L130.1,154.68L130.97,155.25L130.4,154.38Z" style="fill:white;fill-opacity:0.8;fill-rule:nonzero;"/>
        </g>
        <g id="freepik--Moon--inject-2" transform="matrix(1.14017,0,0,1.14017,-35.0433,-34.5695)">
            <circle cx="362.25" cy="129.56" r="33.32" style="fill:rgb(114,142,39);"/>
            <circle cx="362.25" cy="129.56" r="33.32" style="fill:white;fill-opacity:0.6;"/>
        </g>
        <g id="freepik--shooting-star--inject-2" transform="matrix(1.14017,0,0,1.14017,-35.0433,-34.5695)">
            <path d="M204.2,103.54C204.2,103.54 223.83,82.67 286.2,76.45C286.2,76.45 262.6,80.09 242.84,87.84C242.84,87.84 269.01,79.99 306.02,77.91C306.02,77.91 267.17,79.91 228.32,97.41C228.32,97.41 244.16,91.78 257.83,89.21C257.83,89.21 240.18,93.32 211.83,109.82L204.6,111.24L204.2,103.54Z" style="fill:rgb(114,142,39);fill-rule:nonzero;"/>
            <path d="M204.2,103.54C204.2,103.54 223.83,82.67 286.2,76.45C286.2,76.45 262.6,80.09 242.84,87.84C242.84,87.84 269.01,79.99 306.02,77.91C306.02,77.91 267.17,79.91 228.32,97.41C228.32,97.41 244.16,91.78 257.83,89.21C257.83,89.21 240.18,93.32 211.83,109.82L204.6,111.24L204.2,103.54Z" style="fill:white;fill-opacity:0.8;fill-rule:nonzero;"/>
            <path d="M207.83,111.21L217.34,109.26L207.83,107.32L210.15,103.8L206.64,106.12L204.69,96.62L202.75,106.12L199.23,103.8L201.55,107.32L192.05,109.26L201.55,111.21L199.23,114.72L202.75,112.4L204.69,121.91L206.64,112.4L210.15,114.72L207.83,111.21Z" style="fill:rgb(114,142,39);fill-rule:nonzero;"/>
            <path d="M207.83,111.21L217.34,109.26L207.83,107.32L210.15,103.8L206.64,106.12L204.69,96.62L202.75,106.12L199.23,103.8L201.55,107.32L192.05,109.26L201.55,111.21L199.23,114.72L202.75,112.4L204.69,121.91L206.64,112.4L210.15,114.72L207.83,111.21Z" style="fill:white;fill-opacity:0.6;fill-rule:nonzero;"/>
        </g>
        <g id="freepik--Characters--inject-2" transform="matrix(1.14017,0,0,1.14017,-35.0433,-34.5695)">
            <path d="M250.06,154.74C250.72,156.23 251.11,161.43 250.85,164.65C250.59,167.87 251.37,171.19 253.51,173.06C255.65,174.93 253.17,176.96 253.17,176.96C256.42,177.31 256.51,174.61 256.51,174.61C256.51,174.61 257.17,181.08 264.9,181.29C272.63,181.5 290.9,171.58 285.79,164.65C280.68,157.72 281.57,158.53 283.02,155.41C283.741,154.199 283.856,152.718 283.33,151.41C282.532,150.032 281.383,148.889 280,148.1C276.43,145.71 278,142.84 277.62,140.33C277.24,137.82 273.27,138.88 270.3,134.79C267.33,130.7 262.03,131.87 257.06,134.02C252.09,136.17 250.13,141.62 249.63,146.36C249.269,149.156 249.415,151.995 250.06,154.74Z" style="fill:rgb(38,50,56);fill-rule:nonzero;"/>
            <path d="M250.06,154.74C250.72,156.23 251.11,161.43 250.85,164.65C250.59,167.87 251.37,171.19 253.51,173.06C255.65,174.93 253.17,176.96 253.17,176.96C256.42,177.31 256.51,174.61 256.51,174.61C256.51,174.61 257.17,181.08 264.9,181.29C272.63,181.5 290.9,171.58 285.79,164.65C280.68,157.72 281.57,158.53 283.02,155.41C283.741,154.199 283.856,152.718 283.33,151.41C282.11,150.92 280.74,150.84 279.72,150.41C277.84,149.55 276.66,144.06 274.08,146.41C271.5,148.76 252.93,142.11 250.08,145.83C249.94,146.01 249.79,146.22 249.64,146.45C249.287,149.216 249.429,152.024 250.06,154.74Z" style="fill-opacity:0.2;fill-rule:nonzero;"/>
            <path d="M246.61,330.75C245.97,336.29 268.26,341.91 293.61,336.81C318.96,331.71 329.3,316.51 329.3,316.51C329.3,316.51 323.5,320.2 320.59,292.24C317.68,264.28 311.36,227.36 306.35,222.62C301.34,217.88 246.61,330.75 246.61,330.75Z" style="fill:rgb(114,142,39);fill-rule:nonzero;"/>
            <path d="M246.61,330.75C245.97,336.29 268.26,341.91 293.61,336.81C318.96,331.71 329.3,316.51 329.3,316.51C329.3,316.51 323.5,320.2 320.59,292.24C317.68,264.28 311.36,227.36 306.35,222.62C301.34,217.88 246.61,330.75 246.61,330.75Z" style="fill-opacity:0.2;fill-rule:nonzero;"/>
            <path d="M343.71,405.67C333.16,402.57 327.13,390.74 329.39,380.67C331.65,370.6 323.74,376.22 322.61,363.4C321.48,350.58 306.5,229.4 306.47,229.24C304.01,183.1 296.14,170.55 296.14,170.55C268.66,169.39 255.49,179.74 255.49,179.74C255.49,179.74 263.38,211.66 263.67,226.65C263.67,226.95 247.99,335.91 252.88,383.73C252.88,383.73 243.94,389.17 246.88,394.94C249.82,400.71 231,408 237.05,417.74L352.48,417.74C352.48,417.74 354.27,408.78 343.71,405.67Z" style="fill:rgb(38,50,56);fill-rule:nonzero;"/>
            <path d="M237.05,417.74L352.47,417.74C352.47,417.74 354.26,408.74 343.71,405.67C333.16,402.6 327.13,390.74 329.39,380.67C331.65,370.6 323.73,376.22 322.6,363.4C321.47,350.58 306.49,229.4 306.47,229.24C304.01,183.1 296.14,170.55 296.14,170.55C268.66,169.39 255.49,179.74 255.49,179.74C255.49,179.74 263.37,211.66 263.66,226.65C263.66,226.73 262.66,233.87 261.19,245.26C258.31,268.05 253.77,307.85 252.36,342.11C251.71,357.89 251.73,372.5 252.88,383.73C252.88,383.73 243.94,389.17 246.88,394.94C249.82,400.71 231,408 237.05,417.74Z" style="fill:white;fill-opacity:0.3;fill-rule:nonzero;"/>
            <path d="M267.2,175.21C270.2,173.7 269.6,172.21 269.63,170.11C269.63,168.91 266.26,164.65 266.26,164.65L275.01,155.72C275.27,161.31 279.16,168.53 283.75,171.18C281.98,174.25 276.89,175.9 274.17,176.59L271.88,185.08L269.88,176.89C268.42,176.73 266.88,176.3 267.2,175.21Z" style="fill:rgb(228,137,123);fill-rule:nonzero;"/>
            <path d="M252.36,342.08C254.68,340.92 259.6,337.93 260.2,333.08C260.99,326.75 271.02,323.59 278.2,322.8C285.38,322.01 288.97,313.3 292.14,304.86C295.31,296.42 306.85,297.48 306.85,297.48L306.85,242L261.21,245.28C258.31,268 253.77,307.82 252.36,342.08Z" style="fill-opacity:0.2;fill-rule:nonzero;"/>
            <path d="M248.33,145.19C248.33,145.19 250,155.83 256.61,158C263.22,160.17 257.27,141.31 257.27,141.31L248.33,145.19Z" style="fill:rgb(38,50,56);fill-rule:nonzero;"/>
            <path d="M274.79,161.18C273.554,165.33 269.67,168.166 265.34,168.08C262.604,168.078 259.969,167.029 257.98,165.15C257.698,164.892 257.431,164.618 257.18,164.33C252.58,158.96 248.31,148.33 253.59,142.24C257.308,137.868 263.964,137.326 268.34,141.04C269.6,142.097 270.587,143.442 271.22,144.96C274.31,152 276.46,155.93 274.79,161.18Z" style="fill:rgb(228,137,123);fill-rule:nonzero;"/>
            <path d="M257.73,154.64C257.94,156.673 257.87,158.726 257.52,160.74C258.573,160.888 259.64,160.57 260.44,159.87L257.73,154.64Z" style="fill:rgb(222,87,83);fill-rule:nonzero;"/>
            <path d="M251.91,153.9C252.045,153.907 252.173,153.837 252.24,153.72C252.706,152.916 253.519,152.373 254.44,152.25C254.618,152.22 254.749,152.065 254.749,151.885C254.749,151.705 254.618,151.55 254.44,151.52C253.272,151.64 252.231,152.319 251.65,153.34C251.541,153.51 251.59,153.74 251.76,153.85C251.807,153.875 251.858,153.892 251.91,153.9Z" style="fill:rgb(38,50,56);fill-rule:nonzero;"/>
            <path d="M261.82,149C261.887,148.965 261.94,148.909 261.97,148.84C262.015,148.649 261.899,148.453 261.71,148.4C260.569,148.102 259.351,148.379 258.45,149.14C258.38,149.206 258.34,149.298 258.34,149.395C258.34,149.492 258.38,149.584 258.45,149.65C258.518,149.718 258.609,149.756 258.705,149.756C258.801,149.756 258.892,149.718 258.96,149.65C259.688,149.07 260.651,148.87 261.55,149.11C261.651,149.111 261.748,149.071 261.82,149Z" style="fill:rgb(38,50,56);fill-rule:nonzero;"/>
            <path d="M261.87,139L262.87,142.25C264.172,142.268 265.252,143.301 265.33,144.6C265.51,147.6 268.8,150.98 271.51,151.67C271.51,151.67 271.06,150.53 272.12,150.36C273.18,150.19 275.58,156.14 275,159.76C275,159.76 276.64,155.98 275.43,149.15C274.32,142.83 272.35,138.03 270.2,136.37L261.87,139Z" style="fill:rgb(38,50,56);fill-rule:nonzero;"/>
            <path d="M262.89,142.28C250.12,137.03 248.35,150.12 248.33,145.19C248.33,140.53 253.98,133.55 262.02,132.57C270.06,131.59 272.02,139.64 272.02,139.64C272.02,139.64 265.08,143.17 262.89,142.28Z" style="fill:rgb(38,50,56);fill-rule:nonzero;"/>
            <path d="M262.4,162.53C262.309,162.528 262.225,162.479 262.18,162.4C262.16,162.363 262.149,162.322 262.149,162.28C262.149,162.188 262.2,162.104 262.28,162.06C263.552,161.283 264.49,160.06 264.91,158.63C264.938,158.518 265.039,158.438 265.155,158.438C265.293,158.438 265.407,158.552 265.407,158.69C265.407,158.71 265.405,158.73 265.4,158.75C264.955,160.322 263.924,161.665 262.52,162.5C262.483,162.519 262.442,162.529 262.4,162.53Z" style="fill:rgb(38,50,56);fill-rule:nonzero;"/>
            <path d="M248.6,149.79C247.95,146.59 246.32,138.4 252.11,137.98C253.91,137.85 254.83,138.34 255.25,139.07C257.66,136.19 264.06,135.72 267.25,137.23C271.61,139.23 274.7,146.99 270.59,148.31C266.48,149.63 265.41,148.31 262.7,145.58C260.17,143.03 255.78,146.32 253.16,142.77C253.093,144.717 252.39,146.589 251.16,148.1C247.03,152.51 254.24,161.16 252.16,163.8C250.08,166.44 253.42,170.4 253.42,170.4C253.42,170.4 249.42,169.89 249.64,166.4C249.86,162.91 250.7,161.28 249.05,159.03C247.4,156.78 249.26,153 248.6,149.79Z" style="fill:rgb(38,50,56);fill-rule:nonzero;"/>
            <path d="M277.06,149C277.106,150.923 276.386,152.787 275.06,154.18C273.28,156 271.11,154.72 270.53,152.37C270.03,150.27 270.32,146.74 272.64,145.82C274.96,144.9 277,146.65 277.06,149Z" style="fill:rgb(228,137,123);fill-rule:nonzero;"/>
            <path d="M260.76,165.42C260.327,164.233 259.992,163.012 259.76,161.77C259.6,160.43 261.76,160.02 261.76,160.02L262.6,161.1C262.6,161.1 261.14,161.15 261.16,162.16C261.16,162.68 263.73,166.48 263.73,166.48C263.73,166.48 266.24,166.08 264.49,164.06L265.43,163.27C265.43,163.27 267.29,165.05 268.25,164.44C269.21,163.83 269.04,161.81 269.04,161.81C269.04,161.81 265.59,157.81 264.87,157.81C264.15,157.81 263.02,160.71 263.02,160.71L262.24,159.61C262.24,159.61 263.51,156.85 264.46,156.54C265.41,156.23 269.53,160.47 269.53,160.47C270.575,159.39 271.073,157.89 270.88,156.4C270.446,154.211 269.691,152.098 268.64,150.13L270.29,150.13C270.29,150.13 274.1,157.13 275.49,158.13C275.672,158.273 275.8,158.474 275.85,158.7C277.808,160.061 278.629,162.576 277.85,164.83C277.35,166.83 276.24,166.45 275.58,168.09C274.92,169.73 276.24,170.74 275.31,171.98C274.38,173.22 271.03,172.52 270.23,173.77C269.27,174.95 267.704,175.467 266.23,175.09C265.33,174.63 264.07,172.91 261.84,172.84C259.61,172.77 259.12,171.72 258.95,169.52C258.78,167.32 258.27,168.43 256.88,166.43C255.49,164.43 253.77,159.22 253.77,159.22C253.77,159.22 259.19,166.12 260.76,165.42Z" style="fill:rgb(38,50,56);fill-rule:nonzero;"/>
            <path d="M255.79,155.25C255.79,155.25 255.73,156.81 254.44,156.3C254.44,156.3 255.18,156.34 255.79,155.25Z" style="fill:rgb(38,50,56);fill-rule:nonzero;"/>
            <path d="M261.9,151.93C261.9,151.93 261.98,154.48 260.54,152.93C260.54,153 261.28,153 261.9,151.93Z" style="fill:rgb(38,50,56);fill-rule:nonzero;"/>
            <path d="M262.4,175.07C262.4,175.07 274.19,210.81 306.63,215.26L306.63,220.87L307.68,228.65C307.68,228.65 304.78,270.79 305.04,287.45C305.04,287.45 289.7,283.45 286.69,290.35C283.68,297.25 292.12,306.75 281.57,309.35C271.02,311.95 261.42,307.24 262.4,317.79C263.38,328.34 249.8,327.66 246.61,330.72L263.61,223.64L244.1,200.78L253.9,179.7L262.4,175.07Z" style="fill:rgb(114,142,39);fill-rule:nonzero;"/>
            <path d="M263.55,224.15L259.78,247.83L260.89,247.54C271.27,244.81 292.14,238.65 297.72,232.09C301.06,228.15 303.4,221.34 304.97,214.98C305.09,214.473 305.21,213.973 305.33,213.48C304.57,205.48 303.65,198.88 302.69,193.42L293.11,181.2C293.11,181.2 291.95,202.72 286.68,205.2C285.972,205.523 285.235,205.781 284.48,205.97C278.78,207.5 268.86,207.4 261.29,207.02C255.46,206.73 251.03,206.28 251.03,206.28L251.3,209.21L263.52,223.53C263.53,223.74 263.54,224 263.55,224.15Z" style="fill-opacity:0.2;fill-rule:nonzero;"/>
            <path d="M229.57,199.71C229.57,199.71 241.09,227.63 239.44,243.19C239.44,243.19 233.71,240.65 232.85,247.85C231.99,255.05 237.85,265.6 233.72,270.85C229.59,276.1 227.86,274.39 226.9,280.61C225.94,286.83 234.5,296.43 218.48,306.19C202.46,315.95 169.88,325.71 167.18,316.48C164.48,307.25 205.67,203.78 205.67,203.78L229.57,199.71Z" style="fill:rgb(46,53,58);fill-rule:nonzero;"/>
            <path d="M229.57,199.71C229.57,199.71 241.09,227.63 239.44,243.19C239.44,243.19 233.71,240.65 232.85,247.85C231.99,255.05 237.85,265.6 233.72,270.85C229.59,276.1 227.86,274.39 226.9,280.61C225.94,286.83 234.5,296.43 218.48,306.19C202.46,315.95 169.88,325.71 167.18,316.48C164.48,307.25 205.67,203.78 205.67,203.78L229.57,199.71Z" style="fill:white;fill-opacity:0.2;fill-rule:nonzero;"/>
            <path d="M233.72,167.68C232.54,175.09 232.39,184.85 229.49,194.42C226.59,203.99 223.49,204.21 216.66,202.62C209.83,201.03 205.66,171.82 215.17,167.11C224.68,162.4 233.72,167.68 233.72,167.68Z" style="fill:rgb(114,142,39);fill-rule:nonzero;"/>
            <path d="M233.72,167.68C232.54,175.09 232.39,184.85 229.49,194.42C226.59,203.99 223.49,204.21 216.66,202.62C209.83,201.03 205.66,171.82 215.17,167.11C224.68,162.4 233.72,167.68 233.72,167.68Z" style="fill:white;fill-opacity:0.5;fill-rule:nonzero;"/>
            <path d="M212.79,157.38C212.79,157.38 210.1,156.19 205.7,159.38C201.3,162.57 201.62,168.73 201.01,171.3C200.4,173.87 201.65,181.85 195.34,183C189.03,184.15 189.54,190.68 191.34,196.3C193.14,201.92 187.6,196.54 191.53,202.02C195.46,207.5 217.86,205.13 223.07,201.02C228.28,196.91 223.07,193.1 223.74,191.41C224.41,189.72 227.8,189.34 229.31,187.41C230.31,186.13 229.09,181.61 229.74,178.93C230.39,176.25 233.8,176.23 233.95,170.06C234.18,158.67 217.11,149.61 212.79,157.38Z" style="fill:rgb(46,53,58);fill-rule:nonzero;"/>
            <path d="M227.77,198.88C227.77,198.88 231.38,216.73 241.87,219.45C252.36,222.17 255.12,221.88 255.12,221.88L252.58,228.65C252.58,228.65 238.22,231.81 231.15,228.93C224.08,226.05 217.48,207.85 217.48,207.85L227.77,198.88Z" style="fill:rgb(114,142,39);fill-rule:nonzero;"/>
            <path d="M256.09,219.45C256.09,219.45 258.09,221.99 258.09,222.45C258.09,222.91 256.04,227.57 255.14,227.97C254.24,228.37 251.36,227.97 251.36,227.97C251.36,227.97 252.33,219.67 256.09,219.45Z" style="fill:rgb(228,137,123);fill-rule:nonzero;"/>
            <path d="M187,224C187.05,225.9 187.11,227.91 187.2,230L187.2,231.06C187.26,232.51 187.32,234.06 187.4,235.59C187.46,236.79 187.53,238.04 187.6,239.31L218.24,242C218.39,239.63 218.54,237.44 218.75,235.27C218.84,234.27 218.95,233.2 219.08,232.16C219.078,232.13 219.078,232.1 219.08,232.07C219.18,231.31 219.27,230.54 219.39,229.77C219.71,227.63 220.12,225.38 220.67,222.92C220.85,222.09 221.05,221.25 221.27,220.37L221.48,219.54C222.21,216.61 223.13,213.34 224.31,209.54C224.94,207.54 225.63,205.35 226.41,203.01C226.74,202.01 227.09,200.95 227.46,199.87C227.73,199.06 228.02,198.23 228.32,197.38C224.164,196.059 219.92,195.033 215.62,194.31C211.083,193.51 206.495,193.029 201.89,192.87C195.89,192.82 189.1,193.49 189.1,193.49C189.1,193.49 188.1,193.72 187.52,200.03C187.52,200.2 187.52,200.39 187.47,200.6C187.35,201.98 187.23,203.66 187.13,205.67C186.93,210 186.82,216 187,224Z" style="fill:rgb(114,142,39);fill-rule:nonzero;"/>
            <path d="M187,230L187,231.05L187.26,231.05L219.09,232.1C219.088,232.07 219.088,232.04 219.09,232.01C219.09,231.76 219.16,230.95 219.39,229.45C219.62,227.95 220,225.8 220.68,222.86C220.86,222.03 221.06,221.19 221.28,220.31L221.49,219.48C222.22,216.55 223.14,213.28 224.32,209.48C224.95,207.48 225.64,205.29 226.42,202.95C226.75,201.95 227.1,200.89 227.47,199.81C227.74,199 228.03,198.17 228.33,197.32C224.174,195.999 219.93,194.973 215.63,194.25C211.093,193.45 206.505,192.969 201.9,192.81C195.9,192.76 189.11,193.43 189.11,193.43C189.11,193.43 188.11,193.66 187.53,199.97C187.53,200.14 187.53,200.33 187.48,200.54C187.39,201.73 187.32,203.46 187.26,205.48C187.1,210.88 187.03,218.48 187.01,223.93C187,226.61 187,228.79 187,230Z" style="fill:rgb(114,142,39);fill-rule:nonzero;"/>
            <path d="M185.87,235.61L187.45,235.59L218.75,235.22L219.79,235.21L219.4,229.72L219.39,229.46L219.33,228.65L187.21,230L186.99,230L186.62,230.02L185.87,235.61Z" style="fill:rgb(114,142,39);fill-rule:nonzero;"/>
            <path d="M185.87,235.61L187.45,235.59L218.75,235.22L219.79,235.21L219.4,229.72L219.39,229.46L219.33,228.65L187.21,230L186.99,230L186.62,230.02L185.87,235.61Z" style="fill:white;fill-opacity:0.4;fill-rule:nonzero;"/>
            <path d="M125.06,417.57L273.67,417.57C275.93,412.62 265.88,408.69 266.26,398.14C266.64,387.59 252.11,384.22 238.6,343.88C227.82,311.68 222.27,261.64 220.46,242.76C220.01,237.99 219.79,235.21 219.79,235.21L218.79,235.21L187.49,235.58L185.91,235.58C177.07,263.29 175.38,296.12 175.5,321.7C175.59,345.62 177.26,363.2 176.11,364.34C173.74,366.72 163.85,380.96 163.45,392.61C163.05,404.26 150,403.93 138.16,405.49C126.32,407.05 125.06,417.57 125.06,417.57Z" style="fill:rgb(114,142,39);fill-rule:nonzero;"/>
            <path d="M175.46,321.73C180.18,317.92 186.57,311.18 186.91,302.26C187.47,288.02 188.73,274.31 195.59,270.35C202.45,266.39 202.83,245 202.83,245C208.781,245.023 214.709,244.26 220.46,242.73C220.01,237.96 219.79,235.18 219.79,235.18L219.4,229.69C219.72,227.55 220.13,225.3 220.68,222.84C220.86,222.01 221.06,221.17 221.28,220.29L221.49,219.46C222.22,216.53 223.14,213.26 224.32,209.46C224.95,207.46 225.64,205.27 226.42,202.93C226.75,201.93 227.1,200.87 227.47,199.79L191.47,201.95C189.907,202.927 188.482,204.107 187.23,205.46L187.11,205.59C186.93,210 186.82,216 187,224L187,230L186.63,230L185.88,235.59C177,263.32 175.34,296.15 175.46,321.73Z" style="fill-opacity:0.2;fill-rule:nonzero;"/>
            <path d="M209.82,201C203.54,196.72 202.99,192.82 202.99,192.82C209.3,190.97 209.32,182.2 209.32,182.2L216.63,187.84C215.881,188.867 215.212,189.95 214.63,191.08C212.06,195.95 214.25,197.13 214.25,197.13C214.27,200.53 209.82,201 209.82,201Z" style="fill:rgb(228,137,123);fill-rule:nonzero;"/>
            <path d="M216.63,187.86C215.881,188.887 215.212,189.97 214.63,191.1C209.17,188.31 209.37,182.22 209.37,182.22L216.63,187.86Z" style="fill-opacity:0.2;fill-rule:nonzero;"/>
            <path d="M223.69,163C230.91,166.2 231.52,171.09 228.75,178.77C225.29,188.36 220.3,194.06 212.16,188.07C201.09,179.92 211.7,157.66 223.69,163Z" style="fill:rgb(228,137,123);fill-rule:nonzero;"/>
            <path d="M224.26,176.28C224.362,177.613 224.624,178.929 225.04,180.2C224.344,180.624 223.466,180.624 222.77,180.2L224.26,176.28Z" style="fill:rgb(222,87,83);fill-rule:nonzero;"/>
            <path d="M220.58,175.07L220.18,174.12C219.452,174.251 218.731,173.822 218.5,173.12C218.269,172.418 218.19,174.7 219.96,174.4C220.094,174.681 220.31,174.915 220.58,175.07Z" style="fill:rgb(46,53,58);fill-rule:nonzero;"/>
            <path d="M228,177.73L227.6,176.78C226.887,176.913 226.174,176.51 225.92,175.83C225.666,175.15 225.61,177.41 227.38,177.11C227.522,177.373 227.737,177.588 228,177.73Z" style="fill:rgb(46,53,58);fill-rule:nonzero;"/>
            <path d="M222.24,169.07C222.182,169.089 222.118,169.089 222.06,169.07C221.069,168.488 219.866,168.385 218.79,168.79C218.74,168.817 218.683,168.831 218.626,168.831C218.491,168.831 218.368,168.752 218.31,168.63C218.282,168.577 218.267,168.519 218.267,168.459C218.267,168.325 218.341,168.202 218.46,168.14C219.765,167.599 221.254,167.715 222.46,168.45C222.568,168.515 222.635,168.632 222.635,168.759C222.635,168.826 222.616,168.893 222.58,168.95C222.499,169.052 222.367,169.098 222.24,169.07Z" style="fill:rgb(46,53,58);fill-rule:nonzero;"/>
            <path d="M230.24,173C230.117,173 230.003,172.935 229.94,172.83C229.457,171.94 228.596,171.315 227.6,171.13C227.416,171.126 227.268,170.974 227.268,170.79C227.268,170.777 227.268,170.763 227.27,170.75C227.286,170.555 227.454,170.404 227.65,170.41C228.873,170.592 229.945,171.331 230.55,172.41C230.588,172.468 230.608,172.536 230.608,172.606C230.608,172.729 230.544,172.844 230.44,172.91C230.382,172.956 230.313,172.987 230.24,173Z" style="fill:rgb(46,53,58);fill-rule:nonzero;"/>
            <path d="M210.4,171.65C210.4,171.65 216.4,167.22 217.93,162.41L225.52,163.84C225.52,163.84 231.91,170.47 229.1,177.74C229.1,177.74 236.21,165.46 223.93,159.67C211.65,153.88 203.64,172.07 207.66,180.32C207.66,180.32 206.67,174.44 210.4,171.65Z" style="fill:rgb(46,53,58);fill-rule:nonzero;"/>
            <path d="M210.91,173.7C211.531,171.906 210.571,169.919 208.78,169.29C206.43,168.55 203.33,172.67 208.41,176.29C209.14,176.75 209.93,176.17 210.91,173.7Z" style="fill:rgb(228,137,123);fill-rule:nonzero;"/>
            <path d="M226.15,163.18C226.15,163.18 219.08,171.4 210.3,169.57C201.52,167.74 217.93,158.87 217.93,158.87L226.15,163.18Z" style="fill:rgb(46,53,58);fill-rule:nonzero;"/>
            <path d="M221.05,182.49L221,182.49C218.47,181.71 218.69,178.7 218.7,178.67C218.697,178.654 218.695,178.637 218.695,178.62C218.695,178.483 218.808,178.37 218.945,178.37C219.082,178.37 219.195,178.483 219.195,178.62C219.195,178.637 219.193,178.654 219.19,178.67C219.19,178.77 219.01,181.31 221.19,181.98C221.318,182.023 221.389,182.161 221.35,182.29C221.334,182.409 221.232,182.498 221.112,182.498C221.091,182.498 221.07,182.495 221.05,182.49Z" style="fill:rgb(38,50,56);fill-rule:nonzero;"/>
            <path d="M185.47,226.54C183.3,194.69 187,192.7 187,192.7L196.65,191.7C197.563,191.27 198.538,190.99 199.54,190.87C200.25,190.98 206.95,195.87 213.17,196C219.39,196.13 218.06,194 218.06,194L228.33,196.8L229.57,199.8C204.58,234.12 185.47,226.54 185.47,226.54Z" style="fill:rgb(38,50,56);fill-rule:nonzero;"/>
            <path d="M185.47,226.54C185.47,226.54 190.47,228.54 198.79,225.83C202.67,224.507 206.335,222.624 209.67,220.24C215.59,216.11 222.34,209.67 229.57,199.71L228.34,196.71L218.06,193.91C218.06,193.91 219.38,196.05 213.16,195.91C206.94,195.77 200.24,190.91 199.53,190.78C198.529,190.901 197.553,191.182 196.64,191.61L186.99,192.61C186.99,192.61 183.29,194.69 185.47,226.54Z" style="fill:white;fill-opacity:0.5;fill-rule:nonzero;"/>
            <path d="M226.64,159.79C214.91,158.25 209.43,174.26 207.75,182.79C206.07,191.32 203.14,194.94 194.75,193.68C186.36,192.42 187.03,192.68 187.03,192.68C187.03,192.68 191.76,186.11 195.26,172.92C198.76,159.73 205.6,148.72 217.32,150.86C229.04,153 232.68,160.91 233.75,167.66C233.72,167.68 232.52,160.56 226.64,159.79Z" style="fill:rgb(114,142,39);fill-rule:nonzero;"/>
            <path d="M226.64,159.79C214.91,158.25 209.43,174.26 207.75,182.79C206.07,191.32 203.14,194.94 194.75,193.68C186.36,192.42 187.03,192.68 187.03,192.68C187.03,192.68 191.76,186.11 195.26,172.92C198.76,159.73 205.6,148.72 217.32,150.86C229.04,153 232.68,160.91 233.75,167.66C233.72,167.68 232.52,160.56 226.64,159.79Z" style="fill:white;fill-opacity:0.7;fill-rule:nonzero;"/>
            <path d="M198.79,225.83C202.67,224.507 206.335,222.624 209.67,220.24C206.42,216.24 194.8,208.11 194.8,208.11C194.8,208.11 203,222.47 198.79,225.83Z" style="fill-opacity:0.2;fill-rule:nonzero;"/>
            <path d="M218.66,226.61C227.23,237.29 246.03,233.14 254.47,222.72C258.94,217.2 260.63,210.42 261.23,205.26C261.558,202.657 261.631,200.028 261.45,197.41C261.269,194.792 267.78,188.05 253.95,181.19C240.12,174.33 243.25,193.19 236.6,197.92C236.53,197.98 236.46,198.02 236.39,198.07C234.11,199.55 231.8,201.07 229.59,202.63C223.59,206.92 218.31,211.53 216.59,216.42C215.42,219.69 215.84,223.09 218.66,226.61Z" style="fill:rgb(114,142,39);fill-rule:nonzero;"/>
            <path d="M218.66,226.61C227.23,237.29 246.03,233.14 254.47,222.72C258.94,217.2 260.63,210.42 261.23,205.26C261.558,202.657 261.631,200.028 261.45,197.41C261.269,194.792 267.78,188.05 253.95,181.19C240.12,174.33 243.25,193.19 236.6,197.92C236.53,197.98 236.46,198.02 236.39,198.07C234.11,199.55 231.8,201.07 229.59,202.63C223.59,206.92 218.31,211.53 216.59,216.42C215.42,219.69 215.84,223.09 218.66,226.61Z" style="fill:white;fill-opacity:0.5;fill-rule:nonzero;"/>
            <path d="M247.94,181.31C247.94,181.31 243.19,179.31 239.94,194.69C236.69,210.07 252.44,213.24 252.44,213.24C252.44,213.24 243.33,210.32 241.88,202.93C241.88,202.93 250.35,202.74 253.96,197.4C257.57,192.06 247.94,181.31 247.94,181.31Z" style="fill-opacity:0.2;fill-rule:nonzero;"/>
            <path d="M261.84,191.94C260.67,197.26 256.39,201.64 251.84,201.8C243.44,202.08 239.35,197.87 240.02,193.93C240.27,192.43 241.33,190.82 241.53,190C243.45,182 245.89,180.87 250.98,180.43C258,179.82 263.46,184.56 261.84,191.94Z" style="fill:rgb(228,137,123);fill-rule:nonzero;"/>
            <path d="M248,187.92C247.956,187.873 247.928,187.814 247.92,187.75C247.92,187.58 248.06,187.44 248.23,187.44C249.237,187.397 250.2,187.863 250.79,188.68C250.878,188.824 250.838,189.014 250.7,189.11C250.552,189.195 250.363,189.156 250.26,189.02C249.788,188.365 249.017,187.988 248.21,188.02C248.129,188.016 248.054,187.98 248,187.92Z" style="fill:rgb(38,50,56);fill-rule:nonzero;"/>
            <path d="M242.69,187.22C242.632,187.192 242.581,187.151 242.54,187.1C242.516,187.055 242.504,187.005 242.504,186.955C242.504,186.839 242.568,186.733 242.67,186.68C243.531,186.166 244.595,186.118 245.5,186.55C245.602,186.603 245.666,186.709 245.666,186.825C245.666,186.875 245.654,186.925 245.63,186.97C245.541,187.11 245.362,187.165 245.21,187.1C244.48,186.773 243.634,186.826 242.95,187.24C242.864,187.269 242.77,187.262 242.69,187.22Z" style="fill:rgb(38,50,56);fill-rule:nonzero;"/>
            <path d="M245.21,191.65L244.76,193.76C244.09,193.439 243.492,192.987 243,192.43C243.786,192.341 244.542,192.074 245.21,191.65Z" style="fill:rgb(222,87,83);fill-rule:nonzero;"/>
            <path d="M247.28,190.82C247.28,190.82 247.53,192.14 250.06,191.45C249.432,191.955 248.611,192.156 247.82,192C247.442,191.947 247.157,191.62 247.157,191.237C247.157,191.089 247.2,190.944 247.28,190.82Z" style="fill:rgb(38,50,56);fill-rule:nonzero;"/>
            <path d="M242,189.56C242,189.56 242.26,190.88 244.79,190.19C244.161,190.694 243.341,190.895 242.55,190.74C242.169,190.684 241.885,190.353 241.885,189.968C241.885,189.824 241.924,189.683 242,189.56Z" style="fill:rgb(38,50,56);fill-rule:nonzero;"/>
            <path d="M246.63,196.2C246.258,196.195 245.888,196.141 245.53,196.04C245.398,196.001 245.318,195.864 245.35,195.73C245.388,195.598 245.528,195.522 245.66,195.56C247.86,196.16 248.46,194.66 248.49,194.56C248.537,194.431 248.681,194.363 248.81,194.41C248.935,194.461 249.001,194.601 248.96,194.73C248.559,195.65 247.633,196.234 246.63,196.2Z" style="fill:rgb(38,50,56);fill-rule:nonzero;"/>
            <path d="M250.06,181C253.27,181.56 257.7,187.92 255.23,195C252.76,202.08 244.72,200.79 243.32,200C243.32,200 242.72,202 250.53,203.35C258.34,204.7 263.29,198.9 264.62,192.71C265.95,186.52 262.35,180.15 257.16,179.26C251.97,178.37 243.43,179.09 243,185.26C243.845,182.209 246.967,180.326 250.06,181Z" style="fill:rgb(114,142,39);fill-rule:nonzero;"/>
            <path d="M248.46,179.71C245.66,179.96 246.08,183.38 249.38,184.32L248.58,183.21C248.58,183.21 251.06,185.21 253.51,184.54C252.675,184.14 252.092,183.347 251.96,182.43C251.635,180.786 250.134,179.619 248.46,179.71Z" style="fill:rgb(38,50,56);fill-rule:nonzero;"/>
            <path d="M250.06,181C253.27,181.56 257.7,187.92 255.23,195C252.76,202.08 244.72,200.79 243.32,200C243.32,200 242.72,202 250.53,203.35C258.34,204.7 263.29,198.9 264.62,192.71C265.95,186.52 262.35,180.15 257.16,179.26C251.97,178.37 243.43,179.09 243,185.26C243.845,182.209 246.967,180.326 250.06,181Z" style="fill:white;fill-opacity:0.5;fill-rule:nonzero;"/>
            <path d="M229.15,210.88C229.67,221.13 238.15,222.88 235.48,218.96C232.98,215.28 234.15,202.34 236.6,197.91C236.53,197.97 236.46,198.01 236.39,198.06C234.11,199.54 231.8,201.06 229.59,202.62C229.14,205.349 228.992,208.119 229.15,210.88Z" style="fill-opacity:0.2;fill-rule:nonzero;"/>
            <path d="M218.66,226.61C227.23,237.29 246.03,233.14 254.47,222.72C258.94,217.2 260.63,210.42 261.23,205.26C260.46,207.77 258.84,211.36 255.68,212.56C256.514,212.766 257.386,212.766 258.22,212.56C259.01,212.17 258.68,216.78 255.68,217.9C255.68,217.9 252.29,224.56 245.68,225.68C245.68,225.68 243.8,230.63 234.68,231.09C226.85,231.48 216.68,225.89 216.68,216.41C215.42,219.69 215.84,223.09 218.66,226.61Z" style="fill-opacity:0.2;fill-rule:nonzero;"/>
            <path d="M258.56,193.29C258.56,193.29 257.47,201.03 246.61,203.63C246.61,203.63 258.56,205.27 258.56,193.29Z" style="fill-opacity:0.2;fill-rule:nonzero;"/>
            <path d="M269.39,210.45L258.68,209.91C257.408,208.303 256.053,206.765 254.62,205.3C253.23,204.03 245.43,201.89 245.2,203.09C244.97,204.29 246.01,212.48 247,213.03C247.99,213.58 255.52,214.85 256.11,214.61C256.7,214.37 268.28,217.43 268.28,217.43L269.39,210.45Z" style="fill:rgb(228,137,123);fill-rule:nonzero;"/>
            <path d="M296.81,170.84C290.14,167.42 295.49,201.53 290.48,205.7C285.47,209.87 264.78,209.51 264.78,209.51L269.88,237.02C269.88,237.02 294.33,231.57 300.24,220.15C306.15,208.73 303.39,174.21 296.81,170.84Z" style="fill:rgb(38,50,56);fill-rule:nonzero;"/>
            <path d="M296.81,170.84C290.14,167.42 295.49,201.53 290.48,205.7C285.47,209.87 264.78,209.51 264.78,209.51L269.88,237.02C269.88,237.02 294.33,231.57 300.24,220.15C306.15,208.73 303.39,174.21 296.81,170.84Z" style="fill:white;fill-opacity:0.3;fill-rule:nonzero;"/>
            <path d="M218.5,225.13C221.531,224.748 224.537,224.184 227.5,223.44C230.463,222.696 228.58,221.06 229.96,220.87C231.34,220.68 237.76,227.71 236.96,230C236.16,232.29 230.49,232.21 230.49,232.21L227.36,227.82C223.578,229.233 219.675,230.297 215.7,231L218.5,225.13Z" style="fill:rgb(228,137,123);fill-rule:nonzero;"/>
            <path d="M200.57,219.45C201.48,221.83 202.27,223.56 202.83,224.06C205.35,226.31 222.04,224.06 222.04,224.06L222.04,232.37C222.04,232.37 203.39,238.5 197.15,237.02C194.54,236.41 191.29,228.37 189.15,219.45L200.57,219.45Z" style="fill:rgb(114,142,39);fill-rule:nonzero;"/>
            <path d="M190.71,215.9C196.13,212.47 199.53,215.76 199.53,215.76L204.03,222.81C205.83,221.73 208.19,224.73 208.19,224.73C201.96,223.01 198.19,245.89 196.45,249.05C194.71,252.21 187.75,258.35 187,264.68C186.25,271.01 189.53,292.97 181.42,297.52C173.31,302.07 167.18,316.52 167.18,316.52C163.81,279.33 184.98,230.7 184.98,230.7C184.47,223.73 187.34,218 190.71,215.9Z" style="fill:rgb(38,50,56);fill-rule:nonzero;"/>
            <path d="M190.71,215.9C196.13,212.47 199.53,215.76 199.53,215.76L204.03,222.81C205.83,221.73 208.19,224.73 208.19,224.73C201.96,223.01 198.19,245.89 196.45,249.05C194.71,252.21 187.75,258.35 187,264.68C186.25,271.01 189.53,292.97 181.42,297.52C173.31,302.07 167.18,316.52 167.18,316.52C163.81,279.33 184.98,230.7 184.98,230.7C184.47,223.73 187.34,218 190.71,215.9Z" style="fill:white;fill-opacity:0.5;fill-rule:nonzero;"/>
        </g>
        <g id="freepik--Cradle--inject-2" transform="matrix(1.14017,0,0,1.14017,-35.0433,-34.5695)">
            <path d="M215.28,386.65L208.43,419L217.86,419L231.57,393.21L215.28,386.65Z" style="fill:rgb(38,50,56);fill-rule:nonzero;"/>
            <path d="M284.72,386.65L291.57,419L282.14,419L268.43,393.21L284.72,386.65Z" style="fill:rgb(38,50,56);fill-rule:nonzero;"/>
            <path d="M297,376.27C293.53,386.71 278.91,397.78 250.82,398.21L249.12,398.21C221.03,397.78 206.41,386.71 202.94,376.27C201.513,372.432 201.926,368.144 204.06,364.65C211.29,353.37 236.24,362.07 249.97,362.43C263.7,362.07 288.65,353.37 295.88,364.65C298.014,368.144 298.427,372.432 297,376.27Z" style="fill:rgb(38,50,56);fill-rule:nonzero;"/>
            <path d="M297,376.27C288.51,383 273.45,388.36 251,388.66L249,388.66C226.5,388.36 211.44,383 202.95,376.27C201.523,372.432 201.936,368.144 204.07,364.65C211.3,353.37 236.25,362.07 249.98,362.43C263.71,362.07 288.66,353.37 295.89,364.65C298.021,368.146 298.43,372.434 297,376.27Z" style="fill:white;fill-opacity:0.1;fill-rule:nonzero;"/>
            <path d="M251.36,355.8C251.36,355.8 254.62,349.07 264.31,346.69C264.31,346.69 259.76,349.07 258.77,353.22C258.77,353.22 266.29,346.49 275.58,346.69C275.58,346.69 274.4,349.47 276.58,351.25C276.58,351.25 278.58,346.09 283.5,346.69C283.5,346.69 281.5,348.83 282.32,351.22C282.32,351.22 288.68,343.13 297.27,348.08C297.27,348.08 294.98,348.67 294.98,350.08C294.98,350.08 302.98,349.78 306.69,355.67C305.636,355.424 304.541,355.407 303.48,355.62C302.419,355.833 309,360.37 305.84,367.1C302.68,373.83 300.12,374.88 300.12,374.88C300.505,371.56 299.469,368.227 297.27,365.71C295.071,363.193 298.74,371.78 295.57,374.88C295.57,374.88 296.57,370.26 294.19,366.88C294.19,366.88 293.19,372.35 289.83,374.88C289.83,374.88 286.27,369.27 281.53,368.48C281.717,370.281 282.561,371.951 283.9,373.17C285.239,374.389 275.78,373.43 273.02,368.88C273.02,368.88 271.44,374.41 267.68,376.19C268.728,374.835 269.286,373.163 269.26,371.45C269.234,369.737 262.54,376.79 255.81,376.19C255.978,374.27 255.567,372.344 254.63,370.66C253.693,368.976 252.8,375.26 253.51,378.59C253.51,378.59 245.33,376 244.34,370.06C244.34,370.06 241.34,374.33 241.73,377.14C241.73,377.14 240.11,372.44 241.73,370.06C238.619,371.578 235.299,372.626 231.88,373.17C232.229,371.427 232.229,369.633 231.88,367.89C231.531,366.147 223.57,371.1 225.35,378.59C225.35,378.59 216.85,374.22 218.82,365.51C218.82,365.51 216.05,371.38 218.52,374.88C216.659,372.439 215.974,369.294 216.65,366.3C217.326,363.306 209.58,367.47 208.27,372.92C208.27,372.92 205.19,368.82 207.2,364.68C207.2,364.68 200.13,369.98 200.48,377.14C200.48,377.14 194.69,371.36 194.69,364.68C194.69,358 205.37,355.55 205.37,355.55C202.068,353.651 197.992,353.651 194.69,355.55C191.388,357.449 198.05,347.34 210.52,352.68C210.52,352.68 208.11,346.08 213.76,342.95C213.76,342.95 212.46,348.13 219.89,352.48C219.89,352.48 220.42,348.25 218.43,345.95C218.43,345.95 226.74,345.75 231.88,351.49C232.319,349.66 232.25,347.744 231.68,345.95C231.11,344.156 234.1,346.95 234.87,354.46C236.382,351.776 238.822,349.735 241.73,348.72C242.112,350.699 243.013,352.542 244.34,354.06C245.667,355.578 245.34,350.3 243.94,347.53C247.843,348.543 250.775,351.81 251.36,355.8Z" style="fill:rgb(114,142,39);fill-rule:nonzero;"/>
            <path d="M305.83,367.07C302.68,373.79 300.11,374.85 300.11,374.85C300.495,371.53 299.459,368.197 297.26,365.68C295.061,363.163 298.73,371.75 295.56,374.85C295.56,374.85 296.56,370.23 294.18,366.85C294.18,366.85 293.18,372.32 289.82,374.85C289.82,374.85 286.26,369.24 281.52,368.45C281.707,370.251 282.551,371.921 283.89,373.14C285.229,374.359 275.77,373.4 273.01,368.85C273.01,368.85 271.43,374.38 267.67,376.16C268.718,374.805 269.276,373.133 269.25,371.42C269.224,369.707 262.53,376.76 255.8,376.16C255.968,374.24 255.557,372.314 254.62,370.63C253.683,368.946 252.79,375.23 253.5,378.56C253.5,378.56 245.32,375.97 244.33,370.03C244.33,370.03 241.33,374.3 241.72,377.11C241.72,377.11 240.1,372.42 241.72,370.04C238.61,371.552 235.295,372.596 231.88,373.14C232.229,371.397 232.229,369.603 231.88,367.86C231.531,366.117 223.57,371.07 225.35,378.56C225.35,378.56 216.87,374.2 218.81,365.51C218.59,365.98 216.17,371.51 218.5,374.82C216.65,372.386 215.972,369.252 216.65,366.27C217.328,363.288 209.58,367.44 208.27,372.89C208.27,372.89 205.19,368.79 207.2,364.65C207.2,364.65 200.13,369.95 200.48,377.11C200.48,377.11 194.69,371.33 194.69,364.65C194.69,357.97 205.37,355.52 205.37,355.52C202.071,353.625 197.999,353.625 194.7,355.52C194.85,355.15 198.34,347.45 210.52,352.66C210.52,352.66 208.11,346.06 213.76,342.93C213.76,342.93 212.46,348.11 219.89,352.46C219.89,352.46 220.42,348.23 218.43,345.93C218.43,345.93 226.74,345.73 231.88,351.47C232.319,349.64 232.25,347.724 231.68,345.93C231.11,344.136 234.1,346.93 234.87,354.44C236.382,351.756 238.822,349.715 241.73,348.7C242.112,350.679 243.013,352.522 244.34,354.04C245.667,355.558 245.34,350.28 243.94,347.51C247.862,348.526 250.802,351.819 251.37,355.83C251.938,359.841 254.63,349.1 264.32,346.72C264.32,346.72 259.77,349.1 258.78,353.25C258.78,353.25 266.3,346.52 275.59,346.72C275.59,346.72 274.41,349.5 276.59,351.28C276.59,351.28 278.59,346.12 283.51,346.72C283.51,346.72 281.51,348.86 282.33,351.25C282.33,351.25 288.69,343.16 297.28,348.11C297.28,348.11 294.99,348.7 294.99,350.11C294.99,350.11 302.99,349.81 306.7,355.7C305.646,355.454 304.551,355.437 303.49,355.65L303.63,355.78C304.46,356.53 308.68,361 305.83,367.07Z" style="fill:white;fill-opacity:0.5;fill-rule:nonzero;"/>
            <path d="M305.83,367.07C302.68,373.79 300.11,374.85 300.11,374.85C300.495,371.53 299.459,368.197 297.26,365.68C295.061,363.163 298.73,371.75 295.56,374.85C295.56,374.85 296.56,370.23 294.18,366.85C294.18,366.85 293.18,372.32 289.82,374.85C289.82,374.85 286.26,369.24 281.52,368.45C281.707,370.251 282.551,371.921 283.89,373.14C285.229,374.359 275.77,373.4 273.01,368.85C273.01,368.85 271.43,374.38 267.67,376.16C268.718,374.805 269.276,373.133 269.25,371.42C269.224,369.707 262.53,376.76 255.8,376.16C255.968,374.24 255.557,372.314 254.62,370.63C253.683,368.946 252.79,375.23 253.5,378.56C253.5,378.56 245.32,375.97 244.33,370.03C244.33,370.03 241.33,374.3 241.72,377.11C241.72,377.11 240.1,372.42 241.72,370.04C238.61,371.552 235.295,372.596 231.88,373.14C232.229,371.397 232.229,369.603 231.88,367.86C231.531,366.117 223.57,371.07 225.35,378.56C225.35,378.56 216.87,374.2 218.81,365.51C218.59,365.98 216.17,371.51 218.5,374.82C216.65,372.386 215.972,369.252 216.65,366.27C217.328,363.288 209.58,367.44 208.27,372.89C208.27,372.89 205.19,368.79 207.2,364.65C207.2,364.65 200.13,369.95 200.48,377.11C200.48,377.11 194.69,371.33 194.69,364.65C194.69,357.97 205.37,355.52 205.37,355.52C213.09,355.4 216.78,357.44 216.78,357.44C216.78,357.44 217.43,353.88 215.13,352.03C215.13,352.03 221.66,352.3 224.69,357.44C224.69,357.44 225.48,354.44 227.99,353.88C228.395,356.485 229.839,358.817 231.99,360.34C234.141,361.863 232.79,357.7 230.94,356.19C234.941,355.25 239.146,356.655 241.78,359.81C241.757,358.347 241.235,356.935 240.3,355.81C239.365,354.685 246.21,356.53 249.06,361.41C249.06,361.41 252.83,355.89 259.29,355.81C259.29,355.81 256.13,357.05 255.47,358.9C255.47,358.9 266.02,353.25 271.69,355.81C271.098,357.294 271.689,359.006 273.07,359.81C273.466,357.277 275.212,355.151 277.62,354.27C277.326,355.378 277.72,356.56 278.62,357.27C279.52,357.98 281.27,353.05 287.73,351.99C294.19,350.93 299.73,352.39 303.49,355.55L303.63,355.68C304.46,356.53 308.68,361 305.83,367.07Z" style="fill:white;fill-opacity:0.2;fill-rule:nonzero;"/>
        </g>
        <g id="freepik--Floor--inject-2" transform="matrix(1.14017,0,0,1.14017,-35.0433,-34.5695)">
            <path d="M46.74,420.52C54.652,415.961 63.411,413.062 72.48,412C81.549,410.938 71.71,408.52 66.94,404.94C66.94,404.94 72.52,405.94 75.27,409.74C75.27,409.74 76.35,406.99 75.27,402.24C76.404,403.852 77.009,405.779 77,407.75C76.991,409.721 79.24,403.75 82.8,403.13C82.8,403.13 81.48,407.13 82.28,409.71C82.28,409.71 83.73,405.51 87.16,404.91C87.16,404.91 86.3,407.72 87.16,409.71C89.317,406.827 92.662,405.062 96.26,404.91C95.688,405.768 95.688,406.892 96.26,407.75C97.471,405.825 99.427,404.485 101.66,404.05C101.163,402.549 100.304,401.192 99.16,400.1C100.821,400.772 102.211,401.98 103.11,403.53C102.896,401.215 103.925,398.951 105.81,397.59C106.634,400.344 108.717,402.55 111.42,403.53C110.758,402.326 109.938,401.216 108.98,400.23C111.091,400.416 113.051,401.409 114.45,403C116.141,399.352 119.498,396.741 123.45,396C123.32,397.011 123.554,398.036 124.11,398.89C124.666,399.744 124.63,396.03 126.35,395.23C126.031,396.79 126.159,398.409 126.72,399.9C127.281,401.391 134.13,398.9 137.56,392.84C137.56,392.84 141.91,397.06 140.72,402.59C143.123,400.984 144.526,398.239 144.42,395.35C144.314,392.461 145.74,399.83 143.63,403.25C143.63,403.25 146.92,400.48 153.63,399.96C153.408,401.311 153.408,402.689 153.63,404.04C153.852,405.391 155.57,401.91 160.07,401.13C160.07,401.13 158.18,404.81 160.78,407.66C160.937,406.305 161.526,405.035 162.46,404.04C162.857,406.109 164.228,407.865 166.14,408.75C166.133,406.519 165.379,404.353 164,402.6C166.045,404.148 167.485,406.363 168.07,408.86C169.224,406.796 169.512,404.356 168.87,402.08C168.228,399.804 171.5,403.65 172.17,405.9C172.838,404.574 172.838,403.006 172.17,401.68C171.502,400.354 178.17,403.04 179.52,408.1C181.303,405.305 184.198,403.401 187.47,402.87C190.742,402.339 184.57,404.57 183.91,406.68C183.91,406.68 189.31,402.48 195.78,404.91C194.946,405.474 194.66,406.584 195.12,407.48C195.58,408.376 198.81,407.09 199.47,404.91C199.47,404.91 204.98,407.47 203.54,411.91C203.54,411.91 208.3,411.45 210.94,408.81C210.94,408.81 210.81,410.66 208.04,412.24C208.04,412.24 214.11,413.79 218.32,409.72C218.32,409.72 219.88,411.91 219.64,413.72C219.64,413.72 223.2,410.53 231.64,409.72C232.875,412.062 235.11,413.719 237.71,414.22C237.722,412.604 237.213,411.026 236.26,409.72C238.133,410.412 239.463,412.106 239.69,414.09C240.781,411.533 242.678,409.401 245.09,408.02C247.502,406.639 246.28,412.9 249.09,414.22C249.09,414.22 248.69,410.92 250.54,409.08C250.54,409.08 249.99,412.5 251.26,414.22C251.26,414.22 251.99,412.64 255.95,411.22C255.95,411.22 259.55,413.46 260.06,415.04C260.113,413.817 259.88,412.598 259.38,411.48C260.893,412.658 261.887,414.381 262.15,416.28C263.323,415.708 264.223,414.694 264.65,413.46C264.998,414.368 264.998,415.372 264.65,416.28C266.444,415.51 268.368,415.089 270.32,415.04C272.272,414.991 269.96,417.45 271.51,418.6C271.51,418.6 275.07,417.38 279.16,420.6L46.74,420.52Z" style="fill:rgb(114,142,39);fill-rule:nonzero;"/>
            <path d="M46.74,420.52C54.652,415.961 63.411,413.062 72.48,412C81.549,410.938 71.71,408.52 66.94,404.94C66.94,404.94 72.52,405.94 75.27,409.74C75.27,409.74 76.35,406.99 75.27,402.24C76.404,403.852 77.009,405.779 77,407.75C76.991,409.721 79.24,403.75 82.8,403.13C82.8,403.13 81.48,407.13 82.28,409.71C82.28,409.71 83.73,405.51 87.16,404.91C87.16,404.91 86.3,407.72 87.16,409.71C89.317,406.827 92.662,405.062 96.26,404.91C95.688,405.768 95.688,406.892 96.26,407.75C97.471,405.825 99.427,404.485 101.66,404.05C101.163,402.549 100.304,401.192 99.16,400.1C100.821,400.772 102.211,401.98 103.11,403.53C102.896,401.215 103.925,398.951 105.81,397.59C106.634,400.344 108.717,402.55 111.42,403.53C110.758,402.326 109.938,401.216 108.98,400.23C111.091,400.416 113.051,401.409 114.45,403C116.141,399.352 119.498,396.741 123.45,396C123.32,397.011 123.554,398.036 124.11,398.89C124.666,399.744 124.63,396.03 126.35,395.23C126.031,396.79 126.159,398.409 126.72,399.9C127.281,401.391 134.13,398.9 137.56,392.84C137.56,392.84 141.91,397.06 140.72,402.59C143.123,400.984 144.526,398.239 144.42,395.35C144.314,392.461 145.74,399.83 143.63,403.25C143.63,403.25 146.92,400.48 153.63,399.96C153.408,401.311 153.408,402.689 153.63,404.04C153.852,405.391 155.57,401.91 160.07,401.13C160.07,401.13 158.18,404.81 160.78,407.66C160.937,406.305 161.526,405.035 162.46,404.04C162.857,406.109 164.228,407.865 166.14,408.75C166.133,406.519 165.379,404.353 164,402.6C166.045,404.148 167.485,406.363 168.07,408.86C169.224,406.796 169.512,404.356 168.87,402.08C168.228,399.804 171.5,403.65 172.17,405.9C172.838,404.574 172.838,403.006 172.17,401.68C171.502,400.354 178.17,403.04 179.52,408.1C181.303,405.305 184.198,403.401 187.47,402.87C190.742,402.339 184.57,404.57 183.91,406.68C183.91,406.68 189.31,402.48 195.78,404.91C194.946,405.474 194.66,406.584 195.12,407.48C195.58,408.376 198.81,407.09 199.47,404.91C199.47,404.91 204.98,407.47 203.54,411.91C203.54,411.91 208.3,411.45 210.94,408.81C210.94,408.81 210.81,410.66 208.04,412.24C208.04,412.24 214.11,413.79 218.32,409.72C218.32,409.72 219.88,411.91 219.64,413.72C219.64,413.72 223.2,410.53 231.64,409.72C232.875,412.062 235.11,413.719 237.71,414.22C237.722,412.604 237.213,411.026 236.26,409.72C238.133,410.412 239.463,412.106 239.69,414.09C240.781,411.533 242.678,409.401 245.09,408.02C247.502,406.639 246.28,412.9 249.09,414.22C249.09,414.22 248.69,410.92 250.54,409.08C250.54,409.08 249.99,412.5 251.26,414.22C251.26,414.22 251.99,412.64 255.95,411.22C255.95,411.22 259.55,413.46 260.06,415.04C260.113,413.817 259.88,412.598 259.38,411.48C260.893,412.658 261.887,414.381 262.15,416.28C263.323,415.708 264.223,414.694 264.65,413.46C264.998,414.368 264.998,415.372 264.65,416.28C266.444,415.51 268.368,415.089 270.32,415.04C272.272,414.991 269.96,417.45 271.51,418.6C271.51,418.6 275.07,417.38 279.16,420.6L46.74,420.52Z" style="fill:rgb(114,142,39);fill-rule:nonzero;"/>
            <path d="M46.74,420.52C54.652,415.961 63.411,413.062 72.48,412C81.549,410.938 71.71,408.52 66.94,404.94C66.94,404.94 72.52,405.94 75.27,409.74C75.27,409.74 76.35,406.99 75.27,402.24C76.404,403.852 77.009,405.779 77,407.75C76.991,409.721 79.24,403.75 82.8,403.13C82.8,403.13 81.48,407.13 82.28,409.71C82.28,409.71 83.73,405.51 87.16,404.91C87.16,404.91 86.3,407.72 87.16,409.71C89.317,406.827 92.662,405.062 96.26,404.91C95.688,405.768 95.688,406.892 96.26,407.75C97.471,405.825 99.427,404.485 101.66,404.05C101.163,402.549 100.304,401.192 99.16,400.1C100.821,400.772 102.211,401.98 103.11,403.53C102.896,401.215 103.925,398.951 105.81,397.59C106.634,400.344 108.717,402.55 111.42,403.53C110.758,402.326 109.938,401.216 108.98,400.23C111.091,400.416 113.051,401.409 114.45,403C116.141,399.352 119.498,396.741 123.45,396C123.32,397.011 123.554,398.036 124.11,398.89C124.666,399.744 124.63,396.03 126.35,395.23C126.031,396.79 126.159,398.409 126.72,399.9C127.281,401.391 134.13,398.9 137.56,392.84C137.56,392.84 141.91,397.06 140.72,402.59C143.123,400.984 144.526,398.239 144.42,395.35C144.314,392.461 145.74,399.83 143.63,403.25C143.63,403.25 146.92,400.48 153.63,399.96C153.408,401.311 153.408,402.689 153.63,404.04C153.852,405.391 155.57,401.91 160.07,401.13C160.07,401.13 158.18,404.81 160.78,407.66C160.937,406.305 161.526,405.035 162.46,404.04C162.857,406.109 164.228,407.865 166.14,408.75C166.133,406.519 165.379,404.353 164,402.6C166.045,404.148 167.485,406.363 168.07,408.86C169.224,406.796 169.512,404.356 168.87,402.08C168.228,399.804 171.5,403.65 172.17,405.9C172.838,404.574 172.838,403.006 172.17,401.68C171.502,400.354 178.17,403.04 179.52,408.1C181.303,405.305 184.198,403.401 187.47,402.87C190.742,402.339 184.57,404.57 183.91,406.68C183.91,406.68 189.31,402.48 195.78,404.91C194.946,405.474 194.66,406.584 195.12,407.48C195.58,408.376 198.81,407.09 199.47,404.91C199.47,404.91 204.98,407.47 203.54,411.91C203.54,411.91 208.3,411.45 210.94,408.81C210.94,408.81 210.81,410.66 208.04,412.24C208.04,412.24 214.11,413.79 218.32,409.72C218.32,409.72 219.88,411.91 219.64,413.72C219.64,413.72 223.2,410.53 231.64,409.72C232.875,412.062 235.11,413.719 237.71,414.22C237.722,412.604 237.213,411.026 236.26,409.72C238.133,410.412 239.463,412.106 239.69,414.09C240.781,411.533 242.678,409.401 245.09,408.02C247.502,406.639 246.28,412.9 249.09,414.22C249.09,414.22 248.69,410.92 250.54,409.08C250.54,409.08 249.99,412.5 251.26,414.22C251.26,414.22 251.99,412.64 255.95,411.22C255.95,411.22 259.55,413.46 260.06,415.04C260.113,413.817 259.88,412.598 259.38,411.48C260.893,412.658 261.887,414.381 262.15,416.28C263.323,415.708 264.223,414.694 264.65,413.46C264.998,414.368 264.998,415.372 264.65,416.28C266.444,415.51 268.368,415.089 270.32,415.04C272.272,414.991 269.96,417.45 271.51,418.6C271.51,418.6 275.07,417.38 279.16,420.6L46.74,420.52Z" style="fill:white;fill-opacity:0.7;fill-rule:nonzero;"/>
            <path d="M453.26,420.52C445.348,415.961 436.589,413.062 427.52,412C418.451,410.938 428.29,408.52 433.06,404.94C433.06,404.94 427.48,405.94 424.73,409.74C424.73,409.74 423.65,406.99 424.73,402.24C423.604,403.865 423.013,405.803 423.04,407.78C423.067,409.757 420.8,403.78 417.24,403.16C417.24,403.16 418.56,407.16 417.76,409.74C417.76,409.74 416.31,405.54 412.88,404.94C412.88,404.94 413.74,407.75 412.88,409.74C410.723,406.857 407.378,405.092 403.78,404.94C404.352,405.798 404.352,406.922 403.78,407.78C402.569,405.855 400.613,404.515 398.38,404.08C398.877,402.579 399.736,401.222 400.88,400.13C399.219,400.802 397.829,402.01 396.93,403.56C397.144,401.245 396.115,398.981 394.23,397.62C393.406,400.374 391.323,402.58 388.62,403.56C389.282,402.356 390.102,401.246 391.06,400.26C388.949,400.446 386.989,401.439 385.59,403.03C383.899,399.382 380.542,396.771 376.59,396.03C376.72,397.041 376.486,398.066 375.93,398.92C375.374,399.774 375.41,396.06 373.69,395.26C374.009,396.82 373.881,398.439 373.32,399.93C372.759,401.421 365.91,398.93 362.48,392.87C362.48,392.87 358.13,397.09 359.32,402.62C356.917,401.014 355.514,398.269 355.62,395.38C355.726,392.491 354.3,399.86 356.41,403.28C356.41,403.28 353.12,400.51 346.41,399.99C346.632,401.341 346.632,402.719 346.41,404.07C346.188,405.421 344.47,401.94 339.97,401.16C339.97,401.16 341.86,404.84 339.26,407.69C339.103,406.335 338.514,405.065 337.58,404.07C337.183,406.139 335.812,407.895 333.9,408.78C333.889,406.544 334.629,404.367 336,402.6C333.955,404.148 332.515,406.363 331.93,408.86C330.776,406.796 330.488,404.356 331.13,402.08C331.772,399.804 328.5,403.65 327.83,405.9C327.162,404.574 327.162,403.006 327.83,401.68C328.498,400.354 321.83,403.04 320.48,408.1C318.686,405.293 315.771,403.387 312.48,402.87C309.189,402.353 315.38,404.57 316.04,406.68C316.04,406.68 310.64,402.48 304.17,404.91C305.004,405.474 305.29,406.584 304.83,407.48C304.37,408.376 301.14,407.09 300.48,404.91C300.48,404.91 294.97,407.47 296.41,411.91C296.41,411.91 291.65,411.45 289.01,408.81C289.01,408.81 289.14,410.66 291.91,412.24C291.91,412.24 285.84,413.79 281.62,409.72C281.62,409.72 280.07,411.91 280.31,413.72C280.31,413.72 276.75,410.53 268.31,409.72C267.075,412.062 264.84,413.719 262.24,414.22C262.228,412.604 262.737,411.026 263.69,409.72C261.817,410.412 260.487,412.106 260.26,414.09C259.169,411.533 257.272,409.401 254.86,408.02C252.448,406.639 253.67,412.9 250.86,414.22C250.86,414.22 251.26,410.92 249.41,409.08C249.41,409.08 249.96,412.5 248.69,414.22C248.69,414.22 247.96,412.64 244,411.22C244,411.22 240.4,413.46 239.89,415.04C239.837,413.817 240.07,412.598 240.57,411.48C239.057,412.658 238.063,414.381 237.8,416.28C236.627,415.708 235.727,414.694 235.3,413.46C234.952,414.368 234.952,415.372 235.3,416.28C233.506,415.51 231.582,415.089 229.63,415.04C227.678,414.991 229.99,417.45 228.44,418.6C228.44,418.6 224.88,417.38 220.79,420.6L453.26,420.52Z" style="fill:rgb(114,142,39);fill-rule:nonzero;"/>
            <path d="M453.26,420.52C445.348,415.961 436.589,413.062 427.52,412C418.451,410.938 428.29,408.52 433.06,404.94C433.06,404.94 427.48,405.94 424.73,409.74C424.73,409.74 423.65,406.99 424.73,402.24C423.604,403.865 423.013,405.803 423.04,407.78C423.067,409.757 420.8,403.78 417.24,403.16C417.24,403.16 418.56,407.16 417.76,409.74C417.76,409.74 416.31,405.54 412.88,404.94C412.88,404.94 413.74,407.75 412.88,409.74C410.723,406.857 407.378,405.092 403.78,404.94C404.352,405.798 404.352,406.922 403.78,407.78C402.569,405.855 400.613,404.515 398.38,404.08C398.877,402.579 399.736,401.222 400.88,400.13C399.219,400.802 397.829,402.01 396.93,403.56C397.144,401.245 396.115,398.981 394.23,397.62C393.406,400.374 391.323,402.58 388.62,403.56C389.282,402.356 390.102,401.246 391.06,400.26C388.949,400.446 386.989,401.439 385.59,403.03C383.899,399.382 380.542,396.771 376.59,396.03C376.72,397.041 376.486,398.066 375.93,398.92C375.374,399.774 375.41,396.06 373.69,395.26C374.009,396.82 373.881,398.439 373.32,399.93C372.759,401.421 365.91,398.93 362.48,392.87C362.48,392.87 358.13,397.09 359.32,402.62C356.917,401.014 355.514,398.269 355.62,395.38C355.726,392.491 354.3,399.86 356.41,403.28C356.41,403.28 353.12,400.51 346.41,399.99C346.632,401.341 346.632,402.719 346.41,404.07C346.188,405.421 344.47,401.94 339.97,401.16C339.97,401.16 341.86,404.84 339.26,407.69C339.103,406.335 338.514,405.065 337.58,404.07C337.183,406.139 335.812,407.895 333.9,408.78C333.889,406.544 334.629,404.367 336,402.6C333.955,404.148 332.515,406.363 331.93,408.86C330.776,406.796 330.488,404.356 331.13,402.08C331.772,399.804 328.5,403.65 327.83,405.9C327.162,404.574 327.162,403.006 327.83,401.68C328.498,400.354 321.83,403.04 320.48,408.1C318.686,405.293 315.771,403.387 312.48,402.87C309.189,402.353 315.38,404.57 316.04,406.68C316.04,406.68 310.64,402.48 304.17,404.91C305.004,405.474 305.29,406.584 304.83,407.48C304.37,408.376 301.14,407.09 300.48,404.91C300.48,404.91 294.97,407.47 296.41,411.91C296.41,411.91 291.65,411.45 289.01,408.81C289.01,408.81 289.14,410.66 291.91,412.24C291.91,412.24 285.84,413.79 281.62,409.72C281.62,409.72 280.07,411.91 280.31,413.72C280.31,413.72 276.75,410.53 268.31,409.72C267.075,412.062 264.84,413.719 262.24,414.22C262.228,412.604 262.737,411.026 263.69,409.72C261.817,410.412 260.487,412.106 260.26,414.09C259.169,411.533 257.272,409.401 254.86,408.02C252.448,406.639 253.67,412.9 250.86,414.22C250.86,414.22 251.26,410.92 249.41,409.08C249.41,409.08 249.96,412.5 248.69,414.22C248.69,414.22 247.96,412.64 244,411.22C244,411.22 240.4,413.46 239.89,415.04C239.837,413.817 240.07,412.598 240.57,411.48C239.057,412.658 238.063,414.381 237.8,416.28C236.627,415.708 235.727,414.694 235.3,413.46C234.952,414.368 234.952,415.372 235.3,416.28C233.506,415.51 231.582,415.089 229.63,415.04C227.678,414.991 229.99,417.45 228.44,418.6C228.44,418.6 224.88,417.38 220.79,420.6L453.26,420.52Z" style="fill:rgb(114,142,39);fill-rule:nonzero;"/>
            <path d="M453.26,420.52C445.348,415.961 436.589,413.062 427.52,412C418.451,410.938 428.29,408.52 433.06,404.94C433.06,404.94 427.48,405.94 424.73,409.74C424.73,409.74 423.65,406.99 424.73,402.24C423.604,403.865 423.013,405.803 423.04,407.78C423.067,409.757 420.8,403.78 417.24,403.16C417.24,403.16 418.56,407.16 417.76,409.74C417.76,409.74 416.31,405.54 412.88,404.94C412.88,404.94 413.74,407.75 412.88,409.74C410.723,406.857 407.378,405.092 403.78,404.94C404.352,405.798 404.352,406.922 403.78,407.78C402.569,405.855 400.613,404.515 398.38,404.08C398.877,402.579 399.736,401.222 400.88,400.13C399.219,400.802 397.829,402.01 396.93,403.56C397.144,401.245 396.115,398.981 394.23,397.62C393.406,400.374 391.323,402.58 388.62,403.56C389.282,402.356 390.102,401.246 391.06,400.26C388.949,400.446 386.989,401.439 385.59,403.03C383.899,399.382 380.542,396.771 376.59,396.03C376.72,397.041 376.486,398.066 375.93,398.92C375.374,399.774 375.41,396.06 373.69,395.26C374.009,396.82 373.881,398.439 373.32,399.93C372.759,401.421 365.91,398.93 362.48,392.87C362.48,392.87 358.13,397.09 359.32,402.62C356.917,401.014 355.514,398.269 355.62,395.38C355.726,392.491 354.3,399.86 356.41,403.28C356.41,403.28 353.12,400.51 346.41,399.99C346.632,401.341 346.632,402.719 346.41,404.07C346.188,405.421 344.47,401.94 339.97,401.16C339.97,401.16 341.86,404.84 339.26,407.69C339.103,406.335 338.514,405.065 337.58,404.07C337.183,406.139 335.812,407.895 333.9,408.78C333.889,406.544 334.629,404.367 336,402.6C333.955,404.148 332.515,406.363 331.93,408.86C330.776,406.796 330.488,404.356 331.13,402.08C331.772,399.804 328.5,403.65 327.83,405.9C327.162,404.574 327.162,403.006 327.83,401.68C328.498,400.354 321.83,403.04 320.48,408.1C318.686,405.293 315.771,403.387 312.48,402.87C309.189,402.353 315.38,404.57 316.04,406.68C316.04,406.68 310.64,402.48 304.17,404.91C305.004,405.474 305.29,406.584 304.83,407.48C304.37,408.376 301.14,407.09 300.48,404.91C300.48,404.91 294.97,407.47 296.41,411.91C296.41,411.91 291.65,411.45 289.01,408.81C289.01,408.81 289.14,410.66 291.91,412.24C291.91,412.24 285.84,413.79 281.62,409.72C281.62,409.72 280.07,411.91 280.31,413.72C280.31,413.72 276.75,410.53 268.31,409.72C267.075,412.062 264.84,413.719 262.24,414.22C262.228,412.604 262.737,411.026 263.69,409.72C261.817,410.412 260.487,412.106 260.26,414.09C259.169,411.533 257.272,409.401 254.86,408.02C252.448,406.639 253.67,412.9 250.86,414.22C250.86,414.22 251.26,410.92 249.41,409.08C249.41,409.08 249.96,412.5 248.69,414.22C248.69,414.22 247.96,412.64 244,411.22C244,411.22 240.4,413.46 239.89,415.04C239.837,413.817 240.07,412.598 240.57,411.48C239.057,412.658 238.063,414.381 237.8,416.28C236.627,415.708 235.727,414.694 235.3,413.46C234.952,414.368 234.952,415.372 235.3,416.28C233.506,415.51 231.582,415.089 229.63,415.04C227.678,414.991 229.99,417.45 228.44,418.6C228.44,418.6 224.88,417.38 220.79,420.6L453.26,420.52Z" style="fill:white;fill-opacity:0.7;fill-rule:nonzero;"/>
        </g>
    </g>
</svg>
