<svg height="512pt" viewBox="-27 0 512 512" width="512pt" xmlns="http://www.w3.org/2000/svg"><path d="m29.207031 361.425781v150.574219h116.394531l36.90625-124.21875v-95.953125l-91.253906 12.246094zm0 0" fill="#c7c5cb"/><path d="m428.800781 361.425781v150.574219h-116.398437l-36.902344-124.21875v-95.953125l91.253906 12.246094zm0 0" fill="#c7c5cb"/><path d="m41.984375 389.566406 140.523437-63.796875v-33.941406l-91.253906 12.246094-62.046875 57.351562v31.773438c4.398438-.566407 8.675781-1.769531 12.777344-3.632813zm0 0" fill="#b2b0bc"/><path d="m161.460938 245.472656-153.296876 69.597656c-6.996093 3.175782-10.09375 11.421876-6.917968 18.414063l9.546875 21.027344c3.175781 6.996093 11.417969 10.089843 18.414062 6.914062l153.300781-69.59375zm0 0" fill="#c76d33"/><path d="m87.40625 378.382812c-12.972656 0-23.488281 10.515626-23.488281 23.484376v49.386718c0 5.621094 4.558593 10.175782 10.175781 10.175782h26.621094c5.621094 0 10.175781-4.554688 10.175781-10.175782v-49.386718c0-12.972657-10.515625-23.484376-23.484375-23.484376zm0 0" fill="#f8e86a"/><path d="m275.5 291.828125v33.941406l140.523438 63.796875c4.097656 1.863282 8.378906 3.066406 12.777343 3.632813v-31.773438l-62.046875-57.351562zm0 0" fill="#b2b0bc"/><path d="m296.546875 245.472656 153.300781 69.597656c6.992188 3.175782 10.089844 11.421876 6.914063 18.414063l-9.546875 21.027344c-3.175782 6.996093-11.417969 10.089843-18.414063 6.914062l-153.300781-69.597656zm0 0" fill="#c76d33"/><path d="m370.601562 378.382812c12.972657 0 23.488282 10.515626 23.488282 23.484376v49.386718c0 5.621094-4.558594 10.175782-10.175782 10.175782h-26.621093c-5.621094 0-10.175781-4.554688-10.175781-10.175782v-49.386718c0-12.972657 10.515624-23.484376 23.484374-23.484376zm0 0" fill="#f8e86a"/><path d="m229.003906 125.085938-83.402344 62.164062v324.75h39.324219l44.078125-14.253906 44.078125 14.253906h39.320313v-324.75zm0 0" fill="#e8e8e8"/><path d="m273.082031 512v-124.667969c0-24.34375-19.734375-44.078125-44.078125-44.078125s-44.078125 19.734375-44.078125 44.078125v124.667969zm0 0" fill="#de8957"/><path d="m229.003906 206.984375c-12.972656 0-23.484375 10.515625-23.484375 23.488281v49.386719c0 5.621094 4.554688 10.175781 10.171875 10.175781h26.625c5.617188 0 10.171875-4.554687 10.171875-10.175781v-49.386719c0-12.972656-10.511719-23.488281-23.484375-23.488281zm0 0" fill="#fab659"/><path d="m268.324219 29.453125h-16.386719c-3.105469 0-5.625-2.519531-5.625-5.625v-18.207031c0-3.101563-2.515625-5.621094-5.621094-5.621094h-23.375c-3.105468 0-5.621094 2.519531-5.621094 5.621094v18.207031c0 3.105469-2.519531 5.625-5.625 5.625h-16.386718c-3.105469 0-5.625 2.515625-5.625 5.621094v23.375c0 3.101562 2.519531 5.621093 5.625 5.621093h16.386718c3.105469 0 5.625 2.515626 5.625 5.621094v39.589844c0 3.105469 2.515626 5.625 5.621094 5.625h23.375c3.105469 0 5.621094-2.519531 5.621094-5.625v-39.589844c0-3.105468 2.519531-5.621094 5.625-5.621094h16.386719c3.105469 0 5.625-2.519531 5.625-5.621093v-23.375c0-3.105469-2.515625-5.621094-5.625-5.621094zm0 0" fill="#de8957"/><path d="m145.601562 187.25v62.980469c6.820313-.992188 13.359376-3.71875 18.84375-7.9375l64.558594-49.660157 64.558594 49.660157c5.484375 4.21875 12.023438 6.945312 18.839844 7.9375v-62.980469l-83.398438-62.164062zm0 0" fill="#c7c5cb"/><path d="m343.445312 177.445312-98.921874-76.09375c-9.148438-7.039062-21.890626-7.039062-31.039063 0l-98.921875 76.09375c-4.117188 3.167969-4.886719 9.074219-1.71875 13.191407l19.566406 25.4375c3.167969 4.117187 9.074219 4.890625 13.191406 1.722656l83.402344-64.15625 83.398438 64.15625c4.121094 3.167969 10.027344 2.394531 13.195312-1.722656l19.566406-25.4375c3.167969-4.117188 2.398438-10.023438-1.71875-13.191407zm0 0" fill="#c76d33"/></svg>