<?xml version="1.0" encoding="UTF-8" standalone="no"?>
<!DOCTYPE svg PUBLIC "-//W3C//DTD SVG 1.1//EN" "http://www.w3.org/Graphics/SVG/1.1/DTD/svg11.dtd">
<svg width="100%" height="100%" viewBox="0 0 500 500" version="1.1" xmlns="http://www.w3.org/2000/svg" xmlns:xlink="http://www.w3.org/1999/xlink" xml:space="preserve" xmlns:serif="http://www.serif.com/" style="fill-rule:evenodd;clip-rule:evenodd;stroke-linejoin:round;stroke-miterlimit:2;">
    <g transform="matrix(1.24964,0,0,1.24964,-62.4094,-60.2325)">
        <g id="freepik--background-complete--inject-2">
            <rect x="0" y="382.4" width="500" height="0.25" style="fill:rgb(235,235,235);"/>
            <rect x="416.78" y="398.49" width="33.12" height="0.25" style="fill:rgb(235,235,235);"/>
            <rect x="322.53" y="401.21" width="8.69" height="0.25" style="fill:rgb(235,235,235);"/>
            <rect x="396.59" y="389.21" width="19.19" height="0.25" style="fill:rgb(235,235,235);"/>
            <rect x="52.46" y="390.89" width="43.19" height="0.25" style="fill:rgb(235,235,235);"/>
            <rect x="104.56" y="390.89" width="6.33" height="0.25" style="fill:rgb(235,235,235);"/>
            <rect x="131.47" y="395.11" width="93.68" height="0.25" style="fill:rgb(235,235,235);"/>
            <path d="M237,337.8L43.91,337.8C40.781,337.795 38.21,335.219 38.21,332.09L38.21,60.66C38.237,57.55 40.8,55.005 43.91,55L237,55C240.132,55 242.71,57.578 242.71,60.71L242.71,332.09C242.71,335.222 240.132,337.8 237,337.8ZM43.91,55.2C40.919,55.205 38.46,57.669 38.46,60.66L38.46,332.09C38.46,335.081 40.919,337.545 43.91,337.55L237,337.55C239.993,337.545 242.455,335.083 242.46,332.09L242.46,60.66C242.455,57.667 239.993,55.205 237,55.2L43.91,55.2Z" style="fill:rgb(235,235,235);fill-rule:nonzero;"/>
            <path d="M453.31,337.8L260.21,337.8C257.08,337.795 254.505,335.22 254.5,332.09L254.5,60.66C254.533,57.549 257.098,55.005 260.21,55L453.31,55C456.416,55.011 458.973,57.554 459,60.66L459,332.09C459,335.215 456.435,337.789 453.31,337.8ZM260.21,55.2C257.217,55.205 254.755,57.667 254.75,60.66L254.75,332.09C254.755,335.083 257.217,337.545 260.21,337.55L453.31,337.55C456.303,337.545 458.765,335.083 458.77,332.09L458.77,60.66C458.765,57.667 456.303,55.205 453.31,55.2L260.21,55.2Z" style="fill:rgb(235,235,235);fill-rule:nonzero;"/>
            <g transform="matrix(-1,-7.65714e-16,7.65714e-16,-1,630.82,294.85)">
                <rect x="218.41" y="72.24" width="194" height="150.36" style="fill:rgb(230,230,230);"/>
            </g>
            <g transform="matrix(-1,-7.65714e-16,7.65714e-16,-1,622.74,294.85)">
                <rect x="214.37" y="72.24" width="194" height="150.36" style="fill:rgb(245,245,245);"/>
            </g>
            <g transform="matrix(-1,-7.65714e-16,7.65714e-16,-1,617.43,453.91)">
                <rect x="205.01" y="222.6" width="207.4" height="8.7" style="fill:rgb(230,230,230);"/>
            </g>
            <g transform="matrix(-1,-7.65714e-16,7.65714e-16,-1,599.38,453.91)">
                <rect x="200.46" y="222.6" width="198.46" height="8.7" style="fill:rgb(245,245,245);"/>
            </g>
            <g transform="matrix(-3.82857e-16,1,-1,-3.82857e-16,458.8,-163.95)">
                <rect x="244.01" y="57.67" width="134.72" height="179.5" style="fill:rgb(250,250,250);"/>
            </g>
            <path d="M288.31,214.78L338.58,80.06L287.32,80.06L237.06,214.78L288.31,214.78Z" style="fill:white;fill-rule:nonzero;"/>
            <path d="M325.37,214.78L375.63,80.06L347.39,80.06L297.13,214.78L325.37,214.78Z" style="fill:white;fill-rule:nonzero;"/>
            <g transform="matrix(-3.82857e-16,1,-1,-3.82857e-16,458.8,-163.95)">
                <rect x="244.01" y="143.38" width="134.72" height="8.08" style="fill:rgb(245,245,245);"/>
            </g>
            <g transform="matrix(-3.82857e-16,1,-1,-3.82857e-16,370.57,-75.73)">
                <rect x="155.79" y="145.9" width="134.72" height="3.05" style="fill:rgb(230,230,230);"/>
            </g>
            <g transform="matrix(-3.82857e-16,1,-1,-3.82857e-16,464.36,-169.52)">
                <rect x="249.58" y="145.9" width="134.72" height="3.05" style="fill:rgb(230,230,230);"/>
            </g>
            <g transform="matrix(-1,-7.65714e-16,7.65714e-16,-1,256.41,300.58)">
                <rect x="90.24" y="72.24" width="75.93" height="156.09" style="fill:rgb(230,230,230);"/>
            </g>
            <g transform="matrix(-1,-7.65714e-16,7.65714e-16,-1,242.84,300.58)">
                <rect x="79.52" y="72.24" width="83.8" height="156.09" style="fill:rgb(240,240,240);"/>
            </g>
            <g transform="matrix(-3.82857e-16,1,-1,-3.82857e-16,271.71,28.87)">
                <rect x="56.96" y="121.97" width="128.93" height="56.64" style="fill:white;"/>
            </g>
            <g transform="matrix(-3.82857e-16,1,-1,-3.82857e-16,271.71,28.87)">
                <path d="M155.94,139.449C155.94,137.06 154,135.12 151.611,135.12L91.229,135.12C88.84,135.12 86.9,137.06 86.9,139.449L86.9,161.121C86.9,163.51 88.84,165.45 91.229,165.45L151.611,165.45C154,165.45 155.94,163.51 155.94,161.121L155.94,139.449Z" style="fill:rgb(245,245,245);"/>
            </g>
            <path d="M92.28,268.493C92.28,263.193 87.977,258.89 82.677,258.89L71.453,258.89C66.153,258.89 61.85,263.193 61.85,268.493L61.85,355.727C61.85,361.027 66.153,365.33 71.453,365.33L82.677,365.33C87.977,365.33 92.28,361.027 92.28,355.727L92.28,268.493Z" style="fill:rgb(245,245,245);"/>
            <path d="M96.07,269.874C96.07,265.771 92.739,262.44 88.636,262.44L82.934,262.44C78.831,262.44 75.5,265.771 75.5,269.874L75.5,354.336C75.5,358.439 78.831,361.77 82.934,361.77L88.636,361.77C92.739,361.77 96.07,358.439 96.07,354.336L96.07,269.874Z" style="fill:rgb(235,235,235);"/>
            <path d="M114.39,268.493C114.39,263.193 110.087,258.89 104.787,258.89L93.563,258.89C88.263,258.89 83.96,263.193 83.96,268.493L83.96,355.727C83.96,361.027 88.263,365.33 93.563,365.33L104.787,365.33C110.087,365.33 114.39,361.027 114.39,355.727L114.39,268.493Z" style="fill:rgb(245,245,245);"/>
            <path d="M118.17,269.874C118.17,265.771 114.839,262.44 110.736,262.44L105.034,262.44C100.931,262.44 97.6,265.771 97.6,269.874L97.6,354.336C97.6,358.439 100.931,361.77 105.034,361.77L110.736,361.77C114.839,361.77 118.17,358.439 118.17,354.336L118.17,269.874Z" style="fill:rgb(235,235,235);"/>
            <path d="M136.49,268.493C136.49,263.193 132.187,258.89 126.887,258.89L115.663,258.89C110.363,258.89 106.06,263.193 106.06,268.493L106.06,355.727C106.06,361.027 110.363,365.33 115.663,365.33L126.887,365.33C132.187,365.33 136.49,361.027 136.49,355.727L136.49,268.493Z" style="fill:rgb(245,245,245);"/>
            <path d="M140.27,269.874C140.27,265.771 136.939,262.44 132.836,262.44L127.134,262.44C123.031,262.44 119.7,265.771 119.7,269.874L119.7,354.336C119.7,358.439 123.031,361.77 127.134,361.77L132.836,361.77C136.939,361.77 140.27,358.439 140.27,354.336L140.27,269.874Z" style="fill:rgb(235,235,235);"/>
            <path d="M158.59,268.493C158.59,263.193 154.287,258.89 148.987,258.89L137.763,258.89C132.463,258.89 128.16,263.193 128.16,268.493L128.16,355.727C128.16,361.027 132.463,365.33 137.763,365.33L148.987,365.33C154.287,365.33 158.59,361.027 158.59,355.727L158.59,268.493Z" style="fill:rgb(245,245,245);"/>
            <path d="M162.37,269.874C162.37,265.771 159.039,262.44 154.936,262.44L149.234,262.44C145.131,262.44 141.8,265.771 141.8,269.874L141.8,354.336C141.8,358.439 145.131,361.77 149.234,361.77L154.936,361.77C159.039,361.77 162.37,358.439 162.37,354.336L162.37,269.874Z" style="fill:rgb(235,235,235);"/>
            <path d="M180.69,268.493C180.69,263.193 176.387,258.89 171.087,258.89L159.863,258.89C154.563,258.89 150.26,263.193 150.26,268.493L150.26,355.727C150.26,361.027 154.563,365.33 159.863,365.33L171.087,365.33C176.387,365.33 180.69,361.027 180.69,355.727L180.69,268.493Z" style="fill:rgb(245,245,245);"/>
            <path d="M184.47,269.874C184.47,265.771 181.139,262.44 177.036,262.44L171.344,262.44C167.241,262.44 163.91,265.771 163.91,269.874L163.91,354.336C163.91,358.439 167.241,361.77 171.344,361.77L177.036,361.77C181.139,361.77 184.47,358.439 184.47,354.336L184.47,269.874Z" style="fill:rgb(235,235,235);"/>
            <path d="M202.8,268.493C202.8,263.193 198.497,258.89 193.197,258.89L181.973,258.89C176.673,258.89 172.37,263.193 172.37,268.493L172.37,355.727C172.37,361.027 176.673,365.33 181.973,365.33L193.197,365.33C198.497,365.33 202.8,361.027 202.8,355.727L202.8,268.493Z" style="fill:rgb(245,245,245);"/>
            <path d="M206.57,269.874C206.57,265.771 203.239,262.44 199.136,262.44L193.444,262.44C189.341,262.44 186.01,265.771 186.01,269.874L186.01,354.336C186.01,358.439 189.341,361.77 193.444,361.77L199.136,361.77C203.239,361.77 206.57,358.439 206.57,354.336L206.57,269.874Z" style="fill:rgb(235,235,235);"/>
            <path d="M224.9,268.493C224.9,263.193 220.597,258.89 215.297,258.89L204.073,258.89C198.773,258.89 194.47,263.193 194.47,268.493L194.47,355.727C194.47,361.027 198.773,365.33 204.073,365.33L215.297,365.33C220.597,365.33 224.9,361.027 224.9,355.727L224.9,268.493Z" style="fill:rgb(245,245,245);"/>
            <path d="M226.94,353.5L200.46,353.5C199.363,353.5 198.46,352.597 198.46,351.5C198.46,350.403 199.363,349.5 200.46,349.5L226.94,349.5C228.037,349.5 228.94,350.403 228.94,351.5C228.94,352.597 228.037,353.5 226.94,353.5Z" style="fill:rgb(245,245,245);fill-rule:nonzero;"/>
            <path d="M226.94,277.33L200.46,277.33C199.363,277.33 198.46,276.427 198.46,275.33C198.46,274.233 199.363,273.33 200.46,273.33L226.94,273.33C228.037,273.33 228.94,274.233 228.94,275.33C228.94,276.427 228.037,277.33 226.94,277.33Z" style="fill:rgb(245,245,245);fill-rule:nonzero;"/>
            <path d="M299.32,297.06L373.43,297.06C377.392,297.06 380.655,293.802 380.66,289.84C380.655,285.878 377.392,282.62 373.43,282.62L299.32,282.62C295.359,282.62 292.1,285.879 292.1,289.84C292.1,293.801 295.359,297.06 299.32,297.06Z" style="fill:rgb(235,235,235);fill-rule:nonzero;"/>
            <path d="M338,258.08C332.345,256.892 328.665,251.268 329.84,245.61L340.36,195.29C341.373,190.424 345.699,186.906 350.669,186.906C351.395,186.906 352.119,186.981 352.83,187.13C357.7,188.139 361.224,192.468 361.224,197.441C361.224,198.166 361.149,198.89 361,199.6L350.49,249.92C349.474,254.788 345.145,258.306 340.172,258.306C339.442,258.306 338.714,258.23 338,258.08Z" style="fill:rgb(224,224,224);fill-rule:nonzero;"/>
            <path d="M331.64,257C331.19,257.069 330.735,257.103 330.28,257.103C325.845,257.103 322.039,253.826 321.38,249.44L314.81,205.96C314.742,205.513 314.708,205.062 314.708,204.61C314.708,200.176 317.985,196.369 322.37,195.71C322.82,195.641 323.275,195.607 323.73,195.607C328.165,195.607 331.971,198.884 332.63,203.27L339.2,246.74C339.269,247.19 339.303,247.645 339.303,248.1C339.303,252.535 336.026,256.341 331.64,257Z" style="fill:rgb(224,224,224);fill-rule:nonzero;"/>
            <path d="M344.43,208.63C342.94,209.282 341.177,208.609 340.5,207.13L334.58,193.91C333.933,192.425 334.6,190.671 336.07,189.99C337.56,189.338 339.323,190.011 340,191.49L345.92,204.71C346.567,206.195 345.9,207.949 344.43,208.63Z" style="fill:rgb(224,224,224);fill-rule:nonzero;"/>
            <path d="M362.34,209.9C363.36,211.162 363.181,213.034 361.94,214.08L350.75,223.29C349.485,224.308 347.613,224.124 346.57,222.88C345.552,221.615 345.736,219.743 346.98,218.7L358.16,209.5C359.422,208.48 361.294,208.659 362.34,209.9Z" style="fill:rgb(224,224,224);fill-rule:nonzero;"/>
            <path d="M330.26,194C331.109,194.38 331.5,195.387 331.13,196.24L327.8,203.81C327.42,204.659 326.413,205.05 325.56,204.68C324.711,204.3 324.32,203.293 324.69,202.44L328.02,194.87C328.4,194.021 329.407,193.63 330.26,194Z" style="fill:rgb(224,224,224);fill-rule:nonzero;"/>
            <path d="M312.44,209.25C313.118,208.612 314.2,208.644 314.84,209.32L320.52,215.32C321.158,215.998 321.126,217.08 320.45,217.72C319.772,218.358 318.69,218.326 318.05,217.65L312.37,211.65C311.732,210.972 311.764,209.89 312.44,209.25Z" style="fill:rgb(224,224,224);fill-rule:nonzero;"/>
            <path d="M355.96,282.62L316.8,282.62L308.63,244L364.13,244L355.96,282.62Z" style="fill:rgb(230,230,230);fill-rule:nonzero;"/>
            <path d="M360.45,250.66L312.31,250.66C308.656,250.66 305.65,247.654 305.65,244C305.655,240.35 308.66,237.35 312.31,237.35L360.45,237.35C364.1,237.35 367.105,240.35 367.11,244C367.11,247.654 364.104,250.66 360.45,250.66Z" style="fill:rgb(245,245,245);fill-rule:nonzero;"/>
            <path d="M290.51,382.4L306.79,297.06L320.42,297.06L295.68,382.4L290.51,382.4Z" style="fill:rgb(224,224,224);fill-rule:nonzero;"/>
            <path d="M382.25,382.4L365.98,297.06L352.34,297.06L377.08,382.4L382.25,382.4Z" style="fill:rgb(224,224,224);fill-rule:nonzero;"/>
            <path d="M352.34,382.4L340.51,297.06L326.88,297.06L347.17,382.4L352.34,382.4Z" style="fill:rgb(224,224,224);fill-rule:nonzero;"/>
        </g>
        <g id="freepik--Shadow--inject-2">
            <ellipse id="freepik--path--inject-2" cx="250" cy="416.24" rx="193.89" ry="11.32" style="fill:rgb(245,245,245);"/>
        </g>
        <g id="freepik--character-1--inject-2">
            <path d="M138.39,330.33L92.65,330.33C91.004,330.33 89.65,328.976 89.65,327.33C89.65,325.684 91.004,324.33 92.65,324.33L138.39,324.33C140.036,324.33 141.39,325.684 141.39,327.33C141.39,328.976 140.036,330.33 138.39,330.33Z" style="fill:rgb(114,142,39);fill-rule:nonzero;"/>
            <path d="M138.39,330.33L92.65,330.33C91.004,330.33 89.65,328.976 89.65,327.33C89.65,325.684 91.004,324.33 92.65,324.33L138.39,324.33C140.036,324.33 141.39,325.684 141.39,327.33C141.39,328.976 140.036,330.33 138.39,330.33Z" style="fill:white;fill-opacity:0.8;fill-rule:nonzero;"/>
            <path d="M179.58,407.52L186.32,404.43L183.07,387.03L176.34,390.13L179.58,407.52Z" style="fill:rgb(255,139,123);fill-rule:nonzero;"/>
            <path d="M186,402.58L178.43,406.05C178.161,406.16 178.031,406.471 178.14,406.74L180.52,412.9C180.818,413.551 181.594,413.847 182.25,413.56C184.87,412.3 186.05,411.56 189.38,410.04C191.43,409.1 200.24,405.32 203.06,404.04C205.88,402.76 204.53,399.98 203.21,400.28C197.32,401.61 189.94,403.1 187.35,402.48C186.902,402.36 186.426,402.396 186,402.58Z" style="fill:rgb(38,50,56);fill-rule:nonzero;"/>
            <path d="M176.33,390.13L183.07,387.04L184.75,396.01L178,399.1L176.33,390.13Z" style="fill-opacity:0.2;fill-rule:nonzero;"/>
            <path d="M132.06,295.63C132.06,295.63 189.74,299.76 187.41,320.89C184.07,351.26 186.82,389.68 186.82,389.68L174.26,394.86C174.26,394.86 163.26,352.05 166.19,328.38C151.8,322.38 112.78,328.13 108.19,315.7C105.946,309.26 105.355,302.358 106.47,295.63L132.06,295.63Z" style="fill:rgb(38,50,56);fill-rule:nonzero;"/>
            <path d="M160.16,313.22C160.16,313.22 158.76,319.5 157.8,326.32L157.93,326.32L159.41,326.55L160.16,326.69L161.01,326.85C162.169,327.079 163.314,327.373 164.44,327.73C164.71,327.81 164.96,327.9 165.21,327.99C165.46,328.08 165.88,328.23 166.21,328.36C165.864,331.277 165.693,334.212 165.7,337.15C174.45,324.3 166.93,313.22 160.16,313.22Z" style="fill-opacity:0.3;fill-rule:nonzero;"/>
            <path d="M173.13,398.99L189.38,391.53L188.33,385.55L171.62,391.66L173.13,398.99Z" style="fill:rgb(114,142,39);fill-rule:nonzero;"/>
            <path d="M189,402.66C188.385,402.918 187.745,403.113 187.09,403.24C187.024,403.255 186.956,403.227 186.92,403.17C186.881,403.113 186.881,403.037 186.92,402.98C187.06,402.73 188.37,400.56 189.34,400.5C189.566,400.484 189.785,400.591 189.91,400.78C190.144,401.033 190.22,401.394 190.11,401.72C189.871,402.161 189.475,402.497 189,402.66ZM187.42,402.81C188.73,402.5 189.6,402.06 189.77,401.6C189.844,401.387 189.789,401.15 189.63,400.99C189.572,400.893 189.462,400.838 189.35,400.85C188.8,400.88 187.94,402 187.39,402.81L187.42,402.81Z" style="fill:rgb(114,142,39);fill-rule:nonzero;"/>
            <path d="M187.1,403.23L187,403.23C186.939,403.234 186.882,403.197 186.86,403.14C186.86,403.07 185.77,401.2 186.15,400.23C186.241,399.976 186.45,399.782 186.71,399.71C186.989,399.589 187.318,399.677 187.5,399.92C187.99,400.58 187.64,402.45 187.15,403.16L187.1,403.23ZM186.76,400.07C186.632,400.128 186.534,400.237 186.49,400.37C186.414,401.188 186.604,402.008 187.03,402.71C187.43,401.913 187.506,400.991 187.24,400.14C187.18,400.05 187.08,399.97 186.84,400.04L186.76,400.07Z" style="fill:rgb(114,142,39);fill-rule:nonzero;"/>
            <path d="M134.87,235.51L141.87,255.81C143.06,259.19 144.24,262.56 145.46,265.89C146.68,269.22 147.93,272.54 149.27,275.7L148.94,275.1C148.604,274.615 148.154,274.22 147.63,273.95C147.016,273.625 146.322,273.483 145.63,273.54C144.72,273.66 144.75,273.85 144.85,273.78C145.431,273.502 145.964,273.135 146.43,272.69C147.821,271.45 149.14,270.131 150.38,268.74C151.71,267.29 153.02,265.74 154.38,264.23L158.32,259.59L163.1,262.45C162.27,264.45 161.33,266.33 160.37,268.24C159.41,270.15 158.37,271.99 157.18,273.84C155.988,275.769 154.651,277.604 153.18,279.33C152.248,280.414 151.179,281.372 150,282.18C148.918,282.928 147.66,283.383 146.35,283.5C145.148,283.597 143.944,283.347 142.88,282.78C141.899,282.256 141.067,281.492 140.46,280.56L140.34,280.38L140.13,279.97C138.45,276.57 136.97,273.21 135.55,269.81C134.13,266.41 132.78,263.04 131.49,259.63C130.2,256.22 128.94,252.81 127.74,249.38C126.54,245.95 125.36,242.52 124.27,239.02L134.87,235.51Z" style="fill:rgb(255,139,123);fill-rule:nonzero;"/>
            <path d="M136.13,236.61C142.13,243.53 146.13,253.21 146.13,253.21L130.37,262.7C125.82,257.16 120.15,242.48 119.91,237.53C119.56,229.92 129.63,229.16 136.13,236.61Z" style="fill:rgb(114,142,39);fill-rule:nonzero;"/>
            <path d="M130.57,243.67C134.01,246.56 136.45,252.57 137.57,258.4L130.43,262.7C128.18,259.96 125.65,254.99 123.64,250.05C125.2,245.15 127.53,241.11 130.57,243.67Z" style="fill-opacity:0.3;fill-rule:nonzero;"/>
            <path d="M132.8,406.94L140.22,406.94L143.61,389.78L136.2,389.78L132.8,406.94Z" style="fill:rgb(255,139,123);fill-rule:nonzero;"/>
            <path d="M140.45,405.14L132.12,405.14C132.113,405.14 132.106,405.14 132.1,405.14C131.816,405.14 131.58,405.367 131.57,405.65L131.16,412.24C131.16,412.957 131.743,413.549 132.46,413.56C135.36,413.51 136.75,413.34 140.41,413.34C142.66,413.34 150.31,413.57 153.41,413.57C156.51,413.57 156.41,410.49 155.11,410.21C149.2,408.96 143.81,407.21 141.71,405.6C141.356,405.306 140.91,405.144 140.45,405.14Z" style="fill:rgb(38,50,56);fill-rule:nonzero;"/>
            <path d="M136.2,389.78L143.61,389.78L141.86,398.63L134.44,398.63L136.2,389.78Z" style="fill-opacity:0.2;fill-rule:nonzero;"/>
            <path d="M117.53,295.63C117.53,295.63 166.41,299.76 165.21,320.98C163.89,344.22 145.08,396.49 145.08,396.49L131.5,396.49C131.5,396.49 137.64,349.2 140.61,325.54C126.84,325.54 98.25,328.13 93.67,315.7C91.443,309.255 90.869,302.354 92,295.63L117.53,295.63Z" style="fill:rgb(38,50,56);fill-rule:nonzero;"/>
            <path d="M130.04,396.49L147.92,396.49L148.94,389.44L130.28,390.28L130.04,396.49Z" style="fill:rgb(114,142,39);fill-rule:nonzero;"/>
            <path d="M143.07,406.43C142.396,406.415 141.726,406.327 141.07,406.17C140.99,406.155 140.932,406.084 140.932,406.003C140.932,405.945 140.961,405.891 141.01,405.86C141.25,405.69 143.34,404.26 144.25,404.61C144.457,404.696 144.607,404.88 144.65,405.1C144.745,405.428 144.666,405.784 144.44,406.04C144.047,406.334 143.559,406.473 143.07,406.43ZM141.57,405.92C142.9,406.18 143.88,406.14 144.22,405.8C144.373,405.633 144.423,405.395 144.35,405.18C144.334,405.069 144.256,404.976 144.15,404.94C143.67,404.75 142.43,405.37 141.57,405.92Z" style="fill:rgb(114,142,39);fill-rule:nonzero;"/>
            <path d="M141.14,406.17C141.114,406.18 141.086,406.18 141.06,406.17C141.007,406.131 140.983,406.063 141,406C141,405.91 140.82,403.78 141.57,403.06C141.764,402.874 142.033,402.785 142.3,402.82C142.603,402.83 142.862,403.045 142.93,403.34C143.1,404.15 141.99,405.7 141.26,406.14L141.14,406.17ZM142.14,403.17C142.002,403.17 141.869,403.224 141.77,403.32C141.358,404.03 141.187,404.855 141.28,405.67C141.93,405.13 142.66,403.95 142.55,403.42C142.55,403.32 142.47,403.2 142.22,403.17L142.14,403.17Z" style="fill:rgb(114,142,39);fill-rule:nonzero;"/>
            <path d="M157.21,262.11L159.51,253.89L166.92,258.78C166.92,258.78 162.92,265.9 160.41,265.32L157.21,262.11Z" style="fill:rgb(255,139,123);fill-rule:nonzero;"/>
            <path d="M166.38,250.55L170.25,255L166.92,258.78L159.51,253.88L166.38,250.55Z" style="fill:rgb(255,139,123);fill-rule:nonzero;"/>
            <path d="M132,296L92.36,296C92.08,292.46 92.9,280.94 92.29,266.27C91.913,255.396 90.595,244.576 88.35,233.93C88.17,233.13 87.99,232.34 87.8,231.54C87.8,231.54 89.8,231.13 92.69,230.71C95.08,230.36 98.08,230 101.02,229.86C106.632,229.54 112.258,229.54 117.87,229.86C120.46,230.1 122.99,230.53 125.01,230.92C127.59,231.44 129.11,231.92 129.11,231.92C129.11,231.92 138.88,254.32 132,296Z" style="fill:rgb(114,142,39);fill-rule:nonzero;"/>
            <path d="M92.29,266.28C91.913,255.406 90.595,244.586 88.35,233.94C91,233.71 95.53,233.94 96.28,238.25C97.09,242.85 96.07,253.67 92.29,266.28Z" style="fill-opacity:0.3;fill-rule:nonzero;"/>
            <path d="M95.49,241.33C94.62,243.8 93.68,246.46 92.85,249.05C92.02,251.64 91.2,254.28 90.46,256.9C88.922,261.964 87.838,267.154 87.22,272.41L87.15,273.33L87.15,273.79C87.15,273.89 87.15,274.25 87.15,273.97C87.076,273.397 86.856,272.853 86.51,272.39C86.097,271.807 85.508,271.372 84.83,271.15C84.45,271.05 84.35,271.08 84.34,271.09C84.445,271.118 84.555,271.118 84.66,271.09C85.129,271.061 85.595,270.987 86.05,270.87C88.52,270.198 90.934,269.335 93.27,268.29C98.27,266.15 103.34,263.67 108.34,261.21L111.4,265.85C106.9,269.594 102.119,272.987 97.1,276C94.447,277.628 91.644,278.998 88.73,280.09C87.834,280.405 86.914,280.649 85.98,280.82C85.389,280.931 84.791,280.995 84.19,281.01C83.312,281.026 82.438,280.901 81.6,280.64C80.238,280.217 79.05,279.36 78.22,278.2C77.48,277.133 77.057,275.878 77,274.58C76.985,274.29 76.985,274 77,273.71L77,271.9C77.079,268.829 77.383,265.767 77.91,262.74C78.39,259.74 79.01,256.88 79.73,254.03C80.45,251.18 81.23,248.36 82.13,245.58C83.03,242.8 83.93,240.09 85.07,237.27L95.49,241.33Z" style="fill:rgb(255,139,123);fill-rule:nonzero;"/>
            <path d="M87.8,231.55C95.02,229.27 99.64,235.04 97.64,245.05C96.278,251.445 93.966,257.6 90.78,263.31L76.19,256.39C77.58,246.58 80.41,233.88 87.8,231.55Z" style="fill:rgb(114,142,39);fill-rule:nonzero;"/>
            <path d="M101.38,211L105.89,214.74L112.03,219.84C111.848,220.658 111.718,221.486 111.64,222.32C111.31,225.65 112.17,228.68 117.07,229.84C117.07,229.84 121.89,234.34 112.25,234.48C102.61,234.62 100.37,229.94 100.37,229.94C104,226.29 102.63,216.4 101.38,211Z" style="fill:rgb(255,139,123);fill-rule:nonzero;"/>
            <path d="M112,219.81C111.818,220.628 111.688,221.456 111.61,222.29C109.32,221.83 106.26,219.39 105.94,217.05C105.827,216.275 105.801,215.491 105.86,214.71L112,219.81Z" style="fill-opacity:0.2;fill-rule:nonzero;"/>
            <path d="M119.18,205.35C120.95,201.35 119.84,195.56 116.84,193.41C116.083,192.845 115.164,192.54 114.219,192.54C111.817,192.54 109.839,194.517 109.839,196.92C109.839,196.943 109.84,196.967 109.84,196.99C109.68,201.91 117.16,209.9 119.18,205.35Z" style="fill:rgb(38,50,56);fill-rule:nonzero;"/>
            <path d="M99.52,203.16C101.09,210.37 101.64,214.65 105.9,217.94C107.592,219.275 109.685,220.002 111.841,220.002C116.865,220.002 121.081,216.053 121.41,211.04C121.97,204.33 119.32,193.66 111.73,191.62C110.834,191.354 109.905,191.22 108.97,191.22C103.644,191.22 99.26,195.603 99.26,200.93C99.26,201.681 99.347,202.429 99.52,203.16Z" style="fill:rgb(255,139,123);fill-rule:nonzero;"/>
            <path d="M102.58,208.78C104.87,205.04 104.51,199.16 101.83,196.64C101.008,195.822 99.894,195.362 98.733,195.362C96.506,195.362 94.614,197.056 94.37,199.27C93.61,204.14 100,213 102.58,208.78Z" style="fill:rgb(38,50,56);fill-rule:nonzero;"/>
            <g transform="matrix(0.887172,-0.461439,0.461439,0.887172,-79.32,69.36)">
                <circle cx="102.18" cy="196.89" r="3.35" style="fill:rgb(38,50,56);"/>
            </g>
            <path d="M102.54,195.52C102.157,196.781 100.987,197.649 99.669,197.649C98.024,197.649 96.669,196.294 96.669,194.649C96.669,193.003 98.024,191.649 99.669,191.649C99.989,191.649 100.307,191.7 100.61,191.8C102.147,192.307 103.01,193.971 102.54,195.52Z" style="fill:rgb(38,50,56);fill-rule:nonzero;"/>
            <path d="M107.57,195C107.18,196.25 106.015,197.107 104.706,197.107C103.06,197.107 101.706,195.753 101.706,194.107C101.706,192.462 103.06,191.107 104.706,191.107C105.016,191.107 105.325,191.155 105.62,191.25C107.179,191.749 108.057,193.437 107.57,195Z" style="fill:rgb(38,50,56);fill-rule:nonzero;"/>
            <path d="M101.63,191.71C101.118,193.345 99.593,194.465 97.88,194.465C95.724,194.465 93.95,192.691 93.95,190.535C93.95,188.379 95.724,186.605 97.88,186.605C98.284,186.605 98.685,186.668 99.07,186.79C100.698,187.298 101.815,188.816 101.815,190.522C101.815,190.925 101.752,191.326 101.63,191.71Z" style="fill:rgb(38,50,56);fill-rule:nonzero;"/>
            <path d="M107.52,189.65C107.001,191.318 105.447,192.463 103.7,192.463C101.506,192.463 99.7,190.657 99.7,188.463C99.7,186.268 101.506,184.463 103.7,184.463C104.111,184.463 104.519,184.526 104.91,184.65C106.993,185.311 108.169,187.563 107.52,189.65Z" style="fill:rgb(38,50,56);fill-rule:nonzero;"/>
            <path d="M112.72,188.27C112.202,189.94 110.647,191.086 108.899,191.086C106.705,191.086 104.899,189.28 104.899,187.086C104.899,184.891 106.705,183.086 108.899,183.086C109.307,183.086 109.712,183.148 110.1,183.27C112.187,183.927 113.368,186.18 112.72,188.27Z" style="fill:rgb(38,50,56);fill-rule:nonzero;"/>
            <path d="M118.76,188.29C118.223,189.929 116.684,191.045 114.959,191.045C112.764,191.045 110.959,189.239 110.959,187.045C110.959,184.85 112.764,183.045 114.959,183.045C115.356,183.045 115.75,183.104 116.13,183.22C117.806,183.733 118.959,185.292 118.959,187.045C118.959,187.468 118.892,187.888 118.76,188.29Z" style="fill:rgb(38,50,56);fill-rule:nonzero;"/>
            <path d="M98.77,195.93C98.296,197.427 96.898,198.451 95.328,198.451C93.348,198.451 91.718,196.821 91.718,194.841C91.718,192.861 93.348,191.231 95.328,191.231C95.699,191.231 96.067,191.288 96.42,191.4C98.307,191.999 99.367,194.043 98.77,195.93Z" style="fill:rgb(38,50,56);fill-rule:nonzero;"/>
            <path d="M111,192.65C110.573,194.003 109.31,194.93 107.891,194.93C106.103,194.93 104.631,193.458 104.631,191.67C104.631,189.881 106.103,188.41 107.891,188.41C108.223,188.41 108.553,188.46 108.87,188.56C110.224,188.986 111.151,190.25 111.151,191.67C111.151,192.002 111.1,192.333 111,192.65Z" style="fill:rgb(38,50,56);fill-rule:nonzero;"/>
            <path d="M115,192.35C114.639,193.502 113.564,194.292 112.357,194.292C110.837,194.292 109.587,193.041 109.587,191.522C109.587,190.002 110.837,188.752 112.357,188.752C112.639,188.752 112.92,188.795 113.19,188.88C114.637,189.337 115.454,190.902 115,192.35Z" style="fill:rgb(38,50,56);fill-rule:nonzero;"/>
            <path d="M121.1,190.2C120.736,191.342 119.669,192.122 118.47,192.122C116.956,192.122 115.71,190.876 115.71,189.362C115.71,187.848 116.956,186.602 118.47,186.602C118.752,186.602 119.032,186.645 119.3,186.73C120.446,187.091 121.23,188.161 121.23,189.362C121.23,189.647 121.186,189.929 121.1,190.2Z" style="fill:rgb(38,50,56);fill-rule:nonzero;"/>
            <path d="M118.63,192.46C118.284,193.562 117.256,194.317 116.101,194.317C114.648,194.317 113.451,193.121 113.451,191.667C113.451,190.213 114.648,189.017 116.101,189.017C116.372,189.017 116.642,189.058 116.9,189.14C118,189.483 118.754,190.508 118.754,191.66C118.754,191.932 118.712,192.201 118.63,192.46Z" style="fill:rgb(38,50,56);fill-rule:nonzero;"/>
            <path d="M123.56,188.91C123.276,189.817 122.43,190.438 121.48,190.438C120.284,190.438 119.3,189.454 119.3,188.258C119.3,187.062 120.284,186.078 121.48,186.078C121.704,186.078 121.927,186.112 122.14,186.18C123.043,186.462 123.662,187.305 123.662,188.251C123.662,188.475 123.628,188.697 123.56,188.91Z" style="fill:rgb(38,50,56);fill-rule:nonzero;"/>
            <path d="M124.65,190.92C124.482,191.463 123.977,191.836 123.408,191.836C122.695,191.836 122.108,191.249 122.108,190.536C122.108,189.823 122.695,189.236 123.408,189.236C123.544,189.236 123.68,189.258 123.81,189.3C124.345,189.469 124.71,189.969 124.71,190.53C124.71,190.662 124.69,190.794 124.65,190.92Z" style="fill:rgb(38,50,56);fill-rule:nonzero;"/>
            <path d="M103.07,192.53C102.9,193.07 102.396,193.44 101.83,193.44C101.117,193.44 100.53,192.853 100.53,192.14C100.53,191.427 101.117,190.84 101.83,190.84C101.962,190.84 102.094,190.86 102.22,190.9C102.897,191.119 103.278,191.85 103.07,192.53Z" style="fill:rgb(38,50,56);fill-rule:nonzero;"/>
            <path d="M98.35,209.84C99.336,211.121 100.761,211.994 102.35,212.29C104.35,212.65 105.01,210.78 104.11,208.96C103.29,207.32 101.26,205.16 99.37,205.62C97.48,206.08 97.14,208.25 98.35,209.84Z" style="fill:rgb(255,139,123);fill-rule:nonzero;"/>
            <path d="M111.87,203.82C111.96,204.41 112.35,204.82 112.74,204.82C113.13,204.82 113.37,204.26 113.28,203.67C113.19,203.08 112.8,202.67 112.41,202.67C112.02,202.67 111.78,203.23 111.87,203.82Z" style="fill:rgb(38,50,56);fill-rule:nonzero;"/>
            <path d="M118.58,203C118.67,203.59 119.06,204 119.45,204C119.84,204 120.08,203.43 119.99,202.84C119.9,202.25 119.51,201.84 119.12,201.84C118.73,201.84 118.49,202.43 118.58,203Z" style="fill:rgb(38,50,56);fill-rule:nonzero;"/>
            <path d="M116.54,203.26C117.28,204.783 118.222,206.199 119.34,207.47C118.671,208.012 117.793,208.225 116.95,208.05L116.54,203.26Z" style="fill:rgb(255,86,82);fill-rule:nonzero;"/>
            <path d="M114.2,211.09C112.8,211.105 111.452,210.549 110.47,209.55C110.442,209.518 110.426,209.477 110.426,209.435C110.426,209.34 110.505,209.261 110.6,209.261C110.65,209.261 110.697,209.283 110.73,209.32C111.823,210.386 113.346,210.895 114.86,210.7C114.952,210.694 115.035,210.759 115.05,210.85C115.062,210.946 114.995,211.035 114.9,211.05C114.668,211.078 114.434,211.091 114.2,211.09Z" style="fill:rgb(38,50,56);fill-rule:nonzero;"/>
            <path d="M109.17,200.41C109.115,200.393 109.064,200.366 109.02,200.33C108.953,200.264 108.915,200.174 108.915,200.08C108.915,199.986 108.953,199.896 109.02,199.83C109.759,198.963 110.889,198.526 112.02,198.67C112.185,198.695 112.308,198.839 112.308,199.006C112.308,199.031 112.305,199.056 112.3,199.08C112.274,199.244 112.131,199.366 111.964,199.366C111.943,199.366 111.921,199.364 111.9,199.36C111.023,199.272 110.157,199.625 109.59,200.3C109.489,200.423 109.319,200.468 109.17,200.41Z" style="fill:rgb(38,50,56);fill-rule:nonzero;"/>
            <path d="M121,200C120.889,200.033 120.768,200.006 120.68,199.93C119.991,199.334 119.066,199.084 118.17,199.25C118.137,199.26 118.103,199.265 118.069,199.265C117.915,199.265 117.779,199.16 117.74,199.01C117.689,198.826 117.797,198.633 117.98,198.58C119.095,198.34 120.26,198.641 121.12,199.39C121.269,199.515 121.291,199.738 121.17,199.89C121.122,199.939 121.064,199.977 121,200Z" style="fill:rgb(38,50,56);fill-rule:nonzero;"/>
            <path d="M106.79,262.05L109.39,255.73L114.87,261.56C114.87,261.56 112.22,267.76 109.14,266.12L106.79,262.05Z" style="fill:rgb(255,139,123);fill-rule:nonzero;"/>
            <path d="M116.22,251.48L119.27,256.52L114.87,261.56L109.39,255.72L116.22,251.48Z" style="fill:rgb(255,139,123);fill-rule:nonzero;"/>
        </g>
        <g id="freepik--character-2--inject-2">
            <circle cx="278.24" cy="188.55" r="8.74" style="fill:rgb(38,50,56);"/>
            <path d="M280.27,197.54C275.333,197.54 271.27,193.477 271.27,188.54C271.27,183.603 275.333,179.54 280.27,179.54C285.207,179.54 289.27,183.603 289.27,188.54C289.27,193.477 285.207,197.54 280.27,197.54ZM280.27,180.07C275.613,180.07 271.78,183.903 271.78,188.56C271.78,193.217 275.613,197.05 280.27,197.05C284.927,197.05 288.76,193.217 288.76,188.56C288.76,188.557 288.76,188.553 288.76,188.55C288.755,183.896 284.924,180.07 280.27,180.07Z" style="fill:rgb(38,50,56);fill-rule:nonzero;"/>
            <path d="M260.9,202.59C255.963,202.59 251.9,198.527 251.9,193.59C251.9,188.653 255.963,184.59 260.9,184.59C265.837,184.59 269.9,188.653 269.9,193.59C269.9,198.527 265.837,202.59 260.9,202.59ZM260.9,185.11C256.243,185.11 252.41,188.943 252.41,193.6C252.41,198.257 256.243,202.09 260.9,202.09C265.557,202.09 269.39,198.257 269.39,193.6C269.39,188.943 265.557,185.11 260.9,185.11Z" style="fill:rgb(38,50,56);fill-rule:nonzero;"/>
            <circle cx="261.77" cy="193.41" r="8.95" style="fill:rgb(38,50,56);"/>
            <path d="M253.09,179.86C252,185 255.73,194 259.65,194.49C263.57,194.98 264.34,185.19 260.94,180.92C257.54,176.65 253.91,176.12 253.09,179.86Z" style="fill:rgb(38,50,56);fill-rule:nonzero;"/>
            <path d="M260.42,218.82C260.89,221.65 261.14,224.3 261.35,227.05C261.56,229.8 261.6,232.52 261.56,235.28C261.542,240.886 260.816,246.466 259.4,251.89C257.85,257.19 255.99,262.14 254.06,267.13L251.06,274.55C250.01,277 249,279.45 247.89,281.89L244.37,280.61L246.54,272.96L248.75,265.34L250.91,257.74C251.63,255.22 252.31,252.67 252.91,250.22C253.901,245.302 254.31,240.284 254.13,235.27C254.13,232.72 253.97,230.16 253.76,227.61C253.55,225.06 253.28,222.44 252.97,220.03L260.42,218.82Z" style="fill:rgb(255,139,123);fill-rule:nonzero;"/>
            <path d="M253.41,211.18C250.62,212.61 251.32,225.3 251.32,225.3L264.43,230.44C264.43,230.44 265.8,214.9 262.78,212.15C259.76,209.4 257.5,209.09 253.41,211.18Z" style="fill:rgb(114,142,39);fill-rule:nonzero;"/>
            <path d="M254.3,213.85L254.82,226.68L260.13,228.75L254.3,213.85Z" style="fill-opacity:0.2;fill-rule:nonzero;"/>
            <path d="M245.84,278.71L237.5,282.11L243.92,285.51C243.92,285.51 248.2,283.45 248.33,280.39L245.84,278.71Z" style="fill:rgb(255,139,123);fill-rule:nonzero;"/>
            <path d="M269.01,406.03L261.62,406.03L260.37,388.92L267.76,388.92L269.01,406.03Z" style="fill:rgb(255,139,123);fill-rule:nonzero;"/>
            <path d="M310.02,395L302.77,396.43L297.13,380.11L304.37,378.68L310.02,395Z" style="fill:rgb(255,139,123);fill-rule:nonzero;"/>
            <path d="M301.71,395.18L309.52,392.38C309.795,392.277 310.107,392.398 310.24,392.66L313.35,398.52C313.429,398.682 313.469,398.86 313.469,399.039C313.469,399.541 313.152,399.991 312.68,400.16C309.94,401.09 308.57,401.4 305.13,402.63C303.02,403.38 299,405.63 296.08,406.63C293.16,407.63 291.98,404.84 293.08,404.15C296.364,402.242 299.009,399.401 300.68,395.99C300.919,395.609 301.283,395.322 301.71,395.18Z" style="fill:rgb(38,50,56);fill-rule:nonzero;"/>
            <path d="M261.07,405.17L269.37,405.17C269.663,405.168 269.915,405.389 269.95,405.68L270.9,412.24C270.905,412.283 270.907,412.327 270.907,412.37C270.907,413.022 270.372,413.558 269.72,413.56C266.82,413.51 265.43,413.34 261.78,413.34C259.53,413.34 254.89,413.57 251.78,413.57C248.67,413.57 248.52,410.5 249.78,410.23C255.56,408.98 257.84,407.23 259.78,405.63C260.139,405.323 260.598,405.16 261.07,405.17Z" style="fill:rgb(38,50,56);fill-rule:nonzero;"/>
            <g opacity="0.2">
                <path d="M260.37,388.93L261.05,398.24L268.44,398.24L267.76,388.93L260.37,388.93Z" style="fill-rule:nonzero;"/>
                <path d="M304.38,378.68L297.13,380.12L300.28,389.21L307.45,387.56L304.38,378.68Z" style="fill-rule:nonzero;"/>
            </g>
            <path d="M253.41,211.18C253.41,211.18 250.26,213.18 266.74,253.87L296,247.22C292.8,235.43 291.12,228.09 291.26,202.36C286.97,202.445 282.692,202.843 278.46,203.55C273.967,204.232 269.529,205.234 265.18,206.55C259.58,208.39 253.41,211.18 253.41,211.18Z" style="fill:rgb(114,142,39);fill-rule:nonzero;"/>
            <path d="M291.24,206.33C288.887,207.975 287.207,210.415 286.51,213.2C285.74,216.73 290.64,222.69 291.79,224.02C291.44,219.29 291.26,213.61 291.24,206.33Z" style="fill-opacity:0.2;fill-rule:nonzero;"/>
            <path d="M274.1,190.49C274.24,194.96 274.81,201.38 278.45,203.55C276.79,209.075 273.649,214.041 269.37,217.91C262.37,214.52 265.17,206.57 265.17,206.57C269.68,204.35 269.12,202.44 267.53,199.31L274.1,190.49Z" style="fill:rgb(255,139,123);fill-rule:nonzero;"/>
            <path d="M271.42,194.09L267.53,199.31C267.931,200.032 268.265,200.788 268.53,201.57C270.29,200.89 272.8,198.69 272.74,196.62C272.517,195.68 272.063,194.81 271.42,194.09Z" style="fill-opacity:0.2;fill-rule:nonzero;"/>
            <path d="M273.59,179.71C275.78,186.71 276.85,189.62 274.74,194.45C271.55,201.71 262.48,202.86 258.25,196.66C254.44,191.08 251.5,180.57 257.16,175.3C259.014,173.556 261.466,172.584 264.012,172.584C268.415,172.584 272.325,175.492 273.59,179.71Z" style="fill:rgb(255,139,123);fill-rule:nonzero;"/>
            <path d="M266.74,253.87C266.74,253.87 249.94,296.65 250.42,319.17C250.93,342.6 259.51,396.04 259.51,396.04L269.51,396.04C269.51,396.04 267.92,344 268.8,321C269.8,295.92 288.16,249 288.16,249L266.74,253.87Z" style="fill:rgb(114,142,39);fill-rule:nonzero;"/>
            <path d="M266.74,253.87C266.74,253.87 249.94,296.65 250.42,319.17C250.93,342.6 259.51,396.04 259.51,396.04L269.51,396.04C269.51,396.04 267.92,344 268.8,321C269.8,295.92 288.16,249 288.16,249L266.74,253.87Z" style="fill-opacity:0.5;fill-rule:nonzero;"/>
            <path d="M270.37,396.39L258.65,396.39L257.79,392.66L270.91,392.2L270.37,396.39Z" style="fill:rgb(38,50,56);fill-rule:nonzero;"/>
            <path d="M274.4,267C268.68,277.13 269.19,293.65 270.73,306.1C273.263,294.087 276.512,282.235 280.46,270.61C279.66,263.89 277.91,260.78 274.4,267Z" style="fill-opacity:0.2;fill-rule:nonzero;"/>
            <path d="M274.46,252.11C274.46,252.11 270.46,298.9 275.62,317.89C281.71,340.44 298,387.2 298,387.2L307.88,385.25C307.88,385.25 299.88,331.3 295.18,319.42C285.24,294.07 307.44,261.59 296.03,247.22L274.46,252.11Z" style="fill:rgb(114,142,39);fill-rule:nonzero;"/>
            <path d="M274.46,252.11C274.46,252.11 270.46,298.9 275.62,317.89C281.71,340.44 298,387.2 298,387.2L307.88,385.25C307.88,385.25 299.88,331.3 295.18,319.42C285.24,294.07 307.44,261.59 296.03,247.22L274.46,252.11Z" style="fill-opacity:0.5;fill-rule:nonzero;"/>
            <path d="M309.08,385.54L296.82,387.96L294.76,384.37L309.05,380.86L309.08,385.54Z" style="fill:rgb(38,50,56);fill-rule:nonzero;"/>
            <path d="M263.38,185.68C263.59,186.24 263.47,186.8 263.1,186.94C262.73,187.08 262.27,186.74 262.1,186.18C261.93,185.62 262.01,185.06 262.37,184.93C262.73,184.8 263.17,185.13 263.38,185.68Z" style="fill:rgb(38,50,56);fill-rule:nonzero;"/>
            <path d="M257.09,188.08C257.3,188.64 257.18,189.2 256.81,189.34C256.44,189.48 255.98,189.14 255.81,188.58C255.64,188.02 255.72,187.46 256.08,187.32C256.44,187.18 256.87,187.52 257.09,188.08Z" style="fill:rgb(38,50,56);fill-rule:nonzero;"/>
            <path d="M256.22,187.29L254.73,187.42C254.73,187.42 255.82,188.2 256.22,187.29Z" style="fill:rgb(38,50,56);fill-rule:nonzero;"/>
            <path d="M259.41,188.34C259.399,189.799 259.187,191.249 258.78,192.65C259.508,192.844 260.285,192.705 260.9,192.27L259.41,188.34Z" style="fill:rgb(255,86,82);fill-rule:nonzero;"/>
            <path d="M264.77,193.29C264.518,193.438 264.253,193.566 263.98,193.67C263.889,193.704 263.787,193.659 263.75,193.57C263.74,193.548 263.735,193.525 263.735,193.501C263.735,193.428 263.782,193.364 263.85,193.34C265.265,192.831 266.357,191.68 266.79,190.24C266.808,190.161 266.879,190.105 266.96,190.105C267.056,190.105 267.135,190.184 267.135,190.28C267.135,190.293 267.133,190.307 267.13,190.32C266.771,191.585 265.921,192.655 264.77,193.29Z" style="fill:rgb(38,50,56);fill-rule:nonzero;"/>
            <path d="M261.19,176.42C263.44,182.1 273.13,187.05 276.61,185.54C280.77,183.73 279.61,174.73 272.93,171.9C267.34,169.52 259.55,172.28 261.19,176.42Z" style="fill:rgb(38,50,56);fill-rule:nonzero;"/>
            <path d="M266.51,171.52C264.31,169.34 251.11,169.88 250,175.67C248.46,183.67 256.14,181.86 260.34,180.2C265.71,178.09 269.39,174.37 266.51,171.52Z" style="fill:rgb(38,50,56);fill-rule:nonzero;"/>
            <path d="M277.35,186.31C277.328,187.728 276.745,189.08 275.73,190.07C274.38,191.37 272.82,190.37 272.45,188.63C272.12,187.06 272.45,184.5 274.15,183.86C274.409,183.767 274.682,183.72 274.958,183.72C276.274,183.72 277.358,184.803 277.358,186.12C277.358,186.183 277.355,186.247 277.35,186.31Z" style="fill:rgb(255,139,123);fill-rule:nonzero;"/>
            <path d="M264,183C263.859,183.054 263.699,183.014 263.6,182.9C262.732,182.143 261.586,181.78 260.44,181.9C260.428,181.901 260.417,181.902 260.405,181.902C260.212,181.902 260.053,181.743 260.053,181.55C260.053,181.37 260.191,181.218 260.37,181.2C261.743,181.057 263.112,181.518 264.12,182.46C264.187,182.526 264.225,182.616 264.225,182.71C264.225,182.804 264.187,182.894 264.12,182.96L264,183Z" style="fill:rgb(38,50,56);fill-rule:nonzero;"/>
            <path d="M253.29,186C253.185,186.061 253.055,186.061 252.95,186C252.783,185.904 252.72,185.691 252.81,185.52C253.343,184.526 254.33,183.853 255.45,183.72C255.457,183.72 255.464,183.719 255.471,183.719C255.655,183.719 255.81,183.866 255.82,184.05C255.82,184.057 255.821,184.064 255.821,184.071C255.821,184.255 255.674,184.41 255.49,184.42C254.606,184.539 253.834,185.08 253.42,185.87C253.39,185.925 253.345,185.97 253.29,186Z" style="fill:rgb(38,50,56);fill-rule:nonzero;"/>
            <path d="M298.39,397.39L298.31,397.39C297.991,397.251 297.767,396.955 297.72,396.61C297.67,396.402 297.73,396.183 297.88,396.03C298.56,395.38 301.16,395.98 301.45,396.03C301.518,396.049 301.571,396.102 301.59,396.17C301.601,396.24 301.57,396.311 301.51,396.35C300.71,396.86 299.27,397.67 298.39,397.39ZM300.96,396.27C299.96,396.06 298.48,395.91 298.13,396.27C298.058,396.336 298.031,396.437 298.06,396.53C298.09,396.759 298.233,396.958 298.44,397.06C298.91,397.24 299.83,397 301,396.27L300.96,396.27Z" style="fill:rgb(114,142,39);fill-rule:nonzero;"/>
            <path d="M301.12,396.3C300.24,396.02 298.77,395.1 298.66,394.3C298.622,394.017 298.784,393.743 299.05,393.64C299.299,393.534 299.581,393.534 299.83,393.64C300.83,394.04 301.55,396.04 301.58,396.13C301.608,396.183 301.608,396.247 301.58,396.3C301.535,396.345 301.473,396.367 301.41,396.36L301.12,396.3ZM299.65,394C299.51,393.94 299.35,393.94 299.21,394C299.01,394.11 298.99,394.22 299.01,394.3C299.08,394.81 300.27,395.66 301.12,395.95C300.85,395.29 300.29,394.23 299.7,393.95L299.65,394Z" style="fill:rgb(114,142,39);fill-rule:nonzero;"/>
            <path d="M258.29,406.46C257.66,406.517 257.028,406.359 256.5,406.01C256.267,405.792 256.152,405.476 256.19,405.16C256.201,404.965 256.31,404.788 256.48,404.69C257.39,404.19 260.33,405.69 260.67,405.87C260.732,405.908 260.767,405.978 260.76,406.05C260.752,406.125 260.695,406.187 260.62,406.2C259.853,406.357 259.073,406.444 258.29,406.46ZM257,404.94C256.887,404.93 256.773,404.951 256.67,405C256.599,405.036 256.556,405.111 256.56,405.19C256.523,405.399 256.599,405.612 256.76,405.75C257.2,406.15 258.42,406.22 260.06,405.95C259.105,405.441 258.07,405.099 257,404.94Z" style="fill:rgb(114,142,39);fill-rule:nonzero;"/>
            <path d="M260.58,406.2L260.51,406.2C259.63,405.8 257.89,404.2 258.03,403.37C258.03,403.17 258.2,402.92 258.68,402.88C259.041,402.827 259.408,402.937 259.68,403.18C260.61,403.95 260.78,405.94 260.79,406.02C260.796,406.082 260.769,406.142 260.72,406.18C260.677,406.203 260.628,406.211 260.58,406.2ZM258.82,403.2L258.72,403.2C258.4,403.2 258.38,403.36 258.37,403.41C258.29,403.91 259.47,405.16 260.37,405.71C260.301,404.871 259.972,404.074 259.43,403.43C259.262,403.282 259.044,403.203 258.82,403.21L258.82,403.2Z" style="fill:rgb(114,142,39);fill-rule:nonzero;"/>
            <path d="M262.51,184.89L261,185C261,185 262.11,185.8 262.51,184.89Z" style="fill:rgb(38,50,56);fill-rule:nonzero;"/>
            <path d="M296,245.4L297.34,247.85C297.49,248.03 297.34,248.29 296.96,248.37L266.85,255.21C266.59,255.27 266.34,255.21 266.28,255.03L265.43,252.47C265.37,252.3 265.56,252.09 265.85,252.03L295.47,245.29C295.654,245.235 295.853,245.277 296,245.4Z" style="fill:white;fill-rule:nonzero;"/>
            <path d="M292.71,249.64L293.51,249.46C293.66,249.46 293.77,249.32 293.73,249.22L292.59,245.9C292.508,245.794 292.368,245.75 292.24,245.79L291.45,245.97C291.29,245.97 291.19,246.12 291.22,246.21L292.37,249.53C292.4,249.63 292.56,249.68 292.71,249.64Z" style="fill:rgb(114,142,39);fill-rule:nonzero;"/>
            <path d="M292.71,249.64L293.51,249.46C293.66,249.46 293.77,249.32 293.73,249.22L292.59,245.9C292.508,245.794 292.368,245.75 292.24,245.79L291.45,245.97C291.29,245.97 291.19,246.12 291.22,246.21L292.37,249.53C292.4,249.63 292.56,249.68 292.71,249.64Z" style="fill-opacity:0.5;fill-rule:nonzero;"/>
            <path d="M269.18,255L269.98,254.82C270.14,254.82 270.24,254.68 270.2,254.58L269.06,251.26C268.985,251.145 268.838,251.099 268.71,251.15L267.92,251.33C267.76,251.33 267.66,251.48 267.69,251.57L268.84,254.89C268.87,255 269,255 269.18,255Z" style="fill:rgb(114,142,39);fill-rule:nonzero;"/>
            <path d="M269.18,255L269.98,254.82C270.14,254.82 270.24,254.68 270.2,254.58L269.06,251.26C268.985,251.145 268.838,251.099 268.71,251.15L267.92,251.33C267.76,251.33 267.66,251.48 267.69,251.57L268.84,254.89C268.87,255 269,255 269.18,255Z" style="fill-opacity:0.5;fill-rule:nonzero;"/>
            <path d="M280.9,252.33L281.69,252.15C281.85,252.15 281.95,252 281.92,251.91L280.77,248.59C280.77,248.49 280.58,248.44 280.43,248.48L279.63,248.66C279.47,248.66 279.37,248.8 279.41,248.9L280.55,252.22C280.632,252.326 280.772,252.37 280.9,252.33Z" style="fill:rgb(114,142,39);fill-rule:nonzero;"/>
            <path d="M280.9,252.33L281.69,252.15C281.85,252.15 281.95,252 281.92,251.91L280.77,248.59C280.77,248.49 280.58,248.44 280.43,248.48L279.63,248.66C279.47,248.66 279.37,248.8 279.41,248.9L280.55,252.22C280.632,252.326 280.772,252.37 280.9,252.33Z" style="fill-opacity:0.5;fill-rule:nonzero;"/>
            <path d="M234.67,286.89L240.56,288.35L243.92,285.51L237.5,282.11L234.67,286.89Z" style="fill:rgb(255,139,123);fill-rule:nonzero;"/>
            <path d="M281.68,238.49L275.93,233L275.43,240.5C275.43,240.5 279.43,243.05 282.11,241.56L281.68,238.49Z" style="fill:rgb(255,139,123);fill-rule:nonzero;"/>
            <path d="M296,209.18C296.26,209.51 296.39,209.7 296.57,209.95L297.05,210.64C297.35,211.1 297.64,211.56 297.92,212.02C298.467,212.94 298.987,213.87 299.48,214.81C300.42,216.69 301.267,218.6 302.02,220.54C302.79,222.47 303.43,224.45 304.02,226.43C304.31,227.43 304.55,228.43 304.8,229.43L304.9,229.81L305.01,230.29C305.108,230.721 305.168,231.159 305.19,231.6C305.234,232.565 305.077,233.529 304.73,234.43C304.089,235.951 303.001,237.242 301.61,238.13C300.565,238.809 299.44,239.357 298.26,239.76C296.198,240.449 294.07,240.918 291.91,241.16C287.831,241.643 283.714,241.716 279.62,241.38L279.62,237.64C281.5,237.41 283.45,237.17 285.33,236.84C287.21,236.51 289.11,236.18 290.92,235.72C292.661,235.297 294.361,234.722 296,234C296.673,233.705 297.308,233.329 297.89,232.88C298.37,232.49 298.54,232.14 298.5,232.09C298.46,232.04 298.5,232.09 298.5,232L298.26,231.28C297.96,230.38 297.66,229.48 297.32,228.6C296.71,226.81 295.96,225.07 295.24,223.35C294.52,221.63 293.69,219.94 292.81,218.35C292.39,217.54 291.94,216.73 291.48,215.96C291.25,215.57 291.01,215.2 290.77,214.83L290.43,214.29L290.13,213.86L296,209.18Z" style="fill:rgb(255,139,123);fill-rule:nonzero;"/>
            <path d="M291.25,202.36C294.38,202.59 300.19,211.88 300.19,211.88L291.29,221.52C291.29,221.52 284.61,215.11 285,211C285.37,206.81 287.67,202.1 291.25,202.36Z" style="fill:rgb(114,142,39);fill-rule:nonzero;"/>
            <path d="M269.75,232.31L269.68,238.61L275.43,240.45L275.93,232.95L269.75,232.31Z" style="fill:rgb(255,139,123);fill-rule:nonzero;"/>
        </g>
        <g id="freepik--character-3--inject-2">
            <path d="M390.48,330.33L344.74,330.33C343.094,330.33 341.74,328.976 341.74,327.33C341.74,325.684 343.094,324.33 344.74,324.33L390.48,324.33C392.126,324.33 393.48,325.684 393.48,327.33C393.48,328.976 392.126,330.33 390.48,330.33Z" style="fill:rgb(114,142,39);fill-rule:nonzero;"/>
            <path d="M390.48,330.33L344.74,330.33C343.094,330.33 341.74,328.976 341.74,327.33C341.74,325.684 343.094,324.33 344.74,324.33L390.48,324.33C392.126,324.33 393.48,325.684 393.48,327.33C393.48,328.976 392.126,330.33 390.48,330.33Z" style="fill:white;fill-opacity:0.8;fill-rule:nonzero;"/>
            <path d="M331.37,406.94L323.96,406.94L319.65,389.78L327.06,389.78L331.37,406.94Z" style="fill:rgb(255,139,123);fill-rule:nonzero;"/>
            <path d="M323.44,405.14L331.77,405.14C331.777,405.14 331.784,405.14 331.79,405.14C332.074,405.14 332.31,405.367 332.32,405.65L332.72,412.24C332.72,412.957 332.137,413.549 331.42,413.56C328.52,413.51 327.14,413.34 323.48,413.34C321.22,413.34 311.64,413.57 308.48,413.57C305.32,413.57 305.48,410.49 306.78,410.21C312.69,408.96 320.02,407.21 322.11,405.6C322.487,405.298 322.957,405.135 323.44,405.14Z" style="fill:rgb(38,50,56);fill-rule:nonzero;"/>
            <path d="M327.07,389.78L319.65,389.78L321.88,398.63L329.29,398.63L327.07,389.78Z" style="fill-opacity:0.2;fill-rule:nonzero;"/>
            <path d="M351.08,295.63C351.08,295.63 290.75,299.76 292,321C293.32,344.24 318.69,396.51 318.69,396.51L332.27,396.51C332.27,396.51 319.96,352.07 316.99,328.4C331.38,322.4 370.41,328.15 374.99,315.72C377.234,309.28 377.825,302.378 376.71,295.65L351.08,295.63Z" style="fill:rgb(114,142,39);fill-rule:nonzero;"/>
            <path d="M317.68,333.57C317.51,332.51 317.36,331.47 317.22,330.47C317.12,329.76 317.02,329.06 316.94,328.38C319.643,327.358 322.461,326.666 325.33,326.32C324.33,319.5 322.97,313.22 322.97,313.22C315.97,313.22 308.08,325.22 318.56,338.7C318.387,337.78 318.227,336.87 318.08,335.97C317.94,335.16 317.81,334.35 317.68,333.57Z" style="fill-opacity:0.3;fill-rule:nonzero;"/>
            <path d="M333.68,396.49L315.8,396.49L314.26,390.62L331.99,389.21L333.68,396.49Z" style="fill:rgb(38,50,56);fill-rule:nonzero;"/>
            <path d="M320.81,406.43C321.484,406.414 322.154,406.327 322.81,406.17C322.874,406.148 322.923,406.096 322.94,406.03C322.947,405.965 322.921,405.901 322.87,405.86C322.63,405.69 320.53,404.26 319.63,404.61C319.423,404.698 319.27,404.88 319.22,405.1C319.127,405.43 319.211,405.785 319.44,406.04C319.833,406.334 320.321,406.473 320.81,406.43ZM322.31,405.92C320.99,406.18 320.01,406.14 319.66,405.8C319.514,405.629 319.468,405.393 319.54,405.18C319.555,405.071 319.628,404.979 319.73,404.94C320.22,404.75 321.45,405.37 322.31,405.92Z" style="fill:rgb(114,142,39);fill-rule:nonzero;"/>
            <path d="M322.75,406.17C322.776,406.178 322.804,406.178 322.83,406.17C322.881,406.141 322.915,406.089 322.92,406.03C322.92,405.94 323.09,403.81 322.35,403.09C322.152,402.903 321.88,402.815 321.61,402.85C321.31,402.861 321.054,403.076 320.99,403.37C320.82,404.18 321.92,405.73 322.66,406.17L322.75,406.17ZM321.75,403.17C321.891,403.168 322.028,403.222 322.13,403.32C322.534,404.033 322.702,404.856 322.61,405.67C321.97,405.13 321.23,403.95 321.34,403.42C321.34,403.32 321.42,403.2 321.67,403.17L321.75,403.17Z" style="fill:rgb(114,142,39);fill-rule:nonzero;"/>
            <path d="M358.84,239.29C357.71,242.4 356.48,245.44 355.27,248.5C354.06,251.56 352.79,254.6 351.48,257.62C348.89,263.69 346.18,269.7 343.18,275.69L342.75,276.54L342.31,276.99C340.179,279.126 337.746,280.939 335.09,282.37C332.556,283.736 329.871,284.799 327.09,285.54C324.413,286.266 321.675,286.741 318.91,286.96C317.54,287.08 316.18,287.11 314.82,287.11C313.427,287.11 312.035,287.034 310.65,286.88L310.76,281.31C311.81,281.15 313.07,280.94 314.22,280.7C315.37,280.46 316.56,280.16 317.71,279.85C319.974,279.249 322.19,278.48 324.34,277.55C326.397,276.672 328.36,275.59 330.2,274.32C331.922,273.131 333.479,271.718 334.83,270.12L333.96,271.42C336.44,265.52 338.79,259.42 341.17,253.42L344.74,244.33L348.35,235.27L358.84,239.29Z" style="fill:rgb(255,139,123);fill-rule:nonzero;"/>
            <path d="M347,236.61C341,243.53 337,253.21 337,253.21L352.76,262.7C357.31,257.16 362.99,242.48 363.22,237.53C363.57,229.92 353.5,229.16 347,236.61Z" style="fill:rgb(38,50,56);fill-rule:nonzero;"/>
            <path d="M352.56,243.67C349.12,246.56 346.68,252.57 345.61,258.4L352.75,262.7C355,259.96 357.53,254.99 359.54,250.05C357.93,245.15 355.6,241.11 352.56,243.67Z" style="fill-opacity:0.3;fill-rule:nonzero;"/>
            <path d="M360.63,402.29L353.42,403.99L346.17,388.06L353.39,386.36L360.63,402.29Z" style="fill:rgb(255,139,123);fill-rule:nonzero;"/>
            <path d="M352.18,402L359.99,399.12C360.262,399.016 360.572,399.144 360.69,399.41L363.34,405.41C363.553,406.081 363.223,406.814 362.58,407.1C360.02,408.46 358.58,408.55 355.05,409.64C353.5,410.11 349.56,413.38 345,413.38L341,413.38C338.64,413.38 338.32,410.86 339.63,410.51C345.96,408.82 349.71,405.1 351.11,402.83C351.359,402.437 351.738,402.144 352.18,402Z" style="fill:rgb(38,50,56);fill-rule:nonzero;"/>
            <path d="M353.39,386.36L346.17,388.06L349.91,396.27L357.13,394.57L353.39,386.36Z" style="fill-opacity:0.2;fill-rule:nonzero;"/>
            <path d="M365.6,295.63C365.6,295.63 316.72,299.76 317.92,320.98C319.24,344.22 346.29,394.93 346.29,394.93L359.5,391.82C359.5,391.82 345.5,349.2 342.5,325.54C356.28,325.54 384.86,328.13 389.5,315.7C391.744,309.26 392.335,302.358 391.22,295.63L365.6,295.63Z" style="fill:rgb(114,142,39);fill-rule:nonzero;"/>
            <path d="M360.92,391.48L343.52,395.58L341.67,389.73L359.29,384.55L360.92,391.48Z" style="fill:rgb(38,50,56);fill-rule:nonzero;"/>
            <path d="M350.16,404.16C350.777,403.912 351.367,403.6 351.92,403.23C351.976,403.193 352.007,403.127 352,403.06C351.989,402.991 351.938,402.936 351.87,402.92C351.59,402.85 349.13,402.22 348.4,402.87C348.232,403.021 348.153,403.247 348.19,403.47C348.203,403.814 348.408,404.124 348.72,404.27C349.197,404.414 349.711,404.375 350.16,404.16ZM351.39,403.16C350.24,403.86 349.31,404.16 348.86,403.96C348.661,403.852 348.535,403.646 348.53,403.42C348.514,403.313 348.551,403.204 348.63,403.13C349,402.78 350.39,402.94 351.39,403.16Z" style="fill:rgb(114,142,39);fill-rule:nonzero;"/>
            <path d="M351.89,403.25C351.914,403.239 351.935,403.222 351.95,403.2C351.979,403.151 351.979,403.089 351.95,403.04C351.95,402.95 351.35,400.89 350.4,400.48C350.159,400.356 349.871,400.356 349.63,400.48C349.348,400.595 349.179,400.889 349.22,401.19C349.34,402.01 350.91,403.08 351.76,403.24L351.89,403.25ZM349.89,400.78C350.018,400.726 350.162,400.726 350.29,400.78C350.86,401.03 351.29,402.16 351.56,402.78C350.77,402.5 349.67,401.65 349.56,401.11C349.56,401.01 349.56,400.88 349.78,400.76L349.89,400.78Z" style="fill:rgb(114,142,39);fill-rule:nonzero;"/>
            <path d="M312.08,281.16L303.71,279.45L304.76,287.59C304.76,287.59 312.86,287.94 313.47,285.47L312.08,281.16Z" style="fill:rgb(255,139,123);fill-rule:nonzero;"/>
            <path d="M297.6,284.05L299.8,289.52L304.76,287.59L303.71,279.45L297.6,284.05Z" style="fill:rgb(255,139,123);fill-rule:nonzero;"/>
            <path d="M351.12,296L390.77,296C391.05,292.46 390.23,280.94 390.84,266.27C391.217,255.396 392.535,244.576 394.78,233.93C394.96,233.13 394.59,232.54 394.78,231.74C393.376,231.245 391.92,230.909 390.44,230.74C388.05,230.39 385.05,230.03 382.11,229.89C376.498,229.57 370.872,229.57 365.26,229.89C362.67,230.13 360.14,230.56 358.12,230.95C355.54,231.47 354.02,231.95 354.02,231.95C354.02,231.95 344.25,254.32 351.12,296Z" style="fill:rgb(38,50,56);fill-rule:nonzero;"/>
            <path d="M390.84,266.28C391.217,255.406 392.535,244.586 394.78,233.94C392.13,233.71 387.6,233.94 386.85,238.25C386,242.85 387.06,253.67 390.84,266.28Z" style="fill-opacity:0.3;fill-rule:nonzero;"/>
            <path d="M398.12,237.27C399.29,240.16 400.19,242.92 401.12,245.79C402.05,248.66 402.85,251.51 403.56,254.44C404.27,257.37 404.92,260.33 405.38,263.39C405.63,264.89 405.8,266.46 405.98,268.01C406.16,269.56 406.21,271.17 406.18,272.84L406.18,274.06C406.171,274.955 406.019,275.843 405.73,276.69C405.253,278.025 404.5,279.245 403.52,280.27C402.149,281.649 400.574,282.809 398.85,283.71C396.022,285.188 393.054,286.381 389.99,287.27C384.233,288.966 378.336,290.144 372.37,290.79L371.22,285.34C373.87,284.42 376.6,283.47 379.22,282.45C381.84,281.43 384.49,280.45 387,279.27C389.412,278.236 391.734,277.002 393.94,275.58C394.752,275.068 395.478,274.43 396.09,273.69C396.27,273.46 396.25,273.34 396.09,273.57C396.058,273.647 396.035,273.728 396.02,273.81L396.02,274.05L395.94,273.11C395.731,270.482 395.337,267.872 394.76,265.3C394.2,262.64 393.52,259.95 392.76,257.3C392,254.65 391.18,251.94 390.31,249.3C389.44,246.66 388.51,243.92 387.61,241.39L398.12,237.27Z" style="fill:rgb(255,139,123);fill-rule:nonzero;"/>
            <path d="M394.78,231.75C387.56,229.47 383.49,235.04 385.49,245.05C386.858,251.445 389.173,257.599 392.36,263.31L406.94,256.39C405.56,246.58 402.17,234.08 394.78,231.75Z" style="fill:rgb(38,50,56);fill-rule:nonzero;"/>
            <path d="M382.09,213L377.58,216.74L371.44,221.84C371.622,222.658 371.752,223.486 371.83,224.32C372.16,227.65 369.46,229.2 366.06,229.84C366.06,229.84 361.24,234.34 370.88,234.48C380.52,234.62 382.76,229.94 382.76,229.94C379.09,226.29 380.84,218.4 382.09,213Z" style="fill:rgb(255,139,123);fill-rule:nonzero;"/>
            <path d="M381.83,229.88C378.7,232.062 375.174,233.611 371.45,234.44C373.34,236.32 374.56,240.94 374.56,240.94C374.56,240.94 385,238.49 385.38,230C384.826,229.753 384.245,229.568 383.65,229.45C383.01,229.341 382.353,229.497 381.83,229.88Z" style="fill:rgb(114,142,39);fill-rule:nonzero;"/>
            <path d="M366.82,230.08C366.58,231.26 366.82,233.42 371.45,234.44C368.6,236.08 367.38,240.44 367.38,240.44C367.38,240.44 360.92,234.77 364.24,229.87C364.845,229.607 365.479,229.419 366.13,229.31C366.164,229.304 366.199,229.301 366.234,229.301C366.568,229.301 366.844,229.576 366.844,229.911C366.844,229.968 366.836,230.025 366.82,230.08Z" style="fill:rgb(114,142,39);fill-rule:nonzero;"/>
            <path d="M371.44,221.81C371.622,222.628 371.752,223.456 371.83,224.29C375.63,223.71 378.09,221.46 378.41,219.13C378.53,218.25 377.64,217.32 377.58,216.71L371.44,221.81Z" style="fill-opacity:0.2;fill-rule:nonzero;"/>
            <path d="M365.66,210.37C362.14,207.76 360.26,202.18 361.8,198.83C362.497,197.226 364.087,196.184 365.835,196.184C367.445,196.184 368.931,197.067 369.7,198.48C372.23,202.71 369.66,213.34 365.66,210.37Z" style="fill:rgb(38,50,56);fill-rule:nonzero;"/>
            <path d="M382.4,203.41C382.46,210.79 382.88,215.09 379.45,219.24C377.631,221.495 374.884,222.809 371.986,222.809C367.75,222.809 363.992,220.002 362.79,215.94C360.79,209.52 360.99,198.54 367.93,194.87C369.383,194.053 371.023,193.623 372.69,193.623C378.017,193.623 382.4,198.006 382.4,203.333C382.4,203.359 382.4,203.384 382.4,203.41Z" style="fill:rgb(255,139,123);fill-rule:nonzero;"/>
            <path d="M379.85,209.28C377.19,205.79 376.94,199.91 379.36,197.12C380.194,196.133 381.422,195.562 382.714,195.562C384.765,195.562 386.555,196.998 387,199C388.29,203.74 382.86,213.24 379.85,209.28Z" style="fill:rgb(38,50,56);fill-rule:nonzero;"/>
            <path d="M363.54,197.73C361.31,196.39 366.46,191.86 373.14,189.88C380.6,187.67 390.03,193.47 390.49,198.5C390.97,203.8 387.39,201.22 386.83,202.88C386.83,202.88 368.11,200.48 363.54,197.73Z" style="fill:rgb(114,142,39);fill-rule:nonzero;"/>
            <path d="M361.28,199.58C361.383,198.502 361.824,197.483 362.54,196.67C362.92,196.32 385.04,200.78 387.34,202.76C387.77,203.13 386.22,206.29 385.88,205.88C383.46,203 361.37,200.38 361.28,199.58Z" style="fill:rgb(114,142,39);fill-rule:nonzero;"/>
            <path d="M361.28,199.58C361.383,198.502 361.824,197.483 362.54,196.67C362.92,196.32 385.04,200.78 387.34,202.76C387.77,203.13 386.22,206.29 385.88,205.88C383.46,203 361.37,200.38 361.28,199.58Z" style="fill-opacity:0.3;fill-rule:nonzero;"/>
            <path d="M384.79,207.61C384.826,207.618 384.864,207.618 384.9,207.61C385.014,207.538 385.05,207.386 384.98,207.27C383.79,205.32 375.63,204.66 374.71,204.59C372.069,204.454 369.421,204.628 366.82,205.11C366.16,204.865 365.422,204.935 364.82,205.3C363.1,205.281 361.384,205.448 359.7,205.8C359.586,205.825 359.504,205.927 359.504,206.044C359.504,206.063 359.506,206.082 359.51,206.1C359.535,206.214 359.637,206.296 359.754,206.296C359.773,206.296 359.792,206.294 359.81,206.29C361.474,205.943 363.171,205.779 364.87,205.8C364.913,205.809 364.957,205.809 365,205.8C365.482,205.482 366.09,205.415 366.63,205.62C366.685,205.64 366.745,205.64 366.8,205.62C369.379,205.126 372.008,204.948 374.63,205.09C377.08,205.27 383.63,206.09 384.51,207.53C384.578,207.611 384.689,207.643 384.79,207.61Z" style="fill:rgb(38,50,56);fill-rule:nonzero;"/>
            <path d="M371.4,211.44L371.64,211.44C372.668,211.338 373.597,210.78 374.17,209.92C375.43,207.97 374.58,204.92 374.55,204.82C374.531,204.751 374.459,204.711 374.39,204.73C374.325,204.753 374.29,204.824 374.31,204.89C374.33,204.956 375.16,207.89 373.96,209.79C373.428,210.591 372.558,211.107 371.6,211.19C370.696,211.364 369.76,211.126 369.05,210.54C367.21,208.99 367.05,205.38 367.05,205.35C367.05,205.279 366.991,205.22 366.92,205.22C366.854,205.229 366.804,205.284 366.8,205.35C366.8,205.5 366.92,209.11 368.85,210.73C369.563,211.312 370.489,211.569 371.4,211.44Z" style="fill:rgb(38,50,56);fill-rule:nonzero;"/>
            <path d="M362.55,212.08C363.33,212.054 364.061,211.688 364.55,211.08C365.9,209.28 365.06,205.86 365.03,205.72C365.01,205.671 364.962,205.639 364.91,205.639C364.838,205.639 364.78,205.698 364.78,205.769C364.78,205.773 364.78,205.776 364.78,205.78C364.78,205.784 365.63,209.23 364.35,210.93C363.881,211.563 363.137,211.935 362.35,211.93C361.824,211.965 361.31,211.754 360.96,211.36C359.63,209.89 360.12,206.11 360.12,206.07C360.121,206.063 360.122,206.056 360.122,206.049C360.122,205.99 360.078,205.939 360.02,205.93C360.013,205.929 360.006,205.928 359.999,205.928C359.94,205.928 359.889,205.972 359.88,206.03C359.88,206.19 359.37,210.03 360.78,211.53C361.183,211.972 361.763,212.21 362.36,212.18L362.55,212.08Z" style="fill:rgb(38,50,56);fill-rule:nonzero;"/>
            <path d="M385,209.67C384.329,211.128 383.148,212.292 381.68,212.94C379.77,213.74 378.76,212.05 379.23,210.07C379.66,208.29 381.17,205.74 383.11,205.77C385.05,205.8 385.85,207.85 385,209.67Z" style="fill:rgb(255,139,123);fill-rule:nonzero;"/>
            <path d="M370.5,206.79C370.5,207.38 370.26,207.9 369.87,207.94C369.48,207.98 369.14,207.53 369.09,206.94C369.04,206.35 369.33,205.82 369.72,205.78C370.11,205.74 370.46,206.19 370.5,206.79Z" style="fill:rgb(38,50,56);fill-rule:nonzero;"/>
            <path d="M363.78,207.5C363.78,208.09 363.54,208.61 363.15,208.65C362.76,208.69 362.41,208.24 362.37,207.65C362.33,207.06 362.61,206.54 363,206.5C363.39,206.46 363.74,206.9 363.78,207.5Z" style="fill:rgb(38,50,56);fill-rule:nonzero;"/>
            <path d="M366,207.8C365.545,209.736 364.832,211.603 363.88,213.35C364.788,213.794 365.847,213.812 366.77,213.4L366,207.8Z" style="fill:rgb(255,86,82);fill-rule:nonzero;"/>
            <path d="M369.84,214.4C371.21,214.104 372.403,213.262 373.14,212.07C373.18,211.984 373.15,211.881 373.07,211.83C372.982,211.787 372.874,211.823 372.83,211.91C372.005,213.194 370.63,214.025 369.11,214.16C369.015,214.175 368.948,214.264 368.96,214.36C368.969,214.446 369.043,214.511 369.129,214.511C369.136,214.511 369.143,214.511 369.15,214.51C369.382,214.489 369.613,214.453 369.84,214.4Z" style="fill:rgb(38,50,56);fill-rule:nonzero;"/>
            <path d="M373.54,203.9C373.669,203.848 373.754,203.723 373.754,203.584C373.754,203.47 373.696,203.363 373.6,203.3C372.696,202.635 371.521,202.455 370.46,202.82C370.329,202.874 370.242,203.002 370.242,203.144C370.242,203.191 370.252,203.237 370.27,203.28C370.347,203.455 370.552,203.54 370.73,203.47C371.566,203.196 372.484,203.346 373.19,203.87C373.29,203.949 373.428,203.961 373.54,203.9Z" style="fill:rgb(38,50,56);fill-rule:nonzero;"/>
            <path d="M360.78,205.1C360.895,205.107 361.007,205.059 361.08,204.97C361.613,204.231 362.459,203.78 363.37,203.75C363.377,203.75 363.384,203.751 363.391,203.751C363.575,203.751 363.73,203.604 363.74,203.42C363.74,203.413 363.741,203.406 363.741,203.399C363.741,203.215 363.594,203.06 363.41,203.05C362.269,203.063 361.2,203.617 360.53,204.54C360.482,204.6 360.456,204.675 360.456,204.752C360.456,204.863 360.51,204.966 360.6,205.03C360.649,205.076 360.713,205.101 360.78,205.1Z" style="fill:rgb(38,50,56);fill-rule:nonzero;"/>
            <path d="M373.08,285L366.95,282L366.69,290C366.69,290 372.77,292.89 374,289.63L373.08,285Z" style="fill:rgb(255,139,123);fill-rule:nonzero;"/>
            <path d="M359.01,283.25L359.12,290.34L366.69,289.93L366.95,281.92L359.01,283.25Z" style="fill:rgb(255,139,123);fill-rule:nonzero;"/>
        </g>
        <g id="freepik--Table--inject-2">
            <path d="M395.4,416.24L389.4,416.24L389.4,301.84C389.4,296.903 385.337,292.84 380.4,292.84L141.13,292.84C136.193,292.84 132.13,296.903 132.13,301.84L132.13,416.24L126.13,416.24L126.13,301.84C126.13,293.611 132.901,286.84 141.13,286.84L380.4,286.84C388.629,286.84 395.4,293.611 395.4,301.84L395.4,416.24Z" style="fill:rgb(114,142,39);fill-rule:nonzero;"/>
            <path d="M395.4,416.24L389.4,416.24L389.4,301.84C389.4,296.903 385.337,292.84 380.4,292.84L141.13,292.84C136.193,292.84 132.13,296.903 132.13,301.84L132.13,416.24L126.13,416.24L126.13,301.84C126.13,293.611 132.901,286.84 141.13,286.84L380.4,286.84C388.629,286.84 395.4,293.611 395.4,301.84L395.4,416.24Z" style="fill:white;fill-opacity:0.7;fill-rule:nonzero;"/>
            <path d="M373.87,416.24L367.87,416.24L367.87,301.84C367.87,296.903 363.807,292.84 358.87,292.84L119.6,292.84C114.663,292.84 110.6,296.903 110.6,301.84L110.6,416.24L104.6,416.24L104.6,301.84C104.6,293.611 111.371,286.84 119.6,286.84L358.87,286.84C367.099,286.84 373.87,293.611 373.87,301.84L373.87,416.24Z" style="fill:rgb(114,142,39);fill-rule:nonzero;"/>
            <path d="M373.87,416.24L367.87,416.24L367.87,301.84C367.87,296.903 363.807,292.84 358.87,292.84L119.6,292.84C114.663,292.84 110.6,296.903 110.6,301.84L110.6,416.24L104.6,416.24L104.6,301.84C104.6,293.611 111.371,286.84 119.6,286.84L358.87,286.84C367.099,286.84 373.87,293.611 373.87,301.84L373.87,416.24Z" style="fill:white;fill-opacity:0.8;fill-rule:nonzero;"/>
            <path d="M243.08,284.41L191.54,284.41C190.019,284.388 188.733,283.239 188.54,281.73L185.1,249.27C185.086,249.167 185.079,249.063 185.079,248.959C185.079,247.665 186.145,246.599 187.439,246.599C187.456,246.599 187.473,246.6 187.49,246.6L239.03,246.6C240.549,246.617 241.836,247.763 242.03,249.27L245.47,281.73C245.484,281.833 245.49,281.937 245.49,282.04C245.49,283.34 244.421,284.41 243.12,284.41C243.107,284.41 243.093,284.41 243.08,284.41Z" style="fill:rgb(114,142,39);fill-rule:nonzero;"/>
            <path d="M243.08,284.41L191.54,284.41C190.019,284.388 188.733,283.239 188.54,281.73L185.1,249.27C185.086,249.167 185.079,249.063 185.079,248.959C185.079,247.665 186.145,246.599 187.439,246.599C187.456,246.599 187.473,246.6 187.49,246.6L239.03,246.6C240.549,246.617 241.836,247.763 242.03,249.27L245.47,281.73C245.484,281.833 245.49,281.937 245.49,282.04C245.49,283.34 244.421,284.41 243.12,284.41C243.107,284.41 243.093,284.41 243.08,284.41Z" style="fill-opacity:0.2;fill-rule:nonzero;"/>
            <rect x="204.63" y="243.1" width="4.17" height="1" style="fill:rgb(114,142,39);"/>
            <rect x="191.38" y="243.1" width="9.67" height="1" style="fill:rgb(114,142,39);"/>
            <path d="M241.65,284.41L190.12,284.41C188.596,284.396 187.305,283.243 187.12,281.73L183.67,249.27C183.657,249.17 183.651,249.07 183.651,248.97C183.651,247.67 184.721,246.6 186.021,246.6C186.034,246.6 186.047,246.6 186.06,246.6L237.6,246.6C239.12,246.613 240.411,247.761 240.6,249.27L244.05,281.73C244.063,281.83 244.069,281.93 244.069,282.03C244.069,283.336 242.995,284.41 241.689,284.41C241.676,284.41 241.663,284.41 241.65,284.41Z" style="fill:rgb(114,142,39);fill-rule:nonzero;"/>
            <path d="M244,284.17L192.5,284.17C191.034,284.17 189.825,285.374 189.82,286.84L246.71,286.84C246.705,285.374 245.497,284.17 244.03,284.17C244.02,284.17 244.01,284.17 244,284.17Z" style="fill:rgb(114,142,39);fill-rule:nonzero;"/>
            <path d="M261.67,284.17L243.26,284.17C241.797,284.175 240.595,285.377 240.59,286.84L264.35,286.84C264.345,285.374 263.136,284.17 261.67,284.17Z" style="fill:rgb(114,142,39);fill-rule:nonzero;"/>
            <path d="M261.67,284.17L243.26,284.17C241.797,284.175 240.595,285.377 240.59,286.84L264.35,286.84C264.345,285.374 263.136,284.17 261.67,284.17Z" style="fill-opacity:0.2;fill-rule:nonzero;"/>
        </g>
    </g>
</svg>
