<?xml version="1.0" encoding="UTF-8" standalone="no"?>
<!DOCTYPE svg PUBLIC "-//W3C//DTD SVG 1.1//EN" "http://www.w3.org/Graphics/SVG/1.1/DTD/svg11.dtd">
<svg width="100%" height="100%" viewBox="0 0 128 128" version="1.1" xmlns="http://www.w3.org/2000/svg" xmlns:xlink="http://www.w3.org/1999/xlink" xml:space="preserve" xmlns:serif="http://www.serif.com/" style="fill-rule:evenodd;clip-rule:evenodd;stroke-linecap:round;stroke-linejoin:round;stroke-miterlimit:1.5;">
    <g transform="matrix(0.0492277,0,0,0.0926639,-31.1445,-40.7473)">
        <g transform="matrix(2.29412,0,0,1,-2945.17,5.34328e-12)">
            <g transform="matrix(9.84615,0,0,12,1280,-1.81899e-12)">
                <path d="M50,50L120,50C120,50 120,73.482 120,95.002C120,104.284 116.313,113.186 109.749,119.749C103.186,126.313 94.284,130 85.002,130C85.001,130 84.999,130 84.998,130C75.716,130 66.814,126.313 60.251,119.749C53.687,113.186 50,104.284 50,95.002L50,50Z" style="fill:rgb(241,65,65);stroke:rgb(51,51,51);stroke-width:2.25px;"/>
            </g>
            <g transform="matrix(9.84615,0,0,12,1283.79,-11988)">
                <rect x="74.615" y="1069" width="20" height="60" style="fill:rgb(170,170,170);stroke:rgb(51,51,51);stroke-width:2.25px;"/>
            </g>
            <g transform="matrix(9.84615,0,0,12,1280,-1.81899e-12)">
                <path d="M67,124.969C64.549,123.546 62.287,121.786 60.251,119.749C59.059,118.558 57.963,117.29 57,115.932L57,70L67,70L67,124.969Z" style="fill:rgb(170,170,170);stroke:rgb(51,51,51);stroke-width:2.25px;"/>
            </g>
            <g transform="matrix(-9.84615,0,0,12,2953.85,1.09139e-11)">
                <path d="M67,124.969C64.549,123.546 62.287,121.786 60.251,119.749C59.059,118.558 57.963,117.29 57,115.932L57,70L67,70L67,124.969Z" style="fill:rgb(170,170,170);stroke:rgb(51,51,51);stroke-width:2.25px;"/>
            </g>
            <g transform="matrix(9.84615,0,0,12,1283.79,-11988)">
                <path d="M74.615,1082.51C74.615,1076.99 79.096,1072.51 84.615,1072.51C90.134,1072.51 94.615,1076.99 94.615,1082.51L94.615,1092L74.615,1092L74.615,1082.51Z" style="fill:rgb(221,221,221);stroke:rgb(51,51,51);stroke-width:2.25px;"/>
            </g>
            <g transform="matrix(9.84615,0,0,12,1283.79,-11988)">
                <path d="M105.615,1077.5L105.615,1077.5C105.615,1076.12 106.511,1075 107.615,1075C108.719,1075 109.615,1076.12 109.615,1077.5C109.615,1077.5 109.615,1082.5 109.615,1082.5L105.615,1082.5L105.615,1077.5L105.615,1077.5Z" style="fill:rgb(90,90,90);stroke:rgb(51,51,51);stroke-width:2.25px;"/>
            </g>
            <g transform="matrix(9.84615,0,0,12,831.155,-11988)">
                <path d="M105.615,1077.5L105.615,1077.5C105.615,1076.12 106.511,1075 107.615,1075C108.719,1075 109.615,1076.12 109.615,1077.5C109.615,1077.5 109.615,1082.5 109.615,1082.5L105.615,1082.5L105.615,1077.5L105.615,1077.5Z" style="fill:rgb(90,90,90);stroke:rgb(51,51,51);stroke-width:2.25px;"/>
            </g>
            <g transform="matrix(9.84615,0,0,12,1283.79,-11988)">
                <path d="M71.615,1069L71.615,1064L84.615,1054L97.615,1064L97.615,1069L71.615,1069Z" style="fill:rgb(90,90,90);stroke:rgb(51,51,51);stroke-width:2.25px;"/>
            </g>
            <g transform="matrix(9.84615,0,0,12,1283.79,-11988)">
                <path d="M56.615,1069L61.615,1059L66.615,1069L56.615,1069Z" style="fill:rgb(90,90,90);stroke:rgb(51,51,51);stroke-width:2.25px;"/>
            </g>
            <g transform="matrix(9.84615,0,0,12,1283.79,-11988)">
                <path d="M102.615,1069L107.615,1059L112.615,1069L102.615,1069Z" style="fill:rgb(90,90,90);stroke:rgb(51,51,51);stroke-width:2.25px;"/>
            </g>
            <g transform="matrix(9.84615,0,0,12,1283.79,-11988)">
                <path d="M102.615,1123.97L102.615,1099.01C102.615,1096.25 104.855,1094.01 107.615,1094.01C110.374,1094.01 112.615,1096.25 112.615,1099.01L112.615,1114.93C111.652,1116.29 110.555,1117.56 109.364,1118.75C107.327,1120.79 105.066,1122.55 102.615,1123.97Z" style="fill:rgb(90,90,90);stroke:rgb(51,51,51);stroke-width:2.25px;"/>
            </g>
            <g transform="matrix(-9.84615,0,0,12,2950.05,-11988)">
                <path d="M102.615,1123.97L102.615,1099.01C102.615,1096.25 104.855,1094.01 107.615,1094.01C110.374,1094.01 112.615,1096.25 112.615,1099.01L112.615,1114.93C111.652,1116.29 110.555,1117.56 109.364,1118.75C107.327,1120.79 105.066,1122.55 102.615,1123.97Z" style="fill:rgb(90,90,90);stroke:rgb(51,51,51);stroke-width:2.25px;"/>
            </g>
            <g transform="matrix(9.84615,0,0,12,1283.79,-11988)">
                <path d="M74.651,1106.51C74.651,1100.99 79.132,1096.51 84.651,1096.51C89.881,1096.51 94.178,1100.53 94.615,1105.65L94.615,1105.65L94.615,1105.65C94.639,1105.93 94.651,1106.22 94.651,1106.51L94.615,1106.51L94.615,1120.6L74.615,1120.6L74.651,1106.51Z" style="fill:rgb(90,90,90);stroke:rgb(51,51,51);stroke-width:2.25px;"/>
            </g>
            <g transform="matrix(9.84615,0,0,12,1280,-9600)">
                <path d="M82,922C80.896,922 80,921.104 80,920C80,918.896 80.896,918 82,918L82,918C80.913,917.98 80.037,917.092 80.037,916C80.037,914.908 80.913,914.02 82,914L82,914C80.905,913.99 80.018,913.098 80.018,912C80.018,910.902 80.905,910.01 82,910L82,909.999C80.921,909.97 80.055,909.086 80.055,908C80.055,906.914 80.921,906.03 82,906.001L82,906.001L82,906.001C82.018,906 82.037,906 82.055,906C82.073,906 82.091,906 82.109,906.001L83.232,906.001L83.232,905.862C83.107,905.601 83.037,905.309 83.037,905C83.037,904.691 83.107,904.399 83.232,904.138L83.232,904.138L83.232,904.138C83.554,903.465 84.241,903 85.037,903C86.14,903 87.037,903.896 87.037,905C87.037,905.364 86.939,905.706 86.768,906.001L86.768,906.001L88,906.001L88,906.001C88.018,906 88.036,906 88.055,906C89.159,906 90.055,906.896 90.055,908C90.055,909.104 89.159,910 88.055,910C88.036,910 88.018,910 88,909.999L88,910C88.006,910 88.012,910 88.018,910C89.122,910 90.018,910.896 90.018,912C90.018,913.104 89.122,914 88.018,914C88.012,914 88.006,914 88,914L88,914C88.012,914 88.024,914 88.037,914C89.14,914 90.037,914.896 90.037,916C90.037,917.104 89.14,918 88.037,918C88.024,918 88.012,918 88,918L88,918C89.104,918 90,918.896 90,920C90,921.104 89.104,922 88,922L82,922Z" style="fill:rgb(56,159,85);stroke:rgb(51,51,51);stroke-width:2.25px;"/>
            </g>
            <g transform="matrix(9.84615,0,0,12,1289.85,-9528)">
                <rect x="82" y="883" width="4" height="4" style="fill:rgb(51,51,51);stroke:rgb(51,51,51);stroke-width:2.25px;"/>
            </g>
            <g transform="matrix(9.84615,0,0,12,1280,-9581.95)">
                <circle cx="85" cy="884" r="2" style="fill:rgb(51,51,51);stroke:rgb(51,51,51);stroke-width:2.25px;"/>
            </g>
        </g>
        <g transform="matrix(2.11949,0.466395,-0.720345,0.92388,-2674.83,-1549.55)">
            <g transform="matrix(7.87692,0,0,8.17328,-901.908,-7280.84)">
                <rect x="497" y="1101.51" width="10" height="23.491" style="fill:rgb(204,204,204);stroke:rgb(51,51,51);stroke-width:3.03px;"/>
            </g>
            <g transform="matrix(9.84615,0,0,5.1083,-1890.46,-4024.73)">
                <path d="M507,1113.25C507,1106.77 504.762,1101.51 502.002,1101.51L501.998,1101.51C499.238,1101.51 497,1106.77 497,1113.25L497,1113.26C497,1119.74 499.238,1125 501.998,1125L502.002,1125C504.762,1125 507,1119.74 507,1113.26L507,1113.25Z" style="fill:rgb(204,204,204);stroke:rgb(51,51,51);stroke-width:2.93px;"/>
            </g>
            <g transform="matrix(4.82322e-16,9.6,-6.70628,5.00469e-16,10518.1,-3049.09)">
                <rect x="497" y="1101.51" width="10" height="23.491" style="fill:rgb(56,159,85);stroke:rgb(51,51,51);stroke-width:3.03px;"/>
            </g>
        </g>
        <g transform="matrix(2.29412,0,0,1,-8.7015,-240)">
            <g transform="matrix(8.27077,0,0,10.08,-1437.54,-9781.92)">
                <rect x="250" y="1139" width="50" height="20" style="fill:rgb(241,65,65);stroke:rgb(51,51,51);stroke-width:2.68px;"/>
            </g>
            <g transform="matrix(9.84615,0,0,12,-1883.46,-11933.5)">
                <text x="261.98px" y="1149.39px" style="font-family:'BloggerSans-Bold', 'Blogger Sans';font-weight:700;font-size:14px;fill:white;">INFO</text>
            </g>
        </g>
    </g>
</svg>
