<svg enable-background="new 0 0 512 512" height="512" viewBox="0 0 512 512" width="512" xmlns="http://www.w3.org/2000/svg"><g id="_x32_59_x2C__Announce_x2C__Megaphone_x2C__Speaker"><g><path d="m146 366h30v40h-30z" fill="#414440"/><path d="m416 416c11.05 0 20 8.95 20 20s-8.95 20-20 20c-11.04 0-20-8.95-20-20s8.96-20 20-20z" fill="#30c9b0"/><path d="m101 86c13.81 0 25 11.19 25 25s-11.19 25-25 25-25-11.19-25-25 11.19-25 25-25z" fill="#30c9b0"/><path d="m356 216c22.09 0 40 17.91 40 40 0 11.04-4.48 21.04-11.721 28.28-7.229 7.24-17.229 11.72-28.279 11.72h-10v-80z" fill="#fbc640"/><path d="m166 186v140h-20-50-10v-30-80-30z" fill="#fbc640"/><path d="m46 216h40v80h-40z" fill="#ff4f4f"/><path d="m166 186v140l180 80v-110-80-110z" fill="#ff4f4f"/><path d="m146 406v50h-50v-130h50v40z" fill="#5a5a5a"/><path d="m463.07 368.93c1.81 1.811 2.93 4.311 2.93 7.07s-1.12 5.26-2.93 7.07c-1.811 1.81-4.311 2.93-7.07 2.93-5.52 0-10-4.48-10-10 0-2.76 1.119-5.26 2.93-7.07s4.311-2.93 7.07-2.93 5.26 1.12 7.07 2.93z"/><path d="m433.07 108.93c1.81 1.81 2.93 4.31 2.93 7.07s-1.12 5.26-2.93 7.07c-1.811 1.81-4.311 2.93-7.07 2.93-5.52 0-10-4.48-10-10 0-2.76 1.119-5.26 2.93-7.07s4.31-2.93 7.07-2.93 5.26 1.12 7.07 2.93z"/><path d="m283.07 48.93c1.81 1.81 2.93 4.31 2.93 7.07s-1.12 5.26-2.93 7.07-4.31 2.93-7.07 2.93c-5.52 0-10-4.48-10-10 0-2.76 1.119-5.26 2.93-7.07s4.31-2.93 7.07-2.93 5.26 1.12 7.07 2.93z"/><path d="m253.07 418.93c1.81 1.811 2.93 4.311 2.93 7.07s-1.12 5.26-2.93 7.07-4.31 2.93-7.07 2.93c-5.52 0-10-4.48-10-10 0-2.76 1.12-5.26 2.93-7.07s4.31-2.93 7.07-2.93 5.26 1.12 7.07 2.93z"/><path d="m203.07 218.93c1.81 1.81 2.93 4.31 2.93 7.07s-1.12 5.26-2.93 7.07-4.31 2.93-7.07 2.93c-5.52 0-10-4.48-10-10 0-2.76 1.12-5.26 2.93-7.07s4.31-2.93 7.07-2.93 5.26 1.12 7.07 2.93z"/><path d="m203.07 248.93c1.81 1.81 2.93 4.31 2.93 7.07s-1.12 5.26-2.93 7.07-4.31 2.93-7.07 2.93c-5.52 0-10-4.48-10-10 0-2.76 1.12-5.26 2.93-7.07s4.31-2.93 7.07-2.93 5.26 1.12 7.07 2.93z"/><path d="m203.07 278.93c1.81 1.811 2.93 4.311 2.93 7.07s-1.12 5.26-2.93 7.07-4.31 2.93-7.07 2.93c-5.52 0-10-4.48-10-10 0-2.76 1.12-5.26 2.93-7.07s4.31-2.93 7.07-2.93 5.26 1.12 7.07 2.93z"/><path d="m193.07 108.93c1.81 1.81 2.93 4.31 2.93 7.07s-1.12 5.26-2.93 7.07-4.31 2.93-7.07 2.93c-5.52 0-10-4.48-10-10 0-2.76 1.12-5.26 2.93-7.07s4.31-2.93 7.07-2.93 5.26 1.12 7.07 2.93z"/><path d="m53.07 388.93c1.81 1.81 2.93 4.31 2.93 7.07s-1.12 5.26-2.93 7.07-4.31 2.93-7.07 2.93c-5.52 0-10-4.48-10-10 0-2.76 1.12-5.26 2.93-7.07s4.31-2.93 7.07-2.93 5.26 1.12 7.07 2.93z"/><path d="m346 226c-5.523 0-10-4.477-10-10v-94.612l-165.938 73.75c-5.046 2.241-10.957-.03-13.2-5.077s.03-10.957 5.077-13.2l180-80c3.093-1.375 6.671-1.092 9.511.753 2.838 1.844 4.551 5 4.551 8.385v110c-.001 5.524-4.478 10.001-10.001 10.001z"/><path d="m346 416c-1.379 0-2.764-.285-4.062-.862l-180-80c-5.047-2.242-7.32-8.152-5.077-13.199s8.152-7.32 13.2-5.076l165.939 73.749v-94.612c0-5.522 4.477-10 10-10s10 4.478 10 10v110c0 3.385-1.713 6.54-4.551 8.385-1.646 1.07-3.544 1.615-5.449 1.615z"/><path d="m166 336h-20c-5.523 0-10-4.478-10-10s4.477-10 10-10h10v-120h-60v20c0 5.523-4.477 10-10 10s-10-4.477-10-10v-30c0-5.523 4.477-10 10-10h80c5.523 0 10 4.477 10 10v140c0 5.522-4.477 10-10 10z"/><path d="m96 336h-10c-5.523 0-10-4.478-10-10v-30c0-5.522 4.477-10 10-10s10 4.478 10 10v20c5.523 0 10 4.478 10 10s-4.477 10-10 10z"/><path d="m86 306h-40c-5.523 0-10-4.478-10-10v-80c0-5.523 4.477-10 10-10h40c5.523 0 10 4.477 10 10v80c0 5.522-4.477 10-10 10zm-30-20h20v-60h-20z"/><path d="m146 466h-50c-5.523 0-10-4.478-10-10v-130c0-5.522 4.477-10 10-10h50c5.523 0 10 4.478 10 10v40c0 5.522-4.477 10-10 10s-10-4.478-10-10v-30h-30v110h30v-40c0-5.522 4.477-10 10-10s10 4.478 10 10v50c0 5.522-4.477 10-10 10z"/><path d="m176 416h-30c-5.523 0-10-4.478-10-10v-40c0-5.522 4.477-10 10-10h30c5.523 0 10 4.478 10 10v40c0 5.522-4.477 10-10 10zm-20-20h10v-20h-10z"/><path d="m356 306h-10c-5.523 0-10-4.478-10-10v-80c0-5.523 4.477-10 10-10h10c27.57 0 50 22.43 50 50 0 13.35-5.203 25.904-14.648 35.352-9.434 9.444-21.99 14.648-35.352 14.648zm0-80v60c8.016 0 15.545-3.12 21.204-8.786 5.674-5.674 8.796-13.206 8.796-21.214 0-16.542-13.458-30-30-30z"/><path d="m306 356c-5.523 0-10-4.478-10-10v-180c0-5.523 4.477-10 10-10s10 4.477 10 10v180c0 5.522-4.477 10-10 10z"/><path d="m276 316c-5.523 0-10-4.478-10-10v-100c0-5.523 4.477-10 10-10s10 4.477 10 10v100c0 5.522-4.477 10-10 10z"/><path d="m246 286c-5.523 0-10-4.478-10-10v-40c0-5.523 4.477-10 10-10s10 4.477 10 10v40c0 5.522-4.477 10-10 10z"/><path d="m136 236h-20c-5.523 0-10-4.477-10-10s4.477-10 10-10h20c5.523 0 10 4.477 10 10s-4.477 10-10 10z"/><path d="m136 266h-20c-5.523 0-10-4.478-10-10 0-5.523 4.477-10 10-10h20c5.523 0 10 4.477 10 10 0 5.522-4.477 10-10 10z"/><path d="m136 296h-20c-5.523 0-10-4.478-10-10s4.477-10 10-10h20c5.523 0 10 4.478 10 10s-4.477 10-10 10z"/><path d="m466 263.57h-29.66c-5.523 0-10-4.478-10-10 0-5.523 4.477-10 10-10h29.66c5.523 0 10 4.477 10 10s-4.477 10-10 10z"/><path d="m423.31 232.12c-2.56 0-5.12-.977-7.073-2.931-3.904-3.906-3.902-10.238.004-14.142l20.98-20.97c3.906-3.905 10.238-3.902 14.143.003 3.904 3.906 3.902 10.238-.004 14.142l-20.98 20.97c-1.953 1.953-4.513 2.928-7.07 2.928z"/><path d="m444.29 316c-2.559 0-5.116-.976-7.069-2.927l-20.98-20.97c-3.906-3.904-3.908-10.236-.004-14.143 3.904-3.905 10.236-3.908 14.143-.004l20.98 20.97c3.906 3.904 3.908 10.236.004 14.143-1.954 1.953-4.514 2.931-7.074 2.931z"/><path d="m101 146c-19.299 0-35-15.701-35-35s15.701-35 35-35 35 15.701 35 35-15.701 35-35 35zm0-50c-8.271 0-15 6.729-15 15s6.729 15 15 15 15-6.729 15-15-6.729-15-15-15z"/><path d="m416 466c-16.542 0-30-13.458-30-30s13.458-30 30-30 30 13.458 30 30-13.458 30-30 30zm0-40c-5.514 0-10 4.486-10 10s4.486 10 10 10 10-4.486 10-10-4.486-10-10-10z"/></g></g></svg>