<?xml version="1.0" encoding="iso-8859-1"?>
<!-- Generator: Adobe Illustrator 19.0.0, SVG Export Plug-In . SVG Version: 6.00 Build 0)  -->
<svg version="1.1" id="Capa_1" xmlns="http://www.w3.org/2000/svg" xmlns:xlink="http://www.w3.org/1999/xlink" x="0px" y="0px"
	 viewBox="0 0 512.002 512.002" style="enable-background:new 0 0 512.002 512.002;" xml:space="preserve">
<path style="fill:#A4CDFF;" d="M300.679,347.318v-17.769c-41.051-24.707-89.355-67.971-89.355-129.96v-8.321
	c-37.91,3.86-81.814,3.604-118.932-0.763v157.731c0,67.89,55.05,114.44,99.263,139.851
	C234.924,466.474,300.679,419.644,300.679,347.318z"/>
<path style="fill:#FF8C5A;" d="M502.001,28.901c-8.069,0.533-16.287,0.913-24.571,1.138c-39.45,15.554-118.779,19.92-180.606,13.093
	V201.64c0,65.535,48.311,112.334,92.366,140.574c43.099-20.713,112.811-68.156,112.811-142.625V28.901z"/>
<path d="M452.501,159.408c-2.024,0-4.067-0.613-5.835-1.886c-14.365-10.346-33.666-10.346-48.031,0
	c-4.482,3.229-10.732,2.21-13.958-2.27c-3.228-4.482-2.212-10.731,2.271-13.959c21.355-15.38,50.051-15.38,71.406,0
	c4.483,3.228,5.498,9.477,2.271,13.959C458.67,157.964,455.608,159.408,452.501,159.408z"/>
<path d="M320.525,159.408c-2.024,0-4.067-0.613-5.835-1.886c-14.365-10.346-33.666-10.346-48.031,0
	c-4.482,3.229-10.731,2.21-13.958-2.27c-3.227-4.482-2.212-10.731,2.271-13.959c21.355-15.38,50.051-15.38,71.406,0
	c4.482,3.228,5.498,9.477,2.27,13.959C326.694,157.964,323.631,159.408,320.525,159.408z"/>
<path style="fill:#FFFFFF;" d="M345.215,224.982L345.215,224.982h-41.5l0,0c0,29.125,23.61,52.735,52.735,52.735h0.425
	c7.285,0,14.225-1.478,20.537-4.149C358.491,265.56,345.215,246.822,345.215,224.982z"/>
<path style="fill:#FF5A5A;" d="M409.611,224.982L409.611,224.982h-64.396l0,0c0,21.84,13.276,40.578,32.198,48.586
	C396.334,265.56,409.611,246.822,409.611,224.982z"/>
<path d="M356.875,287.718h-0.426c-34.593,0-62.735-28.143-62.735-62.735c0-5.523,4.478-10,10-10h105.897c5.522,0,10,4.477,10,10
	C419.611,259.575,391.468,287.718,356.875,287.718z M314.896,234.982c4.513,18.757,21.431,32.735,41.554,32.735h0.426
	c20.123,0,37.041-13.978,41.554-32.735L314.896,234.982L314.896,234.982z"/>
<path d="M456.401,95.14c-2.64,0-5.22-1.07-7.08-2.93c-0.46-0.46-0.869-0.97-1.239-1.52c-0.36-0.54-0.67-1.12-0.92-1.73
	c-0.25-0.6-0.44-1.23-0.57-1.87s-0.19-1.3-0.19-1.95c0-0.65,0.061-1.31,0.19-1.96c0.13-0.63,0.32-1.26,0.57-1.87
	c0.25-0.6,0.56-1.18,0.92-1.72c0.37-0.55,0.779-1.06,1.239-1.52c2.33-2.33,5.78-3.39,9.03-2.74c0.641,0.13,1.271,0.32,1.87,0.57
	s1.19,0.56,1.73,0.92c0.55,0.37,1.06,0.79,1.52,1.25s0.88,0.97,1.24,1.52c0.359,0.54,0.67,1.12,0.92,1.72
	c0.25,0.61,0.439,1.24,0.57,1.87c0.13,0.65,0.189,1.31,0.189,1.96s-0.06,1.31-0.189,1.95c-0.131,0.64-0.32,1.27-0.57,1.87
	c-0.25,0.61-0.561,1.19-0.92,1.73c-0.36,0.55-0.78,1.06-1.24,1.52s-0.97,0.88-1.52,1.24c-0.54,0.36-1.131,0.67-1.73,0.92
	s-1.229,0.44-1.87,0.57C457.711,95.071,457.051,95.14,456.401,95.14z"/>
<path d="M89.352,317.153c-12.513,0-25.025-3.845-35.703-11.535c-4.481-3.228-5.498-9.477-2.271-13.959
	c3.227-4.48,9.477-5.5,13.958-2.271c14.365,10.345,33.666,10.345,48.031,0c4.482-3.228,10.731-2.21,13.958,2.271
	c3.228,4.482,2.211,10.731-2.271,13.959C114.377,313.308,101.865,317.153,89.352,317.153z"/>
<path d="M221.329,317.153c-12.513,0-25.025-3.845-35.703-11.535c-4.481-3.228-5.498-9.477-2.271-13.959
	c3.227-4.48,9.476-5.5,13.958-2.271c14.365,10.345,33.666,10.345,48.031,0c4.481-3.228,10.731-2.21,13.958,2.271
	c3.228,4.482,2.211,10.731-2.27,13.959C246.354,313.308,233.841,317.153,221.329,317.153z"/>
<path style="fill:#FFFFFF;" d="M172.715,365.584c-5.382-1.852-11.151-2.872-17.162-2.872h-0.425
	c-29.125,0-52.735,23.61-52.735,52.735l0,0h34.75l0,0C137.142,392.333,152.019,372.706,172.715,365.584z"/>
<path style="fill:#76ACE2;" d="M172.715,365.584c-20.696,7.122-35.573,26.749-35.573,49.863l0,0h71.146l0,0
	C208.288,392.333,193.411,372.706,172.715,365.584z"/>
<path d="M208.289,425.447H102.392c-5.522,0-10-4.477-10-10c0-34.592,28.143-62.735,62.735-62.735h0.426
	c34.593,0,62.735,28.143,62.735,62.735C218.289,420.97,213.811,425.447,208.289,425.447z M113.574,405.447h83.533
	c-4.513-18.757-21.431-32.735-41.554-32.735h-0.426C135.004,372.712,118.086,386.69,113.574,405.447z"/>
<path d="M52.001,242.87c-0.65,0-1.311-0.07-1.95-0.2c-0.64-0.13-1.27-0.32-1.87-0.57c-0.61-0.25-1.189-0.56-1.729-0.92
	c-0.551-0.36-1.061-0.78-1.521-1.24c-1.86-1.86-2.93-4.44-2.93-7.07c0-0.65,0.069-1.31,0.2-1.95c0.119-0.64,0.319-1.27,0.569-1.88
	c0.25-0.6,0.561-1.18,0.92-1.72c0.36-0.55,0.78-1.06,1.24-1.52c0.46-0.46,0.97-0.88,1.521-1.25c0.54-0.36,1.119-0.67,1.729-0.92
	c0.601-0.25,1.23-0.44,1.87-0.57c3.24-0.65,6.7,0.41,9.02,2.74c0.461,0.46,0.881,0.97,1.24,1.52c0.36,0.54,0.67,1.12,0.92,1.72
	c0.25,0.61,0.45,1.24,0.57,1.88c0.13,0.64,0.2,1.3,0.2,1.95c0,2.63-1.07,5.21-2.931,7.07c-0.46,0.46-0.97,0.88-1.52,1.24
	c-0.54,0.36-1.12,0.67-1.73,0.92c-0.6,0.25-1.229,0.44-1.869,0.57C53.311,242.801,52.651,242.87,52.001,242.87z"/>
<path d="M511.089,6.685c-1.48-4.21-5.572-6.937-10.026-6.667c-4.455,0.264-8.196,3.448-9.168,7.804
	c-1.132,5.069-12.494,13.248-40.795,19.615c-25.274,5.687-58.816,8.818-94.45,8.818c-0.009,0-0.018,0-0.026,0
	c-35.631-0.001-69.166-3.134-94.429-8.821c-28.279-6.366-39.634-14.543-40.765-19.611c-0.972-4.356-4.713-7.541-9.168-7.805
	c-4.436-0.263-8.546,2.455-10.026,6.666c-0.613,1.747-0.912,3.652-0.912,5.824v169.63c-38.934,3.229-82.199,2.223-117.529-2.834
	c-47.61-6.815-62.434-18.137-63.687-23.752c-0.972-4.356-4.713-7.541-9.168-7.805c-4.447-0.263-8.546,2.456-10.026,6.667
	c-0.614,1.748-0.913,3.653-0.913,5.825v187.08c0,58.416,39.491,99.762,72.619,124.16c34.133,25.138,72.955,40.523,82.72,40.523
	s48.587-15.385,82.72-40.523c33.128-24.398,72.619-65.744,72.619-124.16v-0.679c21.366,11.248,39.698,17.631,45.983,17.631
	c9.765,0,48.587-15.385,82.72-40.522c33.128-24.399,72.619-65.745,72.619-124.16V12.509C512.001,10.337,511.703,8.432,511.089,6.685
	z M290.679,347.318c0,49.271-34.05,85.202-62.614,106.668c-33.175,24.932-66.468,36.761-72.725,37.958
	c-6.257-1.197-39.55-13.025-72.725-37.958c-28.564-21.466-62.614-57.397-62.614-106.668v-165.39
	c13.534,7.555,33.896,13.301,60.959,17.175c36.234,5.188,80.44,6.289,120.39,3.107c0.001,0.021,0.002,0.042,0.002,0.063
	c0.008,0.413,0.026,0.822,0.038,1.234c0.015,0.498,0.027,0.996,0.047,1.493c0.012,0.275,0.03,0.547,0.043,0.822
	c0.113,2.324,0.286,4.639,0.525,6.943c0.007,0.069,0.013,0.14,0.02,0.209c0.08,0.759,0.171,1.516,0.264,2.273
	c0.014,0.114,0.026,0.23,0.04,0.344c0.097,0.765,0.204,1.528,0.315,2.29c0.014,0.098,0.027,0.196,0.041,0.294
	c0.115,0.774,0.239,1.547,0.368,2.319c0.013,0.079,0.025,0.159,0.038,0.238c0.121,0.714,0.25,1.426,0.383,2.138H93.583
	c-5.522,0-10,4.477-10,10s4.478,10,10,10h115.351c5.254,14.519,13.212,28.522,23.845,41.902
	c14.756,18.568,34.217,35.494,57.9,50.368V347.318z M492.001,199.589c0,49.271-34.05,85.201-62.614,106.668
	c-33.175,24.932-66.468,36.761-72.725,37.957c-4.851-0.928-25.953-8.251-50.649-23.11c-0.061-0.039-0.115-0.085-0.177-0.123
	c-25.543-15.373-65.086-45.179-79.244-88.511c-0.115-0.353-0.229-0.706-0.34-1.06c-0.264-0.837-0.519-1.679-0.764-2.526
	c-0.217-0.752-0.43-1.507-0.631-2.267c-0.146-0.549-0.284-1.101-0.421-1.654c-0.193-0.78-0.379-1.564-0.555-2.353
	c-0.12-0.533-0.237-1.067-0.349-1.604c-0.198-0.954-0.384-1.913-0.556-2.879c-0.073-0.407-0.145-0.815-0.214-1.224
	c-0.195-1.173-0.376-2.353-0.533-3.544c-0.037-0.282-0.068-0.567-0.103-0.85c-0.135-1.093-0.254-2.192-0.355-3.3
	c-0.024-0.262-0.052-0.522-0.074-0.784c-0.107-1.281-0.189-2.572-0.25-3.872c-0.014-0.292-0.024-0.586-0.036-0.879
	c-0.052-1.353-0.088-2.712-0.088-4.086v-8.321V95.14h193.494c5.522,0,10-4.477,10-10s-4.478-10-10-10H221.324V34.303
	c9.029,5,21.157,9.194,36.478,12.644c26.661,6.002,61.757,9.308,98.82,9.31c0.01,0,0.018,0,0.027,0
	c37.066,0,72.168-3.305,98.841-9.306c15.337-3.451,27.475-7.647,36.511-12.65V199.589z"/>
<g>
</g>
<g>
</g>
<g>
</g>
<g>
</g>
<g>
</g>
<g>
</g>
<g>
</g>
<g>
</g>
<g>
</g>
<g>
</g>
<g>
</g>
<g>
</g>
<g>
</g>
<g>
</g>
<g>
</g>
</svg>
