<svg id="Layer_1" height="512" viewBox="0 0 64 64" width="512" xmlns="http://www.w3.org/2000/svg" data-name="Layer 1"><g fill="#d1d3d4"><path d="m61 41h-14a2 2 0 0 1 0-4h4a2 2 0 0 0 0-4h-24a2 2 0 0 0 0 4h11a2 2 0 0 1 0 4h-1a2 2 0 0 0 0 4h24a2 2 0 0 0 0-4z"/><path d="m32 51h-20a2 2 0 0 0 0 4h3a2 2 0 0 1 0 4h-12a2 2 0 0 0 0 4h24a2 2 0 0 0 0-4h-3a2 2 0 0 1 0-4h8a2 2 0 0 0 0-4z"/><path d="m61 51h-20a2 2 0 0 0 0 4h7a2 2 0 0 1 0 4h-13a2 2 0 0 0 0 4h24a2 2 0 0 0 0-4h-2a2 2 0 0 1 0-4h4a2 2 0 0 0 0-4z"/><path d="m16 39h4a2 2 0 0 0 0-4h-14a2 2 0 0 0 0 4h1a2 2 0 0 1 0 4h-4a2 2 0 0 0 0 4h24a2 2 0 0 0 0-4h-11a2 2 0 0 1 0-4z"/></g><path d="m48 11a8.9489 8.9489 0 0 0 -5.20947 1.66974 13.99232 13.99232 0 0 0 -27.79053 2.33026c0 .027.00385.0531.004.08014a6.9964 6.9964 0 1 0 -1.004 13.91986h34a9 9 0 0 0 0-18z" fill="#f1f2f2"/><path d="m49 25h-34a6.99418 6.99418 0 0 1 -6.981-6.62329 6.98925 6.98925 0 0 0 5.981 10.62329h34a8.99654 8.99654 0 0 0 8.99377-8.87616 8.99311 8.99311 0 0 1 -7.99377 4.87616z" fill="#d1d3d4"/><path d="m22 12.00049a1.00113 1.00113 0 0 1 -.92871-1.37207c.08984-.22461 2.26465-5.51514 7.73242-6.60889a.99993.99993 0 1 1 .39258 1.96094c-4.418.88379-6.25 5.34619-6.26758 5.39111a1.00107 1.00107 0 0 1 -.92871.62891z" fill="#d1d3d4"/><path d="m21 14h2v2h-2z" fill="#d1d3d4"/><path d="m14 30h34a10 10 0 0 0 0-20 9.90843 9.90843 0 0 0 -4.53027 1.08936 14.98873 14.98873 0 0 0 -29.42873 2.91064h-.041a8 8 0 0 0 0 16zm0-14a5.92942 5.92942 0 0 1 .86133.06982 1.01664 1.01664 0 0 0 .79492-.27392 1.08307 1.08307 0 0 0 .34375-.7959 12.9925 12.9925 0 0 1 25.80469-2.16455 1 1 0 0 0 1.5664.64893 7.99687 7.99687 0 1 1 4.62891 14.51562h-34a6 6 0 0 1 0-12z"/><path d="m19.62891 11.92871a.999.999 0 0 0 1.2998-.55713c.01758-.04492 1.84961-4.50732 6.26758-5.39111a.99993.99993 0 1 0 -.39258-1.96094c-5.46777 1.09375-7.64258 6.38428-7.73242 6.60889a1.00084 1.00084 0 0 0 .55762 1.30029z"/><path d="m19 14h2v2h-2z"/><path d="m46 39a1.08422 1.08422 0 0 1 1-1h4a3 3 0 0 0 0-6h-24a3 3 0 0 0 0 6h11a1 1 0 0 1 0 2h-1a3 3 0 0 0 0 6h24a3 3 0 0 0 0-6h-14a1.08422 1.08422 0 0 1 -1-1zm16 4a1.08422 1.08422 0 0 1 -1 1h-24a1 1 0 0 1 0-2h1a3 3 0 0 0 0-6h-11a1 1 0 0 1 0-2h24a1 1 0 0 1 0 2h-4a3 3 0 0 0 0 6h14a1.08422 1.08422 0 0 1 1 1z"/><path d="m27 58h-3a1 1 0 0 1 0-2h8a3 3 0 0 0 0-6h-20a3 3 0 0 0 0 6h3a1 1 0 0 1 0 2h-12a3 3 0 0 0 0 6h24a3 3 0 0 0 0-6zm0 4h-24a1 1 0 0 1 0-2h12a3 3 0 0 0 0-6h-3a1 1 0 0 1 0-2h20a1 1 0 0 1 0 2h-8a3 3 0 0 0 0 6h3a1 1 0 0 1 0 2z"/><path d="m61 50h-20a3 3 0 0 0 0 6h7a1 1 0 0 1 0 2h-13a3 3 0 0 0 0 6h24a3 3 0 0 0 0-6h-2a1 1 0 0 1 0-2h4a3 3 0 0 0 0-6zm0 4h-4a3 3 0 0 0 0 6h2a1 1 0 0 1 0 2h-24a1 1 0 0 1 0-2h13a3 3 0 0 0 0-6h-7a1 1 0 0 1 0-2h20a1 1 0 0 1 0 2z"/><path d="m3 48h24a3 3 0 0 0 0-6h-11a1 1 0 0 1 0-2h4a3 3 0 0 0 0-6h-14a3 3 0 0 0 0 6h1a1 1 0 0 1 0 2h-4a3 3 0 0 0 0 6zm0-4h4a3 3 0 0 0 0-6h-1a1 1 0 0 1 0-2h14a1 1 0 0 1 0 2h-4a3 3 0 0 0 0 6h11a1 1 0 0 1 0 2h-24a1 1 0 0 1 0-2z"/></svg>