<svg id="Layer_1" height="512" viewBox="0 0 64 64" width="512" xmlns="http://www.w3.org/2000/svg" data-name="Layer 1"><path d="m28 17 4-8 4 8z" fill="#f7941d"/><path d="m32 9v8h4z" fill="#ec6f1d"/><path d="m16.444 25.101-2.829-8.486 8.486 2.829z" fill="#f7941d"/><path d="m13.615 16.615 5.657 5.657 2.829-2.828z" fill="#ec6f1d"/><path d="m14 39-8-4 8-4z" fill="#f7941d"/><path d="m6 35h8v-4z" fill="#ec6f1d"/><path d="m50 31 8 4-8 4z" fill="#f7941d"/><path d="m58 35h-8v4z" fill="#ec6f1d"/><path d="m41.899 19.444 8.486-2.829-2.829 8.486z" fill="#f7941d"/><path d="m50.385 16.615-5.657 5.657 2.828 2.829z" fill="#ec6f1d"/><path d="m32 20a15 15 0 0 0 -15 15v1h30v-1a15 15 0 0 0 -15-15z" fill="#ffb028"/><path d="m23 33a.99982.99982 0 0 1 -.94873-1.31641c.08838-.26416 2.23193-6.49853 8.63232-8.63232a1.0001 1.0001 0 1 1 .63282 1.89746c-5.46241 1.8208-7.34912 7.312-7.36768 7.36768a1.00008 1.00008 0 0 1 -.94873.68359z" fill="#f1f2f2"/><path d="m22 34h2v2h-2z" fill="#f1f2f2"/><path d="m58 1-5 8h3v10h4v-10h3z" fill="#ef4136"/><g fill="#ffd241"><rect height="4" rx="2" width="62" x="1" y="39"/><rect height="4" rx="2" width="32" x="23" y="49"/><rect height="4" rx="2" width="8" x="9" y="49"/><rect height="4" rx="2" transform="matrix(-1 0 0 -1 50 122)" width="24" x="13" y="59"/><rect height="4" rx="2" transform="matrix(-1 0 0 -1 94 122)" width="8" x="43" y="59"/></g><path d="m46 35a1 1 0 0 0 2 0 16 16 0 0 0 -32 0 1 1 0 0 0 2 0 14 14 0 0 1 28 0z"/><path d="m27.55273 17.89453a.99941.99941 0 0 0 1.3418-.44726l3.10547-6.21143 3.10547 6.21143a1.00012 1.00012 0 0 0 1.78906-.89454l-4-8a1.04127 1.04127 0 0 0 -1.78906 0l-4 8a1 1 0 0 0 .44726 1.3418z"/><path d="m15.49512 25.417a1.0001 1.0001 0 1 0 1.89746-.63281l-2.19629-6.58789 6.58789 2.19629a1.0001 1.0001 0 1 0 .63281-1.89746l-8.48535-2.82863a1.00027 1.00027 0 0 0 -1.26514 1.26514z"/><path d="m6.001 36a1.0026 1.0026 0 0 0 .44629-.10547l8-4a1.00012 1.00012 0 0 0 -.89454-1.78906l-8 4a1 1 0 0 0 .44825 1.89453z"/><path d="m49.10547 30.55273a1 1 0 0 0 .44726 1.3418l8 4a1.00012 1.00012 0 0 0 .89454-1.78906l-8-4a.99885.99885 0 0 0 -1.3418.44726z"/><path d="m40.95068 19.76025a.99739.99739 0 0 0 1.26514.63233l6.58789-2.19629-2.19629 6.58789a1.0001 1.0001 0 1 0 1.89746.63281l2.82862-8.48535a1.00027 1.00027 0 0 0 -1.26514-1.26514l-8.48536 2.82862a1.00013 1.00013 0 0 0 -.63232 1.26513z"/><path d="m23.10547 16.44727a1.00012 1.00012 0 0 0 1.78906-.89454l-2-4a1.00012 1.00012 0 1 0 -1.78906.89454z"/><path d="m8.34912 26.75635 4.24268 1.41406a1.0001 1.0001 0 0 0 .63281-1.89746l-4.24268-1.41406a1.0001 1.0001 0 0 0 -.63281 1.89746z"/><path d="m51.001 28a.99607.99607 0 0 0 .44629-.10547l4-2a1.00012 1.00012 0 0 0 -.89454-1.78906l-4 2a1 1 0 0 0 .44825 1.89453z"/><path d="m39.46191 16.85693a.99864.99864 0 0 0 1.26514-.63232l1.41406-4.24268a1.0001 1.0001 0 0 0 -1.89746-.63281l-1.41406 4.24268a1.00013 1.00013 0 0 0 .63232 1.26513z"/><path d="m29.31641 24.94873a1.0001 1.0001 0 0 0 -.63282-1.89746c-6.40039 2.13379-8.54394 8.36816-8.63232 8.63232a1.0001 1.0001 0 0 0 1.89746.63282c.01856-.05567 1.90527-5.54688 7.36768-7.36768z"/><path d="m20 34h2v2h-2z"/><path d="m61 38h-58a3 3 0 0 0 0 6h58a3 3 0 0 0 0-6zm0 4h-58a1 1 0 0 1 0-2h58a1 1 0 0 1 0 2z"/><path d="m53 48h-28a3 3 0 0 0 0 6h28a3 3 0 0 0 0-6zm0 4h-28a1 1 0 0 1 0-2h28a1 1 0 0 1 0 2z"/><path d="m18 51a3.00328 3.00328 0 0 0 -3-3h-4a3 3 0 0 0 0 6h4a3.00328 3.00328 0 0 0 3-3zm-8 0a1.001 1.001 0 0 1 1-1h4a1 1 0 0 1 0 2h-4a1.001 1.001 0 0 1 -1-1z"/><path d="m35 58h-20a3 3 0 0 0 0 6h20a3 3 0 0 0 0-6zm0 4h-20a1 1 0 0 1 0-2h20a1 1 0 0 1 0 2z"/><path d="m49 58h-4a3 3 0 0 0 0 6h4a3 3 0 0 0 0-6zm0 4h-4a1 1 0 0 1 0-2h4a1 1 0 0 1 0 2z"/><path d="m53 10h2v9a1 1 0 0 0 1 1h4a1 1 0 0 0 1-1v-9h2a1.00008 1.00008 0 0 0 .84814-1.52979l-5-8a1 1 0 0 0 -1.69628 0l-5 8a1.00008 1.00008 0 0 0 .84814 1.52979zm5-7.11328 3.1958 5.11328h-1.1958a1 1 0 0 0 -1 1v9h-2v-9a1 1 0 0 0 -1-1h-1.1958z"/></svg>