<svg id="Layer_1" height="512" viewBox="0 0 64 64" width="512" xmlns="http://www.w3.org/2000/svg" data-name="Layer 1"><circle cx="5" cy="53" fill="#6ee1ef" r="5"/><circle cx="59" cy="41" fill="#6ee1ef" r="5"/><circle cx="30" cy="37" fill="#5fb1d7" r="5"/><path d="m20 45-6 4-6-4v-6l6-3.9 6 3.9z" fill="#6ee1ef"/><path d="m14 48.9v-6l6-4v6z" fill="#2b7fc9"/><path d="m20 38.9-6 4-6-4 6-3.9z" fill="#5fb1d7"/><path d="m36 59-6 4-6-4v-6l6-3.9 6 3.9z" fill="#6ee1ef"/><path d="m30 62.9v-6l6-4v6z" fill="#2b7fc9"/><path d="m36 52.9-6 4-6-4 6-3.9z" fill="#5fb1d7"/><path d="m51 43-6 4-6-4v-6l6-3.9 6 3.9z" fill="#6ee1ef"/><path d="m45 46.9v-6l6-4v6z" fill="#2b7fc9"/><path d="m51 36.9-6 4-6-4 6-3.9z" fill="#5fb1d7"/><path d="m63 59-6 4-6-4v-6l6-3.9 6 3.9z" fill="#6ee1ef"/><path d="m57 62.9v-6l6-4v6z" fill="#2b7fc9"/><path d="m63 52.9-6 4-6-4 6-3.9z" fill="#5fb1d7"/><path d="m48 11a8.9489 8.9489 0 0 0 -5.20947 1.66974 13.99232 13.99232 0 0 0 -27.79053 2.33026c0 .027.00385.0531.004.08014a6.9964 6.9964 0 1 0 -1.004 13.91986h34a9 9 0 0 0 0-18z" fill="#f1f2f2"/><g fill="#d1d3d4"><path d="m49 25h-34a6.99418 6.99418 0 0 1 -6.981-6.62329 6.98925 6.98925 0 0 0 5.981 10.62329h34a8.99654 8.99654 0 0 0 8.99377-8.87616 8.99311 8.99311 0 0 1 -7.99377 4.87616z"/><path d="m22 12.00049a1.00113 1.00113 0 0 1 -.92871-1.37207c.08984-.22461 2.26465-5.51514 7.73242-6.60889a.99993.99993 0 1 1 .39258 1.96094c-4.418.88379-6.25 5.34619-6.26758 5.39111a1.00107 1.00107 0 0 1 -.92871.62891z"/><path d="m21 14h2v2h-2z"/></g><path d="m14 30h34a10 10 0 0 0 0-20 9.90843 9.90843 0 0 0 -4.53027 1.08936 14.98873 14.98873 0 0 0 -29.42873 2.91064h-.041a8 8 0 0 0 0 16zm0-14a5.92942 5.92942 0 0 1 .86133.06982 1.01775 1.01775 0 0 0 .79492-.27392 1.08307 1.08307 0 0 0 .34375-.7959 12.9925 12.9925 0 0 1 25.80469-2.16455 1 1 0 0 0 1.5664.64893 7.99687 7.99687 0 1 1 4.62891 14.51562h-34a6 6 0 0 1 0-12z"/><path d="m19.62891 11.92871a.999.999 0 0 0 1.2998-.55713c.01758-.04492 1.84961-4.50732 6.26758-5.39111a.99993.99993 0 1 0 -.39258-1.96094c-5.46777 1.09375-7.64258 6.38428-7.73242 6.60889a1.00084 1.00084 0 0 0 .55762 1.30029z"/><path d="m19 14h2v2h-2z"/><path d="m52 43.09961v-6a1.00025 1.00025 0 0 0 -.44531-.832l-6-4a1.00109 1.00109 0 0 0 -1.10938 0l-6 4a1.00025 1.00025 0 0 0 -.44531.832v6a1.00028 1.00028 0 0 0 .44531.832l6 4a.99987.99987 0 0 0 1.10938 0l6-4a1.00028 1.00028 0 0 0 .44531-.832zm-7-8.79785 4.12244 2.748-4.12244 2.74809-4.12244-2.748zm-5 4.56671 4 2.66669v3.69567l-4-2.66638zm6 6.36236v-3.69567l4-2.66669v3.696z"/><path d="m63.55469 52.168-6-4a.99746.99746 0 0 0 -1.10938 0l-6 4a1.00028 1.00028 0 0 0 -.44531.832v6a1.00028 1.00028 0 0 0 .44531.832l6 4a.99987.99987 0 0 0 1.10938 0l6-4a1.00028 1.00028 0 0 0 .44531-.832v-6a1.00028 1.00028 0 0 0 -.44531-.832zm-6.55469-1.96585 4.12244 2.748-4.12244 2.74809-4.12244-2.748zm-5 4.56671 4 2.66669v3.69568l-4-2.66639zm6 6.36237v-3.69568l4-2.66669v3.696z"/><path d="m36.55469 52.168-6-4a.99746.99746 0 0 0 -1.10938 0l-6 4a1.00028 1.00028 0 0 0 -.44531.832v6a1.00028 1.00028 0 0 0 .44531.832l6 4a.99987.99987 0 0 0 1.10938 0l6-4a1.00028 1.00028 0 0 0 .44531-.832v-6a1.00028 1.00028 0 0 0 -.44531-.832zm-6.55469-1.96585 4.12244 2.748-4.12244 2.74809-4.12244-2.748zm-5 4.56671 4 2.66669v3.69568l-4-2.66639zm6 6.36237v-3.69568l4-2.66669v3.696z"/><path d="m20.55469 38.26758-6-4a.99746.99746 0 0 0 -1.10938 0l-6 4a1.00025 1.00025 0 0 0 -.44531.83203v6a1.00028 1.00028 0 0 0 .44531.832l6 4a.99987.99987 0 0 0 1.10938 0l6-4a1.00028 1.00028 0 0 0 .44531-.832v-6a1.00025 1.00025 0 0 0 -.44531-.83203zm-6.55469-1.96582 4.12244 2.748-4.12244 2.74809-4.12244-2.748zm-5 4.56671 4 2.66669v3.69567l-4-2.66638zm6 6.36236v-3.69567l4-2.66669v3.696z"/><path d="m5 52a.99943.99943 0 0 0 1-1v-2a1 1 0 0 0 -2 0v2a.99943.99943 0 0 0 1 1z"/><path d="m5 54a.99943.99943 0 0 0 -1 1v2a1 1 0 0 0 2 0v-2a.99943.99943 0 0 0 -1-1z"/><path d="m9 52h-2a1 1 0 0 0 0 2h2a1 1 0 0 0 0-2z"/><path d="m3 52h-2a1 1 0 0 0 0 2h2a1 1 0 0 0 0-2z"/><path d="m31 33a1 1 0 0 0 -2 0v2a1 1 0 0 0 2 0z"/><path d="m30 42a.99943.99943 0 0 0 1-1v-2a1 1 0 0 0 -2 0v2a.99943.99943 0 0 0 1 1z"/><path d="m32 38h2a1 1 0 0 0 0-2h-2a1 1 0 0 0 0 2z"/><path d="m28 36h-2a1 1 0 0 0 0 2h2a1 1 0 0 0 0-2z"/><path d="m58 39a1 1 0 0 0 2 0v-2a1 1 0 0 0 -2 0z"/><path d="m59 46a.99943.99943 0 0 0 1-1v-2a1 1 0 0 0 -2 0v2a.99943.99943 0 0 0 1 1z"/><path d="m61 42h2a1 1 0 0 0 0-2h-2a1 1 0 0 0 0 2z"/><path d="m57 40h-2a1 1 0 0 0 0 2h2a1 1 0 0 0 0-2z"/></svg>