<svg id="Layer_1" height="512" viewBox="0 0 64 64" width="512" xmlns="http://www.w3.org/2000/svg" data-name="Layer 1"><g fill="#6ee1ef"><circle cx="5" cy="5" r="5"/><circle cx="55" cy="57" r="5"/><path d="m51 46h-22a1 1 0 0 1 0-2h22a1 1 0 0 1 0 2z"/><path d="m57 46h-2a1 1 0 0 1 0-2h2a1 1 0 0 1 0 2z"/><path d="m63 46h-2a1 1 0 0 1 0-2h2a1 1 0 0 1 0 2z"/><path d="m45 7h-22a1 1 0 0 1 0-2h22a1 1 0 0 1 0 2z"/><path d="m51 7h-2a1 1 0 0 1 0-2h2a1 1 0 0 1 0 2z"/><path d="m57 7h-2a1 1 0 0 1 0-2h2a1 1 0 0 1 0 2z"/><path d="m42 52h-22a1 1 0 0 1 0-2h22a1 1 0 0 1 0 2z"/><path d="m48 52h-2a1 1 0 0 1 0-2h2a1 1 0 0 1 0 2z"/></g><path d="m29 13s11 0 18 4c7.46891 4.26795 16 2 16 2v8s-8.23138 10-18 10c-5.11437 0-13.14785-2.07469-16-3z" fill="#f1f2f2"/><path d="m45 32c-5.11438 0-13.14783-2.07471-16-3v5c2.85217.92529 10.88562 3 16 3 9.76862 0 18-10 18-10v-5s-8.23138 10-18 10z" fill="#d1d3d4"/><path d="m37 36c6-10 2-22 2-22s7 2 9 4c0 0 2 14-3 19z" fill="#ef4136"/><path d="m45 32a37.32194 37.32194 0 0 1 -5.92786-.59845 22.00884 22.00884 0 0 1 -2.07214 4.59845l8 1a11.11246 11.11246 0 0 0 2.61481-5.23407 15.16527 15.16527 0 0 1 -2.61481.23407z" fill="#be3c36"/><path d="m56 33c2-6 0-13 0-13l7-1v8z" fill="#ef4136"/><path d="m56.87653 27.57977a18.71031 18.71031 0 0 1 -.87653 5.42023l7-6v-5a35.66019 35.66019 0 0 1 -6.12347 5.57977z" fill="#be3c36"/><ellipse cx="29" cy="23" fill="#d1d3d4" rx="6" ry="10"/><ellipse cx="29" cy="23" fill="#808285" rx="3" ry="6"/><path d="m11 12h4v47h-4z" fill="#ffd241"/><circle cx="13" cy="10" fill="#ffb028" r="3"/><path d="m3 59h20a2 2 0 0 1 2 2v2a0 0 0 0 1 0 0h-24a0 0 0 0 1 0 0v-2a2 2 0 0 1 2-2z" fill="#ffb028"/><path d="m29 30c2.28027 0 4-3.00928 4-7s-1.71973-7-4-7-4 3.00928-4 7 1.71973 7 4 7zm0-12c.81543 0 2 1.94775 2 5s-1.18457 5-2 5-2-1.94775-2-5 1.18457-5 2-5z"/><path d="m63.61035 18.208a1.00522 1.00522 0 0 0 -.86621-.17481c-.082.022-8.24023 2.1045-15.248-1.90136-7.14848-4.08495-18.03614-4.13183-18.49614-4.13183-2.26129 0-4.23621 1.60938-5.50781 4.14868-.015.00891-.03217.00946-.04688.01929l-7.44531 4.96356v-8.51373a4.0001 4.0001 0 1 0 -6 0v45.3822h-7a3.00328 3.00328 0 0 0 -3 3v2a.99943.99943 0 0 0 1 1h24a.99943.99943 0 0 0 1-1v-2a3.00328 3.00328 0 0 0 -3-3h-7v-33.13153l7.44531 4.96353c.01538.01026.03284.01355.04859.02283 1.2716 2.53732 3.24585 4.14517 5.5061 4.14517 3.9248 0 7-4.83154 7-11a13.84308 13.84308 0 0 0 -2.71021-8.73694c1.45752.14813 3.17157.38056 4.95966.743.68689 2.57117 2.68506 11.90631-1.80139 19.93927-1.19989-.29468-2.25946-.61078-3.13947-.89648a1 1 0 0 0 -.61718 1.90234 39.12869 39.12869 0 0 0 12.30859 2.04881c10.124 0 18.42383-9.94141 18.77246-10.36426a1.00536 1.00536 0 0 0 .22754-.63574v-8a1.00183 1.00183 0 0 0 -.38965-.792zm-50.61035-10.208a2 2 0 1 1 -2 2 2.00229 2.00229 0 0 1 2-2zm11 53v1h-22v-1a1.00067 1.00067 0 0 1 1-1h20a1.00067 1.00067 0 0 1 1 1zm-12-3v-44.142a3.59286 3.59286 0 0 0 2 0v44.142zm43.08154-25.419a20.7216 20.7216 0 0 1 -7.96307 3.23572c2.86749-5.0293 2.34515-13.507 2.01953-16.704a22.25 22.25 0 0 0 5.95734 1.38111c.29358 1.15857 1.62658 7.034-.0138 12.08717zm-38.27881-9.581 5.6056-3.73706a17.30506 17.30506 0 0 0 0 7.47412zm17.19727 0c0 4.87842-2.29 9-5 9s-5-4.12158-5-9 2.29-9 5-9 5 4.12158 5 9zm6.44684-7.48529a25.24159 25.24159 0 0 1 6.05707 2.35345c.17083.09766.34338.18042.515.27167l-.00915.00128c.0191.13245 1.79034 13.00306-2.44165 17.84742a35.40953 35.40953 0 0 1 -6.08082-.60248c4.06813-7.75177 2.81142-16.2182 1.95955-19.87134zm21.55316 11.11322a36.25945 36.25945 0 0 1 -4.4256 4.15521 27.45739 27.45739 0 0 0 -.39386-10.17724 26.54949 26.54949 0 0 0 4.81946-.37543z"/><path d="m51 45a1 1 0 0 0 0-2h-22a1 1 0 0 0 0 2z"/><path d="m55 45h2a1 1 0 0 0 0-2h-2a1 1 0 0 0 0 2z"/><path d="m63 43h-2a1 1 0 0 0 0 2h2a1 1 0 0 0 0-2z"/><path d="m23 6h22a1 1 0 0 0 0-2h-22a1 1 0 0 0 0 2z"/><path d="m49 6h2a1 1 0 0 0 0-2h-2a1 1 0 0 0 0 2z"/><path d="m55 6h2a1 1 0 0 0 0-2h-2a1 1 0 0 0 0 2z"/><path d="m42 49h-22a1 1 0 0 0 0 2h22a1 1 0 0 0 0-2z"/><path d="m48 49h-2a1 1 0 0 0 0 2h2a1 1 0 0 0 0-2z"/><path d="m5 4a.99974.99974 0 0 0 1-1v-2a1 1 0 0 0 -2 0v2a.99974.99974 0 0 0 1 1z"/><path d="m5 6a.99974.99974 0 0 0 -1 1v2a1 1 0 0 0 2 0v-2a.99974.99974 0 0 0 -1-1z"/><path d="m7 6h2a1 1 0 0 0 0-2h-2a1 1 0 0 0 0 2z"/><path d="m1 6h2a1 1 0 0 0 0-2h-2a1 1 0 0 0 0 2z"/><path d="m54 55a1 1 0 0 0 2 0v-2a1 1 0 0 0 -2 0z"/><path d="m55 58a.99943.99943 0 0 0 -1 1v2a1 1 0 0 0 2 0v-2a.99943.99943 0 0 0 -1-1z"/><path d="m59 56h-2a1 1 0 0 0 0 2h2a1 1 0 0 0 0-2z"/><path d="m53 56h-2a1 1 0 0 0 0 2h2a1 1 0 0 0 0-2z"/></svg>