<svg id="Layer_1" height="512" viewBox="0 0 64 64" width="512" xmlns="http://www.w3.org/2000/svg" data-name="Layer 1"><path d="m46 5a4.96255 4.96255 0 0 1 2.05524.45209 4.98466 4.98466 0 1 1 9.78643 1.73846 3.955 3.955 0 0 1 1.15833-.19055 4 4 0 0 1 0 8h-13a5 5 0 0 1 0-10z" fill="#808285"/><path d="m59 13h-13a5.00112 5.00112 0 0 1 -4.89923-4 5.00112 5.00112 0 0 0 4.89923 6h13a3.95152 3.95152 0 0 0 3.85858-5 3.99071 3.99071 0 0 1 -3.85858 3z" fill="#58595b"/><path d="m33 30a9.98249 9.98249 0 0 0 -2.68756.376 9.99537 9.99537 0 0 0 -19.31244 3.624c0 .08972.01111.17657.01343.26569a7.99644 7.99644 0 1 0 -2.01343 15.73431h24a10 10 0 0 0 0-20z" fill="#808285"/><path d="m33 46h-24a7.99585 7.99585 0 0 1 -7.73779-6 7.97207 7.97207 0 0 0 7.73779 10h24a10.00521 10.00521 0 0 0 9.79913-12 10.00283 10.00283 0 0 1 -9.79913 8z" fill="#58595b"/><path d="m18 32.00049a1.00076 1.00076 0 0 1 -.94824-1.3169 7.81652 7.81652 0 0 1 4.63183-4.63232 1 1 0 0 1 .63672 1.896 5.87478 5.87478 0 0 0 -3.37207 3.36914.99992.99992 0 0 1 -.94824.68408z" fill="#f1f2f2"/><path d="m17 33h2v2h-2z" fill="#f1f2f2"/><path d="m55 19-8 14h9l-1 10 8-14h-9z" fill="#ffd241"/><path d="m63 29h-9l.394-3.939-3.394 5.939h9l-.394 3.939z" fill="#ffb028"/><path d="m9 1-8 14h9l-1 10 8-14h-9z" fill="#ffd241"/><path d="m17 11h-9l.394-3.939-3.394 5.939h9l-.394 3.939z" fill="#ffb028"/><path d="m39 29-9 15h10l-1 11 9-15h-10z" fill="#ffd241"/><path d="m48 40h-10l.5-5.5-4.5 7.5h10l-.5 5.5z" fill="#ffb028"/><path d="m37.82494 21.93838a2.97 2.97 0 0 1 -3.84847 1.87189 3.17085 3.17085 0 0 1 -1.79457-4.01427c.56716-1.62542 5.21773-5.796 5.21773-5.796s.99248 6.313.42531 7.93838z" fill="#6ee1ef"/><path d="m37.39966 14s-.25971.23346-.65558.60272c.21887 1.93939.40564 4.40479.08087 5.33563a2.927 2.927 0 0 1 -4.79327 1.28132 3.10232 3.10232 0 0 0 1.94476 2.59057 2.97 2.97 0 0 0 3.84856-1.87189c.56709-1.62542-.42534-7.93835-.42534-7.93835z" fill="#5fb1d7"/><path d="m55.82494 55.93838a2.97 2.97 0 0 1 -3.84847 1.87189 3.17085 3.17085 0 0 1 -1.79457-4.01427c.56716-1.62542 5.21773-5.796 5.21773-5.796s.99248 6.313.42531 7.93838z" fill="#6ee1ef"/><path d="m55.39966 48s-.25971.23346-.65558.60272c.21887 1.93939.40564 4.40479.08087 5.33563a2.927 2.927 0 0 1 -4.79327 1.28132 3.10232 3.10232 0 0 0 1.94476 2.59057 2.97 2.97 0 0 0 3.84856-1.87189c.56709-1.62542-.42534-7.93835-.42534-7.93835z" fill="#5fb1d7"/><path d="m21.82494 60.93838a2.97 2.97 0 0 1 -3.84847 1.87189 3.17085 3.17085 0 0 1 -1.79457-4.01427c.56716-1.62542 5.21773-5.796 5.21773-5.796s.99248 6.313.42531 7.93838z" fill="#6ee1ef"/><path d="m21.39966 53s-.25971.23346-.65558.60272c.21887 1.93939.40564 4.40479.08087 5.33563a2.927 2.927 0 0 1 -4.79327 1.28132 3.10232 3.10232 0 0 0 1.94476 2.59057 2.97 2.97 0 0 0 3.84856-1.87189c.56709-1.62542-.42534-7.93835-.42534-7.93835z" fill="#5fb1d7"/><path d="m33 49h-24a6.99659 6.99659 0 1 1 1.7627-13.7666.99962.99962 0 0 0 1.25-1.001l-.0127-.2324a8.99544 8.99544 0 0 1 17.38086-3.26074.99732.99732 0 0 0 1.20019.6001 9.01663 9.01663 0 0 1 2.41895-.33936 1 1 0 0 0 0-2 10.79263 10.79263 0 0 0 -2.10449.21 10.99612 10.99612 0 0 0 -20.85645 3.85449 8.998 8.998 0 1 0 -1.03906 17.93551h24a1 1 0 0 0 0-2z"/><path d="m20.32031 27.94727a1 1 0 0 0 -.63672-1.896 7.81652 7.81652 0 0 0 -4.63183 4.63232.99964.99964 0 1 0 1.89648.63282 5.87478 5.87478 0 0 1 3.37207-3.36914z"/><path d="m15 33h2v2h-2z"/><path d="m21.73438 52.05762a.99716.99716 0 0 0 -1.00293.19824c-.8086.72461-4.873 4.43262-5.49415 6.21094a4.1804 4.1804 0 0 0 2.38477 5.27832 3.877 3.877 0 0 0 3.02734-.11133 4.05574 4.05574 0 0 0 2.12012-2.36524v-.001c.61817-1.77246-.21-7.32715-.38183-8.42285a1.0016 1.0016 0 0 0 -.65332-.78708zm-.85352 8.55078a2.06629 2.06629 0 0 1 -1.07617 1.21289 1.88013 1.88013 0 0 1 -1.47364.05469 2.16885 2.16885 0 0 1 -1.20507-2.75c.25488-.73145 1.94043-2.53418 3.54785-4.084.28027 2.28126.46582 4.82618.20703 5.56642z"/><path d="m55.73438 47.05762a.99716.99716 0 0 0 -1.00293.19824c-.8086.72461-4.873 4.43262-5.49415 6.21094a4.1804 4.1804 0 0 0 2.38477 5.27832 3.86554 3.86554 0 0 0 3.02734-.11133 4.05574 4.05574 0 0 0 2.12012-2.36524v-.001c.61817-1.77246-.21-7.32715-.38183-8.42285a1.0016 1.0016 0 0 0 -.65332-.78708zm-.85352 8.55078a2.06629 2.06629 0 0 1 -1.07617 1.21289 1.88013 1.88013 0 0 1 -1.47364.05469 2.16885 2.16885 0 0 1 -1.20507-2.75c.25488-.73145 1.94043-2.53418 3.54785-4.084.28027 2.28126.46582 4.82618.20703 5.56642z"/><path d="m33.62207 24.74512a3.86539 3.86539 0 0 0 3.02832-.11182 4.05279 4.05279 0 0 0 2.11914-2.36523c.61817-1.773-.21-7.32764-.38183-8.42334a1.001 1.001 0 0 0 -1.65625-.58936c-.8086.7251-4.87305 4.43262-5.49415 6.21094a4.18036 4.18036 0 0 0 2.38477 5.27881zm-.49607-4.61963c.25488-.73145 1.94043-2.53369 3.54785-4.083.28027 2.28076.46582 4.82666.207 5.56641a2.062 2.062 0 0 1 -1.0752 1.21142 1.87871 1.87871 0 0 1 -1.47461.05469 2.1677 2.1677 0 0 1 -1.20504-2.74952z"/><path d="m48 39h-8.90527l.90136-9.90967a1.00009 1.00009 0 0 0 -1.85351-.605l-9 15a.99986.99986 0 0 0 .85742 1.51467h8.90527l-.90136 9.90918a.99962.99962 0 0 0 .68554 1.041.97881.97881 0 0 0 .31055.04982.99969.99969 0 0 0 .85742-.48535l9-15a.99986.99986 0 0 0 -.85742-1.51465zm-7.6084 11.7373.60449-6.64648a.99991.99991 0 0 0 -.99609-1.09082h-8.2334l5.8418-9.7373-.60449 6.64648a.99991.99991 0 0 0 .99609 1.09082h8.2334z"/><path d="m1 16h7.89453l-.88965 8.90039a1 1 0 0 0 1.86328.5957l8-14a.99961.99961 0 0 0 -.86816-1.49609h-7.89453l.88965-8.90039a1.001 1.001 0 0 0 -.69043-1.05225 1.09933 1.09933 0 0 0 -.30469-.04736.97643.97643 0 0 0 -.86816.50391l-8 14a.99961.99961 0 0 0 .86816 1.49609zm6.53711-10.42529-.53223 5.32568a1.00065 1.00065 0 0 0 .99512 1.09961h7.27637l-4.81348 8.42529.53223-5.32568a1.00065 1.00065 0 0 0 -.99512-1.09961h-7.27637z"/><path d="m63 28h-7.89453l.88965-8.90039a1 1 0 0 0 -1.86328-.5957l-8 14a.99961.99961 0 0 0 .86816 1.49609h7.89453l-.88965 8.90039a1 1 0 0 0 1.86328.5957l8-14a.99961.99961 0 0 0 -.86816-1.49609zm-6.53711 10.4248.53223-5.32519a1.00065 1.00065 0 0 0 -.99512-1.09961h-7.27637l4.81348-8.42529-.53223 5.32568a1.00065 1.00065 0 0 0 .99512 1.09961h7.27637z"/><path d="m46 16h13a5 5 0 0 0 0-10 5.98665 5.98665 0 0 0 -11.68457-1.8501 5.84429 5.84429 0 0 0 -1.31543-.1499 6 6 0 0 0 0 12zm0-10a3.96322 3.96322 0 0 1 1.64355.36328 1.00038 1.00038 0 0 0 1.40625-.80176 3.98647 3.98647 0 0 1 7.9502.43848 3.93729 3.93729 0 0 1 -.12988.95264.99991.99991 0 0 0 1.26269 1.19436 2.95654 2.95654 0 0 1 .86719-.147 3 3 0 0 1 0 6h-13a4 4 0 0 1 0-8z"/></svg>