<?xml version="1.0"?>
<svg xmlns="http://www.w3.org/2000/svg" id="Layer_1" data-name="Layer 1" viewBox="0 0 64 64" width="512" height="512"><circle cx="5" cy="9" r="5" style="fill:#ef4136"/><circle cx="59" cy="20" r="5" style="fill:#ef4136"/><path d="M49,63c-8,0-14-5-14-10s1-7,4-9a4.18351,4.18351,0,0,0,0-7s5-1,6,2a5.2761,5.2761,0,0,1,4-5c4-1,2-6,1-7,0,0,10,3,7,13-2,6-1,7,1,8s4-1,4-3c0,0,1,2,1,8S57,63,49,63Z" style="fill:#f7941d"/><path d="M62,45c0,2-2,4-4,3s-3-2-1-8c3-10-7-13-7-13,1,1,3,6-1,7a5.2761,5.2761,0,0,0-4,5c-1-3-6-2-6-2a4.18351,4.18351,0,0,1,0,7c-3,2-4,4-4,9a8.57336,8.57336,0,0,0,3.27026,6.27527A12.3995,12.3995,0,0,1,39,51c3-6,5-5,5-8a3.0971,3.0971,0,0,1,2,1s0-3,4-5,3-4,3-4,2,4,0,11,7,5,7,5a33.28987,33.28987,0,0,1-.30731,8.712A8.53148,8.53148,0,0,0,63,53C63,47,62,45,62,45Z" style="fill:#ffd241"/><path d="M52,59a7.651,7.651,0,0,0,2-5,11.07814,11.07814,0,0,0-5-9c1,4-1,6-1,6,0-2-3-3-3-3,1,3-3,4-3,7s1,4,1,4a4.33283,4.33283,0,0,0,4,2A7.651,7.651,0,0,0,52,59Z" style="fill:#ef4136"/><path d="M22,47.30524V19a6,6,0,0,0-12,0V47.30524a9,9,0,1,0,12,0Z" style="fill:#f1f2f2"/><path d="M18,49.42212V21H14V49.42212a5,5,0,1,0,4,0Z" style="fill:#ef4136"/><path d="M16,56a4.9832,4.9832,0,0,1-4.75555-3.5321,5,5,0,1,0,9.5111,0A4.9832,4.9832,0,0,1,16,56Z" style="fill:#be3c36"/><path d="M42,19H32a2.0001,2.0001,0,0,1-2-2V3a2.0001,2.0001,0,0,1,2-2H42V5H34V15h8Z" style="fill:#ffd241"/><rect x="22" y="1" width="4" height="4" style="fill:#ffd241"/><path d="M23,19A7,7,0,0,0,9,19V46.87305a10,10,0,1,0,14,0Zm1,35a8,8,0,1,1-13.33252-5.9502A.99923.99923,0,0,0,11,47.30566V19a5,5,0,0,1,10,0V47.30566a.99923.99923,0,0,0,.33252.74414A8.009,8.009,0,0,1,24,54Z"/><path d="M19,48.80859V21a.99974.99974,0,0,0-1-1H14a.99974.99974,0,0,0-1,1V48.80859a6,6,0,1,0,6,0ZM16,58a3.99738,3.99738,0,0,1-1.59912-7.66211A.99985.99985,0,0,0,15,49.42188V22h2V49.42188a.99985.99985,0,0,0,.59912.916A3.99738,3.99738,0,0,1,16,58Z"/><rect x="26" y="25" width="4" height="2"/><rect x="26" y="29" width="4" height="2"/><rect x="26" y="33" width="4" height="2"/><rect x="26" y="37" width="4" height="2"/><rect x="26" y="41" width="4" height="2"/><rect x="26" y="45" width="4" height="2"/><path d="M61.77,44.02637A1.0011,1.0011,0,0,0,61,45a2.49308,2.49308,0,0,1-1.124,2.02539,1.381,1.381,0,0,1-1.42871.08008c-1.4253-.71289-2.36719-1.18359-.48926-6.81836,3.24951-10.832-7.561-14.21191-7.6709-14.24512a1,1,0,0,0-.99414,1.665,5.29694,5.29694,0,0,1,1.00488,3.98047,1.87981,1.87981,0,0,1-1.54053,1.34277,6.04366,6.04366,0,0,0-4.29052,3.71485c-2.127-1.4043-5.47852-.76172-5.66309-.72559a1,1,0,0,0-.251,1.875,2.98764,2.98764,0,0,1,1.334,2.41992A3.095,3.095,0,0,1,38.44531,43.168C35.08008,45.41113,34,47.80078,34,53c0,5.3125,6.02734,11,15,11,8.83154,0,15-4.52344,15-11,0-6.06152-.99219-8.2207-1.10547-8.44727A1.00416,1.00416,0,0,0,61.77,44.02637ZM49,62c-7.66113,0-13-4.74316-13-9,0-4.99219,1.04785-6.49707,3.55469-8.168a5.08635,5.08635,0,0,0,2.32812-4.6416,5.515,5.515,0,0,0-.6875-2.33887c1.17041.04883,2.48877.36231,2.856,1.46485A1,1,0,0,0,46,39a4.212,4.212,0,0,1,3.24268-4.03027,3.82185,3.82185,0,0,0,2.98291-2.748,6.02281,6.02281,0,0,0-.09375-3.13281c2.46728,1.50781,5.68847,4.69726,3.91943,10.59472-2.05518,6.166-1.15332,7.88379,1.50146,9.21094a3.40651,3.40651,0,0,0,3.37452-.167,4.22574,4.22574,0,0,0,.78222-.626A36.24106,36.24106,0,0,1,62,53C62,58.29883,56.6543,62,49,62Z"/><path d="M49.51465,44.14258a.99993.99993,0,0,0-1.48486,1.09961,6.77511,6.77511,0,0,1,.03955,3.52051,7.15115,7.15115,0,0,0-2.75293-1.71094.99985.99985,0,0,0-1.26514,1.26465c.3418,1.02441-.15479,1.65136-1.13623,2.76074A5.88427,5.88427,0,0,0,41,55c0,3.25,1.07715,4.49121,1.293,4.707a.98514.98514,0,0,0,1.37549.01172,1.01679,1.01679,0,0,0,.063-1.40039C43.72412,58.30957,43,57.44434,43,55a4.091,4.091,0,0,1,1.4126-2.59766,6.33208,6.33208,0,0,0,1.66992-2.72461A1.82846,1.82846,0,0,1,47,51a.99991.99991,0,0,0,1.707.707,6.5403,6.5403,0,0,0,1.5708-4.34375A9.54561,9.54561,0,0,1,53,54a6.712,6.712,0,0,1-1.707,4.293A.99989.99989,0,1,0,52.707,59.707,8.64671,8.64671,0,0,0,55,54,12.0072,12.0072,0,0,0,49.51465,44.14258Z"/><path d="M43,19V15a.99974.99974,0,0,0-1-1H35V6h7a.99974.99974,0,0,0,1-1V1a.99974.99974,0,0,0-1-1H32a3.00328,3.00328,0,0,0-3,3V17a3.00328,3.00328,0,0,0,3,3H42A.99974.99974,0,0,0,43,19Zm-2-1H32a1.001,1.001,0,0,1-1-1V3a1.001,1.001,0,0,1,1-1h9V4H34a.99974.99974,0,0,0-1,1V15a.99974.99974,0,0,0,1,1h7Z"/><path d="M22,6h4a.99974.99974,0,0,0,1-1V1a.99974.99974,0,0,0-1-1H22a.99974.99974,0,0,0-1,1V5A.99974.99974,0,0,0,22,6Zm1-4h2V4H23Z"/><path d="M5,8A.99974.99974,0,0,0,6,7V5A1,1,0,0,0,4,5V7A.99974.99974,0,0,0,5,8Z"/><path d="M6,11a1,1,0,0,0-2,0v2a1,1,0,0,0,2,0Z"/><path d="M7,10H9A1,1,0,0,0,9,8H7a1,1,0,0,0,0,2Z"/><path d="M3,8H1a1,1,0,0,0,0,2H3A1,1,0,0,0,3,8Z"/><path d="M59,19a.99974.99974,0,0,0,1-1V16a1,1,0,0,0-2,0v2A.99974.99974,0,0,0,59,19Z"/><path d="M59,21a.99974.99974,0,0,0-1,1v2a1,1,0,0,0,2,0V22A.99974.99974,0,0,0,59,21Z"/><path d="M61,21h2a1,1,0,0,0,0-2H61a1,1,0,0,0,0,2Z"/><path d="M55,21h2a1,1,0,0,0,0-2H55a1,1,0,0,0,0,2Z"/></svg>
