<svg id="Layer_1" height="512" viewBox="0 0 64 64" width="512" xmlns="http://www.w3.org/2000/svg" data-name="Layer 1"><circle cx="5" cy="9" fill="#6ee1ef" r="5"/><circle cx="59" cy="24" fill="#6ee1ef" r="5"/><path d="m22 47.30524v-28.30524a6 6 0 0 0 -12 0v28.30524a9 9 0 1 0 12 0z" fill="#f1f2f2"/><path d="m18 49.42212v-3.42212h-4v3.42212a5 5 0 1 0 4 0z" fill="#6ee1ef"/><path d="m16 56a4.9832 4.9832 0 0 1 -4.75555-3.5321 5 5 0 1 0 9.5111 0 4.9832 4.9832 0 0 1 -4.75555 3.5321z" fill="#5fb1d7"/><g fill="#6ee1ef"><path d="m44 35 5 5v6l-2 1-4-4v-8z"/><path d="m54 35-5 5v6l2 1 4-4v-8z"/><path d="m44 63 5-5v-6l-2-1-4 4v8z"/><path d="m54 63-5-5v-6l2-1 4 4v8z"/><path d="m35 54 5-5h6l1 2-4 4h-8z"/><path d="m35 44 5 5h6l1-2-4-4h-8z"/><path d="m63 54-5-5h-6l-1 2 4 4h8z"/><path d="m63 44-5 5h-6l-1-2 4-4h8z"/></g><circle cx="49" cy="49" fill="#5fb1d7" r="3"/><path d="m42 19h-10a2.0001 2.0001 0 0 1 -2-2v-14a2.0001 2.0001 0 0 1 2-2h10v4h-8v10h8z" fill="#ffd241"/><path d="m22 1h4v4h-4z" fill="#ffd241"/><path d="m43 19v-4a.99974.99974 0 0 0 -1-1h-7v-8h7a.99974.99974 0 0 0 1-1v-4a.99974.99974 0 0 0 -1-1h-10a3.00328 3.00328 0 0 0 -3 3v14a3.00328 3.00328 0 0 0 3 3h10a.99974.99974 0 0 0 1-1zm-2-1h-9a1.001 1.001 0 0 1 -1-1v-14a1.001 1.001 0 0 1 1-1h9v2h-7a.99974.99974 0 0 0 -1 1v10a.99974.99974 0 0 0 1 1h7z"/><path d="m22 6h4a.99974.99974 0 0 0 1-1v-4a.99974.99974 0 0 0 -1-1h-4a.99974.99974 0 0 0 -1 1v4a.99974.99974 0 0 0 1 1zm1-4h2v2h-2z"/><path d="m5 8a.99974.99974 0 0 0 1-1v-2a1 1 0 0 0 -2 0v2a.99974.99974 0 0 0 1 1z"/><path d="m6 11a1 1 0 0 0 -2 0v2a1 1 0 0 0 2 0z"/><path d="m7 10h2a1 1 0 0 0 0-2h-2a1 1 0 0 0 0 2z"/><path d="m3 8h-2a1 1 0 0 0 0 2h2a1 1 0 0 0 0-2z"/><path d="m59 23a.99974.99974 0 0 0 1-1v-2a1 1 0 0 0 -2 0v2a.99974.99974 0 0 0 1 1z"/><path d="m59 25a.99974.99974 0 0 0 -1 1v2a1 1 0 0 0 2 0v-2a.99974.99974 0 0 0 -1-1z"/><path d="m61 25h2a1 1 0 0 0 0-2h-2a1 1 0 0 0 0 2z"/><path d="m55 25h2a1 1 0 0 0 0-2h-2a1 1 0 0 0 0 2z"/><path d="m26 25h4v2h-4z"/><path d="m26 29h4v2h-4z"/><path d="m26 33h4v2h-4z"/><path d="m26 37h4v2h-4z"/><path d="m26 41h4v2h-4z"/><path d="m26 45h4v2h-4z"/><path d="m23 19a7 7 0 0 0 -14 0v27.87305a10 10 0 1 0 14 0zm1 35a8 8 0 1 1 -13.33252-5.9502.99923.99923 0 0 0 .33252-.74414v-28.30566a5 5 0 0 1 10 0v28.30566a.99923.99923 0 0 0 .33252.74414 8.009 8.009 0 0 1 2.66748 5.9502z"/><path d="m19 48.80859v-2.80859a.99974.99974 0 0 0 -1-1h-4a.99974.99974 0 0 0 -1 1v2.80859a6 6 0 1 0 6 0zm-3 9.19141a3.99738 3.99738 0 0 1 -1.59912-7.66211.99985.99985 0 0 0 .59912-.91601v-2.42188h2v2.42188a.99985.99985 0 0 0 .59912.916 3.99738 3.99738 0 0 1 -1.59912 7.66212z"/><path d="m17 40h2v2h-2z"/><path d="m17 36h2v2h-2z"/><path d="m17 32h2v2h-2z"/><path d="m17 28h2v2h-2z"/><path d="m17 24h2v2h-2z"/><path d="m13 40h2v2h-2z"/><path d="m13 36h2v2h-2z"/><path d="m13 32h2v2h-2z"/><path d="m13 28h2v2h-2z"/><path d="m13 24h2v2h-2z"/><path d="m13 20h6v2h-6z"/><path d="m63.64014 44.76855a1.00088 1.00088 0 0 0 .12793-1.40917.97373.97373 0 0 0 -.45142-.28937.97355.97355 0 0 0 .1145-.52509.99886.99886 0 0 0 -1.08642-.90527l-5.02747.45715 2.99622-2.99621-1.41407-1.41407-2.99676 2.99677.45721-5.027a1.00014 1.00014 0 0 0 -.90576-1.08691.97866.97866 0 0 0 -.52368.11486.97143.97143 0 0 0 -.29028-.45275 1.001 1.001 0 0 0 -1.40821.12793l-3.23193 3.87813v-4.23755h-2v4.23755l-3.23193-3.87817a.99939.99939 0 0 0 -1.40821-.12793.97146.97146 0 0 0 -.29059.45373.98441.98441 0 0 0 -.52337-.11584 1.00014 1.00014 0 0 0 -.90576 1.08691l.45721 5.027-2.99676-2.99677-1.41407 1.41407 2.99622 2.99621-5.02747-.45715a.99639.99639 0 0 0 -1.08642.90527.97348.97348 0 0 0 .11438.5249.96933.96933 0 0 0 -.4513.28956 1.00088 1.00088 0 0 0 .12793 1.40917l3.87806 3.23149h-4.23792v2h4.23792l-3.87806 3.23145a1.00088 1.00088 0 0 0 -.12793 1.40917.96931.96931 0 0 0 .45087.29041.97386.97386 0 0 0 -.114.52405.9979.9979 0 0 0 1.08642.90527l5.02747-.45715-2.99622 2.99621 1.41407 1.41407 2.99676-2.99677-.45721 5.027a1.00014 1.00014 0 0 0 .90576 1.08691c.03076.00293.061.00391.09131.00391a.97661.97661 0 0 0 .4342-.11243.97165.97165 0 0 0 .28845.44641 1.001 1.001 0 0 0 1.40821-.12793l3.23198-3.87813v4.23755h2v-4.23755l3.23193 3.87817a1.00068 1.00068 0 0 0 1.40821.12793.97165.97165 0 0 0 .28845-.44641.97661.97661 0 0 0 .4342.11243c.03028 0 .06055-.001.09131-.00391a1.00014 1.00014 0 0 0 .90576-1.08691l-.45721-5.027 2.99676 2.99677 1.41407-1.41407-2.99622-2.99625 5.02747.45715a1.00135 1.00135 0 0 0 1.08642-.90527.97386.97386 0 0 0 -.114-.52405.96931.96931 0 0 0 .45087-.29041 1.00088 1.00088 0 0 0 -.12793-1.40917l-3.87801-3.23145h4.23792v-2h-4.23792zm-1.83985-1.0708-5.16272 4.30225h-3.77957a3.95981 3.95981 0 0 0 -.42474-1.01923l2.67474-2.67477zm-12.80029 7.30225a2 2 0 1 1 2-2 2.00229 2.00229 0 0 1 -2 2zm5.3017-14.79974-.6084 6.69238-2.67413 2.67413a3.95941 3.95941 0 0 0 -1.01917-.42477v-3.7797zm-10.6034 0 4.3017 5.16204v3.7797a3.95941 3.95941 0 0 0 -1.01917.42474l-2.67413-2.6741zm-7.49859 7.49749 6.69229.60825 2.67474 2.67474a3.95981 3.95981 0 0 0 -.42474 1.01926h-3.77957zm0 10.6045 5.16272-4.30225h3.77957a3.95981 3.95981 0 0 0 .42474 1.01923l-2.67474 2.67477zm7.49859 7.49749.6084-6.69238 2.67413-2.67413a3.95941 3.95941 0 0 0 1.01917.42477v3.7797zm10.6034 0-4.3017-5.16204v-3.7797a3.95941 3.95941 0 0 0 1.01917-.42474l2.67413 2.67413zm7.49859-7.49749-6.69229-.60825-2.67474-2.67474a3.95981 3.95981 0 0 0 .42474-1.01926h3.77954z"/></svg>