<?xml version="1.0"?>
<svg xmlns="http://www.w3.org/2000/svg" id="Layer_1" data-name="Layer 1" viewBox="0 0 64 64" width="512" height="512"><circle cx="16" cy="53" r="5" style="fill:#6ee1ef"/><circle cx="53" cy="46" r="5" style="fill:#6ee1ef"/><path d="M7,20a3,3,0,0,1-6,0c0-1.65685,3-7,3-7S7,18.34315,7,20Z" style="fill:#6ee1ef"/><path d="M4,13s-.19757.35236-.48969.90033A13.5841,13.5841,0,0,1,5,18a3,3,0,0,1-3,3,2.96729,2.96729,0,0,1-.8598-.1402A2.99178,2.99178,0,0,0,7,20C7,18.34314,4,13,4,13Z" style="fill:#5fb1d7"/><path d="M22,10a3,3,0,0,1-6,0c0-1.65685,3-7,3-7S22,8.34315,22,10Z" style="fill:#6ee1ef"/><path d="M19,3s-.19757.35236-.48969.90033A13.5841,13.5841,0,0,1,20,8a3,3,0,0,1-3,3,2.96729,2.96729,0,0,1-.8598-.1402A2.99178,2.99178,0,0,0,22,10C22,8.34314,19,3,19,3Z" style="fill:#5fb1d7"/><path d="M50.5,8a3,3,0,0,1-6,0c0-1.65685,3-7,3-7S50.5,6.34315,50.5,8Z" style="fill:#6ee1ef"/><path d="M47.5,1s-.19757.35236-.48969.90033A13.5841,13.5841,0,0,1,48.5,6a3,3,0,0,1-3,3,2.96729,2.96729,0,0,1-.8598-.1402A2.99178,2.99178,0,0,0,50.5,8C50.5,6.34314,47.5,1,47.5,1Z" style="fill:#5fb1d7"/><path d="M63,15a3,3,0,0,1-6,0c0-1.65685,3-7,3-7S63,13.34315,63,15Z" style="fill:#6ee1ef"/><path d="M60,8s-.19757.35236-.48969.90033A13.5841,13.5841,0,0,1,61,13a3,3,0,0,1-3,3,2.96729,2.96729,0,0,1-.8598-.1402A2.99178,2.99178,0,0,0,63,15C63,13.34314,60,8,60,8Z" style="fill:#5fb1d7"/><path d="M34,31V57a2,2,0,0,0,4,0V55a2,2,0,0,1,4,0v2a6,6,0,0,1-12,0V31Z" style="fill:#ffd241"/><path d="M30,15V13a2,2,0,0,1,2-2h0a2,2,0,0,1,2,2v2Z" style="fill:#ffd241"/><path d="M32,34c7,0,11,3,11,3,6-5,15-2,15-2,0-9.94113-13.84974-20-26-20S6,25.05887,6,35c0,0,9-3,15,2C21,37,25,34,32,34Z" style="fill:#f1f2f2"/><path d="M43,33s-4-3-11-3-11,3-11,3c-4.92487-4.10406-11.86151-2.81989-14.19263-2.22729A12.12723,12.12723,0,0,0,6,35s9-3,15,2c0,0,4-3,11-3s11,3,11,3c6-5,15-2,15-2a12.12723,12.12723,0,0,0-.80737-4.22729C54.86151,30.18011,47.92487,28.89594,43,33Z" style="fill:#d1d3d4"/><path d="M43,37C42,25,32,15,32,15S22,25,21,37a23.864,23.864,0,0,1,11-3A23.864,23.864,0,0,1,43,37Z" style="fill:#ef4136"/><path d="M32,30a20.63591,20.63591,0,0,0-10.20966,2.5A26.17258,26.17258,0,0,0,21,37a23.864,23.864,0,0,1,11-3,23.864,23.864,0,0,1,11,3,26.17258,26.17258,0,0,0-.79034-4.5A20.63591,20.63591,0,0,0,32,30Z" style="fill:#be3c36"/><path d="M34,51v6a2,2,0,0,0,4,0V55a2,2,0,0,1,4,0v2a6,6,0,0,1-12,0V51Z" style="fill:#ef4136"/><path d="M35,14.18939V13a3,3,0,0,0-6,0v1.18939C16.84814,15.64545,5,25.57007,5,35a1.0009,1.0009,0,0,0,1.31543.94922c.08447-.02832,8.5542-2.75586,14.04443,1.81933a1.00279,1.00279,0,0,0,1.2378.03321A18.67828,18.67828,0,0,1,32,35a18.68294,18.68294,0,0,1,10.3999,2.7998,1.00026,1.00026,0,0,0,1.24024-.03125c5.49072-4.57812,13.95947-1.84863,14.04443-1.81933A1.0009,1.0009,0,0,0,59,35C59,25.57007,47.15186,15.64545,35,14.18939ZM31,13a1,1,0,0,1,2,0v1.02539C32.66644,14.01166,32.33282,14,32,14s-.66644.01166-1,.02539ZM7.0918,33.6709c1.09826-8.071,11.90667-16.41944,22.53705-17.53986-2.76978,3.25647-8.114,10.50366-9.40735,19.08344C15.4707,32.26794,9.71155,33.07062,7.0918,33.6709Zm15.15612,1.46045C23.72925,26.31647,29.89374,18.81372,32,16.4668c2.10626,2.34692,8.27075,9.84967,9.75208,18.66455A22.1057,22.1057,0,0,0,32,33,22.1057,22.1057,0,0,0,22.24792,35.13135Zm21.53058.08331c-1.29327-8.57983-6.63757-15.82709-9.40735-19.08362C45.00153,17.25146,55.80994,25.59991,56.9082,33.6709,54.28705,33.07153,48.52838,32.26971,43.7785,35.21466Z"/><path d="M40,52a3.00328,3.00328,0,0,0-3,3v2a1,1,0,0,1-2,0V37a1,1,0,0,0-2,0V50H31V37a1,1,0,0,0-2,0V57a7,7,0,0,0,14,0V55A3.00328,3.00328,0,0,0,40,52Zm1,5a5,5,0,0,1-10,0V52h2v5a3,3,0,0,0,6,0V55a1,1,0,0,1,2,0Z"/><path d="M47.478,11.9624a4.00427,4.00427,0,0,0,4-4c0-1.82617-2.60547-6.55957-3.12793-7.48926a1.04025,1.04025,0,0,0-1.74414,0C46.0835,1.40283,43.478,6.13623,43.478,7.9624A4.00426,4.00426,0,0,0,47.478,11.9624Zm0-8.88769a19.05617,19.05617,0,0,1,2,4.88769,2,2,0,1,1-4,0A19.05617,19.05617,0,0,1,47.478,3.07471Z"/><path d="M60.87207,7.51074a1.04024,1.04024,0,0,0-1.74414,0C58.60547,8.44043,56,13.17383,56,15a4,4,0,0,0,8,0C64,13.17383,61.39453,8.44043,60.87207,7.51074ZM60,17a2.00229,2.00229,0,0,1-2-2,19.05619,19.05619,0,0,1,2-4.8877A19.05619,19.05619,0,0,1,62,15,2.00229,2.00229,0,0,1,60,17Z"/><path d="M8,20c0-1.82617-2.60547-6.55957-3.12793-7.48926a1.04024,1.04024,0,0,0-1.74414,0C2.60547,13.44043,0,18.17383,0,20a4,4,0,0,0,8,0ZM4,22a2.00229,2.00229,0,0,1-2-2,19.05619,19.05619,0,0,1,2-4.8877A19.05619,19.05619,0,0,1,6,20,2.00229,2.00229,0,0,1,4,22Z"/><path d="M19,14a4.00427,4.00427,0,0,0,4-4c0-1.82617-2.60547-6.55957-3.12793-7.48926a1.04024,1.04024,0,0,0-1.74414,0C17.60547,3.44043,15,8.17383,15,10A4.00427,4.00427,0,0,0,19,14Zm0-8.8877A19.05619,19.05619,0,0,1,21,10a2,2,0,0,1-4,0A19.05619,19.05619,0,0,1,19,5.1123Z"/><path d="M16,52a.99974.99974,0,0,0,1-1V49a1,1,0,0,0-2,0v2A.99974.99974,0,0,0,16,52Z"/><path d="M16,54a.99974.99974,0,0,0-1,1v2a1,1,0,0,0,2,0V55A.99974.99974,0,0,0,16,54Z"/><path d="M20,52H18a1,1,0,0,0,0,2h2a1,1,0,0,0,0-2Z"/><path d="M14,52H12a1,1,0,0,0,0,2h2a1,1,0,0,0,0-2Z"/><path d="M53,45a.99974.99974,0,0,0,1-1V42a1,1,0,0,0-2,0v2A.99974.99974,0,0,0,53,45Z"/><path d="M53,47a.99974.99974,0,0,0-1,1v2a1,1,0,0,0,2,0V48A.99974.99974,0,0,0,53,47Z"/><path d="M57,45H55a1,1,0,0,0,0,2h2a1,1,0,0,0,0-2Z"/><path d="M51,45H49a1,1,0,0,0,0,2h2a1,1,0,0,0,0-2Z"/></svg>
