<svg id="Layer_1" height="512" viewBox="0 0 64 64" width="512" xmlns="http://www.w3.org/2000/svg" data-name="Layer 1"><circle cx="46" cy="26" fill="#f7941d" r="5"/><circle cx="7" cy="51" fill="#f7941d" r="5"/><path d="m17 49v-5l13-7 5 3v3l-5-2-10 6v2z" fill="#be3c36"/><path d="m20 49h-3v4h3s1 10 9 10 10-4 10-7 0-7-8-7z" fill="#ef4136"/><path d="m24 53h11s0 6-5 6-6-6-6-6z" fill="#808285"/><path d="m63 49v-5l-13-7-5 3v3l5-2 10 6v2z" fill="#be3c36"/><path d="m60 49h3v4h-3s-1 10-9 10-10-4-10-7 0-7 8-7z" fill="#ef4136"/><path d="m56 53h-11s0 6 5 6 6-6 6-6z" fill="#808285"/><path d="m58 5a4.96255 4.96255 0 0 0 -2.05524.45209 4.98466 4.98466 0 1 0 -9.78644 1.73846 3.95493 3.95493 0 0 0 -1.15832-.19055 4 4 0 0 0 0 8h13a5 5 0 0 0 0-10z" fill="#f1f2f2"/><path d="m58 13h-13a3.99073 3.99073 0 0 1 -3.85858-3 3.95152 3.95152 0 0 0 3.85858 5h13a5.00112 5.00112 0 0 0 4.89923-6 5.00112 5.00112 0 0 1 -4.89923 4z" fill="#d1d3d4"/><g fill="#ec6f1d"><path d="m20 7-2-6-2 6z"/><path d="m11.636 8.808-5.657-2.829 2.829 5.657z"/><path d="m7 16-6 2 6 2z"/><path d="m8.808 24.364-2.829 5.657 5.657-2.829z"/><path d="m16 29 2 6 2-6z"/><path d="m24.364 27.192 5.657 2.829-2.829-5.657z"/><path d="m29 20 6-2-6-2z"/><path d="m27.192 11.636 2.829-5.657-5.657 2.829z"/></g><circle cx="18" cy="18" fill="#ffb028" r="9"/><path d="m22.989 10.511a8.99811 8.99811 0 0 1 -12.478 12.478 8.99893 8.99893 0 1 0 12.478-12.478z" fill="#f7941d"/><path d="m14.57031 16.5a.99991.99991 0 0 1 -.89355-1.44727 8.47867 8.47867 0 0 1 3.44724-3.44726 1.00012 1.00012 0 0 1 .89649 1.78808 6.507 6.507 0 0 0 -2.55469 2.55372 1.00012 1.00012 0 0 1 -.89549.55273z" fill="#f1f2f2"/><path d="m13 17h2v2h-2z" fill="#f1f2f2"/><path d="m15.62891 6.92871a1.00169 1.00169 0 0 0 1.2998-.55762l1.07129-2.67871 1.07129 2.67871a1.00011 1.00011 0 0 0 1.85742-.74218l-2-5a1.00017 1.00017 0 0 0 -1.85742 0l-2 5a1.0003 1.0003 0 0 0 .55762 1.2998z"/><path d="m7.18164 11.32227a.99821.99821 0 0 0 .919.60644.98332.98332 0 0 0 .39355-.08105.99945.99945 0 0 0 .52539-1.3125l-1.13579-2.65137 2.65137 1.13574a.99967.99967 0 0 0 .78711-1.83789l-4.94922-2.12109a.99954.99954 0 0 0 -1.3125 1.3125z"/><path d="m6 21a1 1 0 0 0 .37109-1.92871l-2.67871-1.07129 2.67871-1.07129a1.00011 1.00011 0 1 0 -.74218-1.85742l-5 2a1.00017 1.00017 0 0 0 0 1.85742l5 2a.9902.9902 0 0 0 .37109.07129z"/><path d="m11.84766 27.50586a.997.997 0 0 0 -1.3125-.52539l-2.65137 1.13574 1.13574-2.65137a.99967.99967 0 0 0 -1.83789-.78711l-2.12109 4.94927a.99931.99931 0 0 0 1.3125 1.3125l4.94922-2.12109a.99945.99945 0 0 0 .52539-1.31255z"/><path d="m18 36a1.00045 1.00045 0 0 0 .92871-.62891l2-5a1.00011 1.00011 0 1 0 -1.85742-.74218l-1.07129 2.67871-1.07129-2.67871a1.00011 1.00011 0 0 0 -1.85742.74218l2 5a1.00045 1.00045 0 0 0 .92871.62891z"/><path d="m30.02051 31.02051a.99981.99981 0 0 0 .91894-1.39356l-2.12109-4.94922a.99967.99967 0 1 0 -1.83789.78711l1.13574 2.65137-2.65137-1.13574a.99967.99967 0 0 0 -.78711 1.83789l4.94927 2.12109a.99326.99326 0 0 0 .39351.08106z"/><path d="m29.07129 15.62891a1.0003 1.0003 0 0 0 .55762 1.2998l2.67871 1.07129-2.67871 1.07129a1 1 0 0 0 .37109 1.92871.9902.9902 0 0 0 .37109-.07129l5-2a1.00017 1.00017 0 0 0 0-1.85742l-5-2a1.00122 1.00122 0 0 0 -1.2998.55762z"/><path d="m24.15234 8.49414a.99863.99863 0 0 0 1.3125.52539l2.65137-1.13574-1.13574 2.65137a.99945.99945 0 0 0 .52539 1.3125.98332.98332 0 0 0 .39355.08105.99821.99821 0 0 0 .91895-.60644l2.12109-4.94922a.99954.99954 0 0 0 -1.3125-1.3125l-4.94922 2.12109a.99945.99945 0 0 0 -.52539 1.3125z"/><path d="m12.10547 6.44727a1.00012 1.00012 0 1 0 1.78906-.89454l-2-4a1.00012 1.00012 0 0 0 -1.78906.89454z"/><path d="m1.41992 12.584 4.24317 1.41407a.99964.99964 0 0 0 .63281-1.89649l-4.24317-1.41408a.99964.99964 0 0 0 -.63281 1.8965z"/><path d="m2.44727 25.89453 4-2a1.00012 1.00012 0 0 0 -.89454-1.78906l-4 2a1.00012 1.00012 0 0 0 .89454 1.78906z"/><path d="m13.36621 29.07227a.99639.99639 0 0 0 -1.26465.63183l-1.41406 4.24317a.99964.99964 0 1 0 1.89648.63281l1.41407-4.24317a.99914.99914 0 0 0 -.63184-1.26464z"/><path d="m24.10547 34.44727a1.00012 1.00012 0 0 0 1.78906-.89454l-2-4a1.00012 1.00012 0 1 0 -1.78906.89454z"/><path d="m34.26367 25.36426a.99986.99986 0 0 0 .31641-1.94824l-4.24317-1.41402a.99964.99964 0 0 0 -.63281 1.89649l4.24317 1.41406a.99815.99815 0 0 0 .3164.05171z"/><path d="m29.10547 13.44727a1.00046 1.00046 0 0 0 1.3418.44726l4-2a1.00012 1.00012 0 0 0 -.89454-1.78906l-4 2a1 1 0 0 0 -.44726 1.3418z"/><path d="m22.63379 6.92773a.99827.99827 0 0 0 1.26465-.63183l1.41406-4.24317a.99964.99964 0 0 0 -1.8965-.63281l-1.414 4.24317a.99914.99914 0 0 0 .63179 1.26464z"/><path d="m15.124 11.60547a8.47873 8.47873 0 0 0 -3.44726 3.44726 1.00012 1.00012 0 0 0 1.78906.89454 6.507 6.507 0 0 1 2.55469-2.55372 1.00012 1.00012 0 0 0 -.89649-1.78808z"/><path d="m11 17h2v2h-2z"/><path d="m28 18a10 10 0 1 0 -10 10 10.01177 10.01177 0 0 0 10-10zm-18 0a8 8 0 1 1 8 8 8.00917 8.00917 0 0 1 -8-8z"/><path d="m31 48h-14a.99943.99943 0 0 0 -1 1v4a.99943.99943 0 0 0 1 1h2.12793c.66507 3.89941 3.35645 10 9.87207 10 10.207 0 11-6.123 11-8 0-2.99219 0-8-9-8zm-2 14c-6.99023 0-7.9668-8.72949-8.00488-9.10059a1.00143 1.00143 0 0 0 -.99512-.89941h-2v-2h13c7 0 7 3.0498 7 6 0 1.80371-.87695 6-9 6z"/><path d="m35 52h-11a1.00015 1.00015 0 0 0 -.98633 1.16406c.39356 2.36426 2.36133 6.83594 6.98633 6.83594 4.74609 0 6-4.5791 6-7a.99943.99943 0 0 0 -1-1zm-5 6c-2.88281 0-4.17676-2.47363-4.70117-4h8.61328c-.22754 1.46191-1.03511 4-3.91211 4z"/><path d="m49 48c-9 0-9 5.00781-9 8 0 1.877.793 8 11 8 6.51562 0 9.207-6.10059 9.87207-10h2.12793a.99943.99943 0 0 0 1-1v-4a.99943.99943 0 0 0 -1-1zm13 4h-2a1.00143 1.00143 0 0 0 -.99512.89941c-.03808.3711-1.01465 9.10059-8.00488 9.10059-8.123 0-9-4.19629-9-6 0-2.9502 0-6 7-6h13z"/><path d="m44 53c0 2.4209 1.25391 7 6 7 4.625 0 6.59277-4.47168 6.98633-6.83594a1.00015 1.00015 0 0 0 -.98633-1.16406h-11a.99943.99943 0 0 0 -1 1zm10.70117 1c-.52441 1.52637-1.81836 4-4.70117 4-2.8584 0-3.67383-2.53809-3.90723-4z"/><path d="m63.47363 43.11914-13-7a1.007 1.007 0 0 0 -.98828.02344l-5 3a1.00022 1.00022 0 0 0 -.48535.85742v3a1.00012 1.00012 0 0 0 1.37109.92871l4.54-1.81641 9.57422 5.74512a1 1 0 0 0 1.0293-1.71484l-10-6a1.00148 1.00148 0 0 0 -.88574-.07129l-3.62887 1.45215v-.957l4.02637-2.416 11.97363 6.44722v2.40234a1 1 0 0 0 2 0v-3a1.00058 1.00058 0 0 0 -.52637-.88086z"/><path d="m18 47v-2.40234l11.97363-6.44727 4.02637 2.41602v.957l-3.62891-1.45215a.99213.99213 0 0 0 -.88574.07129l-10 6a1 1 0 0 0 1.0293 1.71484l9.57422-5.74512 4.54 1.81641a1.00012 1.00012 0 0 0 1.37113-.92868v-3a1.00022 1.00022 0 0 0 -.48535-.85742l-5-3a1.002 1.002 0 0 0 -.98828-.02344l-13 7a1.00058 1.00058 0 0 0 -.52637.88086v3a1 1 0 0 0 2 0z"/><path d="m45 16h13a6 6 0 0 0 0-12 5.85122 5.85122 0 0 0 -1.31543.15039 5.98656 5.98656 0 0 0 -11.68457 1.84961 5 5 0 0 0 0 10zm0-8a2.94248 2.94248 0 0 1 .86719.14746 1.01583 1.01583 0 0 0 .97851-.23046 1.00173 1.00173 0 0 0 .28418-.96387 3.95014 3.95014 0 0 1 -.12988-.95313 3.98647 3.98647 0 0 1 7.9502-.43848 1.001 1.001 0 0 0 1.40625.80176 3.99607 3.99607 0 1 1 1.64355 7.63672h-13a3 3 0 0 1 0-6z"/><path d="m6 47v2a1 1 0 0 0 2 0v-2a1 1 0 0 0 -2 0z"/><path d="m7 52a.99943.99943 0 0 0 -1 1v2a1 1 0 0 0 2 0v-2a.99943.99943 0 0 0 -1-1z"/><path d="m11 50h-2a1 1 0 0 0 0 2h2a1 1 0 0 0 0-2z"/><path d="m5 50h-2a1 1 0 0 0 0 2h2a1 1 0 0 0 0-2z"/><path d="m47 22a1 1 0 0 0 -2 0v2a1 1 0 0 0 2 0z"/><path d="m46 31a.99943.99943 0 0 0 1-1v-2a1 1 0 0 0 -2 0v2a.99943.99943 0 0 0 1 1z"/><path d="m48 27h2a1 1 0 0 0 0-2h-2a1 1 0 0 0 0 2z"/><path d="m44 25h-2a1 1 0 0 0 0 2h2a1 1 0 0 0 0-2z"/></svg>