<?xml version="1.0"?>
<svg xmlns="http://www.w3.org/2000/svg" id="Layer_1" data-name="Layer 1" viewBox="0 0 64 64" width="512" height="512"><circle cx="54" cy="8" r="5" style="fill:#6ee1ef"/><path d="M61,31a64.53706,64.53706,0,0,1,2,16,35.5484,35.5484,0,0,1-4,16l-7-3s6-11,6-17a31.39322,31.39322,0,0,0-1-9Z" style="fill:#824f31"/><path d="M55,34s1,12-5,20l-6-3s8-9,7-16Z" style="fill:#824f31"/><path d="M61,21.0001S57,17,44,17s-17,4-17,4l7,3s3-2,10-2,10,2,10,2Z" style="fill:#824f31"/><path d="M61,31.00011s-4,4-17,4-17-4-17-4V21s4,4.00011,17,4.00011,17-4,17-4Z" style="fill:#a97c50"/><path d="M61,21.00011s-4,4-17,4S27,21,27,21v6h5l2.23719,2.97174,3.52159-1.35384,2.989,2.29238L44,29.00011,47.25787,30.91l2.98426-2.29217,3.521,1.35388L56.07643,27H61Z" style="fill:#ef4136"/><path d="M18,42s2-3,2-9-7-7-7-7-3,2-3,8C10,41,18,42,18,42Z" style="fill:#ef4136"/><path d="M13.03058,26.00494A6.51892,6.51892,0,0,1,17,32c0,6-2,9-2,9l3,1s2-3,2-9C20,27.14594,13.3548,26.05475,13.03058,26.00494Z" style="fill:#be3c36"/><path d="M9,63s2-3,2-9-7-7-7-7-3,2-3,8C1,62,9,63,9,63Z" style="fill:#ffd241"/><path d="M4.03058,47.00494A6.51892,6.51892,0,0,1,8,53c0,6-2,9-2,9l3,1s2-3,2-9C11,48.14594,4.3548,47.05475,4.03058,47.00494Z" style="fill:#ffb028"/><path d="M40,51a7.618,7.618,0,0,1-4.14648-1.12207,6.23071,6.23071,0,0,0-6.37793,0A7.617,7.617,0,0,1,25.33008,51a7.61579,7.61579,0,0,1-4.14453-1.12207A5.68589,5.68589,0,0,0,18,49a1,1,0,0,1,0-2,7.61579,7.61579,0,0,1,4.14453,1.12207A5.68589,5.68589,0,0,0,25.33008,49a5.69913,5.69913,0,0,0,3.18848-.87793A7.618,7.618,0,0,1,32.665,47a7.617,7.617,0,0,1,4.14551,1.12207A5.70019,5.70019,0,0,0,40,49a1,1,0,0,1,0,2Z" style="fill:#6ee1ef"/><path d="M38,59a7.618,7.618,0,0,1-4.14648-1.12207,6.23071,6.23071,0,0,0-6.37793,0A7.617,7.617,0,0,1,23.33008,59a7.61579,7.61579,0,0,1-4.14453-1.12207A5.68589,5.68589,0,0,0,16,57a1,1,0,0,1,0-2,7.61579,7.61579,0,0,1,4.14453,1.12207A5.68589,5.68589,0,0,0,23.33008,57a5.69913,5.69913,0,0,0,3.18848-.87793A7.618,7.618,0,0,1,30.665,55a7.617,7.617,0,0,1,4.14551,1.12207A5.70019,5.70019,0,0,0,38,57a1,1,0,0,1,0,2Z" style="fill:#6ee1ef"/><path d="M6,5a4.96255,4.96255,0,0,1,2.05524.45209,4.98466,4.98466,0,1,1,9.78644,1.73846A3.95493,3.95493,0,0,1,19,7a4,4,0,0,1,0,8H6A5,5,0,0,1,6,5Z" style="fill:#f1f2f2"/><path d="M6,13H19a3.99073,3.99073,0,0,0,3.85858-3A3.95152,3.95152,0,0,1,19,15H6A5.00112,5.00112,0,0,1,1.10077,9,5.00112,5.00112,0,0,0,6,13Z" style="fill:#d1d3d4"/><path d="M62,30.86279V21a.989.989,0,0,0-.06628-.34064.96659.96659,0,0,0-.04181-.08807.98373.98373,0,0,0-.15137-.22791c-.01373-.01556-.01862-.03552-.03351-.05041C61.53223,20.11719,57.26172,16,44,16s-17.53223,4.11719-17.707,4.293c-.01489.01489-.01978.03485-.03351.05041a.98373.98373,0,0,0-.15137.22791.96659.96659,0,0,0-.04181.08807A.989.989,0,0,0,26,21V31a.99928.99928,0,0,0,.293.707C26.46777,31.88281,30.73828,36,44,36a53.10809,53.10809,0,0,0,6.04279-.32959c.46466,6.38916-6.71576,14.58093-6.79084,14.66553a1.00118,1.00118,0,0,0,.30078,1.55859l6,3a.99969.99969,0,0,0,1.24707-.29492c5.47376-7.29773,5.356-17.559,5.23212-20.10419l.06647-.01977A32.986,32.986,0,0,1,57,43c0,5.6748-5.81934,16.41309-5.87793,16.52148a.99865.99865,0,0,0,.48438,1.39747l7,3a.99881.99881,0,0,0,1.26171-.42286A36.24076,36.24076,0,0,0,64,47,65.57992,65.57992,0,0,0,62,30.86279ZM28,22.88965C30.294,24.16211,35.13965,26,44,26s13.706-1.83789,16-3.11035V26H56.06934l-.77832.415-1.85743,2.3584-2.833-1.08887a.99812.99812,0,0,0-.96778.14063L47.18262,29.707,44.50586,28.1377a.99982.99982,0,0,0-1.0127,0L40.82227,29.707l-2.45508-1.88281a1.00275,1.00275,0,0,0-.9668-.13965l-2.81738,1.083-1.78418-2.36914L32,26H28Zm9.84253.75787A26.87075,26.87075,0,0,1,44,23a26.84323,26.84323,0,0,1,6.17987.65271A51.49574,51.49574,0,0,1,44,24,50.5893,50.5893,0,0,1,37.84253,23.64752Zm21.434-2.63916a18.61689,18.61689,0,0,1-5.1134,1.93372C53.10858,22.38489,49.89441,21,44,21c-5.8526,0-9.064,1.36584-10.14154,1.9306a19.15589,19.15589,0,0,1-5.13586-1.93847C30.52979,19.91565,35.00055,18,44,18,52.92065,18,57.44391,19.932,59.27655,21.00836ZM28,30.52637V29h3.501l1.9375,1.57324a.99943.99943,0,0,0,1.15722.332l2.999-1.15234,2.54492,1.95117a1.00137,1.00137,0,0,0,1.11523.06836L44,30.15918l2.752,1.61328a.99265.99265,0,0,0,1.11524-.06934l2.53906-1.95019,2.998,1.15234a1.0044,1.0044,0,0,0,1.14355-.31445L56.56445,29H60v1.53418C58.9043,31.35645,54.56055,34,44,34,33.54492,34,29.11133,31.34082,28,30.52637ZM49.68359,52.72363,45.57812,50.6709c2.02631-2.52484,6.95521-9.34784,6.45612-15.27222.71387-.11664,1.38849-.24371,2.01123-.38281C54.12213,37.82532,53.96716,46.42749,49.68359,52.72363Zm8.8545,8.99024-5.14747-2.20606C54.87109,56.6416,59,48.18555,59,43a33.67642,33.67642,0,0,0-1.00824-9.1756,16.34117,16.34117,0,0,0,2.3913-1.15948A66.23826,66.23826,0,0,1,62,47,35.16153,35.16153,0,0,1,58.53809,61.71387Z"/><path d="M9,34c0,6.23535,5.80566,8.6084,8.876,8.99219A1.0711,1.0711,0,0,0,18,43a.99932.99932,0,0,0,.832-.44531C18.9209,42.42188,21,39.23145,21,33c0-4.96411-4.289-7.19855-7.10278-7.84406l-.93238-3.41864a1,1,0,1,0-1.92968.5254l.90728,3.32678C10.98529,26.49908,9,28.986,9,34Zm5.03516-.7373A.9997.9997,0,0,0,14.999,34a.979.979,0,0,0,.26368-.03516.99984.99984,0,0,0,.70214-1.22754l-1.44946-5.31481C16.33673,28.06506,19,29.58557,19,33a18.35134,18.35134,0,0,1-1.53418,7.88672C15.69141,40.49512,11,38.9873,11,34a10.50691,10.50691,0,0,1,1.57709-6.08356Z"/><path d="M4.89722,46.15594,3.96484,42.7373a1,1,0,0,0-1.92968.5254l.90728,3.32678C1.98529,47.49908,0,49.986,0,55c0,6.23535,5.80566,8.6084,8.876,8.99219A1.0711,1.0711,0,0,0,9,64a.99932.99932,0,0,0,.832-.44531C9.9209,63.42188,12,60.23145,12,54,12,49.03589,7.711,46.80145,4.89722,46.15594Zm3.5686,15.73078C6.69141,61.49512,2,59.9873,2,55a10.50691,10.50691,0,0,1,1.57709-6.08356L5.03516,54.2627A.9997.9997,0,0,0,5.999,55a.979.979,0,0,0,.26368-.03516.99984.99984,0,0,0,.70214-1.22754L5.51538,48.42249C7.33673,49.06506,10,50.58557,10,54A18.35134,18.35134,0,0,1,8.46582,61.88672Z"/><path d="M6,16H19A5,5,0,0,0,19,6,5.98675,5.98675,0,0,0,7.31543,4.14941,5.83741,5.83741,0,0,0,6,4,6,6,0,0,0,6,16ZM6,6a3.95223,3.95223,0,0,1,1.64258.36328A1.00026,1.00026,0,0,0,9.0498,5.56152,3.98647,3.98647,0,0,1,17,6a3.92429,3.92429,0,0,1-.12988.95215,1.00049,1.00049,0,0,0,1.26269,1.19531A2.94248,2.94248,0,0,1,19,8a3,3,0,0,1,0,6H6A4,4,0,0,1,6,6Z"/><path d="M40,48a5.70017,5.70017,0,0,1-3.18945-.87793A7.617,7.617,0,0,0,32.665,46a7.61809,7.61809,0,0,0-4.14649,1.12207A5.69907,5.69907,0,0,1,25.33008,48a5.68589,5.68589,0,0,1-3.18555-.87793A7.61579,7.61579,0,0,0,18,46a1,1,0,0,0,0,2,5.68589,5.68589,0,0,1,3.18555.87793A7.61579,7.61579,0,0,0,25.33008,50a7.617,7.617,0,0,0,4.14551-1.12207,6.23071,6.23071,0,0,1,6.37793,0A7.618,7.618,0,0,0,40,50a1,1,0,0,0,0-2Z"/><path d="M38,56a5.70017,5.70017,0,0,1-3.18945-.87793A7.617,7.617,0,0,0,30.665,54a7.61809,7.61809,0,0,0-4.14649,1.12207A5.69907,5.69907,0,0,1,23.33008,56a5.68589,5.68589,0,0,1-3.18555-.87793A7.61579,7.61579,0,0,0,16,54a1,1,0,0,0,0,2,5.68589,5.68589,0,0,1,3.18555.87793A7.61579,7.61579,0,0,0,23.33008,58a7.617,7.617,0,0,0,4.14551-1.12207,6.23071,6.23071,0,0,1,6.37793,0A7.618,7.618,0,0,0,38,58a1,1,0,0,0,0-2Z"/><path d="M54,7a.99943.99943,0,0,0,1-1V4a1,1,0,0,0-2,0V6A.99943.99943,0,0,0,54,7Z"/><path d="M54,9a.99943.99943,0,0,0-1,1v2a1,1,0,0,0,2,0V10A.99943.99943,0,0,0,54,9Z"/><path d="M56,9h2a1,1,0,0,0,0-2H56a1,1,0,0,0,0,2Z"/><path d="M50,9h2a1,1,0,0,0,0-2H50a1,1,0,0,0,0,2Z"/></svg>
