<svg id="Layer_1" height="512" viewBox="0 0 64 64" width="512" xmlns="http://www.w3.org/2000/svg" data-name="Layer 1"><g fill="#f1f2f2"><circle cx="5" cy="28" r="2"/><circle cx="15" cy="22" r="2"/><circle cx="18" cy="33" r="2"/><circle cx="8" cy="47" r="2"/><circle cx="18" cy="56" r="2"/><path d="m6 5a4.96255 4.96255 0 0 1 2.05524.45209 4.98466 4.98466 0 1 1 9.78644 1.73846 3.95493 3.95493 0 0 1 1.15832-.19055 4 4 0 0 1 0 8h-13a5 5 0 0 1 0-10z"/></g><path d="m6 13h13a3.99073 3.99073 0 0 0 3.85858-3 3.95152 3.95152 0 0 1 -3.85858 5h-13a5.00112 5.00112 0 0 1 -4.89923-6 5.00112 5.00112 0 0 0 4.89923 4z" fill="#d1d3d4"/><path d="m50.79791 39a14 14 0 1 1 -23.79791 10 14.44326 14.44326 0 0 1 3.99991-10z" fill="#f1f2f2"/><path d="m50.79791 38.99994h-4a13.988 13.988 0 0 1 -7.79791 23.841 13.99019 13.99019 0 0 0 11.79791-23.841z" fill="#d1d3d4"/><circle cx="41" cy="46" fill="#ef4136" r="2"/><circle cx="41" cy="54" fill="#ef4136" r="2"/><path d="m48.05359 15.30682a29.94515 29.94515 0 0 1 -6.55359.69318 29.13046 29.13046 0 0 1 -7.30493-.87915 11.99482 11.99482 0 0 0 -2.13934 17.87927h17.88861a11.98351 11.98351 0 0 0 -1.89075-17.6933z" fill="#f1f2f2"/><path d="m48.05359 15.30682c-.77954.17682-1.61652.31385-2.48059.426a11.95187 11.95187 0 0 1 1.37134 17.26718l3 .00012a11.98351 11.98351 0 0 0 -1.89075-17.6933z" fill="#d1d3d4"/><path d="m41 24-8 2 8 2z" fill="#ec6f1d"/><path d="m62 12s-3-11-15-11-15 10-15 10h19s5-4 8 2z" fill="#ef4136"/><circle cx="61" cy="14" fill="#f1f2f2" r="2"/><path d="m52 20s3 0 3-4c0-5-9-6-15-6s-11 1-11 4c0 1.83888 1.12749 2.4337 2 3l3-2a24.41681 24.41681 0 0 0 7 1 24.41681 24.41681 0 0 0 7-1z" fill="#d1d3d4"/><rect fill="#ef4136" height="6" rx="2" width="24" x="29" y="33"/><path d="m34 20h2v2h-2z"/><path d="m46 20h2v2h-2z"/><path d="m40.75781 28.96973a.97427.97427 0 0 0 .24219.03027 1.0005 1.0005 0 0 0 1-1v-4a.9997.9997 0 0 0 -1.24219-.96973l-8 2a.99936.99936 0 0 0 0 1.93946zm-.75781-3.68848v1.4375l-2.87695-.71875z"/><path d="m41 43a3 3 0 1 0 3 3 3.00328 3.00328 0 0 0 -3-3zm0 4a1 1 0 1 1 1-1 1.00067 1.00067 0 0 1 -1 1z"/><path d="m41 51a3 3 0 1 0 3 3 3.00328 3.00328 0 0 0 -3-3zm0 4a1 1 0 1 1 1-1 1.00067 1.00067 0 0 1 -1 1z"/><path d="m51 8h2v-1h1v-2h-1v-1h-2v1h-1v2h1z"/><path d="m45 7h2v-1h1v-2h-1v-1h-2v1h-1v2h1z"/><path d="m40 8h2v-1h1v-2h-1v-1h-2v1h-1v2h1z"/><path d="m62.40039 40.2002-2.40039 1.80029v-1.00049a1 1 0 0 0 -2 0v2.50049l-2.4632 1.84741a14.80886 14.80886 0 0 0 -2.91925-5.829 2.99458 2.99458 0 0 0 1.38245-2.5189v-2a2.99434 2.99434 0 0 0 -2.149-2.86212 12.82067 12.82067 0 0 0 1.41327-11.38605c1.30513-.49609 2.73573-1.82683 2.73573-4.75183 0-2.23334-1.35059-3.76794-3.35229-4.81854a4.18543 4.18543 0 0 1 2.62963-.41388 4.44442 4.44442 0 0 1 2.78974 2.609 3.00131 3.00131 0 1 0 4.88507-1.63581l.01269-.00348c-.03222-.11815-3.34668-11.73729-15.96484-11.73729-10.9458 0-14.8913 8.00177-15.75977 10.17267-2.14868.83447-3.24023 2.10986-3.24023 3.82733a4.99019 4.99019 0 0 0 2.05066 4.03583 12.89017 12.89017 0 0 0 .09834 14.10205 2.99434 2.99434 0 0 0 -2.149 2.86212v2a2.99468 2.99468 0 0 0 1.38171 2.51843 14.86206 14.86206 0 0 0 -2.91766 5.83014l-2.33337-1.75012.839-3.35626a.99952.99952 0 0 0 -1.93946-.48438l-.63513 2.53907-2.79548-2.09668a.99961.99961 0 1 0 -1.19922 1.5996l2.47327 1.855-1.19007.397a.99964.99964 0 1 0 .63282 1.89648l2.50286-.83429 3.25049 2.43787q-.06856.71783-.06976 1.44814a15 15 0 0 0 30 0c0-.48663-.02588-.96906-.07123-1.44708l2.97717-2.23292 1.387 1.387a.99989.99989 0 0 0 1.41406-1.414l-1.185-1.185 3.07758-2.30817a.99961.99961 0 1 0 -1.19922-1.5996zm-1.40039-25.2002a1 1 0 1 1 1-1 1.00067 1.00067 0 0 1 -1 1zm-14-13a14.222 14.222 0 0 1 13.595 9.041 2.97675 2.97675 0 0 0 -1.29309.49012 5.8165 5.8165 0 0 0 -3.60562-2.71862 6.98677 6.98677 0 0 0 -5.32129 1.40625l.04364.05469a36.92674 36.92674 0 0 0 -10.41864-1.27344 34.65875 34.65875 0 0 0 -6.22577.47742c1.46948-2.70042 5.19577-7.47742 13.22577-7.47742zm-17 12c0-1.87891 3.73828-3 10-3 6.76758 0 14 1.31348 14 5 0 2.08575-.93073 2.72266-1.53882 2.91626a13.047 13.047 0 0 0 -3.8186-4.41724.99606.99606 0 0 0 -.81055-.168 30.59674 30.59674 0 0 1 -13.38281-.17675 1.00778 1.00778 0 0 0 -.82227.14355 13.0408 13.0408 0 0 0 -2.38055 2.11664 2.9683 2.9683 0 0 1 -1.2464-2.41446zm4.40234 2.2041a32.78035 32.78035 0 0 0 13.41309.17774 10.98106 10.98106 0 0 1 1.66992 15.61816h-16.9707a10.99329 10.99329 0 0 1 1.88769-15.7959zm-4.40234 18.7959a1.00067 1.00067 0 0 1 1-1h20a1.00067 1.00067 0 0 1 1 1v2a1.00067 1.00067 0 0 1 -1 1h-20a1.00067 1.00067 0 0 1 -1-1zm11 27a12.99418 12.99418 0 0 1 -9.373-22h18.73518a12.98618 12.98618 0 0 1 -9.36218 22z"/><path d="m19 16a5 5 0 0 0 0-10 5.98675 5.98675 0 0 0 -11.68457-1.85059 5.83741 5.83741 0 0 0 -1.31543-.14941 6 6 0 0 0 0 12zm-17-6a4.004 4.004 0 0 1 4-4 3.95223 3.95223 0 0 1 1.64258.36328 1.00026 1.00026 0 0 0 1.40722-.80176 3.98647 3.98647 0 0 1 7.9502.43848 3.92429 3.92429 0 0 1 -.12988.95215 1.0028 1.0028 0 0 0 .28418.96484 1.01291 1.01291 0 0 0 .97851.23047 2.94248 2.94248 0 0 1 .86719-.14746 3 3 0 0 1 0 6h-13a4.004 4.004 0 0 1 -4-4z"/><path d="m8 28a3 3 0 1 0 -3 3 3.00328 3.00328 0 0 0 3-3zm-4 0a1 1 0 1 1 1 1 1.00067 1.00067 0 0 1 -1-1z"/><path d="m18 22a3 3 0 1 0 -3 3 3.00328 3.00328 0 0 0 3-3zm-4 0a1 1 0 1 1 1 1 1.00067 1.00067 0 0 1 -1-1z"/><path d="m8 44a3 3 0 1 0 3 3 3.00328 3.00328 0 0 0 -3-3zm0 4a1 1 0 1 1 1-1 1.00067 1.00067 0 0 1 -1 1z"/><path d="m15 33a3 3 0 1 0 3-3 3.00328 3.00328 0 0 0 -3 3zm4 0a1 1 0 1 1 -1-1 1.00067 1.00067 0 0 1 1 1z"/><path d="m18 53a3 3 0 1 0 3 3 3.00328 3.00328 0 0 0 -3-3zm0 4a1 1 0 1 1 1-1 1.00067 1.00067 0 0 1 -1 1z"/></svg>