<?xml version="1.0"?>
<svg xmlns="http://www.w3.org/2000/svg" id="Layer_1" data-name="Layer 1" viewBox="0 0 64 64" width="512" height="512"><polygon points="25 29 26 56 21 56 22 29 25 29" style="fill:#d1d3d4"/><polygon points="27 26 31 16 27 4 23 1 23 24 27 26" style="fill:#f1f2f2"/><polygon points="22 25 10.974 26.438 2 36 1 41 22 30 22 25" style="fill:#f1f2f2"/><polygon points="23 30 30 39 42 41 47 39 27 27 23 30" style="fill:#d1d3d4"/><circle cx="24" cy="27" r="3" style="fill:#d1d3d4"/><path d="M39.70068,33a1.073,1.073,0,0,1-.1997-.01953,1.00053,1.00053,0,0,1-.78125-1.17969A13.62809,13.62809,0,0,0,35.25488,19.667a1,1,0,1,1,1.49024-1.334,15.62668,15.62668,0,0,1,3.93457,13.86621A1.00036,1.00036,0,0,1,39.70068,33Z" style="fill:#6ee1ef"/><path d="M11,25a1.0008,1.0008,0,0,1-.94287-1.333,16.20759,16.20759,0,0,1,8.54248-9.583.9997.9997,0,1,1,.80078,1.832,14.20748,14.20748,0,0,0-7.45752,8.417A.99935.99935,0,0,1,11,25Z" style="fill:#6ee1ef"/><path d="M44.37061,35a.99895.99895,0,0,1-.96875-1.249A19.08081,19.08081,0,0,0,44,29a18.27882,18.27882,0,0,0-1.88623-8.53711.99984.99984,0,0,1,1.77246-.92578A20.23566,20.23566,0,0,1,46,29a21.07063,21.07063,0,0,1-.66162,5.249A.9998.9998,0,0,1,44.37061,35Z" style="fill:#6ee1ef"/><path d="M5,30a.99974.99974,0,0,1-1-1A20.85691,20.85691,0,0,1,18.7002,9.0459a1.00009,1.00009,0,0,1,.5996,1.9082A18.865,18.865,0,0,0,6,29,.99974.99974,0,0,1,5,30Z" style="fill:#6ee1ef"/><path d="M21,64S42,51,52,51a35.4117,35.4117,0,0,1,12,2V64Z" style="fill:#00a14b"/><path d="M38,64A40.744,40.744,0,0,0,0,53V64Z" style="fill:#1ec951"/><path d="M46,5a4.96255,4.96255,0,0,1,2.05524.45209,4.98466,4.98466,0,1,1,9.78644,1.73846A3.95488,3.95488,0,0,1,59,7a4,4,0,0,1,0,8H46A5,5,0,0,1,46,5Z" style="fill:#f1f2f2"/><path d="M46,13H59a3.99073,3.99073,0,0,0,3.85858-3A3.95152,3.95152,0,0,1,59,15H46a5.00112,5.00112,0,0,1-4.89923-6A5.00112,5.00112,0,0,0,46,13Z" style="fill:#d1d3d4"/><path d="M1,42a1.00244,1.00244,0,0,0,.46387-.11426l20.97-10.98425,6.77661,8.71277a.999.999,0,0,0,.625.37207l12,2A1.03908,1.03908,0,0,0,42,42a1.01131,1.01131,0,0,0,.37158-.07129l5-2a1.00044,1.00044,0,0,0,.14307-1.78613L27.939,26.39722c-.00208-.01368-.002-.028-.00415-.04151l3.99383-9.98462a1.00268,1.00268,0,0,0,.02-.6875l-4-12a1.00333,1.00333,0,0,0-.34863-.48339l-4-3A.99981.99981,0,0,0,22,1V23.55634a4.00311,4.00311,0,0,0-.722.52972L10.84424,25.44629a.99364.99364,0,0,0-.59961.30664L1.271,35.31543a1.0031,1.0031,0,0,0-.25147.48828l-1,5A.99918.99918,0,0,0,1,42ZM22,27a2,2,0,1,1,2,2A2.00229,2.00229,0,0,1,22,27ZM41.88818,39.96777,30.5498,38.07812l-5.60253-7.20373A4.00778,4.00778,0,0,0,27.67633,28.572L44.75684,38.82031ZM24,3l2.1499,1.6123,3.78565,11.35645-3.23877,8.09644A3.97227,3.97227,0,0,0,24,23ZM2.9248,36.47656,11.458,27.38281l8.61688-1.12365a3.86675,3.86675,0,0,0,.79675,3.20318L2.39111,39.14258Z"/><path d="M21.00244,34.93359l-1,15a1,1,0,0,0,.93115,1.06446c.02246.001.04493.002.06739.002a1,1,0,0,0,.99658-.93359l1-15a.99977.99977,0,1,0-1.99512-.13282Z"/><path d="M24.92871,37.00293a.99989.99989,0,0,0-.92627,1.06836l1,14A1.00022,1.00022,0,0,0,25.999,53c.02393,0,.04786-.001.07227-.00293a.99989.99989,0,0,0,.92627-1.06836l-1-14A.98871.98871,0,0,0,24.92871,37.00293Z"/><path d="M.6543,52.06152a1,1,0,0,0,.69043,1.877,30.96962,30.96962,0,0,1,11.31591-1.30957c8.835.50488,16.78614,4.23242,23.63233,11.07812A.99989.99989,0,0,0,37.707,62.293C20.4541,45.04.85156,51.98926.6543,52.06152Z"/><path d="M63.44727,52.10547C63.27539,52.01953,59.15381,50,52,50c-9.19727,0-18.17676,5.916-18.55469,6.168A.99984.99984,0,1,0,34.5542,57.832C34.64209,57.77441,43.418,52,52,52a25.994,25.994,0,0,1,10.55273,1.89453,1.00012,1.00012,0,1,0,.89454-1.78906Z"/><path d="M46,16H59A5,5,0,0,0,59,6,5.98646,5.98646,0,0,0,47.31592,4.14941,5.8481,5.8481,0,0,0,46,4a6,6,0,0,0,0,12ZM46,6a3.96082,3.96082,0,0,1,1.64209.3623.99966.99966,0,0,0,1.40723-.7998,3.98462,3.98462,0,1,1,7.82129,1.38867A1.00108,1.00108,0,0,0,58.1333,8.14746,2.93187,2.93187,0,0,1,59,8a3,3,0,0,1,0,6H46a4,4,0,0,1,0-8Z"/><path d="M38,27a14.103,14.103,0,0,1-.28027,2.80078,1.00053,1.00053,0,0,0,.78125,1.17969A1.073,1.073,0,0,0,38.70068,31a1.00036,1.00036,0,0,0,.979-.80078A15.62668,15.62668,0,0,0,35.74512,16.333a1,1,0,1,0-1.49024,1.334A14.084,14.084,0,0,1,38,27Z"/><path d="M17.59961,12.084a16.20759,16.20759,0,0,0-8.54248,9.583.99995.99995,0,1,0,1.88574.666,14.20748,14.20748,0,0,1,7.45752-8.417.9997.9997,0,1,0-.80078-1.832Z"/><path d="M43.12109,32.96875a1.00083,1.00083,0,0,0,1.21729-.71973A21.07063,21.07063,0,0,0,45,27a20.23566,20.23566,0,0,0-2.11377-9.46289.99984.99984,0,0,0-1.77246.92578A18.27882,18.27882,0,0,1,43,27a19.08081,19.08081,0,0,1-.59814,4.751A1.00018,1.00018,0,0,0,43.12109,32.96875Z"/><path d="M4,28a.99974.99974,0,0,0,1-1A18.865,18.865,0,0,1,18.2998,8.9541a1.00009,1.00009,0,1,0-.5996-1.9082A20.85691,20.85691,0,0,0,3,27,.99974.99974,0,0,0,4,28Z"/><path d="M49,55H47a1,1,0,0,0,0,2h2a1,1,0,0,0,0-2Z"/><path d="M11,56H9a1,1,0,0,0,0,2h2a1,1,0,0,0,0-2Z"/><path d="M21,59H19a1,1,0,0,0,0,2h2a1,1,0,0,0,0-2Z"/><path d="M5,60H3a1,1,0,0,0,0,2H5a1,1,0,0,0,0-2Z"/><path d="M58,58H56a1,1,0,0,0,0,2h2a1,1,0,0,0,0-2Z"/><path d="M44,60H42a1,1,0,0,0,0,2h2a1,1,0,0,0,0-2Z"/></svg>
