<svg id="Layer_1" height="512" viewBox="0 0 64 64" width="512" xmlns="http://www.w3.org/2000/svg" data-name="Layer 1"><path d="m28 14 4-8 4 8z" fill="#f7941d"/><path d="m32 6v8h4z" fill="#ec6f1d"/><path d="m16.444 22.101-2.829-8.486 8.486 2.829z" fill="#f7941d"/><path d="m13.615 13.615 5.657 5.657 2.829-2.828z" fill="#ec6f1d"/><path d="m14 36-8-4 8-4z" fill="#f7941d"/><path d="m6 32h8v-4z" fill="#ec6f1d"/><path d="m22.101 47.556-8.486 2.829 2.829-8.486z" fill="#f7941d"/><path d="m13.615 50.385 5.657-5.657-2.828-2.829z" fill="#ec6f1d"/><path d="m36 50-4 8-4-8z" fill="#f7941d"/><path d="m32 58v-8h-4z" fill="#ec6f1d"/><path d="m47.556 41.899 2.829 8.486-8.486-2.829z" fill="#f7941d"/><path d="m50.385 50.385-5.657-5.657-2.829 2.828z" fill="#ec6f1d"/><path d="m50 28 8 4-8 4z" fill="#f7941d"/><path d="m58 32h-8v4z" fill="#ec6f1d"/><path d="m41.899 16.444 8.486-2.829-2.829 8.486z" fill="#f7941d"/><path d="m50.385 13.615-5.657 5.657 2.828 2.829z" fill="#ec6f1d"/><circle cx="32" cy="32" fill="#ffb028" r="15"/><path d="m40.41614 19.58386a14.99966 14.99966 0 0 1 -20.83234 20.83228 14.99981 14.99981 0 1 0 20.83234-20.83228z" fill="#f7941d"/><path d="m23 30.00049a1.00116 1.00116 0 0 1 -.94873-1.3169c.08838-.26416 2.23193-6.49853 8.63232-8.63232a1.0001 1.0001 0 1 1 .63282 1.89746c-5.46241 1.8208-7.34912 7.312-7.36768 7.36768a1.00053 1.00053 0 0 1 -.94873.68408z" fill="#f1f2f2"/><path d="m22 32h2v2h-2z" fill="#f1f2f2"/><circle cx="59" cy="5" fill="#ffd241" r="5"/><circle cx="5" cy="59" fill="#ffd241" r="5"/><circle cx="50" cy="58" fill="#ef4136" r="2"/><circle cx="8" cy="9" fill="#ef4136" r="2"/><path d="m48 32a16 16 0 1 0 -16 16 16.01833 16.01833 0 0 0 16-16zm-16 14a14 14 0 1 1 14-14 14.01572 14.01572 0 0 1 -14 14z"/><path d="m27.55273 14.89453a.999.999 0 0 0 1.3418-.44726l3.10547-6.21143 3.10547 6.21143a1.00012 1.00012 0 0 0 1.78906-.89454l-4-8a1.04127 1.04127 0 0 0 -1.78906 0l-4 8a1 1 0 0 0 .44726 1.3418z"/><path d="m15.49512 22.417a1.0001 1.0001 0 1 0 1.89746-.63281l-2.19629-6.58789 6.58789 2.19629a1.0001 1.0001 0 1 0 .63281-1.89746l-8.48535-2.82863a1.00027 1.00027 0 0 0 -1.26514 1.26514z"/><path d="m5.55273 32.89453 8 4a1.00012 1.00012 0 0 0 .89454-1.78906l-6.21143-3.10547 6.21143-3.10547a1.00012 1.00012 0 0 0 -.89454-1.78906l-8 4a1.00021 1.00021 0 0 0 0 1.78906z"/><path d="m23.04932 47.23975a.99876.99876 0 0 0 -1.26514-.63233l-6.58789 2.19629 2.19629-6.58789a1.0001 1.0001 0 1 0 -1.89746-.63281l-2.82862 8.48535a1.00028 1.00028 0 0 0 1.26514 1.26514l8.48536-2.82862a1.00013 1.00013 0 0 0 .63232-1.26513z"/><path d="m36.44727 49.10547a1 1 0 0 0 -1.3418.44726l-3.10547 6.21143-3.10547-6.21143a1.00012 1.00012 0 0 0 -1.78906.89454l4 8a1.00021 1.00021 0 0 0 1.78906 0l4-8a1 1 0 0 0 -.44726-1.3418z"/><path d="m41.583 48.50488 8.48535 2.82862a1.00027 1.00027 0 0 0 1.26514-1.26514l-2.82861-8.48536a1.0001 1.0001 0 1 0 -1.89746.63281l2.19629 6.58789-6.58789-2.19629a1.0001 1.0001 0 1 0 -.63281 1.89746z"/><path d="m58.44727 31.10547-8-4a1.00012 1.00012 0 1 0 -.89454 1.78906l6.21143 3.10547-6.21143 3.10547a1.00012 1.00012 0 0 0 .89454 1.78906l8-4a1.00021 1.00021 0 0 0 0-1.78906z"/><path d="m40.95068 16.76025a.99777.99777 0 0 0 1.26514.63233l6.58789-2.19629-2.19629 6.58789a1.0001 1.0001 0 1 0 1.89746.63281l2.82862-8.48535a1.00027 1.00027 0 0 0 -1.26514-1.26514l-8.48536 2.82862a1.00013 1.00013 0 0 0 -.63232 1.26513z"/><path d="m23.10547 13.44727a1.00012 1.00012 0 0 0 1.78906-.89454l-2-4a1.00012 1.00012 0 1 0 -1.78906.89454z"/><path d="m8.98193 21.85889a1.0001 1.0001 0 0 0 -.63281 1.89746l4.24268 1.41406a1.0001 1.0001 0 0 0 .63281-1.89746z"/><path d="m12.55273 39.10547-4 2a1.00012 1.00012 0 0 0 .89454 1.78906l4-2a1.00012 1.00012 0 0 0 -.89454-1.78906z"/><path d="m24.53809 50.14307a.998.998 0 0 0 -1.26514.63232l-1.41406 4.24268a1.0001 1.0001 0 1 0 1.89746.63281l1.41406-4.24268a1.00013 1.00013 0 0 0 -.63232-1.26513z"/><path d="m40.89453 50.55273a1.00012 1.00012 0 0 0 -1.78906.89454l2 4a1.00012 1.00012 0 1 0 1.78906-.89454z"/><path d="m55.65088 40.24365-4.24268-1.41406a1.0001 1.0001 0 0 0 -.63281 1.89746l4.24268 1.41406a1.0001 1.0001 0 0 0 .63281-1.89746z"/><path d="m54.55273 21.10547-4 2a1.00012 1.00012 0 0 0 .89454 1.78906l4-2a1.00012 1.00012 0 0 0 -.89454-1.78906z"/><path d="m39.46191 13.85693a.99864.99864 0 0 0 1.26514-.63232l1.41406-4.24268a1.0001 1.0001 0 0 0 -1.89746-.63281l-1.41406 4.24268a1.00013 1.00013 0 0 0 .63232 1.26513z"/><path d="m28.68359 20.05127c-6.40039 2.13379-8.54394 8.36816-8.63232 8.63232a1.0001 1.0001 0 1 0 1.89746.63282c.01856-.05567 1.90527-5.54688 7.36768-7.36768a1.0001 1.0001 0 1 0 -.63282-1.89746z"/><path d="m20 32h2v2h-2z"/><path d="m59 4a1 1 0 0 0 1-1v-2a1 1 0 0 0 -2 0v2a1 1 0 0 0 1 1z"/><path d="m59 6a1 1 0 0 0 -1 1v2a1 1 0 0 0 2 0v-2a1 1 0 0 0 -1-1z"/><path d="m63 4h-2a1 1 0 0 0 0 2h2a1 1 0 0 0 0-2z"/><path d="m55 6h2a1 1 0 0 0 0-2h-2a1 1 0 0 0 0 2z"/><path d="m5 58a1 1 0 0 0 1-1v-2a1 1 0 0 0 -2 0v2a1 1 0 0 0 1 1z"/><path d="m5 60a1 1 0 0 0 -1 1v2a1 1 0 0 0 2 0v-2a1 1 0 0 0 -1-1z"/><path d="m9 58h-2a1 1 0 0 0 0 2h2a1 1 0 0 0 0-2z"/><path d="m3 58h-2a1 1 0 0 0 0 2h2a1 1 0 0 0 0-2z"/><path d="m8 12a3 3 0 1 0 -3-3 3.00328 3.00328 0 0 0 3 3zm0-4a1 1 0 1 1 -1 1 1.0013 1.0013 0 0 1 1-1z"/><path d="m50 55a3 3 0 1 0 3 3 3.00328 3.00328 0 0 0 -3-3zm0 4a1 1 0 1 1 1-1 1.0013 1.0013 0 0 1 -1 1z"/></svg>