<svg id="Layer_1" height="512" viewBox="0 0 64 64" width="512" xmlns="http://www.w3.org/2000/svg" data-name="Layer 1"><g fill="#ffd241"><circle cx="5" cy="9" r="5"/><circle cx="25" cy="15" r="5"/><circle cx="56" cy="37" r="5"/><circle cx="52" cy="59" r="5"/></g><path d="m54 1 2.18 7h6.82l-5.473 4.146 2.473 6.854-6-4.292-6 4.292 2.473-6.854-5.473-4.146h6.82z" fill="#ffb028"/><path d="m35 22 2.18 7h6.82l-5.473 4.146 2.473 6.854-6-4.292-6 4.292 2.473-6.854-5.473-4.146h6.82z" fill="#ffd241"/><path d="m34 52a21.99775 21.99775 0 0 1 -20.05078-31.05078 21.99925 21.99925 0 1 0 29.10156 29.10156 21.91 21.91 0 0 1 -9.05078 1.94922z" fill="#ffd241"/><path d="m27 59a21.99528 21.99528 0 0 1 -17.45435-35.38568 21.98615 21.98615 0 1 0 30.84 30.84 21.89808 21.89808 0 0 1 -13.38565 4.54568z" fill="#ffb028"/><path d="m6.999 43a1.00007 1.00007 0 0 1 -.97949-.80371c-1.09275-5.4624 1.1758-7.80615 1.27349-7.90329a.99995.99995 0 0 1 1.4248 1.40332c-.08886.09668-1.59472 1.81787-.7373 6.10742a1.0003 1.0003 0 0 1 -.78418 1.17676 1.01583 1.01583 0 0 1 -.19732.0195z" fill="#f1f2f2"/><path d="m7 44h2v2h-2z" fill="#f1f2f2"/><path d="m63.94824 7.68164a1.00024 1.00024 0 0 0 -.94824-.68164h-6.084l-1.96092-6.29736a1.00043 1.00043 0 0 0 -1.91016 0l-1.96092 6.29736h-6.084a.99989.99989 0 0 0 -.60352 1.79736l4.88672 3.70118-2.22363 6.1621a1 1 0 0 0 1.52243 1.15284l5.418-3.87598 5.418 3.876a1 1 0 0 0 1.52246-1.15284l-2.22363-6.1621 4.88672-3.70118a1.00017 1.00017 0 0 0 .34469-1.11574zm-7.02539 3.667a.99966.99966 0 0 0 -.33691 1.13672l1.38281 3.832-3.38675-2.42283a1.00136 1.00136 0 0 0 -1.16406 0l-3.38672 2.42285 1.38281-3.832a.99966.99966 0 0 0 -.33691-1.13672l-3.10056-2.34866h3.84375a1.00121 1.00121 0 0 0 .95508-.70264l1.22461-3.93359 1.22461 3.93359a1.00121 1.00121 0 0 0 .95508.70264h3.84375z"/><path d="m44 28h-6.084l-1.96094-6.29736a1.00043 1.00043 0 0 0 -1.91016 0l-1.9609 6.29736h-6.084a.99989.99989 0 0 0 -.60352 1.79736l4.88672 3.70118-2.22363 6.1621a1 1 0 0 0 1.52243 1.15284l5.418-3.87598 5.418 3.876a1 1 0 0 0 1.52246-1.15284l-2.22363-6.1621 4.88672-3.70118a.99989.99989 0 0 0 -.60355-1.79738zm-6.07715 4.34863a.99966.99966 0 0 0 -.33691 1.13672l1.38281 3.832-3.38675-2.42282a1.00136 1.00136 0 0 0 -1.16406 0l-3.38672 2.42285 1.38281-3.832a.99966.99966 0 0 0 -.33691-1.13672l-3.10056-2.34866h3.84375a1.00121 1.00121 0 0 0 .95508-.70264l1.22461-3.93359 1.22461 3.93359a1.00121 1.00121 0 0 0 .95508.70264h3.84375z"/><path d="m25 14a.99974.99974 0 0 0 1-1v-2a1 1 0 0 0 -2 0v2a.99974.99974 0 0 0 1 1z"/><path d="m25 16a.99974.99974 0 0 0 -1 1v2a1 1 0 0 0 2 0v-2a.99974.99974 0 0 0 -1-1z"/><path d="m27 16h2a1 1 0 0 0 0-2h-2a1 1 0 0 0 0 2z"/><path d="m21 16h2a1 1 0 0 0 0-2h-2a1 1 0 0 0 0 2z"/><path d="m56 36a.99974.99974 0 0 0 1-1v-2a1 1 0 0 0 -2 0v2a.99974.99974 0 0 0 1 1z"/><path d="m56 38a.99974.99974 0 0 0 -1 1v2a1 1 0 0 0 2 0v-2a.99974.99974 0 0 0 -1-1z"/><path d="m60 36h-2a1 1 0 0 0 0 2h2a1 1 0 0 0 0-2z"/><path d="m52 38h2a1 1 0 0 0 0-2h-2a1 1 0 0 0 0 2z"/><path d="m5 8a.99974.99974 0 0 0 1-1v-2a1 1 0 0 0 -2 0v2a.99974.99974 0 0 0 1 1z"/><path d="m5 10a.99974.99974 0 0 0 -1 1v2a1 1 0 0 0 2 0v-2a.99974.99974 0 0 0 -1-1z"/><path d="m7 10h2a1 1 0 0 0 0-2h-2a1 1 0 0 0 0 2z"/><path d="m1 10h2a1 1 0 0 0 0-2h-2a1 1 0 0 0 0 2z"/><path d="m51 57a1 1 0 0 0 2 0v-2a1 1 0 0 0 -2 0z"/><path d="m52 60a.99974.99974 0 0 0 -1 1v2a1 1 0 0 0 2 0v-2a.99974.99974 0 0 0 -1-1z"/><path d="m56 58h-2a1 1 0 0 0 0 2h2a1 1 0 0 0 0-2z"/><path d="m50 58h-2a1 1 0 0 0 0 2h2a1 1 0 0 0 0-2z"/><path d="m42.63867 49.13965a20.99775 20.99775 0 0 1 -27.77832-27.77832 1.00005 1.00005 0 0 0 -1.32324-1.32324 22.99925 22.99925 0 1 0 30.4248 30.4248 1.00005 1.00005 0 0 0 -1.32324-1.32324zm-19.63867 12.86035a20.99756 20.99756 0 0 1 -10.93457-38.9248 23.00592 23.00592 0 0 0 28.85937 28.85986 21.05088 21.05088 0 0 1 -17.9248 10.06494z"/><path d="m5.98047 41.80371c-.85742-4.28955.64844-6.01074.7373-6.10742a.99995.99995 0 0 0 -1.42477-1.40329c-.09766.09717-2.36621 2.44092-1.27344 7.90332a1.00007 1.00007 0 0 0 .97944.80368 1.01583 1.01583 0 0 0 .19727-.01953 1.0003 1.0003 0 0 0 .7842-1.17676z"/><path d="m5 44h2v2h-2z"/></svg>