<?xml version="1.0"?>
<svg xmlns="http://www.w3.org/2000/svg" id="Layer_1" data-name="Layer 1" viewBox="0 0 64 64" width="512" height="512"><circle cx="28" cy="16" r="5" style="fill:#ffd241"/><path d="M54,33v2.5A4.50491,4.50491,0,0,1,49.5,40h-3A4.50491,4.50491,0,0,1,42,35.5a10.5,10.5,0,0,1,21,0C63,42.39258,57.39258,49,50.5,49H21V45H50.5c4.687,0,8.5-4.813,8.5-9.5a6.5,6.5,0,0,0-13,0,.50034.50034,0,0,0,.5.5h3a.50034.50034,0,0,0,.5-.5V33Z" style="fill:#d1d3d4"/><path d="M26,31A15.97751,15.97751,0,0,1,11.12732,9.12732,15.9937,15.9937,0,1,0,31.87268,29.87268,15.93258,15.93258,0,0,1,26,31Z" style="fill:#ffd241"/><path d="M21,36A15.99067,15.99067,0,0,1,7.85388,10.892,15.98678,15.98678,0,1,0,30.108,33.14612,15.91517,15.91517,0,0,1,21,36Z" style="fill:#ffb028"/><path d="M4.99316,23a1.00005,1.00005,0,0,1-1-1c0-2.34668,2.05811-4.47266,2.293-4.707a.9999.9999,0,0,1,1.41553,1.4126A5.86635,5.86635,0,0,0,5.99316,22,1,1,0,0,1,4.99316,23Z" style="fill:#f1f2f2"/><rect x="4" y="24" width="2" height="2" style="fill:#f1f2f2"/><path d="M45,56H29a1,1,0,0,1,0-2H45a1,1,0,0,1,0,2Z" style="fill:#6ee1ef"/><path d="M51,56H49a1,1,0,0,1,0-2h2a1,1,0,0,1,0,2Z" style="fill:#6ee1ef"/><path d="M49,60H33a1,1,0,0,1,0-2H49a1,1,0,0,1,0,2Z" style="fill:#6ee1ef"/><path d="M55,60H53a1,1,0,0,1,0-2h2a1,1,0,0,1,0,2Z" style="fill:#6ee1ef"/><path d="M61,60H59a1,1,0,0,1,0-2h2a1,1,0,0,1,0,2Z" style="fill:#6ee1ef"/><path d="M58,5a4.96255,4.96255,0,0,0-2.05524.45209,4.98466,4.98466,0,1,0-9.78644,1.73846A3.95488,3.95488,0,0,0,45,7a4,4,0,0,0,0,8H58A5,5,0,0,0,58,5Z" style="fill:#f1f2f2"/><path d="M58,13H45a3.99073,3.99073,0,0,1-3.85858-3A3.95152,3.95152,0,0,0,45,15H58a5.00112,5.00112,0,0,0,4.89923-6A5.00112,5.00112,0,0,1,58,13Z" style="fill:#d1d3d4"/><path d="M18,53a4.96255,4.96255,0,0,0-2.05524.45209,4.98466,4.98466,0,1,0-9.78644,1.73846A3.95488,3.95488,0,0,0,5,55a4,4,0,0,0,0,8H18a5,5,0,0,0,0-10Z" style="fill:#f1f2f2"/><path d="M18,61H5a3.99073,3.99073,0,0,1-3.85858-3A3.95152,3.95152,0,0,0,5,63H18a5.00112,5.00112,0,0,0,4.89923-6A5.00112,5.00112,0,0,1,18,61Z" style="fill:#d1d3d4"/><path d="M50.5,44H27a1,1,0,0,0,0,2H50.5c5.437,0,9.5-5.544,9.5-10.5a7.5,7.5,0,0,0-15,0A1.50164,1.50164,0,0,0,46.5,37h3A1.50164,1.50164,0,0,0,51,35.5V33a1,1,0,0,0-2,0v2H47.02246A5.50016,5.50016,0,0,1,58,35.5C58,39.43066,54.72363,44,50.5,44Z"/><path d="M52.5,24A11.5131,11.5131,0,0,0,41,35.5,5.50654,5.50654,0,0,0,46.5,41h3A5.50654,5.50654,0,0,0,55,35.5V33a1,1,0,0,0-2,0v2.5A3.50424,3.50424,0,0,1,49.5,39h-3A3.50424,3.50424,0,0,1,43,35.5a9.5,9.5,0,0,1,19,0C62,42.15918,56.626,48,50.5,48H21a1,1,0,0,0,0,2H50.5C57.69141,50,64,43.22461,64,35.5A11.5131,11.5131,0,0,0,52.5,24Z"/><path d="M7.70508,14.29883a.99905.99905,0,0,0-1.41211.001C6.05811,14.53418,4,16.66016,4,19.00684a1,1,0,0,0,2,0,5.86319,5.86319,0,0,1,1.7085-3.294A1.00141,1.00141,0,0,0,7.70508,14.29883Z"/><rect x="4" y="21" width="2" height="2"/><path d="M17,41.00684A17.05528,17.05528,0,0,0,32.94531,29.8584a.99956.99956,0,0,0-1.28271-1.2832A14.96373,14.96373,0,0,1,12.43213,9.34473a1.00011,1.00011,0,0,0-1.28369-1.28321A16.99066,16.99066,0,0,0,17,41.00684ZM9.918,10.80176A16.69886,16.69886,0,0,0,9.5,14.50684a17.019,17.019,0,0,0,17,17,16.73457,16.73457,0,0,0,3.70508-.418A14.98886,14.98886,0,1,1,9.918,10.80176Z"/><path d="M45,16H58A6,6,0,0,0,58,4a5.79527,5.79527,0,0,0-1.31543.15039A5.98656,5.98656,0,0,0,45,6a5,5,0,0,0,0,10Zm0-8a2.93187,2.93187,0,0,1,.8667.14746,1.01436,1.01436,0,0,0,.979-.23047.99985.99985,0,0,0,.28369-.96484A3.93356,3.93356,0,0,1,47,6a3.98666,3.98666,0,0,1,7.95068-.4375.99991.99991,0,0,0,1.40625.80078A3.996,3.996,0,1,1,58,14H45a3,3,0,0,1,0-6Z"/><path d="M18,52a5.79527,5.79527,0,0,0-1.31543.15039A5.98656,5.98656,0,0,0,5,54,5,5,0,0,0,5,64H18a6,6,0,0,0,0-12Zm0,10H5a3,3,0,0,1,0-6,2.93187,2.93187,0,0,1,.8667.14746,1.01436,1.01436,0,0,0,.979-.23047.99985.99985,0,0,0,.28369-.96484A3.93356,3.93356,0,0,1,7,54a3.98666,3.98666,0,0,1,7.95068-.4375.99991.99991,0,0,0,1.40625.80078A3.996,3.996,0,1,1,18,62Z"/><path d="M45,54a.99974.99974,0,0,0-1-1H28a1,1,0,0,0,0,2H44A.99974.99974,0,0,0,45,54Z"/><path d="M50,53H48a1,1,0,0,0,0,2h2a1,1,0,0,0,0-2Z"/><path d="M48,57H32a1,1,0,0,0,0,2H48a1,1,0,0,0,0-2Z"/><path d="M54,57H52a1,1,0,0,0,0,2h2a1,1,0,0,0,0-2Z"/><path d="M60,57H58a1,1,0,0,0,0,2h2a1,1,0,0,0,0-2Z"/><path d="M28,15a.99974.99974,0,0,0,1-1V12a1,1,0,0,0-2,0v2A.99974.99974,0,0,0,28,15Z"/><path d="M28,17a.99974.99974,0,0,0-1,1v2a1,1,0,0,0,2,0V18A.99974.99974,0,0,0,28,17Z"/><path d="M30,17h2a1,1,0,0,0,0-2H30a1,1,0,0,0,0,2Z"/><path d="M24,17h2a1,1,0,0,0,0-2H24a1,1,0,0,0,0,2Z"/></svg>
