<svg id="Layer_1" height="512" viewBox="0 0 64 64" width="512" xmlns="http://www.w3.org/2000/svg" data-name="Layer 1"><rect fill="#6ee1ef" height="8" rx="2" width="4" x="29" y="48"/><rect fill="#6ee1ef" height="8" rx="2" width="4" x="43" y="48"/><rect fill="#6ee1ef" height="8" rx="2" width="4" x="50" y="55"/><rect fill="#6ee1ef" height="8" rx="2" width="4" x="36" y="55"/><rect fill="#6ee1ef" height="8" rx="2" width="4" x="57" y="48"/><path d="m55 29a7.96166 7.96166 0 0 0 -4.45654 1.35632 7.99585 7.99585 0 0 0 -15.54346 2.64368c0 .11993.0127.23663.01795.35529a5.99762 5.99762 0 1 0 -2.01795 11.64471h22a8 8 0 0 0 0-16z" fill="#f1f2f2"/><path d="m55 42h-22a5.9969 5.9969 0 0 1 -5.80334-4.5 5.979 5.979 0 0 0 5.80334 7.5h22a7.98332 7.98332 0 0 0 7.85462-9.5 7.99893 7.99893 0 0 1 -7.85462 6.5z" fill="#d1d3d4"/><path d="m41 33a.99943.99943 0 0 1 -1-1 4.69223 4.69223 0 0 1 2.55274-3.89453.9999.9999 0 0 1 .89941 1.78613 2.72407 2.72407 0 0 0 -1.45215 2.1084.99942.99942 0 0 1 -1 1z" fill="#d1d3d4"/><path d="m40 34h2v2h-2z" fill="#d1d3d4"/><path d="m18 44a4.96255 4.96255 0 0 0 -2.05524.45209 4.98466 4.98466 0 1 0 -9.78644 1.73846 3.95488 3.95488 0 0 0 -1.15832-.19055 4 4 0 0 0 0 8h13a5 5 0 0 0 0-10z" fill="#f1f2f2"/><path d="m18 52h-13a3.99073 3.99073 0 0 1 -3.85858-3 3.95152 3.95152 0 0 0 3.85858 5h13a5.00112 5.00112 0 0 0 4.89923-6 5.00112 5.00112 0 0 1 -4.89923 4z" fill="#d1d3d4"/><g fill="#ec6f1d"><path d="m20 7-2-6-2 6z"/><path d="m11.636 8.808-5.657-2.829 2.829 5.657z"/><path d="m7 16-6 2 6 2z"/><path d="m8.808 24.364-2.829 5.657 5.657-2.829z"/><path d="m16 29 2 6 2-6z"/><path d="m24.364 27.192 5.657 2.829-2.829-5.657z"/><path d="m29 20 6-2-6-2z"/><path d="m27.192 11.636 2.829-5.657-5.657 2.829z"/></g><circle cx="18" cy="18" fill="#ffb028" r="9"/><path d="m22.989 10.511a8.99811 8.99811 0 0 1 -12.478 12.478 8.99893 8.99893 0 1 0 12.478-12.478z" fill="#f7941d"/><path d="m14.57031 16.5a.99991.99991 0 0 1 -.89355-1.44727 8.47873 8.47873 0 0 1 3.44724-3.44726 1.00012 1.00012 0 0 1 .89649 1.78808 6.507 6.507 0 0 0 -2.55469 2.55372 1.00011 1.00011 0 0 1 -.89549.55273z" fill="#f1f2f2"/><path d="m13 17h2v2h-2z" fill="#f1f2f2"/><path d="m15.62891 6.92871a1.00169 1.00169 0 0 0 1.2998-.55762l1.07129-2.67871 1.07129 2.67871a1.00011 1.00011 0 0 0 1.85742-.74218l-2-5a1.00017 1.00017 0 0 0 -1.85742 0l-2 5a1.0003 1.0003 0 0 0 .55762 1.2998z"/><path d="m7.18164 11.32227a.99821.99821 0 0 0 .919.60644.98332.98332 0 0 0 .39355-.08105.99945.99945 0 0 0 .52539-1.3125l-1.13579-2.65137 2.65137 1.13574a.99967.99967 0 0 0 .78711-1.83789l-4.94922-2.12109a.99954.99954 0 0 0 -1.3125 1.3125z"/><path d="m.62891 18.92871 5 2a1.00046 1.00046 0 0 0 1.2998-.55762 1.0003 1.0003 0 0 0 -.55762-1.2998l-2.67871-1.07129 2.67871-1.07129a1.00011 1.00011 0 1 0 -.74218-1.85742l-5 2a1.00017 1.00017 0 0 0 0 1.85742z"/><path d="m5.97949 31.02051a.99326.99326 0 0 0 .39356-.08106l4.94922-2.12109a.99967.99967 0 1 0 -.78711-1.83789l-2.65137 1.13574 1.13574-2.65137a.99967.99967 0 0 0 -1.83789-.78711l-2.12109 4.94927a.99981.99981 0 0 0 .91894 1.39356z"/><path d="m19.07129 29.62891-1.07129 2.67871-1.07129-2.67871a1.00011 1.00011 0 0 0 -1.85742.74218l2 5a1.00017 1.00017 0 0 0 1.85742 0l2-5a1.00011 1.00011 0 1 0 -1.85742-.74218z"/><path d="m24.67773 28.81836 4.94927 2.12109a.99954.99954 0 0 0 1.3125-1.3125l-2.12109-4.94922a.99967.99967 0 1 0 -1.83789.78711l1.13574 2.65137-2.65137-1.13574a.99967.99967 0 0 0 -.78711 1.83789z"/><path d="m29.07129 15.62891a1.0003 1.0003 0 0 0 .55762 1.2998l2.67871 1.07129-2.67871 1.07129a1 1 0 0 0 .37109 1.92871.9902.9902 0 0 0 .37109-.07129l5-2a1.00017 1.00017 0 0 0 0-1.85742l-5-2a1.00123 1.00123 0 0 0 -1.2998.55762z"/><path d="m24.15234 8.49414a.99781.99781 0 0 0 1.3125.52539l2.65137-1.13574-1.13574 2.65137a.99945.99945 0 0 0 .52539 1.3125.98332.98332 0 0 0 .39355.08105.99821.99821 0 0 0 .91895-.60644l2.12109-4.94922a.99954.99954 0 0 0 -1.3125-1.3125l-4.94922 2.12109a.99945.99945 0 0 0 -.52539 1.3125z"/><path d="m12.10547 6.44727a1.00012 1.00012 0 1 0 1.78906-.89454l-2-4a1.00012 1.00012 0 0 0 -1.78906.89454z"/><path d="m1.41992 12.584 4.24317 1.41407a.99964.99964 0 0 0 .63281-1.89649l-4.24317-1.41408a.99964.99964 0 0 0 -.63281 1.8965z"/><path d="m6.89453 22.55273a1.00109 1.00109 0 0 0 -1.3418-.44726l-4 2a1.00012 1.00012 0 0 0 .89454 1.78906l4-2a1 1 0 0 0 .44726-1.3418z"/><path d="m11.31934 35.21191a.99826.99826 0 0 0 1.26464-.63183l1.41407-4.24317a.99964.99964 0 0 0 -1.89649-.63281l-1.41406 4.24317a.99914.99914 0 0 0 .63184 1.26464z"/><path d="m23.89453 29.55273a1.00012 1.00012 0 1 0 -1.78906.89454l2 4a1.00012 1.00012 0 0 0 1.78906-.89454z"/><path d="m34.26367 25.36426a.99986.99986 0 0 0 .31641-1.94824l-4.24317-1.41402a.99964.99964 0 0 0 -.63281 1.89649l4.24317 1.41406a.99815.99815 0 0 0 .3164.05171z"/><path d="m29.10547 13.44727a1.00046 1.00046 0 0 0 1.3418.44726l4-2a1.00012 1.00012 0 0 0 -.89454-1.78906l-4 2a1 1 0 0 0 -.44726 1.3418z"/><path d="m22.63379 6.92773a.99827.99827 0 0 0 1.26465-.63183l1.41406-4.24317a.99964.99964 0 0 0 -1.8965-.63281l-1.414 4.24317a.99914.99914 0 0 0 .63179 1.26464z"/><path d="m15.124 11.60547a8.47873 8.47873 0 0 0 -3.44726 3.44726 1.00012 1.00012 0 0 0 1.78906.89454 6.507 6.507 0 0 1 2.55469-2.55372 1.00012 1.00012 0 0 0 -.89649-1.78808z"/><path d="m11 17h2v2h-2z"/><path d="m28 18a10 10 0 1 0 -10 10 10.01177 10.01177 0 0 0 10-10zm-10 8a8 8 0 1 1 8-8 8.00917 8.00917 0 0 1 -8 8z"/><path d="m64 37a9.00137 9.00137 0 0 0 -12.98145-8.07227 8.99519 8.99519 0 0 0 -16.97167 3.15332 6.85376 6.85376 0 0 0 -1.04688-.08105 7 7 0 0 0 0 14h22a9.00984 9.00984 0 0 0 9-9zm-9 7h-22a5 5 0 1 1 1.68066-9.70312.99942.99942 0 0 0 1.33594-.98243l-.00879-.16113c-.0039-.05078-.00781-.10156-.00781-.15332a6.99588 6.99588 0 0 1 13.59961-2.31348.99886.99886 0 0 0 1.501.5 7.00006 7.00006 0 1 1 3.89939 12.81348z"/><path d="m40.55273 28.10547a4.69225 4.69225 0 0 0 -2.55273 3.89453 1 1 0 0 0 2 0 2.72407 2.72407 0 0 1 1.45215-2.1084.99991.99991 0 0 0 -.89942-1.78613z"/><path d="m38 34h2v2h-2z"/><path d="m18 43a5.85122 5.85122 0 0 0 -1.31543.15039 5.98656 5.98656 0 0 0 -11.68457 1.84961 5 5 0 0 0 0 10h13a6 6 0 0 0 0-12zm0 10h-13a3 3 0 0 1 0-6 2.94248 2.94248 0 0 1 .86719.14746 1.00026 1.00026 0 0 0 1.26269-1.19434 3.95014 3.95014 0 0 1 -.12988-.95312 3.98647 3.98647 0 0 1 7.9502-.43848 1.001 1.001 0 0 0 1.40625.80176 3.99607 3.99607 0 1 1 1.64355 7.63672z"/><path d="m31 47a3.00328 3.00328 0 0 0 -3 3v4a3 3 0 0 0 6 0v-4a3.00328 3.00328 0 0 0 -3-3zm1 7a1 1 0 0 1 -2 0v-4a1 1 0 0 1 2 0z"/><path d="m45 47a3.00328 3.00328 0 0 0 -3 3v4a3 3 0 0 0 6 0v-4a3.00328 3.00328 0 0 0 -3-3zm1 7a1 1 0 0 1 -2 0v-4a1 1 0 0 1 2 0z"/><path d="m52 54a3.00328 3.00328 0 0 0 -3 3v4a3 3 0 0 0 6 0v-4a3.00328 3.00328 0 0 0 -3-3zm1 7a1 1 0 0 1 -2 0v-4a1 1 0 0 1 2 0z"/><path d="m38 54a3.00328 3.00328 0 0 0 -3 3v4a3 3 0 0 0 6 0v-4a3.00328 3.00328 0 0 0 -3-3zm1 7a1 1 0 0 1 -2 0v-4a1 1 0 0 1 2 0z"/><path d="m59 47a3.00328 3.00328 0 0 0 -3 3v4a3 3 0 0 0 6 0v-4a3.00328 3.00328 0 0 0 -3-3zm1 7a1 1 0 0 1 -2 0v-4a1 1 0 0 1 2 0z"/></svg>