<svg id="Layer_1" height="512" viewBox="0 0 64 64" width="512" xmlns="http://www.w3.org/2000/svg" data-name="Layer 1"><circle cx="4" cy="53" fill="#f1f2f2" r="3"/><path d="m5.97565 50.75848c.00659.08106.02435.15876.02435.24152a2.98679 2.98679 0 0 1 -4.97565 2.24152 2.99222 2.99222 0 1 0 4.9513-2.483z" fill="#d1d3d4"/><circle cx="13" cy="60" fill="#f1f2f2" r="3"/><path d="m14.97565 57.75848c.00659.08106.02435.15876.02435.24152a2.98679 2.98679 0 0 1 -4.97565 2.24152 2.99222 2.99222 0 1 0 4.9513-2.483z" fill="#d1d3d4"/><circle cx="28" cy="60" fill="#f1f2f2" r="3"/><path d="m29.97565 57.75848c.00659.08106.02435.15876.02435.24152a2.98679 2.98679 0 0 1 -4.97565 2.24152 2.99222 2.99222 0 1 0 4.9513-2.483z" fill="#d1d3d4"/><circle cx="50" cy="57" fill="#f1f2f2" r="3"/><path d="m51.97565 54.75848c.00659.08106.02435.15876.02435.24152a2.98679 2.98679 0 0 1 -4.97565 2.24152 2.99222 2.99222 0 1 0 4.9513-2.483z" fill="#d1d3d4"/><circle cx="60" cy="47" fill="#f1f2f2" r="3"/><path d="m61.97565 44.75848c.00659.08106.02435.15876.02435.24152a2.98679 2.98679 0 0 1 -4.97565 2.24152 2.99222 2.99222 0 1 0 4.9513-2.483z" fill="#d1d3d4"/><path d="m39 52a3 3 0 0 1 -6 0c0-1.65685 3-7 3-7s3 5.34315 3 7z" fill="#6ee1ef"/><path d="m36 45s-.19757.35236-.48969.90033a13.5841 13.5841 0 0 1 1.48969 4.09967 3 3 0 0 1 -3 3 2.96729 2.96729 0 0 1 -.8598-.1402 2.99178 2.99178 0 0 0 5.8598-.8598c0-1.65686-3-7-3-7z" fill="#5fb1d7"/><path d="m31 46a3 3 0 0 1 -6 0c0-1.65685 3-7 3-7s3 5.34315 3 7z" fill="#6ee1ef"/><path d="m28 39s-.19757.35236-.48969.90033a13.5841 13.5841 0 0 1 1.48969 4.09967 3 3 0 0 1 -3 3 2.96729 2.96729 0 0 1 -.8598-.1402 2.99178 2.99178 0 0 0 5.8598-.8598c0-1.65686-3-7-3-7z" fill="#5fb1d7"/><path d="m22 52a3 3 0 0 1 -6 0c0-1.65685 3-7 3-7s3 5.34315 3 7z" fill="#6ee1ef"/><path d="m19 45s-.19757.35236-.48969.90033a13.5841 13.5841 0 0 1 1.48969 4.09967 3 3 0 0 1 -3 3 2.96729 2.96729 0 0 1 -.8598-.1402 2.99178 2.99178 0 0 0 5.8598-.8598c0-1.65686-3-7-3-7z" fill="#5fb1d7"/><path d="m14 46a3 3 0 0 1 -6 0c0-1.65685 3-7 3-7s3 5.34315 3 7z" fill="#6ee1ef"/><path d="m11 39s-.19757.35236-.48969.90033a13.5841 13.5841 0 0 1 1.48969 4.09967 3 3 0 0 1 -3 3 2.96729 2.96729 0 0 1 -.8598-.1402 2.99178 2.99178 0 0 0 5.8598-.8598c0-1.65686-3-7-3-7z" fill="#5fb1d7"/><path d="m60 5a3.9909 3.9909 0 0 0 -7.59094-1.73157 3.99508 3.99508 0 1 0 -1.40906 7.73157h9a3 3 0 0 0 0-6z" fill="#f1f2f2"/><path d="m42 17a8.9489 8.9489 0 0 0 -5.20947 1.66974 13.99232 13.99232 0 0 0 -27.79053 2.33026c0 .027.00385.0531.004.08014a6.9964 6.9964 0 1 0 -1.004 13.91986h34a9 9 0 0 0 0-18z" fill="#f1f2f2"/><path d="m43 31h-34a6.99418 6.99418 0 0 1 -6.981-6.62329 6.98925 6.98925 0 0 0 5.981 10.62329h34a8.99654 8.99654 0 0 0 8.99377-8.87616 8.99311 8.99311 0 0 1 -7.99377 4.87616z" fill="#d1d3d4"/><path d="m16 18.00049a1.00113 1.00113 0 0 1 -.92871-1.37207c.08984-.22461 2.26465-5.51514 7.73242-6.60889a.99993.99993 0 1 1 .39258 1.96094c-4.418.88379-6.25 5.34619-6.26758 5.39111a1.00107 1.00107 0 0 1 -.92871.62891z" fill="#d1d3d4"/><path d="m15 20h2v2h-2z" fill="#d1d3d4"/><g fill="#6ee1ef"><path d="m44 14 5 5v6l-2 1-4-4v-8z"/><path d="m54 14-5 5v6l2 1 4-4v-8z"/><path d="m44 42 5-5v-6l-2-1-4 4v8z"/><path d="m54 42-5-5v-6l2-1 4 4v8z"/><path d="m35 33 5-5h6l1 2-4 4h-8z"/><path d="m35 23 5 5h6l1-2-4-4h-8z"/><path d="m63 33-5-5h-6l-1 2 4 4h8z"/><path d="m63 23-5 5h-6l-1-2 4-4h8z"/></g><circle cx="49" cy="28" fill="#5fb1d7" r="3"/><path d="m51 12h9a4.00043 4.00043 0 0 0 .91992-7.89355 5.00779 5.00779 0 0 0 -4.91992-4.10645 4.944 4.944 0 0 0 -4.05664 2.0957 4.77994 4.77994 0 0 0 -.94336-.0957 5 5 0 0 0 0 10zm0-8a2.98339 2.98339 0 0 1 1.05566.2041 1.00036 1.00036 0 0 0 1.25391-.5 2.9733 2.9733 0 0 1 2.69043-1.7041 3.00328 3.00328 0 0 1 3 3 .99943.99943 0 0 0 1 1 2 2 0 0 1 0 4h-9a3 3 0 0 1 0-6z"/><path d="m8 36h23a1 1 0 0 0 0-2h-23a6.00025 6.00025 0 1 1 .8623-11.92969 1.0205 1.0205 0 0 0 .79493-.27441 1.08668 1.08668 0 0 0 .34277-.7959 13.01505 13.01505 0 0 1 13-13 13.52343 13.52343 0 0 1 12.09668 7.42871.99989.99989 0 0 0 1.80664-.85742 15.55708 15.55708 0 0 0 -13.90332-8.57129 15.02325 15.02325 0 0 0 -14.959 14h-.041a8 8 0 0 0 0 16z"/><path d="m21.19629 11.98047a.99993.99993 0 1 0 -.39258-1.96094c-5.46777 1.09375-7.64258 6.38477-7.73242 6.60938a1.0003 1.0003 0 0 0 .55762 1.2998 1.00046 1.00046 0 0 0 1.2998-.55762c.01758-.04492 1.84961-4.50683 6.26758-5.39062z"/><path d="m13 20h2v2h-2z"/><path d="m4 49a4 4 0 1 0 4 4 4.004 4.004 0 0 0 -4-4zm0 6a2 2 0 1 1 2-2 2.0026 2.0026 0 0 1 -2 2z"/><path d="m50 53a4 4 0 1 0 4 4 4.004 4.004 0 0 0 -4-4zm0 6a2 2 0 1 1 2-2 2.0026 2.0026 0 0 1 -2 2z"/><path d="m60 43a4 4 0 1 0 4 4 4.004 4.004 0 0 0 -4-4zm0 6a2 2 0 1 1 2-2 2.0026 2.0026 0 0 1 -2 2z"/><path d="m28 56a4 4 0 1 0 4 4 4.004 4.004 0 0 0 -4-4zm0 6a2 2 0 1 1 2-2 2.0026 2.0026 0 0 1 -2 2z"/><path d="m13 56a4 4 0 1 0 4 4 4.004 4.004 0 0 0 -4-4zm0 6a2 2 0 1 1 2-2 2.0026 2.0026 0 0 1 -2 2z"/><path d="m63.64062 23.76855a1.0013 1.0013 0 0 0 .12793-1.40917.9742.9742 0 0 0 -.4522-.28962.97323.97323 0 0 0 .11431-.52484.99561.99561 0 0 0 -1.08691-.90527l-5.02649.45715 2.99622-2.99621-1.41407-1.41407-2.99621 2.99622.45715-5.02649a1.0001 1.0001 0 0 0 -.90527-1.08691.96353.96353 0 0 0 -.52558.11071.97241.97241 0 0 0 -.28888-.4486 1.00218 1.00218 0 0 0 -1.40917.12793l-3.23145 3.87805v-4.23743h-2v4.23743l-3.23145-3.878a1.00218 1.00218 0 0 0 -1.40917-.12793.9722.9722 0 0 0 -.28919.44964.96865.96865 0 0 0 -.52527-.11175 1.0001 1.0001 0 0 0 -.90527 1.08691l.45715 5.02649-2.99621-2.99622-1.41407 1.41407 2.99622 2.99621-5.02649-.45715a.99251.99251 0 0 0 -1.08691.90527.97318.97318 0 0 0 .11438.52484.97435.97435 0 0 0 -.45227.28962 1.0013 1.0013 0 0 0 .12793 1.40917l3.87805 3.2314h-4.23743v2h4.23743l-3.87805 3.23145a1.0013 1.0013 0 0 0 -.12793 1.40917.97119.97119 0 0 0 .45178.29047.97352.97352 0 0 0 -.11389.524.99174.99174 0 0 0 1.08691.90527l5.02649-.45715-2.99622 2.99621 1.41407 1.41407 2.99621-2.99622-.45715 5.02649a1.0001 1.0001 0 0 0 .90527 1.08691c.03125.00293.06153.00391.0918.00391a.97573.97573 0 0 0 .43439-.11255.97194.97194 0 0 0 .28827.44653 1.0013 1.0013 0 0 0 1.40917-.12793l3.23145-3.87806v4.23743h2v-4.23743l3.23145 3.87805a1.00183 1.00183 0 0 0 1.40917.12793.97186.97186 0 0 0 .28838-.44655.9754.9754 0 0 0 .43432.11255c.03027 0 .06055-.001.0918-.00391a1.0001 1.0001 0 0 0 .90527-1.08691l-.45715-5.02649 2.99621 2.99622 1.41407-1.41407-2.99626-2.99619 5.02649.45715a.99417.99417 0 0 0 1.08691-.90527.97352.97352 0 0 0 -.11389-.524.97166.97166 0 0 0 .45178-.29047 1.0013 1.0013 0 0 0 -.12793-1.40917l-3.87805-3.23144h4.23743v-2h-4.23743zm-1.84088-1.07074-5.16266 4.30219h-3.77908a3.95694 3.95694 0 0 0 -.42468-1.01929l2.67456-2.67456zm-12.79974 7.30219a2 2 0 1 1 2-2 2.0026 2.0026 0 0 1 -2 2zm5.30219-14.79974-.60834 6.69183-2.67456 2.67456a3.95694 3.95694 0 0 0 -1.01929-.42465v-3.77908zm-10.60438 0 4.30219 5.16266v3.77908a3.95694 3.95694 0 0 0 -1.01929.42468l-2.67456-2.67456zm-7.49755 7.49755 6.69183.60834 2.67456 2.67456a3.95694 3.95694 0 0 0 -.42465 1.01929h-3.779zm0 10.60438 5.16266-4.30219h3.779a3.95694 3.95694 0 0 0 .42468 1.01929l-2.67456 2.67456zm7.49755 7.49755.60834-6.69183 2.67456-2.67456a3.95694 3.95694 0 0 0 1.01929.42465v3.779zm10.60438 0-4.30219-5.16266v-3.77908a3.95694 3.95694 0 0 0 1.01929-.42468l2.67456 2.67456zm7.49755-7.49755-6.69183-.60834-2.67456-2.67456a3.95694 3.95694 0 0 0 .42465-1.01929h3.779z"/><path d="m15 46c0-1.82617-2.60547-6.55957-3.12793-7.48926a1.04024 1.04024 0 0 0 -1.74414 0c-.52246.92969-3.12793 5.66309-3.12793 7.48926a4 4 0 0 0 8 0zm-6 0a19.03743 19.03743 0 0 1 2-4.8877 19.03743 19.03743 0 0 1 2 4.8877 2 2 0 0 1 -4 0z"/><path d="m18.12793 44.51074c-.52246.92969-3.12793 5.66309-3.12793 7.48926a4 4 0 0 0 8 0c0-1.82617-2.60547-6.55957-3.12793-7.48926a1.04024 1.04024 0 0 0 -1.74414 0zm.87207 9.48926a2.0026 2.0026 0 0 1 -2-2 19.03743 19.03743 0 0 1 2-4.8877 19.03743 19.03743 0 0 1 2 4.8877 2.0026 2.0026 0 0 1 -2 2z"/><path d="m27.12793 38.51074c-.52246.92969-3.12793 5.66309-3.12793 7.48926a4 4 0 0 0 8 0c0-1.82617-2.60547-6.55957-3.12793-7.48926a1.04024 1.04024 0 0 0 -1.74414 0zm.87207 9.48926a2.0026 2.0026 0 0 1 -2-2 19.03743 19.03743 0 0 1 2-4.8877 19.03743 19.03743 0 0 1 2 4.8877 2.0026 2.0026 0 0 1 -2 2z"/><path d="m35.12793 44.51074c-.52246.92969-3.12793 5.66309-3.12793 7.48926a4 4 0 0 0 8 0c0-1.82617-2.60547-6.55957-3.12793-7.48926a1.04024 1.04024 0 0 0 -1.74414 0zm.87207 9.48926a2.0026 2.0026 0 0 1 -2-2 19.03743 19.03743 0 0 1 2-4.8877 19.03743 19.03743 0 0 1 2 4.8877 2.0026 2.0026 0 0 1 -2 2z"/></svg>