<?xml version="1.0"?>
<svg xmlns="http://www.w3.org/2000/svg" id="Layer_1" data-name="Layer 1" viewBox="0 0 64 64" width="512" height="512"><path d="M34,15A31.02243,31.02243,0,0,0,4.64832,56.00006l4.02075-3a27.00682,27.00682,0,0,1,52.126-14.00012L61,39h3V32C58.59259,21.91315,46.08313,15,34,15Z" style="fill:#ffd241"/><path d="M50.00365,38.99973A17.00483,17.00483,0,0,0,19.08914,53.0001l-5.261,0A22.00608,22.00608,0,0,1,55.5002,38.99989Z" style="fill:#ef4136"/><path d="M60.79512,39A27.00759,27.00759,0,0,0,8.66907,53.0001l5.15908,0A22.00608,22.00608,0,0,1,55.5002,38.99989Z" style="fill:#b465ff"/><path d="M44,38a4.9771,4.9771,0,0,1,1.1438.1438,4.98375,4.98375,0,1,1,9.79291-1.77191A5.99755,5.99755,0,1,1,57,48H44a5,5,0,0,1,0-10Z" style="fill:#f1f2f2"/><path d="M57,46H44a5.00112,5.00112,0,0,1-4.89923-4A5.00112,5.00112,0,0,0,44,48H57a5.96727,5.96727,0,0,0,5.91-7A5.99663,5.99663,0,0,1,57,46Z" style="fill:#d1d3d4"/><path d="M18,53a4.96255,4.96255,0,0,0-2.05524.45209,4.98466,4.98466,0,1,0-9.78643,1.73846A3.955,3.955,0,0,0,5,55a4,4,0,0,0,0,8H18a5,5,0,0,0,0-10Z" style="fill:#f1f2f2"/><path d="M21.85468,54.85126A4.95673,4.95673,0,0,1,17,61H4a3.97615,3.97615,0,0,1-2.92877-1.29315A3.99453,3.99453,0,0,0,5,63H18a4.97365,4.97365,0,0,0,3.85468-8.14874Z" style="fill:#d1d3d4"/><circle cx="15" cy="5" r="5" style="fill:#ec8cbd"/><circle cx="33" cy="53" r="5" style="fill:#ffd241"/><circle cx="56" cy="7" r="2" style="fill:#6ee1ef"/><circle cx="7" cy="17" r="2" style="fill:#6ee1ef"/><path d="M42.52832,32.88135a1.00006,1.00006,0,1,0,.94336-1.76367A18.00082,18.00082,0,0,0,17,47a1,1,0,0,0,2,0A16.01833,16.01833,0,0,1,35,31,15.79411,15.79411,0,0,1,42.52832,32.88135Z"/><path d="M47.8374,29.54639a.9998.9998,0,0,0-.291-1.38379A23.027,23.027,0,0,0,35,24,23.02619,23.02619,0,0,0,12,47a1,1,0,0,0,2,0A21.02359,21.02359,0,0,1,35,26a21.07741,21.07741,0,0,1,11.45361,3.8374A.999.999,0,0,0,47.8374,29.54639Z"/><path d="M57.14893,33.5249a.99992.99992,0,0,0,1.70214-1.0498A27.94441,27.94441,0,0,0,7,47a1,1,0,0,0,2,0A25.94459,25.94459,0,0,1,57.14893,33.5249Z"/><path d="M3,48a1,1,0,0,0,1-1A31.03536,31.03536,0,0,1,35,16,31.36382,31.36382,0,0,1,62.13428,31.501a1.00023,1.00023,0,0,0,1.73144-1.002A33.37184,33.37184,0,0,0,35,14,33.03734,33.03734,0,0,0,2,47,1,1,0,0,0,3,48Z"/><path d="M18,52a5.85179,5.85179,0,0,0-1.31592.1499A5.98637,5.98637,0,0,0,5,54,5,5,0,0,0,5,64H18a6,6,0,0,0,0-12Zm0,10H5a3,3,0,0,1,0-6,2.94587,2.94587,0,0,1,.8667.147,1.00016,1.00016,0,0,0,1.26269-1.19531A3.92366,3.92366,0,0,1,7,54a3.98669,3.98669,0,0,1,7.95068-.438,1.00043,1.00043,0,0,0,1.40674.80127A3.95554,3.95554,0,0,1,18,54a4,4,0,0,1,0,8Z"/><path d="M57,35a6.89285,6.89285,0,0,0-1.32275.12891A5.98636,5.98636,0,0,0,44,37a6,6,0,0,0,0,12H57a7,7,0,0,0,0-14Zm0,12H44a4.00027,4.00027,0,1,1,.916-7.88281.99993.99993,0,0,0,1.20117-1.20313,3.98355,3.98355,0,1,1,7.82715-1.4165.99975.99975,0,0,0,1.33642.81348A4.99746,4.99746,0,1,1,57,47Z"/><path d="M32,49v2a1,1,0,0,0,2,0V49a1,1,0,0,0-2,0Z"/><path d="M33,54a1,1,0,0,0-1,1v2a1,1,0,0,0,2,0V55A1,1,0,0,0,33,54Z"/><path d="M37,52H35a1,1,0,0,0,0,2h2a1,1,0,0,0,0-2Z"/><path d="M31,52H29a1,1,0,0,0,0,2h2a1,1,0,0,0,0-2Z"/><path d="M15,4a1,1,0,0,0,1-1V1a1,1,0,0,0-2,0V3A1,1,0,0,0,15,4Z"/><path d="M15,6a1,1,0,0,0-1,1V9a1,1,0,0,0,2,0V7A1,1,0,0,0,15,6Z"/><path d="M17,6h2a1,1,0,0,0,0-2H17a1,1,0,0,0,0,2Z"/><path d="M11,6h2a1,1,0,0,0,0-2H11a1,1,0,0,0,0,2Z"/><path d="M56,10a3,3,0,1,0-3-3A3.00328,3.00328,0,0,0,56,10Zm0-4a1,1,0,1,1-1,1A1.0013,1.0013,0,0,1,56,6Z"/><path d="M7,20a3,3,0,1,0-3-3A3.00328,3.00328,0,0,0,7,20Zm0-4a1,1,0,1,1-1,1A1.0013,1.0013,0,0,1,7,16Z"/></svg>
