<svg id="Layer_1" height="512" viewBox="0 0 64 64" width="512" xmlns="http://www.w3.org/2000/svg" data-name="Layer 1"><g fill="#6ee1ef"><circle cx="5" cy="5" r="5"/><circle cx="59" cy="59" r="5"/><path d="m19.82494 44.93838a2.97 2.97 0 0 1 -3.84847 1.87189 3.17085 3.17085 0 0 1 -1.79457-4.01427c.56716-1.62542 5.21773-5.796 5.21773-5.796s.99248 6.313.42531 7.93838z"/></g><path d="m19.39966 37s-.25971.23346-.65558.60272c.21887 1.93939.40564 4.40479.08087 5.33563a2.927 2.927 0 0 1 -4.79327 1.28132 3.10232 3.10232 0 0 0 1.94476 2.59057 2.97 2.97 0 0 0 3.84856-1.87189c.56709-1.62542-.42534-7.93835-.42534-7.93835z" fill="#5fb1d7"/><path d="m26.82494 58.93838a2.97 2.97 0 0 1 -3.84847 1.87189 3.17085 3.17085 0 0 1 -1.79457-4.01427c.56716-1.62542 5.21773-5.796 5.21773-5.796s.99248 6.313.42531 7.93838z" fill="#6ee1ef"/><path d="m26.39966 51s-.25971.23346-.65558.60272c.21887 1.93939.40564 4.40479.08087 5.33563a2.927 2.927 0 0 1 -4.79327 1.28132 3.10232 3.10232 0 0 0 1.94476 2.59057 2.97 2.97 0 0 0 3.84856-1.87189c.56709-1.62542-.42534-7.93835-.42534-7.93835z" fill="#5fb1d7"/><path d="m41.82494 58.93838a2.97 2.97 0 0 1 -3.84847 1.87189 3.17085 3.17085 0 0 1 -1.79457-4.01427c.56716-1.62542 5.21773-5.796 5.21773-5.796s.99248 6.313.42531 7.93838z" fill="#6ee1ef"/><path d="m41.39966 51s-.25971.23346-.65558.60272c.21887 1.93939.40564 4.40479.08087 5.33563a2.927 2.927 0 0 1 -4.79327 1.28132 3.10232 3.10232 0 0 0 1.94476 2.59057 2.97 2.97 0 0 0 3.84856-1.87189c.56709-1.62542-.42534-7.93835-.42534-7.93835z" fill="#5fb1d7"/><path d="m34.82494 44.93838a2.97 2.97 0 0 1 -3.84847 1.87189 3.17085 3.17085 0 0 1 -1.79457-4.01427c.56716-1.62542 5.21773-5.796 5.21773-5.796s.99248 6.313.42531 7.93838z" fill="#6ee1ef"/><path d="m34.39966 37s-.25971.23346-.65558.60272c.21887 1.93939.40564 4.40479.08087 5.33563a2.927 2.927 0 0 1 -4.79327 1.28132 3.10232 3.10232 0 0 0 1.94476 2.59057 2.97 2.97 0 0 0 3.84856-1.87189c.56709-1.62542-.42534-7.93835-.42534-7.93835z" fill="#5fb1d7"/><path d="m49.82494 44.93838a2.97 2.97 0 0 1 -3.84847 1.87189 3.17085 3.17085 0 0 1 -1.79457-4.01427c.56716-1.62542 5.21773-5.796 5.21773-5.796s.99248 6.313.42531 7.93838z" fill="#6ee1ef"/><path d="m49.39966 37s-.25971.23346-.65558.60272c.21887 1.93939.40564 4.40479.08087 5.33563a2.927 2.927 0 0 1 -4.79327 1.28132 3.10232 3.10232 0 0 0 1.94476 2.59057 2.97 2.97 0 0 0 3.84856-1.87189c.56709-1.62542-.42534-7.93835-.42534-7.93835z" fill="#5fb1d7"/><path d="m48 13a8.9489 8.9489 0 0 0 -5.20947 1.66974 13.99232 13.99232 0 0 0 -27.79053 2.33026c0 .027.00385.0531.004.08014a6.9964 6.9964 0 1 0 -1.004 13.91986h34a9 9 0 0 0 0-18z" fill="#f1f2f2"/><path d="m49 27h-34a6.99418 6.99418 0 0 1 -6.981-6.62329 6.98925 6.98925 0 0 0 5.981 10.62329h34a8.99654 8.99654 0 0 0 8.99377-8.87616 8.99311 8.99311 0 0 1 -7.99377 4.87616z" fill="#d1d3d4"/><path d="m22 14.00049a1.00113 1.00113 0 0 1 -.92871-1.37207c.08984-.22461 2.26465-5.51514 7.73242-6.60889a.99993.99993 0 1 1 .39258 1.96094c-4.418.88379-6.25 5.34619-6.26758 5.39111a1.00107 1.00107 0 0 1 -.92871.62891z" fill="#d1d3d4"/><path d="m21 16h2v2h-2z" fill="#d1d3d4"/><path d="m20.3877 36.84473a1.001 1.001 0 0 0 -1.65625-.58936c-.8086.7251-4.873 4.43262-5.49415 6.21094a4.18036 4.18036 0 0 0 2.38477 5.27881 3.86539 3.86539 0 0 0 3.02832-.11182 4.05279 4.05279 0 0 0 2.11914-2.36523c.61817-1.77295-.20996-7.32764-.38183-8.42334zm-1.50684 7.76416a2.062 2.062 0 0 1 -1.0752 1.21142 1.87871 1.87871 0 0 1 -1.47461.05469 2.1677 2.1677 0 0 1 -1.20505-2.74951c.25488-.73145 1.94043-2.53369 3.54785-4.083.28025 2.28075.4658 4.82665.20701 5.5664z"/><path d="m35.3877 36.84473a1.001 1.001 0 0 0 -1.65625-.58936c-.8086.7251-4.87305 4.43262-5.49415 6.21094a4.18036 4.18036 0 0 0 2.38477 5.27881 3.86539 3.86539 0 0 0 3.02832-.11182 4.05279 4.05279 0 0 0 2.11914-2.36523c.61817-1.77295-.20996-7.32764-.38183-8.42334zm-1.50684 7.76416a2.062 2.062 0 0 1 -1.0752 1.21142 1.87871 1.87871 0 0 1 -1.47461.05469 2.1677 2.1677 0 0 1 -1.20505-2.74951c.25488-.73145 1.94043-2.53369 3.54785-4.083.28025 2.28075.4658 4.82665.20701 5.5664z"/><path d="m49.73438 36.05811a.99922.99922 0 0 0 -1.00293.19726c-.8086.7251-4.873 4.43262-5.49415 6.21094a4.18036 4.18036 0 0 0 2.38477 5.27881 3.86539 3.86539 0 0 0 3.02832-.11182 4.05279 4.05279 0 0 0 2.11914-2.36523c.61817-1.773-.21-7.32764-.38183-8.42334a1.00019 1.00019 0 0 0 -.65332-.78662zm-.85352 8.55078a2.062 2.062 0 0 1 -1.0752 1.21142 1.87871 1.87871 0 0 1 -1.47461.05469 2.1677 2.1677 0 0 1 -1.20505-2.74951c.25488-.73145 1.94043-2.53369 3.54785-4.083.28025 2.28075.4658 4.82665.20701 5.5664z"/><path d="m26.73438 50.05811a1.00076 1.00076 0 0 0 -1.00293.19726c-.8086.7251-4.873 4.43262-5.49415 6.21094a4.18036 4.18036 0 0 0 2.38477 5.27881 3.86539 3.86539 0 0 0 3.02832-.11182 4.05279 4.05279 0 0 0 2.11914-2.36523c.61817-1.773-.21-7.32764-.38183-8.42334a1.00019 1.00019 0 0 0 -.65332-.78662zm-.85352 8.55078a2.062 2.062 0 0 1 -1.0752 1.21142 1.87871 1.87871 0 0 1 -1.47461.05469 2.1677 2.1677 0 0 1 -1.20505-2.74951c.25488-.73145 1.94043-2.53369 3.54785-4.083.28025 2.28075.4658 4.82665.20701 5.5664z"/><path d="m41.73438 50.05811a1.00119 1.00119 0 0 0 -1.00293.19726c-.8086.7251-4.873 4.43262-5.49415 6.21094a4.18036 4.18036 0 0 0 2.38477 5.27881 3.86539 3.86539 0 0 0 3.02832-.11182 4.05279 4.05279 0 0 0 2.11914-2.36523c.61817-1.773-.21-7.32764-.38183-8.42334a1.00019 1.00019 0 0 0 -.65332-.78662zm-.85352 8.55078a2.062 2.062 0 0 1 -1.0752 1.21142 1.87871 1.87871 0 0 1 -1.47461.05469 2.1677 2.1677 0 0 1 -1.20505-2.74951c.25488-.73145 1.94043-2.53369 3.54785-4.083.28025 2.28075.4658 4.82665.20701 5.5664z"/><path d="m48 32a10 10 0 0 0 0-20 9.90843 9.90843 0 0 0 -4.53027 1.08936 14.98873 14.98873 0 0 0 -29.42873 2.91064 8.00005 8.00005 0 1 0 -.041 16zm-40-8a6.00657 6.00657 0 0 1 6-6 5.92942 5.92942 0 0 1 .86133.06982 1.01664 1.01664 0 0 0 .79492-.27392 1.08307 1.08307 0 0 0 .34375-.7959 12.9925 12.9925 0 0 1 25.80469-2.16455 1 1 0 0 0 1.5664.64893 7.99687 7.99687 0 1 1 4.62891 14.51562h-34a6.00657 6.00657 0 0 1 -6-6z"/><path d="m19.62891 13.92871a.999.999 0 0 0 1.2998-.55713c.01758-.04492 1.84961-4.50732 6.26758-5.39111a.99993.99993 0 1 0 -.39258-1.96094c-5.46777 1.09375-7.64258 6.38428-7.73242 6.60889a1.00084 1.00084 0 0 0 .55762 1.30029z"/><path d="m19 16h2v2h-2z"/><path d="m5 4a.99974.99974 0 0 0 1-1v-2a1 1 0 0 0 -2 0v2a.99974.99974 0 0 0 1 1z"/><path d="m6 7a1 1 0 0 0 -2 0v2a1 1 0 0 0 2 0z"/><path d="m7 6h2a1 1 0 0 0 0-2h-2a1 1 0 0 0 0 2z"/><path d="m3 4h-2a1 1 0 0 0 0 2h2a1 1 0 0 0 0-2z"/><path d="m58 57a1 1 0 0 0 2 0v-2a1 1 0 0 0 -2 0z"/><path d="m59 60a.99974.99974 0 0 0 -1 1v2a1 1 0 0 0 2 0v-2a.99974.99974 0 0 0 -1-1z"/><path d="m63 58h-2a1 1 0 0 0 0 2h2a1 1 0 0 0 0-2z"/><path d="m57 58h-2a1 1 0 0 0 0 2h2a1 1 0 0 0 0-2z"/></svg>