<?xml version="1.0"?>
<svg xmlns="http://www.w3.org/2000/svg" id="Layer_1" data-name="Layer 1" viewBox="0 0 64 64" width="512" height="512"><circle cx="5" cy="43" r="5" style="fill:#808285"/><circle cx="59" cy="55" r="5" style="fill:#808285"/><path d="M12,27c-1.1,0-2,1-2,3s.9,3,2,3H48c1.1,0,2-1,2-3s-.9-3-2-3Z" style="fill:#d1d3d4"/><path d="M19,33c-1.1,0-2,1-2,3s.9,3,2,3H49c1.1,0,2-1,2-3s-.9-3-2-3Z" style="fill:#f1f2f2"/><path d="M20,39c-1.1,0-2,1-2,3s.9,3,2,3H44c1.1,0,2-1,2-3s-.9-3-2-3Z" style="fill:#d1d3d4"/><path d="M25,45c-1.1,0-2,1-2,3s.9,3,2,3H43c1.1,0,2-1,2-3s-.9-3-2-3Z" style="fill:#f1f2f2"/><path d="M23,51c-1.1,0-2,1-2,3s.9,3,2,3H35c1.1,0,2-1,2-3s-.9-3-2-3Z" style="fill:#d1d3d4"/><path d="M27,57c-1.1,0-2,1-2,3s.9,3,2,3h6c1.1,0,2-1,2-3s-.9-3-2-3Z" style="fill:#f1f2f2"/><path d="M55,24c0,2-.9,3-2,3H11c-1.1,0-2-1-2-3V21H55Z" style="fill:#f1f2f2"/><path d="M47,1H14a9,9,0,0,0-9,9v9a4,4,0,0,0,4,4H53a6,6,0,0,0,6-6V13A12,12,0,0,0,47,1Z" style="fill:#d1d3d4"/><path d="M13,11h0a2,2,0,0,1,2-2H48a3,3,0,0,1,3,3h0a3,3,0,0,1-3,3H13Z" style="fill:#808285"/><path d="M14,20H48A8,8,0,0,0,48,4H14a6,6,0,0,0,0,12H48a4,4,0,0,0,0-8H15a3.00328,3.00328,0,0,0-3,3,1,1,0,0,0,2,0,1.001,1.001,0,0,1,1-1H48a2,2,0,0,1,0,4H14a4,4,0,0,1,0-8H48a6,6,0,0,1,0,12H14A8,8,0,0,1,14,2H47A11.01245,11.01245,0,0,1,58,13a1,1,0,0,0,2,0A13.01474,13.01474,0,0,0,47,0H14a10,10,0,0,0,0,20Z"/><path d="M56,24a.97658.97658,0,0,0-.20972-.58392A7.008,7.008,0,0,0,60,17a1,1,0,0,0-2,0,5.00588,5.00588,0,0,1-5,5H23a1,1,0,0,0,0,2H53a6.98876,6.98876,0,0,0,1.01666-.0824C54.01422,23.94623,53.60742,26,53,26H38a1,1,0,0,0,0,2H48c.60742,0,1,.78516,1,2s-.39258,2-1,2a1,1,0,0,0,0,2h1c.60742,0,1,.78516,1,2s-.39258,2-1,2H44a1,1,0,0,0,0,2c.60742,0,1,.78516,1,2s-.39258,2-1,2H43a1,1,0,0,0,0,2c.60742,0,1,.78516,1,2s-.39258,2-1,2H35a1,1,0,0,0,0,2c.60742,0,1,.78516,1,2s-.39258,2-1,2H33a1,1,0,0,0,0,2c.60742,0,1,.78516,1,2s-.39258,2-1,2H27c-.60742,0-1-.78516-1-2s.39258-2,1-2a1,1,0,0,0,0-2H23c-.60742,0-1-.78516-1-2s.39258-2,1-2h2a1,1,0,0,0,0-2c-.60742,0-1-.78516-1-2s.39258-2,1-2a1,1,0,0,0,0-2H20c-.60742,0-1-.78516-1-2s.39258-2,1-2a1,1,0,0,0,0-2H19c-.60742,0-1-.78516-1-2s.39258-2,1-2a1,1,0,0,0,0-2H12c-.60742,0-1-.78516-1-2s.39258-2,1-2h6a1,1,0,0,0,0-2H11c-.60742,0-1-.78516-1-2a1,1,0,0,0-2,0,3.99351,3.99351,0,0,0,1.54236,3.55066A5.10292,5.10292,0,0,0,9,30c0,2.76318,1.50684,4,3,4h4.333A5.56736,5.56736,0,0,0,16,36a4.02108,4.02108,0,0,0,1.5332,3.56055A5.13648,5.13648,0,0,0,17,42c0,2.76318,1.50684,4,3,4h2.333A5.56736,5.56736,0,0,0,22,48a5.48859,5.48859,0,0,0,.36328,2.07666C21.10645,50.38477,20,51.63184,20,54c0,2.76318,1.50684,4,3,4h1.333A5.56736,5.56736,0,0,0,24,60c0,2.76318,1.50684,4,3,4h6c1.49316,0,3-1.23682,3-4a5.48859,5.48859,0,0,0-.36328-2.07666C36.89355,57.61523,38,56.36816,38,54a5.56736,5.56736,0,0,0-.333-2H43c1.49316,0,3-1.23682,3-4a5.13648,5.13648,0,0,0-.5332-2.43945A4.02108,4.02108,0,0,0,47,42a5.56736,5.56736,0,0,0-.333-2H49c1.49316,0,3-1.23682,3-4a4.02108,4.02108,0,0,0-1.5332-3.56055A5.13648,5.13648,0,0,0,51,30a5.45208,5.45208,0,0,0-.34888-2H53C54.49316,28,56,26.76318,56,24Z"/><path d="M17,22a1,1,0,0,0,0,2h2a1,1,0,0,0,0-2Z"/><path d="M22,33a.99974.99974,0,0,0,1,1H37a1,1,0,0,0,0-2H23A.99974.99974,0,0,0,22,33Z"/><path d="M26,38a1,1,0,0,0,0,2H40a1,1,0,0,0,0-2Z"/><path d="M43,34a1,1,0,0,0,0-2H41a1,1,0,0,0,0,2Z"/><path d="M34,28a1,1,0,0,0,0-2H32a1,1,0,0,0,0,2Z"/><path d="M26,28a1,1,0,0,0,0-2H24a1,1,0,0,0,0,2Z"/><path d="M33,45a.99974.99974,0,0,0-1-1H30a1,1,0,0,0,0,2h2A.99974.99974,0,0,0,33,45Z"/><path d="M36,44a1,1,0,0,0,0,2h2a1,1,0,0,0,0-2Z"/><path d="M29,50a1,1,0,0,0,0,2h2a1,1,0,0,0,0-2Z"/><path d="M5,42a.99974.99974,0,0,0,1-1V39a1,1,0,0,0-2,0v2A.99974.99974,0,0,0,5,42Z"/><path d="M5,44a.99974.99974,0,0,0-1,1v2a1,1,0,0,0,2,0V45A.99974.99974,0,0,0,5,44Z"/><path d="M9,42H7a1,1,0,0,0,0,2H9a1,1,0,0,0,0-2Z"/><path d="M3,42H1a1,1,0,0,0,0,2H3a1,1,0,0,0,0-2Z"/><path d="M58,51v2a1,1,0,0,0,2,0V51a1,1,0,0,0-2,0Z"/><path d="M59,56a.99974.99974,0,0,0-1,1v2a1,1,0,0,0,2,0V57A.99974.99974,0,0,0,59,56Z"/><path d="M63,54H61a1,1,0,0,0,0,2h2a1,1,0,0,0,0-2Z"/><path d="M57,54H55a1,1,0,0,0,0,2h2a1,1,0,0,0,0-2Z"/></svg>
