<?xml version="1.0"?>
<svg xmlns="http://www.w3.org/2000/svg" id="Layer_1" data-name="Layer 1" viewBox="0 0 64 64" width="512" height="512"><circle cx="10" cy="23" r="5" style="fill:#6ee1ef"/><circle cx="57" cy="59" r="5" style="fill:#6ee1ef"/><path d="M26,5a4.96255,4.96255,0,0,0-2.05524.45209,4.98466,4.98466,0,1,0-9.78643,1.73846A3.955,3.955,0,0,0,13,7a4,4,0,0,0,0,8H26A5,5,0,0,0,26,5Z" style="fill:#f1f2f2"/><path d="M26,12H13A3.99655,3.99655,0,0,1,9.29663,9.5,3.99026,3.99026,0,0,0,13,15H26a5,5,0,0,0,5-5,4.94612,4.94612,0,0,0-.25439-1.5A4.98325,4.98325,0,0,1,26,12Z" style="fill:#d1d3d4"/><path d="M6,53a4.9771,4.9771,0,0,1,1.1438.1438,4.98375,4.98375,0,1,1,9.79291-1.77191A5.99755,5.99755,0,1,1,19,63H6A5,5,0,0,1,6,53Z" style="fill:#f1f2f2"/><path d="M19,60H6a4.98325,4.98325,0,0,1-4.74561-3.5A4.94612,4.94612,0,0,0,1,58a5,5,0,0,0,5,5H19a5.979,5.979,0,0,0,5.80334-7.5A5.9969,5.9969,0,0,1,19,60Z" style="fill:#d1d3d4"/><path d="M42,51V48.5A4.50491,4.50491,0,0,0,37.5,44h-3A4.50491,4.50491,0,0,0,30,48.5a10.5,10.5,0,0,0,21,0C51,41.60742,45.39258,35,38.5,35H9v4H38.5c4.687,0,8.5,4.813,8.5,9.5a6.5,6.5,0,0,1-13,0,.50034.50034,0,0,1,.5-.5h3a.50034.50034,0,0,1,.5.5V51Z" style="fill:#f1f2f2"/><path d="M54,15v2.5A4.50491,4.50491,0,0,1,49.5,22h-3A4.50491,4.50491,0,0,1,42,17.5a10.5,10.5,0,0,1,21,0C63,24.39258,57.39258,31,50.5,31H21V27H50.5c4.687,0,8.5-4.813,8.5-9.5a6.5,6.5,0,0,0-13,0,.50034.50034,0,0,0,.5.5h3a.50034.50034,0,0,0,.5-.5V15Z" style="fill:#d1d3d4"/><path d="M13,16H26A6,6,0,0,0,26,4a5.85179,5.85179,0,0,0-1.31592.1499A5.98637,5.98637,0,0,0,13,6a5,5,0,0,0,0,10Zm0-8a2.94587,2.94587,0,0,1,.8667.147,1.00016,1.00016,0,0,0,1.26269-1.19531A3.92366,3.92366,0,0,1,15,6a3.98669,3.98669,0,0,1,7.95068-.438,1.00043,1.00043,0,0,0,1.40674.80127A3.95554,3.95554,0,0,1,26,6a4,4,0,0,1,0,8H13a3,3,0,0,1,0-6Z"/><path d="M50.5,26H21a1,1,0,0,0,0,2H50.5c5.437,0,9.5-5.54346,9.5-10.5a7.5,7.5,0,0,0-15,0A1.50164,1.50164,0,0,0,46.5,19h3A1.50164,1.50164,0,0,0,51,17.5V15a1,1,0,0,0-2,0v2H47.02246A5.50016,5.50016,0,0,1,58,17.5C58,21.43066,54.72363,26,50.5,26Z"/><path d="M46.5,23h3A5.50623,5.50623,0,0,0,55,17.5V15a1,1,0,0,0-2,0v2.5A3.50424,3.50424,0,0,1,49.5,21h-3A3.50424,3.50424,0,0,1,43,17.5a9.5,9.5,0,0,1,19,0C62,24.15869,56.626,30,50.5,30H21a1,1,0,0,0,0,2H50.5C57.69141,32,64,25.22412,64,17.5a11.5,11.5,0,0,0-23,0A5.50623,5.50623,0,0,0,46.5,23Z"/><path d="M38,52a1,1,0,0,0,1-1V48.5A1.50164,1.50164,0,0,0,37.5,47h-3A1.50164,1.50164,0,0,0,33,48.5a7.5,7.5,0,0,0,15,0C48,43.54346,43.937,38,38.5,38H15a1,1,0,0,0,0,2H38.5c4.22363,0,7.5,4.56934,7.5,8.5a5.50016,5.50016,0,0,1-10.97754.5H37v2A1,1,0,0,0,38,52Z"/><path d="M38.5,34H9a1,1,0,0,0,0,2H38.5C44.626,36,50,41.84131,50,48.5a9.5,9.5,0,0,1-19,0A3.50424,3.50424,0,0,1,34.5,45h3A3.50424,3.50424,0,0,1,41,48.5V51a1,1,0,0,0,2,0V48.5A5.50623,5.50623,0,0,0,37.5,43h-3A5.50623,5.50623,0,0,0,29,48.5a11.5,11.5,0,0,0,23,0C52,40.77588,45.69141,34,38.5,34Z"/><path d="M19,50a6.89285,6.89285,0,0,0-1.32275.12891A5.98636,5.98636,0,0,0,6,52,6,6,0,0,0,6,64H19a7,7,0,0,0,0-14Zm0,12H6a4.00027,4.00027,0,1,1,.916-7.88281.99993.99993,0,0,0,1.20117-1.20313,3.98355,3.98355,0,1,1,7.82715-1.4165.99975.99975,0,0,0,1.33642.81348A4.99746,4.99746,0,1,1,19,62Z"/><path d="M56,55v2a1,1,0,0,0,2,0V55a1,1,0,0,0-2,0Z"/><path d="M57,60a1,1,0,0,0-1,1v2a1,1,0,0,0,2,0V61A1,1,0,0,0,57,60Z"/><path d="M61,58H59a1,1,0,0,0,0,2h2a1,1,0,0,0,0-2Z"/><path d="M55,58H53a1,1,0,0,0,0,2h2a1,1,0,0,0,0-2Z"/><path d="M11,19a1,1,0,0,0-2,0v2a1,1,0,0,0,2,0Z"/><path d="M10,24a1,1,0,0,0-1,1v2a1,1,0,0,0,2,0V25A1,1,0,0,0,10,24Z"/><path d="M12,24h2a1,1,0,0,0,0-2H12a1,1,0,0,0,0,2Z"/><path d="M6,24H8a1,1,0,0,0,0-2H6a1,1,0,0,0,0,2Z"/></svg>
