<svg id="Layer_1" height="512" viewBox="0 0 64 64" width="512" xmlns="http://www.w3.org/2000/svg" data-name="Layer 1"><path d="m46 53a4.96255 4.96255 0 0 1 2.05524.45209 4.98466 4.98466 0 1 1 9.78643 1.73846 3.955 3.955 0 0 1 1.15833-.19055 4 4 0 0 1 0 8h-13a5 5 0 0 1 0-10z" fill="#f1f2f2"/><path d="m59 61h-13a5.00112 5.00112 0 0 1 -4.89923-4 5.00112 5.00112 0 0 0 4.89923 6h13a3.95152 3.95152 0 0 0 3.85858-5 3.99071 3.99071 0 0 1 -3.85858 3z" fill="#d1d3d4"/><path d="m26.14849 5a4.96247 4.96247 0 0 0 -2.05523.45209 4.98466 4.98466 0 1 0 -9.78644 1.73846 3.95494 3.95494 0 0 0 -1.15833-.19055 4 4 0 0 0 0 8h13a5 5 0 0 0 0-10z" fill="#f1f2f2"/><path d="m26.1485 13h-13a3.99071 3.99071 0 0 1 -3.85858-3 3.95152 3.95152 0 0 0 3.85858 5h13a5.00112 5.00112 0 0 0 4.89923-6 5.00112 5.00112 0 0 1 -4.89923 4z" fill="#d1d3d4"/><g fill="#ec6f1d"><path d="m44 18 2-6 2 6z"/><path d="m36.808 22.636-2.829-5.657 5.657 2.829z"/><path d="m35 31-6-2 6-2z"/><path d="m55.192 35.364 2.829 5.657-5.657-2.829z"/><path d="m57 27 6 2-6 2z"/><path d="m52.364 19.808 5.657-2.829-2.829 5.657z"/></g><circle cx="46" cy="29" fill="#ffb028" r="9"/><path d="m50.989 21.511a8.99811 8.99811 0 0 1 -12.478 12.478 8.99893 8.99893 0 1 0 12.478-12.478z" fill="#f7941d"/><path d="m42.999 27a.99991.99991 0 0 1 -.89355-1.44727 8.475 8.475 0 0 1 3.44726-3.44726.9999.9999 0 0 1 .89649 1.7876 6.5099 6.5099 0 0 0 -2.55469 2.5542 1.00011 1.00011 0 0 1 -.89551.55273z" fill="#f1f2f2"/><path d="m42 28h2v2h-2z" fill="#f1f2f2"/><path d="m33 32a9.98249 9.98249 0 0 0 -2.68756.376 9.99537 9.99537 0 0 0 -19.31244 3.624c0 .08972.01111.17657.01343.26569a7.99644 7.99644 0 1 0 -2.01343 15.73431h24a10 10 0 0 0 0-20z" fill="#f1f2f2"/><path d="m33 48h-24a7.99585 7.99585 0 0 1 -7.73779-6 7.97207 7.97207 0 0 0 7.73779 10h24a10.00521 10.00521 0 0 0 9.79913-12 10.00283 10.00283 0 0 1 -9.79913 8z" fill="#d1d3d4"/><path d="m18 34.00049a1.00076 1.00076 0 0 1 -.94824-1.3169 7.81652 7.81652 0 0 1 4.63183-4.63232 1 1 0 0 1 .63672 1.896 5.87478 5.87478 0 0 0 -3.37207 3.36914.99992.99992 0 0 1 -.94824.68408z" fill="#d1d3d4"/><path d="m17 35h2v2h-2z" fill="#d1d3d4"/><path d="m13.14844 16h13a6 6 0 0 0 0-12 5.84429 5.84429 0 0 0 -1.31543.1499 5.98665 5.98665 0 0 0 -11.68457 1.8501 5 5 0 0 0 0 10zm0-8a2.95643 2.95643 0 0 1 .86718.147.99991.99991 0 0 0 1.2627-1.19433 3.9368 3.9368 0 0 1 -.12988-.95267 3.98646 3.98646 0 0 1 7.95019-.43848 1.00039 1.00039 0 0 0 1.40625.80176 3.9633 3.9633 0 0 1 1.64356-.36328 4 4 0 0 1 0 8h-13a3 3 0 0 1 0-6z"/><path d="m59 54a5.98665 5.98665 0 0 0 -11.68457-1.8501 5.84429 5.84429 0 0 0 -1.31543-.1499 6 6 0 0 0 0 12h13a5 5 0 0 0 0-10zm0 8h-13a4 4 0 0 1 0-8 3.96322 3.96322 0 0 1 1.64355.36328 1.00038 1.00038 0 0 0 1.40625-.80176 3.98647 3.98647 0 0 1 7.9502.43848 3.93729 3.93729 0 0 1 -.12988.95264.99991.99991 0 0 0 1.26269 1.19436 2.95654 2.95654 0 0 1 .86719-.147 3 3 0 0 1 0 6z"/><path d="m46 37a1 1 0 0 0 0 2 10 10 0 1 0 -10-10 1 1 0 0 0 2 0 8 8 0 1 1 8 8z"/><path d="m43.62891 17.92871a1.00345 1.00345 0 0 0 1.2998-.55713l1.07129-2.6792 1.07129 2.6792a1.00029 1.00029 0 0 0 1.85742-.74316l-2-5a1.00046 1.00046 0 0 0 -1.85742 0l-2 5a1.00084 1.00084 0 0 0 .55762 1.30029z"/><path d="m35.18164 22.32275a.99986.99986 0 0 0 1.83789-.78808l-1.13574-2.65137 2.65137 1.13623a.99967.99967 0 1 0 .78711-1.83789l-4.94922-2.12158a.99969.99969 0 0 0 -1.3125 1.313z"/><path d="m58.02051 42.021a1 1 0 0 0 .91894-1.394l-2.12109-4.9497a.99986.99986 0 0 0 -1.83789.78808l1.13574 2.65137-2.65137-1.13623a.99967.99967 0 1 0 -.78711 1.83789l4.94927 2.12153a.99326.99326 0 0 0 .39351.08106z"/><path d="m57.07129 26.62842a1.00084 1.00084 0 0 0 .55762 1.30029l2.67871 1.07129-2.67871 1.07129a1.00011 1.00011 0 1 0 .74218 1.85742l5-2a1.00017 1.00017 0 0 0 0-1.85742l-5-2a1.00269 1.00269 0 0 0 -1.2998.55713z"/><path d="m52.15234 19.49463a1.00162 1.00162 0 0 0 1.3125.5249l2.65137-1.13623-1.13574 2.65137a.99986.99986 0 1 0 1.83789.78808l2.12109-4.9497a.99969.99969 0 0 0 -1.3125-1.313l-4.94922 2.12158a.99951.99951 0 0 0 -.52539 1.313z"/><path d="m40.10547 17.44727a1.00012 1.00012 0 0 0 1.78906-.89454l-1-2a1.00012 1.00012 0 1 0 -1.78906.89454z"/><path d="m30.90918 23.02734a.99974.99974 0 0 0 .63182 1.26466l2.12207.707a1.0001 1.0001 0 0 0 .63281-1.89746l-2.12207-.707a.99692.99692 0 0 0 -1.26463.6328z"/><path d="m51.10547 43.44727a1.00012 1.00012 0 0 0 1.78906-.89454l-1-2a1.00012 1.00012 0 1 0 -1.78906.89454z"/><path d="m60.14258 35.65723a1.00046 1.00046 0 0 0 .31642-1.94923l-2.12207-.707a1.0001 1.0001 0 0 0 -.63281 1.89746l2.12207.707a.99854.99854 0 0 0 .31639.05177z"/><path d="m57.10547 24.44727a1.00046 1.00046 0 0 0 1.3418.44726l2-1a1.00012 1.00012 0 0 0 -.89454-1.78906l-2 1a1 1 0 0 0 -.44726 1.3418z"/><path d="m50.63379 17.92773a.99809.99809 0 0 0 1.26465-.63232l.707-2.12109a.99964.99964 0 1 0 -1.89644-.63282l-.707 2.1211a1.00026 1.00026 0 0 0 .63179 1.26513z"/><path d="m44.44922 23.89307a.9999.9999 0 0 0 -.89649-1.7876 8.475 8.475 0 0 0 -3.44726 3.44726 1.00012 1.00012 0 0 0 1.78906.89454 6.5099 6.5099 0 0 1 2.55469-2.5542z"/><path d="m40 28h2v2h-2z"/><path d="m44 42a11.01245 11.01245 0 0 0 -11-11 10.79263 10.79263 0 0 0 -2.10449.21 10.99615 10.99615 0 0 0 -20.85645 3.854 8.99822 8.99822 0 1 0 -1.03906 17.936h24a11.01245 11.01245 0 0 0 11-11zm-11 9h-24a7.00007 7.00007 0 1 1 1.76172-13.7666.99934.99934 0 0 0 1.251-1.00049l-.01272-.23291a8.99544 8.99544 0 0 1 17.38086-3.26074.99825.99825 0 0 0 1.20019.6001 8.99646 8.99646 0 1 1 2.41895 17.66064z"/><path d="m19.68359 28.05127a7.81652 7.81652 0 0 0 -4.63183 4.63232.99964.99964 0 1 0 1.89648.63282 5.87478 5.87478 0 0 1 3.37207-3.36914 1 1 0 0 0 -.63672-1.896z"/><path d="m15 35h2v2h-2z"/></svg>