<?xml version="1.0"?>
<svg xmlns="http://www.w3.org/2000/svg" id="Layer_1" data-name="Layer 1" viewBox="0 0 64 64" width="512" height="512"><path d="M57,36A15.97751,15.97751,0,0,1,42.12732,14.12732,15.9937,15.9937,0,1,0,62.87268,34.87268,15.93258,15.93258,0,0,1,57,36Z" style="fill:#ffd241"/><path d="M52,41A15.99067,15.99067,0,0,1,38.85388,15.892,15.98678,15.98678,0,1,0,61.108,38.14612,15.91517,15.91517,0,0,1,52,41Z" style="fill:#ffb028"/><path d="M35.99316,28a1.00005,1.00005,0,0,1-1-1c0-2.34668,2.05811-4.47266,2.293-4.707a.9999.9999,0,0,1,1.41553,1.4126A5.86635,5.86635,0,0,0,36.99316,27,1,1,0,0,1,35.99316,28Z" style="fill:#f1f2f2"/><rect x="35" y="29" width="2" height="2" style="fill:#f1f2f2"/><path d="M46,53a4.96255,4.96255,0,0,1,2.05524.45209,4.98466,4.98466,0,1,1,9.78643,1.73846A3.955,3.955,0,0,1,59,55a4,4,0,0,1,0,8H46a5,5,0,0,1,0-10Z" style="fill:#f1f2f2"/><path d="M59,61H46a5.00112,5.00112,0,0,1-4.89923-4A5.00112,5.00112,0,0,0,46,63H59a3.95152,3.95152,0,0,0,3.85858-5A3.99071,3.99071,0,0,1,59,61Z" style="fill:#d1d3d4"/><path d="M26.14849,5a4.96247,4.96247,0,0,0-2.05523.45209,4.98466,4.98466,0,1,0-9.78644,1.73846A3.95494,3.95494,0,0,0,13.14849,7a4,4,0,0,0,0,8h13a5,5,0,0,0,0-10Z" style="fill:#f1f2f2"/><path d="M26.1485,13h-13a3.99071,3.99071,0,0,1-3.85858-3,3.95152,3.95152,0,0,0,3.85858,5h13a5.00112,5.00112,0,0,0,4.89923-6A5.00112,5.00112,0,0,1,26.1485,13Z" style="fill:#d1d3d4"/><path d="M33,32a9.98249,9.98249,0,0,0-2.68756.376A9.99537,9.99537,0,0,0,11,36c0,.08972.01111.17657.01343.26569A7.99644,7.99644,0,1,0,9,52H33a10,10,0,0,0,0-20Z" style="fill:#f1f2f2"/><path d="M33,48H9a7.99585,7.99585,0,0,1-7.73779-6A7.97207,7.97207,0,0,0,9,52H33a10.00521,10.00521,0,0,0,9.79913-12A10.00283,10.00283,0,0,1,33,48Z" style="fill:#d1d3d4"/><path d="M18,34.00049a1.00076,1.00076,0,0,1-.94824-1.3169,7.81652,7.81652,0,0,1,4.63183-4.63232,1,1,0,0,1,.63672,1.896,5.87478,5.87478,0,0,0-3.37207,3.36914A.99992.99992,0,0,1,18,34.00049Z" style="fill:#d1d3d4"/><rect x="17" y="35" width="2" height="2" style="fill:#d1d3d4"/><path d="M13.14844,16h13a6,6,0,0,0,0-12,5.85179,5.85179,0,0,0-1.31592.1499A5.98637,5.98637,0,0,0,13.14844,6a5,5,0,0,0,0,10Zm0-8a2.94592,2.94592,0,0,1,.8667.147,1.00016,1.00016,0,0,0,1.26269-1.19531A3.92316,3.92316,0,0,1,15.14844,6a3.98669,3.98669,0,0,1,7.95068-.438,1.00043,1.00043,0,0,0,1.40674.80127A3.95554,3.95554,0,0,1,26.14844,6a4,4,0,0,1,0,8h-13a3,3,0,0,1,0-6Z"/><path d="M59,54a5.98646,5.98646,0,0,0-11.68408-1.85059A5.8481,5.8481,0,0,0,46,52a6,6,0,0,0,0,12H59a5,5,0,0,0,0-10Zm0,8H46a4,4,0,0,1,0-8,3.96082,3.96082,0,0,1,1.64209.3623.99966.99966,0,0,0,1.40723-.7998A3.98666,3.98666,0,0,1,57,54a3.93356,3.93356,0,0,1-.12939.95215,1.00016,1.00016,0,0,0,1.26269,1.19531A2.93187,2.93187,0,0,1,59,56a3,3,0,0,1,0,6Z"/><path d="M44,42A11.01245,11.01245,0,0,0,33,31a10.805,10.805,0,0,0-2.105.21,10.99549,10.99549,0,0,0-20.85547,3.85449A8.998,8.998,0,1,0,9,53H33A11.01245,11.01245,0,0,0,44,42ZM33,51H9a7.00006,7.00006,0,1,1,1.7627-13.7666.99954.99954,0,0,0,1.25048-.99512L12,36a8.99555,8.99555,0,0,1,17.38086-3.26123.99848.99848,0,0,0,1.20019.6001A8.99668,8.99668,0,1,1,33,51Z"/><path d="M19.68359,28.05127a7.818,7.818,0,0,0-4.63232,4.63232,1.0001,1.0001,0,0,0,1.89746.63282,5.87564,5.87564,0,0,1,3.37109-3.36914,1,1,0,0,0-.63623-1.896Z"/><rect x="15" y="35" width="2" height="2"/><path d="M38.69824,20.292a.999.999,0,0,0-1.41211.001c-.23486.23437-2.293,2.36035-2.293,4.707a1,1,0,0,0,2,0,5.86635,5.86635,0,0,1,1.7085-3.29443A1.00082,1.00082,0,0,0,38.69824,20.292Z"/><rect x="35" y="27" width="2" height="2"/><path d="M32,30a1,1,0,0,0,1-1,14.89966,14.89966,0,0,1,7.47559-12.96875A16.76783,16.76783,0,0,0,40,20,17.019,17.019,0,0,0,57,37a16.76783,16.76783,0,0,0,3.96875-.47559A14.89848,14.89848,0,0,1,48,44a1,1,0,0,0,0,2A16.90723,16.90723,0,0,0,63.80273,35.24023a.99974.99974,0,0,0-1.29736-1.29687A14.97738,14.97738,0,0,1,43.05762,14.49512a1.00041,1.00041,0,0,0-1.29785-1.29785A16.90723,16.90723,0,0,0,31,29,1,1,0,0,0,32,30Z"/></svg>
