<svg id="Layer_1" height="512" viewBox="0 0 64 64" width="512" xmlns="http://www.w3.org/2000/svg" data-name="Layer 1"><circle cx="7" cy="30" fill="#6ee1ef" r="5"/><circle cx="57" cy="52" fill="#6ee1ef" r="5"/><path d="m21 46a3 3 0 0 1 -6 0c0-1.65685 3-7 3-7s3 5.34315 3 7z" fill="#6ee1ef"/><path d="m18 39s-.19757.35236-.48969.90033a13.5841 13.5841 0 0 1 1.48969 4.09967 3 3 0 0 1 -3 3 2.96729 2.96729 0 0 1 -.8598-.1402 2.99178 2.99178 0 0 0 5.8598-.8598c0-1.65686-3-7-3-7z" fill="#5fb1d7"/><path d="m34 60a3 3 0 0 1 -6 0c0-1.65685 3-7 3-7s3 5.34315 3 7z" fill="#6ee1ef"/><path d="m31 53s-.19757.35236-.48969.90033a13.5841 13.5841 0 0 1 1.48969 4.09967 3 3 0 0 1 -3 3 2.96729 2.96729 0 0 1 -.8598-.1402 2.99178 2.99178 0 0 0 5.8598-.8598c0-1.65686-3-7-3-7z" fill="#5fb1d7"/><path d="m63 5-11 5-6 41-6.0654-37.90876a2 2 0 0 0 -3.94767-.01282l-4.98693 29.92158-4.48446-24.66452a2 2 0 0 0 -3.88774-.20223l-4.6278 15.86675-5-20-12 6v-19h62z" fill="#6ee1ef"/><path d="m44.873 43.958 1.127 7.042 6-41 11-5v-4h-62v3h54l-7 4z" fill="#5fb1d7"/><g fill="#f1f2f2"><path d="m46.00146 24a.98963.98963 0 0 1 -.12548-.00781 1.00008 1.00008 0 0 1 -.86817-1.11621l1-8a.99991.99991 0 0 1 1.98438.248l-1 8a1 1 0 0 1 -.99073.87602z"/><path d="m46 10h2v2h-2z"/><path d="m18 7h-12a1 1 0 0 1 0-2h12a1 1 0 0 1 0 2z"/><path d="m21 5h2v2h-2z"/></g><path d="m30.12793 52.51025c-.52246.93067-3.12793 5.66407-3.12793 7.48975a4 4 0 0 0 8 0c0-1.82568-2.60547-6.55908-3.12793-7.48975a1.04113 1.04113 0 0 0 -1.74414 0zm.87207 9.48975a2.002 2.002 0 0 1 -2-2 19.071 19.071 0 0 1 2-4.88818 19.071 19.071 0 0 1 2 4.88818 2.002 2.002 0 0 1 -2 2z"/><path d="m17.12793 38.51025c-.52246.93067-3.12793 5.66407-3.12793 7.48975a4 4 0 0 0 8 0c0-1.82568-2.60547-6.55908-3.12793-7.48975a1.04113 1.04113 0 0 0 -1.74414 0zm.87207 9.48975a2.002 2.002 0 0 1 -2-2 19.071 19.071 0 0 1 2-4.88818 19.071 19.071 0 0 1 2 4.88818 2.002 2.002 0 0 1 -2 2z"/><path d="m63 0h-62a1 1 0 0 0 -1 1v19a1.00009 1.00009 0 0 0 1.44727.89453l10.88473-5.44238 4.69776 18.79053a1 1 0 0 0 .95071.75732 1.01551 1.01551 0 0 0 .97949-.72021l4.62793-15.8667a1.0001 1.0001 0 0 1 1.94385.10107l4.48437 24.66455a1.02339 1.02339 0 0 0 .99121.82129 1 1 0 0 0 .979-.83545l4.98681-29.92139a1.00012 1.00012 0 0 1 1.97413.00635l6.06544 37.90869a.99954.99954 0 0 0 .9873.8418h.00684a.99982.99982 0 0 0 .98242-.855l5.92138-40.46045 10.50293-4.77439a.99908.99908 0 0 0 .58643-.91016v-4a1 1 0 0 0 -1-1zm-1 4.24184-10.41357 4.50459a.957.957 0 0 0 -.57569.72807l-5.05469 32.867-5.03417-29.9375a2.91144 2.91144 0 0 0 -2.95215-2.404h-.0319a2.99917 2.99917 0 0 0 -2.95421 2.48174l-4.02662 22.98881-3.41369-17.867a3.09752 3.09752 0 0 0 -2.42854-2.52408 2.97941 2.97941 0 0 0 -3.44677 2.00614l-3.59378 11.72354-4.104-15.62132a.96652.96652 0 0 0 -.55224-.63376 1.04352 1.04352 0 0 0 -.86524.01348l-10.55274 5.02079v-15.58834h60z"/><path d="m46.876 23.99219a.98963.98963 0 0 0 .12546.00781 1 1 0 0 0 .99073-.876l1-8a.99991.99991 0 0 0 -1.98438-.248l-1 8a1.00008 1.00008 0 0 0 .86819 1.11619z"/><path d="m47 10h2v2h-2z"/><path d="m5 6h12a1 1 0 0 0 0-2h-12a1 1 0 0 0 0 2z"/><path d="m20 4h2v2h-2z"/><path d="m57 51a1 1 0 0 0 1-1v-2a1 1 0 0 0 -2 0v2a1 1 0 0 0 1 1z"/><path d="m57 53a1 1 0 0 0 -1 1v2a1 1 0 0 0 2 0v-2a1 1 0 0 0 -1-1z"/><path d="m61 51h-2a1 1 0 0 0 0 2h2a1 1 0 0 0 0-2z"/><path d="m55 51h-2a1 1 0 0 0 0 2h2a1 1 0 0 0 0-2z"/><path d="m7 29a1 1 0 0 0 1-1v-2a1 1 0 0 0 -2 0v2a1 1 0 0 0 1 1z"/><path d="m7 31a1 1 0 0 0 -1 1v2a1 1 0 0 0 2 0v-2a1 1 0 0 0 -1-1z"/><path d="m11 29h-2a1 1 0 0 0 0 2h2a1 1 0 0 0 0-2z"/><path d="m5 29h-2a1 1 0 0 0 0 2h2a1 1 0 0 0 0-2z"/></svg>