<?xml version="1.0"?>
<svg xmlns="http://www.w3.org/2000/svg" id="Layer_1" data-name="Layer 1" viewBox="0 0 64 64" width="512" height="512"><circle cx="14" cy="5" r="5" style="fill:#6ee1ef"/><circle cx="52" cy="59" r="5" style="fill:#6ee1ef"/><path d="M56,18a7.021,7.021,0,0,0-1.46582.15637,8.98884,8.98884,0,0,0-17.45673,3.96686A4.99743,4.99743,0,1,0,36,32H56a7,7,0,0,0,0-14Z" style="fill:#f1f2f2"/><path d="M56,29H36a4.98325,4.98325,0,0,1-4.74561-3.5A4.94612,4.94612,0,0,0,31,27a5,5,0,0,0,5,5H56a6.98951,6.98951,0,0,0,6.83484-8.5A6.99974,6.99974,0,0,1,56,29Z" style="fill:#d1d3d4"/><path d="M45,43.5a8.48607,8.48607,0,0,0-12.26459-7.61237,10.98849,10.98849,0,0,0-20.60016,3.47352A6.99693,6.99693,0,1,0,8,52H37v-.02527A8.49317,8.49317,0,0,0,45,43.5Z" style="fill:#f1f2f2"/><path d="M43.9129,39.34753A8.42817,8.42817,0,0,1,36,48.97473V49H7a6.98843,6.98843,0,0,1-5.96741-3.35437A6.99856,6.99856,0,0,0,8,52H37v-.02527a8.48566,8.48566,0,0,0,6.9129-12.6272Z" style="fill:#d1d3d4"/><path d="M19,39.00049a1.00116,1.00116,0,0,1-.94873-1.3169,7.818,7.818,0,0,1,4.63232-4.63232,1,1,0,0,1,.63623,1.896,5.87564,5.87564,0,0,0-3.37109,3.36914A1.00053,1.00053,0,0,1,19,39.00049Z" style="fill:#d1d3d4"/><rect x="17" y="40" width="2" height="2" style="fill:#d1d3d4"/><path d="M55.1792,17.043A9.99723,9.99723,0,0,0,36,21a6.00657,6.00657,0,0,0-6,6,1,1,0,0,0,2,0,3.97689,3.97689,0,0,1,4.86377-3.8999,1.00041,1.00041,0,0,0,1.206-1.10205A7.84623,7.84623,0,0,1,38,21a7.99728,7.99728,0,0,1,15.58545-2.52783.997.997,0,0,0,1.15674.66211A6.0839,6.0839,0,0,1,56,19a6,6,0,0,1,0,12H41a1,1,0,0,0,0,2H56a7.99964,7.99964,0,1,0-.8208-15.957Z"/><path d="M36.5,34a9.34786,9.34786,0,0,0-3.34521.61426,11.98631,11.98631,0,0,0-21.70362,3.17236A7.911,7.911,0,0,0,8,37,8,8,0,0,0,8,53H37a.95705.95705,0,0,0,.28369-.043A9.49449,9.49449,0,0,0,36.5,34Zm.44189,16.97607A.99438.99438,0,0,0,36.77881,51H8a6,6,0,1,1,3.543-10.833.99959.99959,0,0,0,1.581-.65771,9.98864,9.98864,0,0,1,18.72657-3.15576.999.999,0,0,0,1.3291.43017A7.41452,7.41452,0,0,1,36.5,36a7.49439,7.49439,0,0,1,.44189,14.97607Z"/><path d="M20.68359,33.05127a7.818,7.818,0,0,0-4.63232,4.63232,1.0001,1.0001,0,1,0,1.89746.63282,5.87564,5.87564,0,0,1,3.37109-3.36914,1,1,0,0,0-.63623-1.896Z"/><rect x="15" y="40" width="2" height="2"/><path d="M14,4a1,1,0,0,0,1-1V1a1,1,0,0,0-2,0V3A1,1,0,0,0,14,4Z"/><path d="M14,6a1,1,0,0,0-1,1V9a1,1,0,0,0,2,0V7A1,1,0,0,0,14,6Z"/><path d="M16,6h2a1,1,0,0,0,0-2H16a1,1,0,0,0,0,2Z"/><path d="M10,6h2a1,1,0,0,0,0-2H10a1,1,0,0,0,0,2Z"/><path d="M52,58a1,1,0,0,0,1-1V55a1,1,0,0,0-2,0v2A1,1,0,0,0,52,58Z"/><path d="M52,60a1,1,0,0,0-1,1v2a1,1,0,0,0,2,0V61A1,1,0,0,0,52,60Z"/><path d="M56,58H54a1,1,0,0,0,0,2h2a1,1,0,0,0,0-2Z"/><path d="M50,58H48a1,1,0,0,0,0,2h2a1,1,0,0,0,0-2Z"/></svg>
