<?xml version="1.0"?>
<svg xmlns="http://www.w3.org/2000/svg" id="Layer_1" data-name="Layer 1" viewBox="0 0 64 64" width="512" height="512"><path d="M18,5a4.96255,4.96255,0,0,0-2.05524.45209A4.98466,4.98466,0,1,0,6.15832,7.19055,3.95488,3.95488,0,0,0,5,7a4,4,0,0,0,0,8H18A5,5,0,0,0,18,5Z" style="fill:#f1f2f2"/><path d="M18,13H5a3.99073,3.99073,0,0,1-3.85858-3A3.95152,3.95152,0,0,0,5,15H18a5.00112,5.00112,0,0,0,4.89923-6A5.00112,5.00112,0,0,1,18,13Z" style="fill:#d1d3d4"/><path d="M46,5a4.96255,4.96255,0,0,1,2.05524.45209,4.98466,4.98466,0,1,1,9.78644,1.73846A3.95488,3.95488,0,0,1,59,7a4,4,0,0,1,0,8H46A5,5,0,0,1,46,5Z" style="fill:#f1f2f2"/><path d="M46,13H59a3.99073,3.99073,0,0,0,3.85858-3A3.95152,3.95152,0,0,1,59,15H46a5.00112,5.00112,0,0,1-4.89923-6A5.00112,5.00112,0,0,0,46,13Z" style="fill:#d1d3d4"/><rect x="12" y="45" width="4" height="8" rx="2" style="fill:#6ee1ef"/><rect x="20" y="55" width="4" height="8" rx="2" style="fill:#6ee1ef"/><rect x="37" y="55" width="4" height="8" rx="2" style="fill:#6ee1ef"/><rect x="29" y="45" width="4" height="8" rx="2" style="fill:#6ee1ef"/><rect x="46" y="45" width="4" height="8" rx="2" style="fill:#6ee1ef"/><path d="M48,23a8.9489,8.9489,0,0,0-5.20947,1.66974A13.99232,13.99232,0,0,0,15,27c0,.027.00385.0531.004.08014A6.9964,6.9964,0,1,0,14,41H48a9,9,0,0,0,0-18Z" style="fill:#f1f2f2"/><path d="M49,37H15a6.99418,6.99418,0,0,1-6.981-6.62329A6.98925,6.98925,0,0,0,14,41H48a8.99654,8.99654,0,0,0,8.99377-8.87616A8.99311,8.99311,0,0,1,49,37Z" style="fill:#d1d3d4"/><path d="M22,24.00049a1.00113,1.00113,0,0,1-.92871-1.37207c.08984-.22461,2.26465-5.51514,7.73242-6.60889a.99993.99993,0,0,1,.39258,1.96094c-4.418.88379-6.25,5.34619-6.26758,5.39111A1.00107,1.00107,0,0,1,22,24.00049Z" style="fill:#d1d3d4"/><rect x="21" y="26" width="2" height="2" style="fill:#d1d3d4"/><path d="M48,22a9.8981,9.8981,0,0,0-4.53027,1.08984A14.98865,14.98865,0,0,0,14.041,26H14a8,8,0,0,0,0,16H48a10,10,0,0,0,0-20Zm0,18H14a6.00025,6.00025,0,1,1,.86279-11.92969,1.03828,1.03828,0,0,0,.79444-.27441A1.08668,1.08668,0,0,0,16,27a12.99219,12.99219,0,0,1,25.8042-2.16406,1.00012,1.00012,0,0,0,1.56641.64844A7.997,7.997,0,1,1,48,40Z"/><path d="M26.80371,16.01953c-5.46826,1.09375-7.64209,6.38477-7.73242,6.60938a1.00011,1.00011,0,0,0,1.85742.74218c.01758-.04492,1.84961-4.50683,6.26758-5.39062a.99993.99993,0,0,0-.39258-1.96094Z"/><rect x="19" y="26" width="2" height="2"/><path d="M59,6A5.98646,5.98646,0,0,0,47.31592,4.14941,5.8481,5.8481,0,0,0,46,4a6,6,0,0,0,0,12H59A5,5,0,0,0,59,6Zm0,8H46a4,4,0,0,1,0-8,3.96082,3.96082,0,0,1,1.64209.3623.99966.99966,0,0,0,1.40723-.7998,3.98462,3.98462,0,1,1,7.82129,1.38867A1.00108,1.00108,0,0,0,58.1333,8.14746,2.93187,2.93187,0,0,1,59,8a3,3,0,0,1,0,6Z"/><path d="M16,15a.99974.99974,0,0,0-1-1H5A3,3,0,0,1,5,8a2.93187,2.93187,0,0,1,.8667.14746,1.01491,1.01491,0,0,0,.979-.23047.99985.99985,0,0,0,.28369-.96484A3.93356,3.93356,0,0,1,7,6a3.98666,3.98666,0,0,1,7.95068-.4375.99966.99966,0,0,0,1.40723.7998A3.96082,3.96082,0,0,1,18,6a4.00427,4.00427,0,0,1,4,4,1,1,0,0,0,2,0,6.00657,6.00657,0,0,0-6-6,5.8481,5.8481,0,0,0-1.31592.14941A5.98646,5.98646,0,0,0,5,6,5,5,0,0,0,5,16H15A.99974.99974,0,0,0,16,15Z"/><path d="M14,44a3.00328,3.00328,0,0,0-3,3v4a3,3,0,0,0,6,0V47A3.00328,3.00328,0,0,0,14,44Zm1,7a1,1,0,0,1-2,0V47a1,1,0,0,1,2,0Z"/><path d="M22,54a3.00328,3.00328,0,0,0-3,3v4a3,3,0,0,0,6,0V57A3.00328,3.00328,0,0,0,22,54Zm1,7a1,1,0,0,1-2,0V57a1,1,0,0,1,2,0Z"/><path d="M39,54a3.00328,3.00328,0,0,0-3,3v4a3,3,0,0,0,6,0V57A3.00328,3.00328,0,0,0,39,54Zm1,7a1,1,0,0,1-2,0V57a1,1,0,0,1,2,0Z"/><path d="M31,44a3.00328,3.00328,0,0,0-3,3v4a3,3,0,0,0,6,0V47A3.00328,3.00328,0,0,0,31,44Zm1,7a1,1,0,0,1-2,0V47a1,1,0,0,1,2,0Z"/><path d="M48,44a3.00328,3.00328,0,0,0-3,3v4a3,3,0,0,0,6,0V47A3.00328,3.00328,0,0,0,48,44Zm1,7a1,1,0,0,1-2,0V47a1,1,0,0,1,2,0Z"/></svg>
