<svg id="Layer_1" height="512" viewBox="0 0 64 64" width="512" xmlns="http://www.w3.org/2000/svg" data-name="Layer 1"><circle cx="53" cy="59" fill="#ffd241" r="5"/><path d="m18 5a4.96255 4.96255 0 0 0 -2.05524.45209 4.98466 4.98466 0 1 0 -9.78643 1.73846 3.955 3.955 0 0 0 -1.15833-.19055 4 4 0 0 0 0 8h13a5 5 0 0 0 0-10z" fill="#808285"/><path d="m18 13h-13a3.99071 3.99071 0 0 1 -3.85858-3 3.95152 3.95152 0 0 0 3.85858 5h13a5.00112 5.00112 0 0 0 4.89923-6 5.00112 5.00112 0 0 1 -4.89923 4z" fill="#58595b"/><path d="m47 46a9 9 0 1 0 -5.20947-16.33026 13.99232 13.99232 0 0 0 -27.79053 2.33026c0 .027.00385.0531.004.08014a6.9964 6.9964 0 1 0 -1.004 13.91986z" fill="#808285"/><path d="m47 43h-34a6.99974 6.99974 0 0 1 -6.83484-5.5 6.98951 6.98951 0 0 0 6.83484 8.5h34a8.951 8.951 0 0 0 8.865-10.50006 8.99494 8.99494 0 0 1 -8.865 7.50006z" fill="#58595b"/><path d="m20.99951 29.00049a1.00075 1.00075 0 0 1 -.92822-1.37207c.09033-.22461 2.26416-5.51514 7.73242-6.60889a.99993.99993 0 0 1 .39258 1.96094c-4.418.88379-6.25 5.34619-6.26758 5.39111a1.00173 1.00173 0 0 1 -.9292.62891z" fill="#f1f2f2"/><path d="m20 31h2v2h-2z" fill="#f1f2f2"/><path d="m31 37-9 15h10l-1 11 9-15h-10z" fill="#ffd241"/><path d="m40 48h-10l.5-5.5-4.5 7.5h10l-.5 5.5z" fill="#ffb028"/><path d="m54 1-9 15h10l-1 11 9-15h-10z" fill="#ffd241"/><path d="m63 12h-10l.5-5.5-4.5 7.5h10l-.5 5.5z" fill="#ffb028"/><path d="m57 37a10.01114 10.01114 0 0 0 -10-10 9.9099 9.9099 0 0 0 -4.53027 1.08936 14.98873 14.98873 0 0 0 -29.42873 2.91064h-.041a8 8 0 0 0 0 16h7a1 1 0 0 0 0-2h-7a6 6 0 0 1 0-12 5.94513 5.94513 0 0 1 .86133.06982 1.02362 1.02362 0 0 0 .79541-.27392 1.08447 1.08447 0 0 0 .34326-.7959 12.99224 12.99224 0 0 1 25.8042-2.16455 1 1 0 0 0 1.56641.64893 7.997 7.997 0 1 1 4.62939 14.51562h-4a1 1 0 0 0 0 2h4a10.01114 10.01114 0 0 0 10-10z"/><path d="m26.19629 22.98047a.99993.99993 0 0 0 -.39258-1.96094c-5.46826 1.09375-7.64209 6.38428-7.73242 6.60889a1.00029 1.00029 0 1 0 1.85742.74316c.01758-.04492 1.84961-4.50732 6.26758-5.39111z"/><path d="m18 31h2v2h-2z"/><path d="m40 47h-8.90479l.90088-9.90967a1.00009 1.00009 0 0 0 -1.85351-.605l-9 15a1.00009 1.00009 0 0 0 .85742 1.51467h8.90479l-.90088 9.90967a1.00012 1.00012 0 0 0 1.85351.605l9-15a1.00009 1.00009 0 0 0 -.85742-1.51467zm-7.6084 11.73682.60449-6.64649a1.00052 1.00052 0 0 0 -.99609-1.09033h-8.23389l5.84229-9.73682-.60449 6.64649a1.00052 1.00052 0 0 0 .99609 1.09033h8.23389z"/><path d="m63.87012 11.50732a.99957.99957 0 0 0 -.87012-.50732h-8.90479l.90088-9.90967a1 1 0 0 0 -1.85351-.605l-9 15a1.00009 1.00009 0 0 0 .85742 1.51467h8.90479l-.90088 9.90967a1.00012 1.00012 0 0 0 1.85351.605l9-15a.99927.99927 0 0 0 .0127-1.00735zm-8.47852 11.2295.60449-6.64649a1.00052 1.00052 0 0 0 -.99609-1.09033h-8.23389l5.84229-9.73682-.60449 6.64649a1.00052 1.00052 0 0 0 .99609 1.09033h8.23389z"/><path d="m18 16a6 6 0 0 0 0-12 5.85179 5.85179 0 0 0 -1.31592.1499 5.98637 5.98637 0 0 0 -11.68408 1.8501 5 5 0 0 0 0 10zm-16-5a3.00328 3.00328 0 0 1 3-3 2.94587 2.94587 0 0 1 .8667.147 1.00016 1.00016 0 0 0 1.26269-1.19534 3.92366 3.92366 0 0 1 -.12939-.95166 3.98669 3.98669 0 0 1 7.95068-.438 1.00043 1.00043 0 0 0 1.40674.80127 3.95554 3.95554 0 0 1 1.64258-.36327 4 4 0 0 1 0 8h-13a3.00328 3.00328 0 0 1 -3-3z"/><path d="m52 55v2a1 1 0 0 0 2 0v-2a1 1 0 0 0 -2 0z"/><path d="m53 60a1 1 0 0 0 -1 1v2a1 1 0 0 0 2 0v-2a1 1 0 0 0 -1-1z"/><path d="m57 58h-2a1 1 0 0 0 0 2h2a1 1 0 0 0 0-2z"/><path d="m51 58h-2a1 1 0 0 0 0 2h2a1 1 0 0 0 0-2z"/></svg>