<svg id="Layer_1" height="512" viewBox="0 0 64 64" width="512" xmlns="http://www.w3.org/2000/svg" data-name="Layer 1"><g fill="#ffd241"><circle cx="32" cy="9" r="5"/><circle cx="56" cy="15" r="5"/><path d="m15 37-8 14h9l-1 10 8-14h-9z"/></g><path d="m23 47h-9l.394-3.939-3.394 5.939h9l-.394 3.939z" fill="#ffb028"/><path d="m55 27a7.96166 7.96166 0 0 0 -4.45654 1.35632 7.99585 7.99585 0 0 0 -15.54346 2.64368c0 .11993.0127.23663.01794.35529a5.99762 5.99762 0 1 0 -2.01794 11.64471h22a8 8 0 0 0 0-16z" fill="#808285"/><path d="m55 40h-22a5.9969 5.9969 0 0 1 -5.80334-4.5 5.979 5.979 0 0 0 5.80334 7.5h22a7.98327 7.98327 0 0 0 7.85461-9.5 7.99891 7.99891 0 0 1 -7.85461 6.5z" fill="#58595b"/><path d="m41 31a.99943.99943 0 0 1 -1-1 4.69225 4.69225 0 0 1 2.55273-3.89453.99991.99991 0 0 1 .89942 1.78613 2.72407 2.72407 0 0 0 -1.45215 2.1084.99943.99943 0 0 1 -1 1z" fill="#f1f2f2"/><path d="m40 32h2v2h-2z" fill="#f1f2f2"/><path d="m48 37-9 15h10l-1 11 9-15h-10z" fill="#ffd241"/><path d="m57 48h-10l.5-5.5-4.5 7.5h10l-.5 5.5z" fill="#ffb028"/><path d="m26 23a16 16 0 0 1 -16-16 16.54544 16.54544 0 0 1 1-6 16.06955 16.06955 0 1 0 20.87268 20.87268 15.93258 15.93258 0 0 1 -5.87268 1.12732z" fill="#ffd241"/><path d="m21 28a15.99067 15.99067 0 0 1 -13.14612-25.108 15.98678 15.98678 0 1 0 22.25412 22.25412 15.91517 15.91517 0 0 1 -9.108 2.85388z" fill="#ffb028"/><path d="m4.99316 15a1.00005 1.00005 0 0 1 -1-1c0-2.34668 2.05811-4.47266 2.293-4.707a.9999.9999 0 0 1 1.41553 1.4126 5.86635 5.86635 0 0 0 -1.70853 3.2944 1 1 0 0 1 -1 1z" fill="#f1f2f2"/><path d="m4 16h2v2h-2z" fill="#f1f2f2"/><path d="m6.293 6.2998c-.23441.23438-2.293 2.36036-2.293 4.70704a1 1 0 0 0 2 0 5.86587 5.86587 0 0 1 1.708-3.294.9999.9999 0 0 0 -1.415-1.41304z"/><path d="m4 13h2v2h-2z"/><path d="m32.94531 21.8584a.9997.9997 0 0 0 -1.2832-1.2832 14.96444 14.96444 0 0 1 -19.23047-19.23047.99971.99971 0 0 0 -1.2832-1.28321 16.99066 16.99066 0 1 0 21.79687 21.79688zm-30.94531-5.85156a15.05081 15.05081 0 0 1 7.918-13.20508 16.72734 16.72734 0 0 0 -.418 3.70508 17.019 17.019 0 0 0 17 17 16.74106 16.74106 0 0 0 3.70508-.418 14.98886 14.98886 0 0 1 -28.20508-7.082z"/><path d="m55 26a8.96016 8.96016 0 0 0 -3.98145.92773 8.99519 8.99519 0 0 0 -16.97167 3.15332 6.85376 6.85376 0 0 0 -1.04688-.08105 7 7 0 0 0 0 14h7a1 1 0 0 0 0-2h-7a5 5 0 1 1 1.68066-9.70312.99942.99942 0 0 0 1.33594-.98243l-.00879-.16113c-.0039-.05078-.00781-.10156-.00781-.15332a6.99588 6.99588 0 0 1 13.59961-2.31348.99886.99886 0 0 0 1.501.5 7.00006 7.00006 0 1 1 3.89939 12.81348h-4a1 1 0 0 0 0 2h4a9 9 0 0 0 0-18z"/><path d="m41.45215 27.8916a.99991.99991 0 0 0 -.89942-1.78613 4.69225 4.69225 0 0 0 -2.55273 3.89453 1 1 0 0 0 2 0 2.72407 2.72407 0 0 1 1.45215-2.1084z"/><path d="m38 32h2v2h-2z"/><path d="m57 47h-8.90527l.90136-9.90918a1.00025 1.00025 0 0 0 -1.85351-.60547l-9 15a.99986.99986 0 0 0 .85742 1.51465h8.90527l-.90136 9.90918a.99962.99962 0 0 0 .68554 1.041.97881.97881 0 0 0 .31055.04982.99969.99969 0 0 0 .85742-.48535l9-15a.99986.99986 0 0 0 -.85742-1.51465zm-7.6084 11.7373.60449-6.64648a.99991.99991 0 0 0 -.99609-1.09082h-8.2334l5.8418-9.7373-.60449 6.64648a.99991.99991 0 0 0 .99609 1.09082h8.2334z"/><path d="m23 46h-7.89453l.88965-8.90039a1.00007 1.00007 0 0 0 -1.86328-.5957l-8 14a.99961.99961 0 0 0 .86816 1.49609h7.89453l-.88965 8.90039a1 1 0 0 0 1.86328.5957l8-14a.99961.99961 0 0 0 -.86816-1.49609zm-6.53711 10.4248.53223-5.32519a1.00065 1.00065 0 0 0 -.99512-1.09961h-7.27637l4.81348-8.4248-.53223 5.32519a1.00065 1.00065 0 0 0 .99512 1.09961h7.27637z"/><path d="m32 8a.99943.99943 0 0 0 1-1v-2a1 1 0 0 0 -2 0v2a.99943.99943 0 0 0 1 1z"/><path d="m32 10a.99943.99943 0 0 0 -1 1v2a1 1 0 0 0 2 0v-2a.99943.99943 0 0 0 -1-1z"/><path d="m34 10h2a1 1 0 0 0 0-2h-2a1 1 0 0 0 0 2z"/><path d="m28 10h2a1 1 0 0 0 0-2h-2a1 1 0 0 0 0 2z"/><path d="m56 14a.99943.99943 0 0 0 1-1v-2a1 1 0 0 0 -2 0v2a.99943.99943 0 0 0 1 1z"/><path d="m56 16a.99943.99943 0 0 0 -1 1v2a1 1 0 0 0 2 0v-2a.99943.99943 0 0 0 -1-1z"/><path d="m58 16h2a1 1 0 0 0 0-2h-2a1 1 0 0 0 0 2z"/><path d="m52 16h2a1 1 0 0 0 0-2h-2a1 1 0 0 0 0 2z"/></svg>