<?xml version="1.0"?>
<svg xmlns="http://www.w3.org/2000/svg" id="Layer_1" data-name="Layer 1" viewBox="0 0 64 64" width="512" height="512"><circle cx="59" cy="5" r="5" style="fill:#d1d3d4"/><circle cx="5" cy="59" r="5" style="fill:#d1d3d4"/><path d="M58,30H53.14288L56,25H52l-2.85712,5H43V26l-1.32709-.84448,3.86316-3.86316,5.55579,1.51526,2.82843-2.82843L48.3645,18.46393,51.799,15.02942,48.97058,12.201,45.53607,15.6355l-1.51526-5.55585-2.82843,2.82843,1.51526,5.55585-4.4917,4.4917L34,20.27271V14.85712L39,12V8l-5,2.85712V6H30v4.85712L25,8v4l5,2.85712v5.41559l-4.21594,2.68292-4.4917-4.4917,1.51526-5.55585-2.82843-2.82843L18.46393,15.6355,15.02942,12.201,12.201,15.02942l3.43451,3.43451-5.55579,1.51526,2.82843,2.82843,5.55579-1.51526,3.86316,3.86316L21,26v4H14.85712L12,25H8l2.85712,5H6v4h4.85712L8,39h4l2.85712-5H21v4s1.04553.66528,1.32709.84448l-3.86316,3.86316-5.55579-1.51526-2.82843,2.82843,5.55579,1.51526L12.201,48.97052,15.02942,51.799l3.43451-3.43445,1.51526,5.55579,2.82843-2.82843-1.51526-5.55579,4.4917-4.4917C27.85632,42.3631,28.74567,42.92908,30,43.72729v5.41559L25,52v4l5-2.85712V58h4V53.14288L39,56V52l-5-2.85712V43.72729l4.21594-2.68292,4.4917,4.4917-1.51526,5.55579,2.82843,2.82843,1.51526-5.55579L48.97058,51.799,51.799,48.97052,48.3645,45.53607l5.55579-1.51526-2.82843-2.82843-5.55579,1.51526-3.86316-3.86316L43,38V34h6.14288L52,39h4l-2.85712-5H58ZM38,35l-6,4-6-4V29l6-4,6,4Z" style="fill:#6ee1ef"/><path d="M38.55469,28.168l-6-4a1.00109,1.00109,0,0,0-1.10938,0l-6,4A.99963.99963,0,0,0,25,29v6a.99963.99963,0,0,0,.44531.832l6,4a.99987.99987,0,0,0,1.10938,0l6-4A.99963.99963,0,0,0,39,35V29A.99963.99963,0,0,0,38.55469,28.168ZM37,34.46484l-5,3.3335-5-3.3335V29.53516l5-3.3335,5,3.3335Z"/><path d="M58,29H54.86621l2.002-3.50391A.99961.99961,0,0,0,56,24H52a1.00018,1.00018,0,0,0-.86816.50391L48.5625,29H44V26a1.00094,1.00094,0,0,0-.46289-.84375l-.27539-.17529,2.57129-2.5708,4.99609,1.3623a.99958.99958,0,0,0,.96973-.25781L54.627,20.686a.99953.99953,0,0,0-.44433-1.67188L50.29,17.95264l2.21582-2.21631a.99964.99964,0,0,0,0-1.41406l-2.82813-2.82813a.99964.99964,0,0,0-1.41406,0l-2.21582,2.21631-1.0625-3.894a1.00012,1.00012,0,0,0-1.67187-.44385l-2.82813,2.82861a.99911.99911,0,0,0-.25781.97022l1.36328,4.9956-3.51465,3.51416L35,19.72363V15.4375l4.49609-2.56934A.99959.99959,0,0,0,40,12V8a1,1,0,0,0-1.49609-.86816L35,9.13379V6a.99974.99974,0,0,0-1-1H30a.99974.99974,0,0,0-1,1V9.13379L25.49609,7.13184A1,1,0,0,0,24,8v4a.99959.99959,0,0,0,.50391.86816L29,15.4375v4.28613l-3.07617,1.95752L22.40918,18.167l1.36328-4.9956a.99911.99911,0,0,0-.25781-.97022L20.68652,9.37256a1.00012,1.00012,0,0,0-1.67187.44385l-1.0625,3.894-2.21582-2.21631a.99964.99964,0,0,0-1.41406,0l-2.82813,2.82813a.99964.99964,0,0,0,0,1.41406L13.71,17.95264,9.81738,19.01416A.99953.99953,0,0,0,9.373,20.686l2.82812,2.82861a1.00018,1.00018,0,0,0,.96973.25781l4.99609-1.3623,2.57129,2.5708-.27539.17529A1.00094,1.00094,0,0,0,20,26v3H15.4375l-2.56934-4.49609A1.00018,1.00018,0,0,0,12,24H8a.99961.99961,0,0,0-.86816,1.49609L9.13379,29H6a.99974.99974,0,0,0-1,1v4a.99974.99974,0,0,0,1,1H9.13379L7.13184,38.50391A.99961.99961,0,0,0,8,40h4a1.00018,1.00018,0,0,0,.86816-.50391L15.4375,35H20v3a.99957.99957,0,0,0,.46387.84375l.27441.17529L18.167,41.58984l-4.99609-1.3623a1.00474,1.00474,0,0,0-.96973.25781L9.373,43.314a.99953.99953,0,0,0,.44433,1.67188L13.71,46.04736l-2.21582,2.21631a.99964.99964,0,0,0,0,1.41406l2.82813,2.82813a.99964.99964,0,0,0,1.41406,0l2.21582-2.21631,1.0625,3.894a1.00012,1.00012,0,0,0,1.67187.44385l2.82813-2.82861a.99911.99911,0,0,0,.25781-.97022L22.40918,45.833l3.51465-3.51416L29,44.27637V48.5625l-4.49609,2.56934A.99959.99959,0,0,0,24,52v4a1,1,0,0,0,1.49609.86816L29,54.86621V58a.99974.99974,0,0,0,1,1h4a.99974.99974,0,0,0,1-1V54.86621l3.50391,2.002A1,1,0,0,0,40,56V52a.99959.99959,0,0,0-.50391-.86816L35,48.5625V44.27637l3.07617-1.95752L41.59082,45.833l-1.36328,4.9956a.99911.99911,0,0,0,.25781.97022l2.82813,2.82861a1.00012,1.00012,0,0,0,1.67187-.44385l1.0625-3.894,2.21582,2.21631a.99964.99964,0,0,0,1.41406,0l2.82813-2.82813a.99964.99964,0,0,0,0-1.41406L50.29,46.04736l3.89258-1.06152A.99953.99953,0,0,0,54.627,43.314l-2.82812-2.82861a1.00413,1.00413,0,0,0-.96973-.25781L45.833,41.58984,43.26172,39.019l.27539-.17529A1.00094,1.00094,0,0,0,44,38V35h4.5625l2.56934,4.49609A1.00018,1.00018,0,0,0,52,40h4a.99961.99961,0,0,0,.86816-1.49609L54.86621,35H58a.99974.99974,0,0,0,1-1V30A.99974.99974,0,0,0,58,29Zm-1,4H53.14258a.99961.99961,0,0,0-.86817,1.49609L54.27637,38H52.58008l-2.56934-4.49609A1.00018,1.00018,0,0,0,49.14258,33H43a.99974.99974,0,0,0-1,1v3.45117l-.86426.54981a1,1,0,0,0-.16992,1.55078l3.86328,3.86279a1.0048,1.0048,0,0,0,.96973.25781l4.99609-1.3623,1.19922,1.19971-3.89258,1.06152a.99952.99952,0,0,0-.44433,1.67187l2.72754,2.72754L48.9707,50.38477l-2.72754-2.72754a1.00013,1.00013,0,0,0-1.67187.44384l-1.0625,3.89356-1.19922-1.19971,1.36328-4.9956a.99878.99878,0,0,0-.25781-.97022l-4.49219-4.4917a.99989.99989,0,0,0-1.24414-.13672l-4.21582,2.68311A1.00094,1.00094,0,0,0,33,43.72754v5.41553a.9996.9996,0,0,0,.50391.86816L38,52.58057v1.69629l-3.50391-2.002A1,1,0,0,0,33,53.14307V57H31V53.14307a1,1,0,0,0-1.49609-.86817L26,54.27686V52.58057l4.49609-2.56934A.9996.9996,0,0,0,31,49.14307V43.72754a1.00094,1.00094,0,0,0-.46289-.84375l-4.21582-2.68311a1,1,0,0,0-1.24414.13672L20.585,44.8291a.99878.99878,0,0,0-.25781.97022l1.36328,4.9956-1.19922,1.19971-1.0625-3.89356a1.00013,1.00013,0,0,0-1.67187-.44384L15.0293,50.38477,13.61523,48.9707l2.72754-2.72754a.99952.99952,0,0,0-.44433-1.67187l-3.89258-1.06152,1.19922-1.19971,4.99609,1.3623a1.0042,1.0042,0,0,0,.96973-.25781l3.86328-3.86279a.99967.99967,0,0,0-.16895-1.54981L22,37.45117V34a.99974.99974,0,0,0-1-1H14.85742a1.00018,1.00018,0,0,0-.86816.50391L11.41992,38H9.72363l2.002-3.50391A.99961.99961,0,0,0,10.85742,33H7V31h3.85742a.99961.99961,0,0,0,.86817-1.49609L9.72363,26h1.69629l2.56934,4.49609A1.00018,1.00018,0,0,0,14.85742,31H21a.99974.99974,0,0,0,1-1V26.54883l.86426-.54981a1,1,0,0,0,.16992-1.55078L19.1709,20.58545a1.00192,1.00192,0,0,0-.96973-.25781l-4.99609,1.3623-1.19922-1.19971,3.89258-1.06152a.99952.99952,0,0,0,.44433-1.67187L13.61523,15.0293l1.41407-1.41407,2.72754,2.72754a1.00013,1.00013,0,0,0,1.67187-.44384l1.0625-3.89356,1.19922,1.19971-1.36328,4.9956a.99878.99878,0,0,0,.25781.97022l4.49219,4.4917a.99874.99874,0,0,0,1.24414.13672l4.21582-2.68311A1.00094,1.00094,0,0,0,31,20.27246V14.85693a.9996.9996,0,0,0-.50391-.86816L26,11.41943V9.72314l3.50391,2.002A1,1,0,0,0,31,10.85693V7h2v3.85693a1,1,0,0,0,1.49609.86817L38,9.72314v1.69629l-4.49609,2.56934A.9996.9996,0,0,0,33,14.85693v5.41553a1.00094,1.00094,0,0,0,.46289.84375l4.21582,2.68311a.9986.9986,0,0,0,1.24414-.13672L43.415,19.1709a.99878.99878,0,0,0,.25781-.97022l-1.36328-4.9956,1.19922-1.19971,1.0625,3.89356a1.00013,1.00013,0,0,0,1.67187.44384l2.72754-2.72754,1.41407,1.41407-2.72754,2.72754a.99952.99952,0,0,0,.44433,1.67187l3.89258,1.06152-1.19922,1.19971-4.99609-1.3623a1.00253,1.00253,0,0,0-.96973.25781l-3.86328,3.86279a1,1,0,0,0,.16992,1.55078L42,26.54883V30a.99974.99974,0,0,0,1,1h6.14258a1.00018,1.00018,0,0,0,.86816-.50391L52.58008,26h1.69629l-2.002,3.50391A.99961.99961,0,0,0,53.14258,31H57Z"/><path d="M59,4a.99974.99974,0,0,0,1-1V1a1,1,0,0,0-2,0V3A.99974.99974,0,0,0,59,4Z"/><path d="M59,6a.99974.99974,0,0,0-1,1V9a1,1,0,0,0,2,0V7A.99974.99974,0,0,0,59,6Z"/><path d="M63,4H61a1,1,0,0,0,0,2h2a1,1,0,0,0,0-2Z"/><path d="M55,6h2a1,1,0,0,0,0-2H55a1,1,0,0,0,0,2Z"/><path d="M5,58a.99974.99974,0,0,0,1-1V55a1,1,0,0,0-2,0v2A.99974.99974,0,0,0,5,58Z"/><path d="M5,60a.99974.99974,0,0,0-1,1v2a1,1,0,0,0,2,0V61A.99974.99974,0,0,0,5,60Z"/><path d="M9,58H7a1,1,0,0,0,0,2H9a1,1,0,0,0,0-2Z"/><path d="M3,58H1a1,1,0,0,0,0,2H3a1,1,0,0,0,0-2Z"/></svg>
